<svg xmlns="http://www.w3.org/2000/svg" width="1371.590576171875" height="1401.53173828125" viewBox="-702.698974609375 -658.1281127929688 1371.590576171875 1401.53173828125"><title>Neo4j Graph Visualization</title><desc>Created using Neo4j (http://www.neo4j.com/)</desc><g class="layer relationships"><g class="relationship" transform="translate(136.20136481072723 714.4035734334396) rotate(265.3509594464583)"><path class="b-outline" fill="#A5ABB6" stroke="none" d="M 25 0.5 L 47.64547957507382 0.5 L 47.64547957507382 -0.5 L 25 -0.5 Z M 108.64547957507382 0.5 L 131.29095915014764 0.5 L 131.29095915014764 3.5 L 138.29095915014764 0 L 131.29095915014764 -3.5 L 131.29095915014764 -0.5 L 108.64547957507382 -0.5 Z"/><text text-anchor="middle" pointer-events="none" font-size="8px" fill="#000000" x="78.14547957507382" y="3" transform="rotate(180 78.14547957507382 0)" font-family="Helvetica Neue, Helvetica, Arial, sans-serif">RESOLVES_TO</text></g><g class="relationship" transform="translate(122.96629668950393 551.6498628397891) rotate(272.52865722385786)"><path class="b-outline" fill="#A5ABB6" stroke="none" d="M 25 0.5 L 80.38831067922527 0.5 L 80.38831067922527 -0.5 L 25 -0.5 Z M 121.38831067922527 0.5 L 176.77662135845054 0.5 L 176.77662135845054 3.5 L 183.77662135845054 0 L 176.77662135845054 -3.5 L 176.77662135845054 -0.5 L 121.38831067922527 -0.5 Z"/><text text-anchor="middle" pointer-events="none" font-size="8px" fill="#000000" x="100.88831067922527" y="3" font-family="Helvetica Neue, Helvetica, Arial, sans-serif">PART_OF</text></g><g class="relationship" transform="translate(-34.94423487196649 -9.143271877653834) rotate(424.61655478302293)"><path class="b-outline" fill="#A5ABB6" stroke="none" d="M 25 0.5 L 167.42845242611762 0.5 L 167.42845242611762 -0.5 L 25 -0.5 Z M 215.42845242611762 0.5 L 357.85690485223523 0.5 L 357.85690485223523 3.5 L 364.85690485223523 0 L 357.85690485223523 -3.5 L 357.85690485223523 -0.5 L 215.42845242611762 -0.5 Z"/><text text-anchor="middle" pointer-events="none" font-size="8px" fill="#000000" x="191.42845242611762" y="3" font-family="Helvetica Neue, Helvetica, Arial, sans-serif">ORIGINATE</text></g><g class="relationship" transform="translate(-34.94423487196649 -9.143271877653834) rotate(388.79370095380136)"><path class="b-outline" fill="#A5ABB6" stroke="none" d="M 24.018736134675446,6.953439040707552 L 24.277555179777966,5.987513214418485 A 334.039628583045 334.039628583045 0 0 0 84.16629810481695,16.3114859273565 L 84.08676540121553,17.308318184588302 A 335.039628583045 335.039628583045 0 0 1 24.018736134675446,6.953439040707552 Z M 132.11579154971224,17.686622314809597 L 132.05197098387617,16.688660925087333 A 334.039628583045 334.039628583045 0 0 0 192.09590828650164,7.309346722158833 L 191.36519376838663,4.399697895751093 L 199.0068746344722,6.089287650958426 L 193.07019431065498,11.188878490702487 L 192.33947979253998,8.279229664294746 A 335.039628583045 335.039628583045 0 0 1 132.11579154971224,17.686622314809597"/><text text-anchor="middle" pointer-events="none" font-size="8px" fill="#000000" x="108.09842880782332" y="20.85926054139577" font-family="Helvetica Neue, Helvetica, Arial, sans-serif">ORIGINATE</text></g><g class="relationship" transform="translate(-34.94423487196649 -9.143271877653834) rotate(356.5051781945258)"><path class="b-outline" fill="#A5ABB6" stroke="none" d="M 24.018736134675446,6.953439040707552 L 24.277555179777966,5.987513214418485 A 322.26662505412 322.26662505412 0 0 0 81.14676054552271,15.873821523412346 L 81.06440782036937,16.870424768771215 A 323.26662505412 323.26662505412 0 0 1 24.018736134675446,6.953439040707552 Z M 129.09290548541074,17.258934113367445 L 129.0266858126031,16.261129044762754 A 322.26662505412 322.26662505412 0 0 0 186.0483823223366,7.296100429997686 L 185.31890479454904,4.386141231580471 L 192.95986670660804,6.078979398229599 L 187.02101902605335,11.176046027887306 L 186.2915414982658,8.26608682947009 A 323.26662505412 323.26662505412 0 0 1 129.09290548541074,17.258934113367445"/><text text-anchor="middle" pointer-events="none" font-size="8px" fill="#000000" x="105.07547565223337" y="20.4579227046803" font-family="Helvetica Neue, Helvetica, Arial, sans-serif">ORIGINATE</text></g><g class="relationship" transform="translate(-34.94423487196649 -9.143271877653834) rotate(318.26030985020736)"><path class="b-outline" fill="#A5ABB6" stroke="none" d="M 24.018736134675446,6.953439040707552 L 24.277555179777966,5.987513214418485 A 699.6207192667786 699.6207192667786 0 0 0 178.34739251459746,29.305114585397064 L 178.30879255834108,30.30436932938221 A 700.6207192667786 700.6207192667786 0 0 1 24.018736134675446,6.953439040707552 Z M 226.33321520782403,30.51230415856412 L 226.30326962820226,29.51275262799595 A 699.6207192667786 699.6207192667786 0 0 0 380.5692464357631,7.530175215812077 L 379.81791137691124,4.625782744168458 L 387.47138471274013,6.261125490431773 L 381.5710265142322,11.402698511336904 L 380.81969145538034,8.498306039693285 A 700.6207192667786 700.6207192667786 0 0 1 226.33321520782403,30.51230415856412"/><text text-anchor="middle" pointer-events="none" font-size="8px" fill="#000000" x="202.3213865833456" y="33.3199486694333" font-family="Helvetica Neue, Helvetica, Arial, sans-serif">ORIGINATE</text></g><g class="relationship" transform="translate(-34.94423487196649 -9.143271877653834) rotate(287.7566719270668)"><path class="b-outline" fill="#A5ABB6" stroke="none" d="M 24.018736134675446,6.953439040707552 L 24.277555179777966,5.987513214418485 A 279.57667839959225 279.57667839959225 0 0 0 70.21319997039518,14.262321297560334 L 70.118685205083,15.257844757423527 A 280.57667839959225 280.57667839959225 0 0 1 24.018736134675446,6.953439040707552 Z M 118.14361934832924,15.688410980040373 L 118.06696901746459,14.691352944227845 A 279.57667839959225 279.57667839959225 0 0 0 164.1435930172406,7.241478319387557 L 163.41921640663512,4.330245156961761 L 171.05719983133503,6.036471755045721 L 165.1094284980479,11.123122535955286 L 164.38505188744242,8.21188937352949 A 280.57667839959225 280.57667839959225 0 0 1 118.14361934832924,15.688410980040373"/><text text-anchor="middle" pointer-events="none" font-size="8px" fill="#000000" x="94.12640529135028" y="19.002601959168317" font-family="Helvetica Neue, Helvetica, Arial, sans-serif">ORIGINATE</text></g><g class="relationship" transform="translate(-34.94423487196649 -9.143271877653834) rotate(259.976074109744)"><path class="b-outline" fill="#A5ABB6" stroke="none" d="M 24.018736134675446,-6.953439040707552 L 24.277555179777966,-5.987513214418485 A 328.33012096976984 328.33012096976984 0 0 1 82.70172211576158,-16.099545941216945 L 82.62084643681573,-17.096270138051295 A 329.33012096976984 329.33012096976984 0 0 0 24.018736134675446,-6.953439040707552 Z M 130.64963479704107,-17.479456321283067 L 130.5846726515608,-16.481568592300164 A 328.33012096976984 328.33012096976984 0 0 1 189.16274494792822,-7.30301020478238 L 188.43262215738733,-4.39321283885932 L 196.07395926683884,-6.0843565878408015 L 190.13624200198277,-11.182740026013127 L 189.40611921144188,-8.272942660090067 A 329.33012096976984 329.33012096976984 0 0 0 130.64963479704107,-17.479456321283067"/><text text-anchor="middle" pointer-events="none" font-size="8px" fill="#000000" x="106.63223470670818" y="-14.664625837805772" transform="rotate(180 106.63223470670818 -17.664625837805772)" font-family="Helvetica Neue, Helvetica, Arial, sans-serif">ORIGINATE</text></g><g class="relationship" transform="translate(-34.94423487196649 -9.143271877653834) rotate(236.24504021934234)"><path class="b-outline" fill="#A5ABB6" stroke="none" d="M 24.018736134675446,6.953439040707552 L 24.277555179777966,5.987513214418485 A 420.8479626154922 420.8479626154922 0 0 0 106.471446138531,19.47785593956405 L 106.40793252023376,20.475836911472186 A 421.8479626154922 421.8479626154922 0 0 1 24.018736134675446,6.953439040707552 Z M 154.4378654519252,20.792663780013072 L 154.3875230434352,19.793931762949683 A 420.8479626154922 420.8479626154922 0 0 0 236.75223018704148,7.389090976822004 L 236.01406902394902,4.481322399836897 L 243.66005039385547,6.151343025770462 L 237.73644507116475,11.26611574613548 L 236.9982839080723,8.358347169150374 A 421.8479626154922 421.8479626154922 0 0 1 154.4378654519252,20.792663780013072"/><text text-anchor="middle" pointer-events="none" font-size="8px" fill="#000000" x="130.42168429884174" y="23.818393019091218" transform="rotate(180 130.42168429884174 20.818393019091218)" font-family="Helvetica Neue, Helvetica, Arial, sans-serif">ORIGINATE</text></g><g class="relationship" transform="translate(-34.94423487196649 -9.143271877653834) rotate(218.80996045354152)"><path class="b-outline" fill="#A5ABB6" stroke="none" d="M 24.018736134675446,-6.953439040707552 L 24.277555179777966,-5.987513214418485 A 256.0274831423874 256.0274831423874 0 0 1 64.19488968251294,-13.35213869194044 L 64.09198098739631,-14.346829498407146 A 257.0274831423874 257.0274831423874 0 0 0 24.018736134675446,-6.953439040707552 Z M 112.11322622271686,-14.804676788661425 L 112.02930180314779,-13.808204665719671 A 256.0274831423874 256.0274831423874 0 0 1 152.07979963857505,-7.206013714085693 L 151.35873498961712,-4.293958465292638 L 158.99477266058517,-6.008872074649366 L 153.04121917051896,-11.088754045809766 L 152.32015452156102,-8.176698797016712 A 257.0274831423874 257.0274831423874 0 0 0 112.11322622271686,-14.804676788661425"/><text text-anchor="middle" pointer-events="none" font-size="8px" fill="#000000" x="88.09665397237235" y="-12.199779486533316" transform="rotate(180 88.09665397237235 -15.199779486533316)" font-family="Helvetica Neue, Helvetica, Arial, sans-serif">ORIGINATE</text></g><g class="relationship" transform="translate(-34.94423487196649 -9.143271877653834) rotate(195.24433722325386)"><path class="b-outline" fill="#A5ABB6" stroke="none" d="M 24.018736134675446,6.953439040707552 L 24.277555179777966,5.987513214418485 A 428.53424637193916 428.53424637193916 0 0 0 108.44911945483301,19.754299866324914 L 108.38671776724081,20.752350981942527 A 429.53424637193916 429.53424637193916 0 0 1 24.018736134675446,6.953439040707552 Z M 156.4165827203587,21.064677589231792 L 156.3671659316389,20.065899345079117 A 428.53424637193916 428.53424637193916 0 0 0 240.71064857669154,7.394925328355206 L 239.9719426049946,4.487295109881874 L 247.61823674841213,6.155883097474565 L 241.69558987228746,11.271765619652982 L 240.95688390059053,8.36413540117965 A 429.53424637193916 429.53424637193916 0 0 1 156.4165827203587,21.064677589231792"/><text text-anchor="middle" pointer-events="none" font-size="8px" fill="#000000" x="132.4005325592728" y="24.080392811580623" transform="rotate(180 132.4005325592728 21.080392811580623)" font-family="Helvetica Neue, Helvetica, Arial, sans-serif">ORIGINATE</text></g><g class="relationship" transform="translate(-34.94423487196649 -9.143271877653834) rotate(537.808501376573)"><path class="b-outline" fill="#A5ABB6" stroke="none" d="M 24.018736134675446,-6.953439040707552 L 24.277555179777966,-5.987513214418485 A 270.7049896656649 270.7049896656649 0 0 1 67.9446659157641,-13.921524497597545 L 67.8471557212665,-14.916759023711393 A 271.7049896656649 271.7049896656649 0 0 0 24.018736134675446,-6.953439040707552 Z M 115.87088947328945,-15.357218040741202 L 115.7916501211147,-14.3603624217738 A 270.7049896656649 270.7049896656649 0 0 1 159.59693933654916,-7.228621272332846 L 158.87376341015477,-4.317089617089573 L 166.51104251984918,-6.026466053286505 L 160.561173905075,-11.110663479323875 L 159.83799797868062,-8.199131824080602 A 271.7049896656649 271.7049896656649 0 0 0 115.87088947328945,-15.357218040741202"/><text text-anchor="middle" pointer-events="none" font-size="8px" fill="#000000" x="91.8538573982285" y="-12.70015589703877" transform="rotate(180 91.8538573982285 -15.70015589703877)" font-family="Helvetica Neue, Helvetica, Arial, sans-serif">ORIGINATE</text></g><g class="relationship" transform="translate(-34.94423487196649 -9.143271877653834) rotate(506.87715015440114)"><path class="b-outline" fill="#A5ABB6" stroke="none" d="M 24.018736134675446,-6.953439040707552 L 24.277555179777966,-5.987513214418485 A 252.0146940952767 252.0146940952767 0 0 1 63.170499594660406,-13.19513593704491 L 63.06600863171399,-14.189661773140926 A 253.0146940952767 253.0146940952767 0 0 0 24.018736134675446,-6.953439040707552 Z M 111.08644489867251,-14.65250064167094 L 111.0011427887752,-13.65614550917698 A 252.0146940952767 252.0146940952767 0 0 1 150.0257883075298,-7.199521568881232 L 149.30532995250238,-4.2873162604128945 L 156.94101041979386,-6.003819625228605 L 150.9863994475664,-11.082461980172347 L 150.26594109253898,-8.17025667170401 A 253.0146940952767 253.0146940952767 0 0 0 111.08644489867251,-14.65250064167094"/><text text-anchor="middle" pointer-events="none" font-size="8px" fill="#000000" x="87.0700399302538" y="-12.062977411689161" transform="rotate(180 87.0700399302538 -15.062977411689161)" font-family="Helvetica Neue, Helvetica, Arial, sans-serif">ORIGINATE</text></g><g class="relationship" transform="translate(-34.94423487196649 -9.143271877653834) rotate(494.35172828596956)"><path class="b-outline" fill="#A5ABB6" stroke="none" d="M 24.018736134675446,-6.953439040707552 L 24.277555179777966,-5.987513214418485 A 517.78688963747 517.78688963747 0 0 1 131.43589150988558,-22.93379966486691 L 131.3840269830891,-23.932453794613707 A 518.78688963747 518.78688963747 0 0 0 24.018736134675446,-6.953439040707552 Z M 179.41241631107766,-24.20052256769725 L 179.3717025744536,-23.201351715615374 A 517.78688963747 517.78688963747 0 0 1 286.7125268742819,-7.452284818478246 L 285.968464794368,-4.546020614859751 L 293.6178203627107,-6.200517332615633 L 287.7046096475004,-11.327303756636239 L 286.9605475675865,-8.421039553017744 A 518.78688963747 518.78688963747 0 0 0 179.41241631107766,-24.20052256769725"/><text text-anchor="middle" pointer-events="none" font-size="8px" fill="#000000" x="155.3979084564971" y="-21.122600794492996" transform="rotate(180 155.3979084564971 -24.122600794492996)" font-family="Helvetica Neue, Helvetica, Arial, sans-serif">ORIGINATE</text></g><g class="relationship" transform="translate(-34.94423487196649 -9.143271877653834) rotate(458.0867721767037)"><path class="b-outline" fill="#A5ABB6" stroke="none" d="M 24.018736134675446,6.953439040707552 L 24.277555179777966,5.987513214418485 A 308.89095917250484 308.89095917250484 0 0 0 77.71824415931582,15.373358388346787 L 77.63243337940402,16.36966984068033 A 309.89095917250484 309.89095917250484 0 0 1 24.018736134675446,6.953439040707552 Z M 125.66013060172347,16.77045517301849 L 125.59095881179661,15.772850409859075 A 308.89095917250484 308.89095917250484 0 0 0 179.18084199103515,7.2801624330046115 L 178.4528528269797,4.369830531482412 L 186.09294795526287,6.066576367128887 L 180.1514942097758,11.160604968367544 L 179.42350504572033,8.250273066845345 A 309.89095917250484 309.89095917250484 0 0 1 125.66013060172347,16.77045517301849"/><text text-anchor="middle" pointer-events="none" font-size="8px" fill="#000000" x="101.64267797959222" y="20.001945447067214" transform="rotate(180 101.64267797959222 17.001945447067214)" font-family="Helvetica Neue, Helvetica, Arial, sans-serif">ORIGINATE</text></g><g class="relationship" transform="translate(-34.94423487196649 -9.143271877653834) rotate(318.26030985020736)"><path class="b-outline" fill="#A5ABB6" stroke="none" d="M 24.018736134675446,-6.953439040707552 L 24.277555179777966,-5.987513214418485 A 699.6207192667786 699.6207192667786 0 0 1 135.48803228183652,-26.329398710233022 L 135.38817147516153,-27.324400126960768 A 700.6207192667786 700.6207192667786 0 0 0 24.018736134675446,-6.953439040707552 Z M 269.27803175557693,-27.904112775039493 L 269.18679079121017,-26.908283931100186 A 699.6207192667786 699.6207192667786 0 0 1 380.5692464357631,-7.530175215812077 L 379.81791137691124,-4.625782744168458 L 387.47138471274013,-6.261125490431773 L 381.5710265142322,-11.402698511336904 L 380.81969145538034,-8.498306039693285 A 700.6207192667786 700.6207192667786 0 0 0 269.27803175557693,-27.904112775039493"/><text text-anchor="middle" pointer-events="none" font-size="8px" fill="#000000" x="202.32138658334554" y="-27.319948669433302" font-family="Helvetica Neue, Helvetica, Arial, sans-serif">ROUTE_ORIGIN_AUTHORIZATION</text></g><g class="relationship" transform="translate(-34.94423487196649 -9.143271877653834) rotate(236.24504021934234)"><path class="b-outline" fill="#A5ABB6" stroke="none" d="M 24.018736134675446,-6.953439040707552 L 24.277555179777966,-5.987513214418485 A 420.8479626154922 420.8479626154922 0 0 1 63.822622494316775,-14.56952139370128 L 63.657768659521494,-15.555839401827086 A 421.8479626154922 421.8479626154922 0 0 0 24.018736134675446,-6.953439040707552 Z M 197.2492152634723,-16.437068192039533 L 197.09738759582373,-15.448661211420529 A 420.8479626154922 420.8479626154922 0 0 1 236.75223018704148,-7.389090976822004 L 236.01406902394902,-4.481322399836897 L 243.66005039385547,-6.151343025770462 L 237.73644507116475,-11.26611574613548 L 236.9982839080723,-8.358347169150374 A 421.8479626154922 421.8479626154922 0 0 0 197.2492152634723,-16.437068192039533"/><text text-anchor="middle" pointer-events="none" font-size="8px" fill="#000000" x="130.42168429884154" y="-17.818393019091218" transform="rotate(180 130.42168429884154 -20.818393019091218)" font-family="Helvetica Neue, Helvetica, Arial, sans-serif">ROUTE_ORIGIN_AUTHORIZATION</text></g><g class="relationship" transform="translate(-34.94423487196649 -9.143271877653834) rotate(356.5051781945258)"><path class="b-outline" fill="#A5ABB6" stroke="none" d="M 24.018736134675446,-6.953439040707552 L 24.277555179777966,-5.987513214418485 A 322.26662505412 322.26662505412 0 0 1 38.72083188505613,-9.5026552064312 L 38.50683062616666,-10.479488590992617 A 323.26662505412 323.26662505412 0 0 0 24.018736134675446,-6.953439040707552 Z M 171.74830121749815,-11.5572977861396 L 171.55013041696446,-10.57713028320154 A 322.26662505412 322.26662505412 0 0 1 186.0483823223366,-7.296100429997686 L 185.31890479454904,-4.386141231580471 L 192.95986670660804,-6.078979398229599 L 187.02101902605335,-11.176046027887306 L 186.2915414982658,-8.26608682947009 A 323.26662505412 323.26662505412 0 0 0 171.74830121749815,-11.5572977861396"/><text text-anchor="middle" pointer-events="none" font-size="8px" fill="#000000" x="105.07547565223328" y="-14.4579227046803" font-family="Helvetica Neue, Helvetica, Arial, sans-serif">ROUTE_ORIGIN_AUTHORIZATION</text></g><g class="relationship" transform="translate(-34.94423487196649 -9.143271877653834) rotate(494.35172828596956)"><path class="b-outline" fill="#A5ABB6" stroke="none" d="M 24.018736134675446,6.953439040707552 L 24.277555179777966,5.987513214418485 A 517.78688963747 517.78688963747 0 0 0 88.67676202644539,18.92971033072149 L 88.54231694317059,19.920631376811002 A 518.78688963747 518.78688963747 0 0 1 24.018736134675446,6.953439040707552 Z M 222.29623945744154,20.66717421127214 L 222.17286398821983,19.674814148797623 A 517.78688963747 517.78688963747 0 0 0 286.7125268742819,7.452284818478246 L 285.968464794368,4.546020614859751 L 293.6178203627107,6.200517332615633 L 287.7046096475004,11.327303756636239 L 286.9605475675865,8.421039553017744 A 518.78688963747 518.78688963747 0 0 1 222.29623945744154,20.66717421127214"/><text text-anchor="middle" pointer-events="none" font-size="8px" fill="#000000" x="155.39790845649728" y="27.122600794492996" transform="rotate(180 155.39790845649728 24.122600794492996)" font-family="Helvetica Neue, Helvetica, Arial, sans-serif">ROUTE_ORIGIN_AUTHORIZATION</text></g><g class="relationship" transform="translate(-34.94423487196649 -9.143271877653834) rotate(537.808501376573)"><path class="b-outline" fill="#A5ABB6" stroke="none" d="M 24.018736134675446,6.953439040707552 L 24.277555179777966,5.987513214418485 A 270.7049896656649 270.7049896656649 0 0 0 25.73831693267826,6.374556427895641 L 25.484894026578218,7.341912014360048 A 271.7049896656649 271.7049896656649 0 0 1 24.018736134675446,6.953439040707552 Z M 158.36496142084988,8.560647404022802 L 158.12932423439224,7.588806307773893 A 270.7049896656649 270.7049896656649 0 0 0 159.59693933654916,7.228621272332846 L 158.87376341015477,4.317089617089573 L 166.51104251984918,6.026466053286505 L 160.561173905075,11.110663479323875 L 159.83799797868062,8.199131824080602 A 271.7049896656649 271.7049896656649 0 0 1 158.36496142084988,8.560647404022802"/><text text-anchor="middle" pointer-events="none" font-size="8px" fill="#000000" x="91.85385739822856" y="18.70015589703877" transform="rotate(180 91.85385739822856 15.70015589703877)" font-family="Helvetica Neue, Helvetica, Arial, sans-serif">ROUTE_ORIGIN_AUTHORIZATION</text></g><g class="relationship" transform="translate(-34.94423487196649 -9.143271877653834) rotate(388.79370095380136)"><path class="b-outline" fill="#A5ABB6" stroke="none" d="M 24.018736134675446,-6.953439040707552 L 24.277555179777966,-5.987513214418485 A 334.039628583045 334.039628583045 0 0 1 41.70348617580434,-10.15924297585292 L 41.49683438723346,-11.137657529240414 A 335.039628583045 335.039628583045 0 0 0 24.018736134675446,-6.953439040707552 Z M 174.79763958636204,-12.1876110513615 L 174.60642558883802,-11.206062679068566 A 334.039628583045 334.039628583045 0 0 1 192.09590828650164,-7.309346722158833 L 191.36519376838663,-4.399697895751093 L 199.0068746344722,-6.089287650958426 L 193.07019431065498,-11.188878490702487 L 192.33947979253998,-8.279229664294746 A 335.039628583045 335.039628583045 0 0 0 174.79763958636204,-12.1876110513615"/><text text-anchor="middle" pointer-events="none" font-size="8px" fill="#000000" x="108.09842880782323" y="-14.85926054139577" font-family="Helvetica Neue, Helvetica, Arial, sans-serif">ROUTE_ORIGIN_AUTHORIZATION</text></g><g class="relationship" transform="translate(-34.94423487196649 -9.143271877653834) rotate(218.80996045354152)"><path class="b-outline" fill="#A5ABB6" stroke="none" d="M 24.018736134675446,6.953439040707552 L 24.277555179777966,5.987513214418485 A 256.0274831423874 256.0274831423874 0 0 0 24.965183687216836,6.1707388654405975 L 24.709050402638923,7.13738034009981 A 257.0274831423874 257.0274831423874 0 0 1 24.018736134675446,6.953439040707552 Z M 151.62645857290883,8.347444575879194 L 151.38880260733112,7.37609518352582 A 256.0274831423874 256.0274831423874 0 0 0 152.07979963857505,7.206013714085693 L 151.35873498961712,4.293958465292638 L 158.99477266058517,6.008872074649366 L 153.04121917051896,11.088754045809766 L 152.32015452156102,8.176698797016712 A 257.0274831423874 257.0274831423874 0 0 1 151.62645857290883,8.347444575879194"/><text text-anchor="middle" pointer-events="none" font-size="8px" fill="#000000" x="88.09665397237244" y="18.199779486533316" transform="rotate(180 88.09665397237244 15.199779486533316)" font-family="Helvetica Neue, Helvetica, Arial, sans-serif">ROUTE_ORIGIN_AUTHORIZAT…</text></g><g class="relationship" transform="translate(-34.94423487196649 -9.143271877653834) rotate(287.7566719270668)"><path class="b-outline" fill="#A5ABB6" stroke="none" d="M 24.018736134675446,-6.953439040707552 L 24.277555179777966,-5.987513214418485 A 279.57667839959225 279.57667839959225 0 0 1 27.960599390232318,-6.94756007606702 L 27.714953991199053,-7.91691983277957 A 280.57667839959225 280.57667839959225 0 0 0 24.018736134675446,-6.953439040707552 Z M 160.67215345249167,-9.108943937820811 L 160.44392767941014,-8.135335702183227 A 279.57667839959225 279.57667839959225 0 0 1 164.1435930172406,-7.241478319387557 L 163.41921640663512,-4.330245156961761 L 171.05719983133503,-6.036471755045721 L 165.1094284980479,-11.123122535955286 L 164.38505188744242,-8.21188937352949 A 280.57667839959225 280.57667839959225 0 0 0 160.67215345249167,-9.108943937820811"/><text text-anchor="middle" pointer-events="none" font-size="8px" fill="#000000" x="94.12640529135021" y="-13.002601959168317" font-family="Helvetica Neue, Helvetica, Arial, sans-serif">ROUTE_ORIGIN_AUTHORIZATION</text></g><g class="relationship" transform="translate(-34.94423487196649 -9.143271877653834) rotate(259.976074109744)"><path class="b-outline" fill="#A5ABB6" stroke="none" d="M 24.018736134675446,6.953439040707552 L 24.277555179777966,5.987513214418485 A 328.33012096976984 328.33012096976984 0 0 0 40.25632013190588,9.843041001359438 L 40.04616785214591,10.820709666762866 A 329.33012096976984 329.33012096976984 0 0 1 24.018736134675446,6.953439040707552 Z M 173.31902348375934,11.883995221560781 L 173.1244971533783,10.903097924802069 A 328.33012096976984 328.33012096976984 0 0 0 189.16274494792822,7.30301020478238 L 188.43262215738733,4.39321283885932 L 196.07395926683884,6.0843565878408015 L 190.13624200198277,11.182740026013127 L 189.40611921144188,8.272942660090067 A 329.33012096976984 329.33012096976984 0 0 1 173.31902348375934,11.883995221560781"/><text text-anchor="middle" pointer-events="none" font-size="8px" fill="#000000" x="106.6322347067082" y="20.664625837805772" transform="rotate(180 106.6322347067082 17.664625837805772)" font-family="Helvetica Neue, Helvetica, Arial, sans-serif">ROUTE_ORIGIN_AUTHORIZATION</text></g><g class="relationship" transform="translate(-34.94423487196649 -9.143271877653834) rotate(506.87715015440114)"><path class="b-outline" fill="#A5ABB6" stroke="none" d="M 24.018736134675446,6.953439040707552 L 24.277555179777966,5.987513214418485 A 252.0146940952767 252.0146940952767 0 0 0 25.89315668246961,6.414676258036138 L 25.64074838063145,7.382297076933298 A 253.0146940952767 253.0146940952767 0 0 1 24.018736134675446,6.953439040707552 Z M 148.63596396334873,8.567770821870425 L 148.4022534015275,7.595464608122313 A 252.0146940952767 252.0146940952767 0 0 0 150.0257883075298,7.199521568881232 L 149.30532995250238,4.2873162604128945 L 156.94101041979386,6.003819625228605 L 150.9863994475664,11.082461980172347 L 150.26594109253898,8.17025667170401 A 253.0146940952767 253.0146940952767 0 0 1 148.63596396334873,8.567770821870425"/><text text-anchor="middle" pointer-events="none" font-size="8px" fill="#000000" x="87.07003993025393" y="18.06297741168916" transform="rotate(180 87.07003993025393 15.062977411689161)" font-family="Helvetica Neue, Helvetica, Arial, sans-serif">ROUTE_ORIGIN_AUTHORIZA…</text></g><g class="relationship" transform="translate(-34.94423487196649 -9.143271877653834) rotate(458.0867721767037)"><path class="b-outline" fill="#A5ABB6" stroke="none" d="M 24.018736134675446,-6.953439040707552 L 24.277555179777966,-5.987513214418485 A 308.89095917250484 308.89095917250484 0 0 1 35.33924052875582,-8.73379211953818 L 35.11623245519682,-9.708608717225957 A 309.89095917250484 309.89095917250484 0 0 0 24.018736134675446,-6.953439040707552 Z M 168.2815742960451,-10.81985741063204 L 168.0748656002074,-9.841454878406637 A 308.89095917250484 308.89095917250484 0 0 1 179.18084199103515,-7.2801624330046115 L 178.4528528269797,-4.369830531482412 L 186.09294795526287,-6.066576367128887 L 180.1514942097758,-11.160604968367544 L 179.42350504572033,-8.250273066845345 A 309.89095917250484 309.89095917250484 0 0 0 168.2815742960451,-10.81985741063204"/><text text-anchor="middle" pointer-events="none" font-size="8px" fill="#000000" x="101.6426779795922" y="-14.001945447067214" transform="rotate(180 101.6426779795922 -17.001945447067214)" font-family="Helvetica Neue, Helvetica, Arial, sans-serif">ROUTE_ORIGIN_AUTHORIZATION</text></g><g class="relationship" transform="translate(-34.94423487196649 -9.143271877653834) rotate(195.24433722325386)"><path class="b-outline" fill="#A5ABB6" stroke="none" d="M 24.018736134675446,-6.953439040707552 L 24.277555179777966,-5.987513214418485 A 428.53424637193916 428.53424637193916 0 0 1 65.78886250404608,-14.932303042846172 L 65.62691158016307,-15.919101856309908 A 429.53424637193916 429.53424637193916 0 0 0 24.018736134675446,-6.953439040707552 Z M 199.23562903409322,-16.787927064696134 L 199.0865250919616,-15.799105536592663 A 428.53424637193916 428.53424637193916 0 0 1 240.71064857669154,-7.394925328355206 L 239.9719426049946,-4.487295109881874 L 247.61823674841213,-6.155883097474565 L 241.69558987228746,-11.271765619652982 L 240.95688390059053,-8.36413540117965 A 429.53424637193916 429.53424637193916 0 0 0 199.23562903409322,-16.787927064696134"/><text text-anchor="middle" pointer-events="none" font-size="8px" fill="#000000" x="132.40053255927268" y="-18.080392811580623" transform="rotate(180 132.40053255927268 -21.080392811580623)" font-family="Helvetica Neue, Helvetica, Arial, sans-serif">ROUTE_ORIGIN_AUTHORIZATION</text></g><g class="relationship" transform="translate(-34.94423487196649 -9.143271877653834) rotate(247.38274402236658)"><path class="b-outline" fill="#A5ABB6" stroke="none" d="M 6.953439040707552 24.018736134675446 L 17.306200844808384 62.65576918623819 A 17.916697508022974 17.916697508022974 0 1 1 -17.306200844808384 62.65576918623819 L -8.765172356425198 30.780216918698923 L -4.901469051268926 31.815493099109005 L -6.4704761275630185 24.148145657226706 L -11.662949835292403 30.00375978339136 L -7.79924653013613 31.039035963801442 L -16.340275018519314 62.91458823134071 A 16.916697508022974 16.916697508022974 0 1 0 16.340275018519314 62.91458823134071 L 5.987513214418485 24.277555179777966 Z"/><text text-anchor="middle" pointer-events="none" font-size="8px" fill="#000000" x="0" y="94.20964923467838" transform="rotate(180 0 91.20964923467838)" font-family="Helvetica Neue, Helvetica, Arial, sans-serif"/></g><g class="relationship" transform="translate(0.9140989141545681 654.5706046041723) rotate(284.13862736993696)"><path class="b-outline" fill="#A5ABB6" stroke="none" d="M 25 0.5 L 47.89786117973824 0.5 L 47.89786117973824 -0.5 L 25 -0.5 Z M 108.89786117973824 0.5 L 131.79572235947649 0.5 L 131.79572235947649 3.5 L 138.79572235947649 0 L 131.79572235947649 -3.5 L 131.79572235947649 -0.5 L 108.89786117973824 -0.5 Z"/><text text-anchor="middle" pointer-events="none" font-size="8px" fill="#000000" x="78.39786117973824" y="3" font-family="Helvetica Neue, Helvetica, Arial, sans-serif">RESOLVES_TO</text></g><g class="relationship" transform="translate(40.92428667578565 495.7366550261878) rotate(300.86899640625575)"><path class="b-outline" fill="#A5ABB6" stroke="none" d="M 25 0.5 L 64.92726051404905 0.5 L 64.92726051404905 -0.5 L 25 -0.5 Z M 105.92726051404905 0.5 L 145.8545210280981 0.5 L 145.8545210280981 3.5 L 152.8545210280981 0 L 145.8545210280981 -3.5 L 145.8545210280981 -0.5 L 105.92726051404905 -0.5 Z"/><text text-anchor="middle" pointer-events="none" font-size="8px" fill="#000000" x="85.42726051404905" y="3" font-family="Helvetica Neue, Helvetica, Arial, sans-serif">PART_OF</text></g><g class="relationship" transform="translate(444.3853958162277 441.4863505796801) rotate(208.0620111961536)"><path class="b-outline" fill="#A5ABB6" stroke="none" d="M 25 0.5 L 45.629586346092125 0.5 L 45.629586346092125 -0.5 L 25 -0.5 Z M 106.62958634609213 0.5 L 127.25917269218425 0.5 L 127.25917269218425 3.5 L 134.25917269218425 0 L 127.25917269218425 -3.5 L 127.25917269218425 -0.5 L 106.62958634609213 -0.5 Z"/><text text-anchor="middle" pointer-events="none" font-size="8px" fill="#000000" x="76.12958634609213" y="3" transform="rotate(180 76.12958634609213 0)" font-family="Helvetica Neue, Helvetica, Arial, sans-serif">RESOLVES_TO</text></g><g class="relationship" transform="translate(303.8488959854402 366.56655144814187) rotate(187.79146248966725)"><path class="b-outline" fill="#A5ABB6" stroke="none" d="M 25 0.5 L 62.635599933900636 0.5 L 62.635599933900636 -0.5 L 25 -0.5 Z M 103.63559993390064 0.5 L 141.27119986780127 0.5 L 141.27119986780127 3.5 L 148.27119986780127 0 L 141.27119986780127 -3.5 L 141.27119986780127 -0.5 L 103.63559993390064 -0.5 Z"/><text text-anchor="middle" pointer-events="none" font-size="8px" fill="#000000" x="83.13559993390064" y="3" transform="rotate(180 83.13559993390064 0)" font-family="Helvetica Neue, Helvetica, Arial, sans-serif">PART_OF</text></g><g class="relationship" transform="translate(287.9438021172236 658.6888927367288) rotate(243.12417543658364)"><path class="b-outline" fill="#A5ABB6" stroke="none" d="M 25 0.5 L 47.27527160976109 0.5 L 47.27527160976109 -0.5 L 25 -0.5 Z M 108.27527160976109 0.5 L 130.55054321952218 0.5 L 130.55054321952218 3.5 L 137.55054321952218 0 L 130.55054321952218 -3.5 L 130.55054321952218 -0.5 L 108.27527160976109 -0.5 Z"/><text text-anchor="middle" pointer-events="none" font-size="8px" fill="#000000" x="77.77527160976109" y="3" transform="rotate(180 77.77527160976109 0)" font-family="Helvetica Neue, Helvetica, Arial, sans-serif">RESOLVES_TO</text></g><g class="relationship" transform="translate(214.4614663713701 513.695701743857) rotate(244.25348137664417)"><path class="b-outline" fill="#A5ABB6" stroke="none" d="M 25 0.5 L 70.7121703935877 0.5 L 70.7121703935877 -0.5 L 25 -0.5 Z M 111.7121703935877 0.5 L 157.4243407871754 0.5 L 157.4243407871754 3.5 L 164.4243407871754 0 L 157.4243407871754 -3.5 L 157.4243407871754 -0.5 L 111.7121703935877 -0.5 Z"/><text text-anchor="middle" pointer-events="none" font-size="8px" fill="#000000" x="91.2121703935877" y="3" transform="rotate(180 91.2121703935877 0)" font-family="Helvetica Neue, Helvetica, Arial, sans-serif">PART_OF</text></g><g class="relationship" transform="translate(424.1445829091642 575.3854366050352) rotate(221.833294142843)"><path class="b-outline" fill="#A5ABB6" stroke="none" d="M 25 0.5 L 48.137295462871336 0.5 L 48.137295462871336 -0.5 L 25 -0.5 Z M 109.13729546287134 0.5 L 132.27459092574267 0.5 L 132.27459092574267 3.5 L 139.27459092574267 0 L 132.27459092574267 -3.5 L 132.27459092574267 -0.5 L 109.13729546287134 -0.5 Z"/><text text-anchor="middle" pointer-events="none" font-size="8px" fill="#000000" x="78.63729546287134" y="3" transform="rotate(180 78.63729546287134 0)" font-family="Helvetica Neue, Helvetica, Arial, sans-serif">RESOLVES_TO</text></g><g class="relationship" transform="translate(301.7454650241657 465.8199440227704) rotate(215.8992353663391)"><path class="b-outline" fill="#A5ABB6" stroke="none" d="M 25 0.5 L 80.66529847602455 0.5 L 80.66529847602455 -0.5 L 25 -0.5 Z M 121.66529847602455 0.5 L 177.3305969520491 0.5 L 177.3305969520491 3.5 L 184.3305969520491 0 L 177.3305969520491 -3.5 L 177.3305969520491 -0.5 L 121.66529847602455 -0.5 Z"/><text text-anchor="middle" pointer-events="none" font-size="8px" fill="#000000" x="101.16529847602455" y="3" transform="rotate(180 101.16529847602455 0)" font-family="Helvetica Neue, Helvetica, Arial, sans-serif">PART_OF</text></g><g class="relationship" transform="translate(445.722159233363 291.66134673158695) rotate(205.22984614285326)"><path class="b-outline" fill="#A5ABB6" stroke="none" d="M 25 0.5 L 47.62215292736494 0.5 L 47.62215292736494 -0.5 L 25 -0.5 Z M 108.62215292736494 0.5 L 131.24430585472987 0.5 L 131.24430585472987 3.5 L 138.24430585472987 0 L 131.24430585472987 -3.5 L 131.24430585472987 -0.5 L 108.62215292736494 -0.5 Z"/><text text-anchor="middle" pointer-events="none" font-size="8px" fill="#000000" x="78.12215292736494" y="3" transform="rotate(180 78.12215292736494 0)" font-family="Helvetica Neue, Helvetica, Arial, sans-serif">RESOLVES_TO</text></g><g class="relationship" transform="translate(298.0505218081196 222.0783682516452) rotate(222.00567616853846)"><path class="b-outline" fill="#A5ABB6" stroke="none" d="M 25 0.5 L 68.41553980168462 0.5 L 68.41553980168462 -0.5 L 25 -0.5 Z M 109.41553980168462 0.5 L 152.83107960336923 0.5 L 152.83107960336923 3.5 L 159.83107960336923 0 L 152.83107960336923 -3.5 L 152.83107960336923 -0.5 L 109.41553980168462 -0.5 Z"/><text text-anchor="middle" pointer-events="none" font-size="8px" fill="#000000" x="88.91553980168462" y="3" transform="rotate(180 88.91553980168462 0)" font-family="Helvetica Neue, Helvetica, Arial, sans-serif">PART_OF</text></g><g class="relationship" transform="translate(515.0796264689732 190.09890685860543) rotate(197.12758501078838)"><path class="b-outline" fill="#A5ABB6" stroke="none" d="M 25 0.5 L 49.15095473892589 0.5 L 49.15095473892589 -0.5 L 25 -0.5 Z M 110.15095473892589 0.5 L 134.30190947785178 0.5 L 134.30190947785178 3.5 L 141.30190947785178 0 L 134.30190947785178 -3.5 L 134.30190947785178 -0.5 L 110.15095473892589 -0.5 Z"/><text text-anchor="middle" pointer-events="none" font-size="8px" fill="#000000" x="79.65095473892589" y="3" transform="rotate(180 79.65095473892589 0)" font-family="Helvetica Neue, Helvetica, Arial, sans-serif">RESOLVES_TO</text></g><g class="relationship" transform="translate(356.152984075898 141.12291852102095) rotate(192.3335965805672)"><path class="b-outline" fill="#A5ABB6" stroke="none" d="M 25 0.5 L 76.0319224205956 0.5 L 76.0319224205956 -0.5 L 25 -0.5 Z M 117.0319224205956 0.5 L 168.0638448411912 0.5 L 168.0638448411912 3.5 L 175.0638448411912 0 L 168.0638448411912 -3.5 L 168.0638448411912 -0.5 L 117.0319224205956 -0.5 Z"/><text text-anchor="middle" pointer-events="none" font-size="8px" fill="#000000" x="96.5319224205956" y="3" transform="rotate(180 96.5319224205956 0)" font-family="Helvetica Neue, Helvetica, Arial, sans-serif">PART_OF</text></g><g class="relationship" transform="translate(517.1934551259575 -55.30634071089345) rotate(184.1904968193524)"><path class="b-outline" fill="#A5ABB6" stroke="none" d="M 25 0.5 L 47.08850547362687 0.5 L 47.08850547362687 -0.5 L 25 -0.5 Z M 108.08850547362687 0.5 L 130.17701094725373 0.5 L 130.17701094725373 3.5 L 137.17701094725373 0 L 130.17701094725373 -3.5 L 130.17701094725373 -0.5 L 108.08850547362687 -0.5 Z"/><text text-anchor="middle" pointer-events="none" font-size="8px" fill="#000000" x="77.58850547362687" y="3" transform="rotate(180 77.58850547362687 0)" font-family="Helvetica Neue, Helvetica, Arial, sans-serif">RESOLVES_TO</text></g><g class="relationship" transform="translate(355.450006428007 -67.15706571315026) rotate(525.5371359515198)"><path class="b-outline" fill="#A5ABB6" stroke="none" d="M 25 0.5 L 65.6348828954869 0.5 L 65.6348828954869 -0.5 L 25 -0.5 Z M 106.6348828954869 0.5 L 147.2697657909738 0.5 L 147.2697657909738 3.5 L 154.2697657909738 0 L 147.2697657909738 -3.5 L 147.2697657909738 -0.5 L 106.6348828954869 -0.5 Z"/><text text-anchor="middle" pointer-events="none" font-size="8px" fill="#000000" x="86.1348828954869" y="3" transform="rotate(180 86.1348828954869 0)" font-family="Helvetica Neue, Helvetica, Arial, sans-serif">PART_OF</text></g><g class="relationship" transform="translate(534.1931070412413 63.90359230503455) rotate(191.31998369912554)"><path class="b-outline" fill="#A5ABB6" stroke="none" d="M 25 0.5 L 49.143364309110424 0.5 L 49.143364309110424 -0.5 L 25 -0.5 Z M 110.14336430911042 0.5 L 134.28672861822085 0.5 L 134.28672861822085 3.5 L 141.28672861822085 0 L 134.28672861822085 -3.5 L 134.28672861822085 -0.5 L 110.14336430911042 -0.5 Z"/><text text-anchor="middle" pointer-events="none" font-size="8px" fill="#000000" x="79.64336430911042" y="3" transform="rotate(180 79.64336430911042 0)" font-family="Helvetica Neue, Helvetica, Arial, sans-serif">RESOLVES_TO</text></g><g class="relationship" transform="translate(371.1412777818865 31.26347757288274) rotate(195.82428433125352)"><path class="b-outline" fill="#A5ABB6" stroke="none" d="M 25 0.5 L 74.36785961023217 0.5 L 74.36785961023217 -0.5 L 25 -0.5 Z M 115.36785961023217 0.5 L 164.73571922046435 0.5 L 164.73571922046435 3.5 L 171.73571922046435 0 L 164.73571922046435 -3.5 L 164.73571922046435 -0.5 L 115.36785961023217 -0.5 Z"/><text text-anchor="middle" pointer-events="none" font-size="8px" fill="#000000" x="94.86785961023217" y="3" transform="rotate(180 94.86785961023217 0)" font-family="Helvetica Neue, Helvetica, Arial, sans-serif">PART_OF</text></g><g class="relationship" transform="translate(581.6319024810545 -181.66997257704205) rotate(185.65425911468617)"><path class="b-outline" fill="#A5ABB6" stroke="none" d="M 25 0.5 L 47.895181341188405 0.5 L 47.895181341188405 -0.5 L 25 -0.5 Z M 108.8951813411884 0.5 L 131.7903626823768 0.5 L 131.7903626823768 3.5 L 138.7903626823768 0 L 131.7903626823768 -3.5 L 131.7903626823768 -0.5 L 108.8951813411884 -0.5 Z"/><text text-anchor="middle" pointer-events="none" font-size="8px" fill="#000000" x="78.3951813411884" y="3" transform="rotate(180 78.3951813411884 0)" font-family="Helvetica Neue, Helvetica, Arial, sans-serif">RESOLVES_TO</text></g><g class="relationship" transform="translate(418.63845481357464 -197.80747316087025) rotate(210.25844265556975)"><path class="b-outline" fill="#A5ABB6" stroke="none" d="M 25 0.5 L 60.74590232813301 0.5 L 60.74590232813301 -0.5 L 25 -0.5 Z M 101.74590232813301 0.5 L 137.49180465626603 0.5 L 137.49180465626603 3.5 L 144.49180465626603 0 L 137.49180465626603 -3.5 L 137.49180465626603 -0.5 L 101.74590232813301 -0.5 Z"/><text text-anchor="middle" pointer-events="none" font-size="8px" fill="#000000" x="81.24590232813301" y="3" transform="rotate(180 81.24590232813301 0)" font-family="Helvetica Neue, Helvetica, Arial, sans-serif">PART_OF</text></g><g class="relationship" transform="translate(639.89170958508 -304.03651196220346) rotate(530.7701196542876)"><path class="b-outline" fill="#A5ABB6" stroke="none" d="M 25 0.5 L 48.26018835484814 0.5 L 48.26018835484814 -0.5 L 25 -0.5 Z M 109.26018835484814 0.5 L 132.52037670969628 0.5 L 132.52037670969628 3.5 L 139.52037670969628 0 L 132.52037670969628 -3.5 L 132.52037670969628 -0.5 L 109.26018835484814 -0.5 Z"/><text text-anchor="middle" pointer-events="none" font-size="8px" fill="#000000" x="78.76018835484814" y="3" transform="rotate(180 78.76018835484814 0)" font-family="Helvetica Neue, Helvetica, Arial, sans-serif">RESOLVES_TO</text></g><g class="relationship" transform="translate(477.5014191359954 -277.6481069220667) rotate(181.5534127403423)"><path class="b-outline" fill="#A5ABB6" stroke="none" d="M 25 0.5 L 78.66944212702235 0.5 L 78.66944212702235 -0.5 L 25 -0.5 Z M 119.66944212702235 0.5 L 173.3388842540447 0.5 L 173.3388842540447 3.5 L 180.3388842540447 0 L 173.3388842540447 -3.5 L 173.3388842540447 -0.5 L 119.66944212702235 -0.5 Z"/><text text-anchor="middle" pointer-events="none" font-size="8px" fill="#000000" x="99.16944212702235" y="3" transform="rotate(180 99.16944212702235 0)" font-family="Helvetica Neue, Helvetica, Arial, sans-serif">PART_OF</text></g><g class="relationship" transform="translate(572.8901040884186 -463.83372989817985) rotate(504.60956029348324)"><path class="b-outline" fill="#A5ABB6" stroke="none" d="M 25 0.5 L 47.71888184243396 0.5 L 47.71888184243396 -0.5 L 25 -0.5 Z M 108.71888184243396 0.5 L 131.43776368486792 0.5 L 131.43776368486792 3.5 L 138.43776368486792 0 L 131.43776368486792 -3.5 L 131.43776368486792 -0.5 L 108.71888184243396 -0.5 Z"/><text text-anchor="middle" pointer-events="none" font-size="8px" fill="#000000" x="78.21888184243396" y="3" transform="rotate(180 78.21888184243396 0)" font-family="Helvetica Neue, Helvetica, Arial, sans-serif">RESOLVES_TO</text></g><g class="relationship" transform="translate(439.6516443171532 -369.17954121066526) rotate(512.8200358154496)"><path class="b-outline" fill="#A5ABB6" stroke="none" d="M 25 0.5 L 70.09742079428302 0.5 L 70.09742079428302 -0.5 L 25 -0.5 Z M 111.09742079428302 0.5 L 156.19484158856605 0.5 L 156.19484158856605 3.5 L 163.19484158856605 0 L 156.19484158856605 -3.5 L 156.19484158856605 -0.5 L 111.09742079428302 -0.5 Z"/><text text-anchor="middle" pointer-events="none" font-size="8px" fill="#000000" x="90.59742079428302" y="3" transform="rotate(180 90.59742079428302 0)" font-family="Helvetica Neue, Helvetica, Arial, sans-serif">PART_OF</text></g><g class="relationship" transform="translate(336.143812087739 -629.1281175285247) rotate(465.786953547176)"><path class="b-outline" fill="#A5ABB6" stroke="none" d="M 25 0.5 L 47.455867234567506 0.5 L 47.455867234567506 -0.5 L 25 -0.5 Z M 108.4558672345675 0.5 L 130.911734469135 0.5 L 130.911734469135 3.5 L 137.911734469135 0 L 130.911734469135 -3.5 L 130.911734469135 -0.5 L 108.4558672345675 -0.5 Z"/><text text-anchor="middle" pointer-events="none" font-size="8px" fill="#000000" x="77.9558672345675" y="3" transform="rotate(180 77.9558672345675 0)" font-family="Helvetica Neue, Helvetica, Arial, sans-serif">RESOLVES_TO</text></g><g class="relationship" transform="translate(291.82185996630847 -472.3614189350812) rotate(455.91122082862637)"><path class="b-outline" fill="#A5ABB6" stroke="none" d="M 25 0.5 L 71.07897250702612 0.5 L 71.07897250702612 -0.5 L 25 -0.5 Z M 112.07897250702612 0.5 L 158.15794501405225 0.5 L 158.15794501405225 3.5 L 165.15794501405225 0 L 158.15794501405225 -3.5 L 158.15794501405225 -0.5 L 112.07897250702612 -0.5 Z"/><text text-anchor="middle" pointer-events="none" font-size="8px" fill="#000000" x="91.57897250702612" y="3" transform="rotate(180 91.57897250702612 0)" font-family="Helvetica Neue, Helvetica, Arial, sans-serif">PART_OF</text></g><g class="relationship" transform="translate(484.703778562171 -584.8519406014017) rotate(486.1985853876947)"><path class="b-outline" fill="#A5ABB6" stroke="none" d="M 25 0.5 L 46.58522600153297 0.5 L 46.58522600153297 -0.5 L 25 -0.5 Z M 107.58522600153297 0.5 L 129.17045200306595 0.5 L 129.17045200306595 3.5 L 136.17045200306595 0 L 129.17045200306595 -3.5 L 129.17045200306595 -0.5 L 107.58522600153297 -0.5 Z"/><text text-anchor="middle" pointer-events="none" font-size="8px" fill="#000000" x="77.08522600153297" y="3" transform="rotate(180 77.08522600153297 0)" font-family="Helvetica Neue, Helvetica, Arial, sans-serif">RESOLVES_TO</text></g><g class="relationship" transform="translate(389.5188072747212 -454.79143222210945) rotate(484.354438230415)"><path class="b-outline" fill="#A5ABB6" stroke="none" d="M 25 0.5 L 79.9151033692667 0.5 L 79.9151033692667 -0.5 L 25 -0.5 Z M 120.9151033692667 0.5 L 175.8302067385334 0.5 L 175.8302067385334 3.5 L 182.8302067385334 0 L 175.8302067385334 -3.5 L 175.8302067385334 -0.5 L 120.9151033692667 -0.5 Z"/><text text-anchor="middle" pointer-events="none" font-size="8px" fill="#000000" x="100.4151033692667" y="3" transform="rotate(180 100.4151033692667 0)" font-family="Helvetica Neue, Helvetica, Arial, sans-serif">PART_OF</text></g><g class="relationship" transform="translate(203.58923914330953 -600.0952594496999) rotate(451.65303207177135)"><path class="b-outline" fill="#A5ABB6" stroke="none" d="M 25 0.5 L 47.284251351805636 0.5 L 47.284251351805636 -0.5 L 25 -0.5 Z M 108.28425135180564 0.5 L 130.56850270361127 0.5 L 130.56850270361127 3.5 L 137.56850270361127 0 L 130.56850270361127 -3.5 L 130.56850270361127 -0.5 L 108.28425135180564 -0.5 Z"/><text text-anchor="middle" pointer-events="none" font-size="8px" fill="#000000" x="77.78425135180564" y="3" transform="rotate(180 77.78425135180564 0)" font-family="Helvetica Neue, Helvetica, Arial, sans-serif">RESOLVES_TO</text></g><g class="relationship" transform="translate(198.89964992762737 -437.594410761817) rotate(424.58987677460766)"><path class="b-outline" fill="#A5ABB6" stroke="none" d="M 25 0.5 L 61.45706131499276 0.5 L 61.45706131499276 -0.5 L 25 -0.5 Z M 102.45706131499276 0.5 L 138.9141226299855 0.5 L 138.9141226299855 3.5 L 145.9141226299855 0 L 138.9141226299855 -3.5 L 138.9141226299855 -0.5 L 102.45706131499276 -0.5 Z"/><text text-anchor="middle" pointer-events="none" font-size="8px" fill="#000000" x="81.95706131499276" y="3" font-family="Helvetica Neue, Helvetica, Arial, sans-serif">PART_OF</text></g><g class="relationship" transform="translate(79.6595225669907 -555.9235467242723) rotate(466.18809785959195)"><path class="b-outline" fill="#A5ABB6" stroke="none" d="M 25 0.5 L 45.38266699451815 0.5 L 45.38266699451815 -0.5 L 25 -0.5 Z M 106.38266699451815 0.5 L 126.7653339890363 0.5 L 126.7653339890363 3.5 L 133.7653339890363 0 L 126.7653339890363 -3.5 L 126.7653339890363 -0.5 L 106.38266699451815 -0.5 Z"/><text text-anchor="middle" pointer-events="none" font-size="8px" fill="#000000" x="75.88266699451815" y="3" transform="rotate(180 75.88266699451815 0)" font-family="Helvetica Neue, Helvetica, Arial, sans-serif">RESOLVES_TO</text></g><g class="relationship" transform="translate(35.39707842244664 -403.45300099493693) rotate(452.9610288080049)"><path class="b-outline" fill="#A5ABB6" stroke="none" d="M 25 0.5 L 80.28779466124264 0.5 L 80.28779466124264 -0.5 L 25 -0.5 Z M 121.28779466124264 0.5 L 176.57558932248529 0.5 L 176.57558932248529 3.5 L 183.57558932248529 0 L 176.57558932248529 -3.5 L 176.57558932248529 -0.5 L 121.28779466124264 -0.5 Z"/><text text-anchor="middle" pointer-events="none" font-size="8px" fill="#000000" x="100.78779466124264" y="3" transform="rotate(180 100.78779466124264 0)" font-family="Helvetica Neue, Helvetica, Arial, sans-serif">PART_OF</text></g><g class="relationship" transform="translate(-19.829868033360732 -551.8934972483495) rotate(429.59239779739494)"><path class="b-outline" fill="#A5ABB6" stroke="none" d="M 25 0.5 L 45.19058741856888 0.5 L 45.19058741856888 -0.5 L 25 -0.5 Z M 106.19058741856888 0.5 L 126.38117483713776 0.5 L 126.38117483713776 3.5 L 133.38117483713776 0 L 126.38117483713776 -3.5 L 126.38117483713776 -0.5 L 106.19058741856888 -0.5 Z"/><text text-anchor="middle" pointer-events="none" font-size="8px" fill="#000000" x="75.69058741856888" y="3" font-family="Helvetica Neue, Helvetica, Arial, sans-serif">RESOLVES_TO</text></g><g class="relationship" transform="translate(-143.84545919843407 -619.5517037154751) rotate(448.38002485744147)"><path class="b-outline" fill="#A5ABB6" stroke="none" d="M 25 0.5 L 47.49786950223381 0.5 L 47.49786950223381 -0.5 L 25 -0.5 Z M 108.49786950223381 0.5 L 130.99573900446762 0.5 L 130.99573900446762 3.5 L 137.99573900446762 0 L 130.99573900446762 -3.5 L 130.99573900446762 -0.5 L 108.49786950223381 -0.5 Z"/><text text-anchor="middle" pointer-events="none" font-size="8px" fill="#000000" x="77.99786950223381" y="3" font-family="Helvetica Neue, Helvetica, Arial, sans-serif">RESOLVES_TO</text></g><g class="relationship" transform="translate(-139.23754796213007 -456.6211108617975) rotate(434.0358435240147)"><path class="b-outline" fill="#A5ABB6" stroke="none" d="M 25 0.5 L 95.88278314806422 0.5 L 95.88278314806422 -0.5 L 25 -0.5 Z M 136.88278314806422 0.5 L 207.76556629612844 0.5 L 207.76556629612844 3.5 L 214.76556629612844 0 L 207.76556629612844 -3.5 L 207.76556629612844 -0.5 L 136.88278314806422 -0.5 Z"/><text text-anchor="middle" pointer-events="none" font-size="8px" fill="#000000" x="116.38278314806422" y="3" font-family="Helvetica Neue, Helvetica, Arial, sans-serif">PART_OF</text></g><g class="relationship" transform="translate(-237.32052658047175 -585.4676320728261) rotate(412.7201996374157)"><path class="b-outline" fill="#A5ABB6" stroke="none" d="M 25 0.5 L 46.965574046674476 0.5 L 46.965574046674476 -0.5 L 25 -0.5 Z M 107.96557404667448 0.5 L 129.93114809334895 0.5 L 129.93114809334895 3.5 L 136.93114809334895 0 L 129.93114809334895 -3.5 L 129.93114809334895 -0.5 L 107.96557404667448 -0.5 Z"/><text text-anchor="middle" pointer-events="none" font-size="8px" fill="#000000" x="77.46557404667448" y="3" font-family="Helvetica Neue, Helvetica, Arial, sans-serif">RESOLVES_TO</text></g><g class="relationship" transform="translate(-412.89969581864005 -522.9989048873535) rotate(393.78945166192295)"><path class="b-outline" fill="#A5ABB6" stroke="none" d="M 25 0.5 L 54.4443331195162 0.5 L 54.4443331195162 -0.5 L 25 -0.5 Z M 115.4443331195162 0.5 L 144.8886662390324 0.5 L 144.8886662390324 3.5 L 151.8886662390324 0 L 144.8886662390324 -3.5 L 144.8886662390324 -0.5 L 115.4443331195162 -0.5 Z"/><text text-anchor="middle" pointer-events="none" font-size="8px" fill="#000000" x="84.9443331195162" y="3" font-family="Helvetica Neue, Helvetica, Arial, sans-serif">RESOLVES_TO</text></g><g class="relationship" transform="translate(-412.89969581864005 -522.9989048873535) rotate(426.7986171141791)"><path class="b-outline" fill="#A5ABB6" stroke="none" d="M 25 0.5 L 52.11998166826881 0.5 L 52.11998166826881 -0.5 L 25 -0.5 Z M 113.1199816682688 0.5 L 140.2399633365376 0.5 L 140.2399633365376 3.5 L 147.2399633365376 0 L 140.2399633365376 -3.5 L 140.2399633365376 -0.5 L 113.1199816682688 -0.5 Z"/><text text-anchor="middle" pointer-events="none" font-size="8px" fill="#000000" x="82.6199816682688" y="3" font-family="Helvetica Neue, Helvetica, Arial, sans-serif">RESOLVES_TO</text></g><g class="relationship" transform="translate(-345.0433347733605 -364.6887054816788) rotate(399.47729103582094)"><path class="b-outline" fill="#A5ABB6" stroke="none" d="M 25 0.5 L 80.45147211437633 0.5 L 80.45147211437633 -0.5 L 25 -0.5 Z M 121.45147211437633 0.5 L 176.90294422875266 0.5 L 176.90294422875266 3.5 L 183.90294422875266 0 L 176.90294422875266 -3.5 L 176.90294422875266 -0.5 L 121.45147211437633 -0.5 Z"/><text text-anchor="middle" pointer-events="none" font-size="8px" fill="#000000" x="100.95147211437633" y="3" font-family="Helvetica Neue, Helvetica, Arial, sans-serif">PART_OF</text></g><g class="relationship" transform="translate(-265.88984767678005 -424.62357874745675) rotate(426.93040115877346)"><path class="b-outline" fill="#A5ABB6" stroke="none" d="M 25 0.5 L 80.75184660713107 0.5 L 80.75184660713107 -0.5 L 25 -0.5 Z M 121.75184660713107 0.5 L 177.50369321426214 0.5 L 177.50369321426214 3.5 L 184.50369321426214 0 L 177.50369321426214 -3.5 L 177.50369321426214 -0.5 L 121.75184660713107 -0.5 Z"/><text text-anchor="middle" pointer-events="none" font-size="8px" fill="#000000" x="101.25184660713107" y="3" font-family="Helvetica Neue, Helvetica, Arial, sans-serif">PART_OF</text></g><g class="relationship" transform="translate(-478.38163506098573 -348.654703697368) rotate(397.0381241640986)"><path class="b-outline" fill="#A5ABB6" stroke="none" d="M 25 0.5 L 48.74098325450288 0.5 L 48.74098325450288 -0.5 L 25 -0.5 Z M 109.74098325450288 0.5 L 133.48196650900576 0.5 L 133.48196650900576 3.5 L 140.48196650900576 0 L 133.48196650900576 -3.5 L 133.48196650900576 -0.5 L 109.74098325450288 -0.5 Z"/><text text-anchor="middle" pointer-events="none" font-size="8px" fill="#000000" x="79.24098325450288" y="3" font-family="Helvetica Neue, Helvetica, Arial, sans-serif">RESOLVES_TO</text></g><g class="relationship" transform="translate(-346.28815568381265 -248.97725416278143) rotate(396.5576917818678)"><path class="b-outline" fill="#A5ABB6" stroke="none" d="M 25 0.5 L 80.91089454304377 0.5 L 80.91089454304377 -0.5 L 25 -0.5 Z M 121.91089454304377 0.5 L 177.82178908608753 0.5 L 177.82178908608753 3.5 L 184.82178908608753 0 L 177.82178908608753 -3.5 L 177.82178908608753 -0.5 L 121.91089454304377 -0.5 Z"/><text text-anchor="middle" pointer-events="none" font-size="8px" fill="#000000" x="101.41089454304377" y="3" font-family="Helvetica Neue, Helvetica, Arial, sans-serif">PART_OF</text></g><g class="relationship" transform="translate(-621.6024638414345 -260.17317799733155) rotate(387.48332104514435)"><path class="b-outline" fill="#A5ABB6" stroke="none" d="M 25 0.5 L 48.27069635125315 0.5 L 48.27069635125315 -0.5 L 25 -0.5 Z M 109.27069635125315 0.5 L 132.5413927025063 0.5 L 132.5413927025063 3.5 L 139.5413927025063 0 L 132.5413927025063 -3.5 L 132.5413927025063 -0.5 L 109.27069635125315 -0.5 Z"/><text text-anchor="middle" pointer-events="none" font-size="8px" fill="#000000" x="78.77069635125315" y="3" font-family="Helvetica Neue, Helvetica, Arial, sans-serif">RESOLVES_TO</text></g><g class="relationship" transform="translate(-475.63035515407495 -184.23890775097922) rotate(390.1481187243457)"><path class="b-outline" fill="#A5ABB6" stroke="none" d="M 25 0.5 L 79.15537381071401 0.5 L 79.15537381071401 -0.5 L 25 -0.5 Z M 120.15537381071401 0.5 L 174.31074762142802 0.5 L 174.31074762142802 3.5 L 181.31074762142802 0 L 174.31074762142802 -3.5 L 174.31074762142802 -0.5 L 120.15537381071401 -0.5 Z"/><text text-anchor="middle" pointer-events="none" font-size="8px" fill="#000000" x="99.65537381071401" y="3" font-family="Helvetica Neue, Helvetica, Arial, sans-serif">PART_OF</text></g><g class="relationship" transform="translate(-673.6989648697731 -108.37450438140723) rotate(366.1731940988808)"><path class="b-outline" fill="#A5ABB6" stroke="none" d="M 25 0.5 L 48.37621669766007 0.5 L 48.37621669766007 -0.5 L 25 -0.5 Z M 109.37621669766007 0.5 L 132.75243339532014 0.5 L 132.75243339532014 3.5 L 139.75243339532014 0 L 132.75243339532014 -3.5 L 132.75243339532014 -0.5 L 109.37621669766007 -0.5 Z"/><text text-anchor="middle" pointer-events="none" font-size="8px" fill="#000000" x="78.87621669766007" y="3" font-family="Helvetica Neue, Helvetica, Arial, sans-serif">RESOLVES_TO</text></g><g class="relationship" transform="translate(-509.90186776848066 -90.65797845590018) rotate(362.7017503441756)"><path class="b-outline" fill="#A5ABB6" stroke="none" d="M 25 0.5 L 82.4556279583074 0.5 L 82.4556279583074 -0.5 L 25 -0.5 Z M 123.4556279583074 0.5 L 180.9112559166148 0.5 L 180.9112559166148 3.5 L 187.9112559166148 0 L 180.9112559166148 -3.5 L 180.9112559166148 -0.5 L 123.4556279583074 -0.5 Z"/><text text-anchor="middle" pointer-events="none" font-size="8px" fill="#000000" x="102.9556279583074" y="3" font-family="Helvetica Neue, Helvetica, Arial, sans-serif">PART_OF</text></g><g class="relationship" transform="translate(-600.7416744082542 39.56603549706959) rotate(353.6522360769418)"><path class="b-outline" fill="#A5ABB6" stroke="none" d="M 25 0.5 L 48.39619042874003 0.5 L 48.39619042874003 -0.5 L 25 -0.5 Z M 109.39619042874003 0.5 L 132.79238085748005 0.5 L 132.79238085748005 3.5 L 139.79238085748005 0 L 132.79238085748005 -3.5 L 132.79238085748005 -0.5 L 109.39619042874003 -0.5 Z"/><text text-anchor="middle" pointer-events="none" font-size="8px" fill="#000000" x="78.89619042874003" y="3" font-family="Helvetica Neue, Helvetica, Arial, sans-serif">RESOLVES_TO</text></g><g class="relationship" transform="translate(-436.9596139795977 21.34611589184985) rotate(353.7381378259048)"><path class="b-outline" fill="#A5ABB6" stroke="none" d="M 25 0.5 L 82.32491029895233 0.5 L 82.32491029895233 -0.5 L 25 -0.5 Z M 123.32491029895233 0.5 L 180.64982059790466 0.5 L 180.64982059790466 3.5 L 187.64982059790466 0 L 180.64982059790466 -3.5 L 180.64982059790466 -0.5 L 123.32491029895233 -0.5 Z"/><text text-anchor="middle" pointer-events="none" font-size="8px" fill="#000000" x="102.82491029895233" y="3" font-family="Helvetica Neue, Helvetica, Arial, sans-serif">PART_OF</text></g><g class="relationship" transform="translate(-542.6611329819842 180.10065261468077) rotate(347.78173657945786)"><path class="b-outline" fill="#A5ABB6" stroke="none" d="M 25 0.5 L 47.79120135989375 0.5 L 47.79120135989375 -0.5 L 25 -0.5 Z M 108.79120135989375 0.5 L 131.5824027197875 0.5 L 131.5824027197875 3.5 L 138.5824027197875 0 L 131.5824027197875 -3.5 L 131.5824027197875 -0.5 L 108.79120135989375 -0.5 Z"/><text text-anchor="middle" pointer-events="none" font-size="8px" fill="#000000" x="78.29120135989375" y="3" font-family="Helvetica Neue, Helvetica, Arial, sans-serif">RESOLVES_TO</text></g><g class="relationship" transform="translate(-382.7841197710274 145.4806710098001) rotate(344.16741822439485)"><path class="b-outline" fill="#A5ABB6" stroke="none" d="M 25 0.5 L 77.90437924762678 0.5 L 77.90437924762678 -0.5 L 25 -0.5 Z M 118.90437924762678 0.5 L 171.80875849525356 0.5 L 171.80875849525356 3.5 L 178.80875849525356 0 L 171.80875849525356 -3.5 L 171.80875849525356 -0.5 L 118.90437924762678 -0.5 Z"/><text text-anchor="middle" pointer-events="none" font-size="8px" fill="#000000" x="98.40437924762678" y="3" font-family="Helvetica Neue, Helvetica, Arial, sans-serif">PART_OF</text></g><g class="relationship" transform="translate(-600.2646999009027 337.86243008377835) rotate(337.20329612389037)"><path class="b-outline" fill="#A5ABB6" stroke="none" d="M 25 0.5 L 48.12316479183221 0.5 L 48.12316479183221 -0.5 L 25 -0.5 Z M 109.12316479183221 0.5 L 132.24632958366442 0.5 L 132.24632958366442 3.5 L 139.24632958366442 0 L 132.24632958366442 -3.5 L 132.24632958366442 -0.5 L 109.12316479183221 -0.5 Z"/><text text-anchor="middle" pointer-events="none" font-size="8px" fill="#000000" x="78.62316479183221" y="3" font-family="Helvetica Neue, Helvetica, Arial, sans-serif">RESOLVES_TO</text></g><g class="relationship" transform="translate(-448.8483995680888 274.2231279566429) rotate(343.69131271550305)"><path class="b-outline" fill="#A5ABB6" stroke="none" d="M 25 0.5 L 75.87722944343724 0.5 L 75.87722944343724 -0.5 L 25 -0.5 Z M 116.87722944343724 0.5 L 167.7544588868745 0.5 L 167.7544588868745 3.5 L 174.7544588868745 0 L 167.7544588868745 -3.5 L 167.7544588868745 -0.5 L 116.87722944343724 -0.5 Z"/><text text-anchor="middle" pointer-events="none" font-size="8px" fill="#000000" x="96.37722944343724" y="3" font-family="Helvetica Neue, Helvetica, Arial, sans-serif">PART_OF</text></g><g class="relationship" transform="translate(-517.3342191723452 478.0928748349502) rotate(314.7120969276425)"><path class="b-outline" fill="#A5ABB6" stroke="none" d="M 25 0.5 L 47.312066631261644 0.5 L 47.312066631261644 -0.5 L 25 -0.5 Z M 108.31206663126164 0.5 L 130.6241332625233 0.5 L 130.6241332625233 3.5 L 137.6241332625233 0 L 130.6241332625233 -3.5 L 130.6241332625233 -0.5 L 108.31206663126164 -0.5 Z"/><text text-anchor="middle" pointer-events="none" font-size="8px" fill="#000000" x="77.81206663126164" y="3" font-family="Helvetica Neue, Helvetica, Arial, sans-serif">RESOLVES_TO</text></g><g class="relationship" transform="translate(-402.9208625139814 362.5238801280957) rotate(315.27545551873743)"><path class="b-outline" fill="#A5ABB6" stroke="none" d="M 25 0.5 L 78.59657946666901 0.5 L 78.59657946666901 -0.5 L 25 -0.5 Z M 119.59657946666901 0.5 L 173.19315893333803 0.5 L 173.19315893333803 3.5 L 180.19315893333803 0 L 173.19315893333803 -3.5 L 173.19315893333803 -0.5 L 119.59657946666901 -0.5 Z"/><text text-anchor="middle" pointer-events="none" font-size="8px" fill="#000000" x="99.09657946666901" y="3" font-family="Helvetica Neue, Helvetica, Arial, sans-serif">PART_OF</text></g><g class="relationship" transform="translate(-384.62724242987815 553.2840411951568) rotate(295.84327472980675)"><path class="b-outline" fill="#A5ABB6" stroke="none" d="M 25 0.5 L 47.747932436755676 0.5 L 47.747932436755676 -0.5 L 25 -0.5 Z M 108.74793243675568 0.5 L 131.49586487351135 0.5 L 131.49586487351135 3.5 L 138.49586487351135 0 L 131.49586487351135 -3.5 L 131.49586487351135 -0.5 L 108.74793243675568 -0.5 Z"/><text text-anchor="middle" pointer-events="none" font-size="8px" fill="#000000" x="78.24793243675568" y="3" font-family="Helvetica Neue, Helvetica, Arial, sans-serif">RESOLVES_TO</text></g><g class="relationship" transform="translate(-313.3576007610524 406.13943202739057) rotate(286.6497852955328)"><path class="b-outline" fill="#A5ABB6" stroke="none" d="M 25 0.5 L 74.11862392457498 0.5 L 74.11862392457498 -0.5 L 25 -0.5 Z M 115.11862392457498 0.5 L 164.23724784914995 0.5 L 164.23724784914995 3.5 L 171.23724784914995 0 L 164.23724784914995 -3.5 L 164.23724784914995 -0.5 L 115.11862392457498 -0.5 Z"/><text text-anchor="middle" pointer-events="none" font-size="8px" fill="#000000" x="94.61862392457498" y="3" font-family="Helvetica Neue, Helvetica, Arial, sans-serif">PART_OF</text></g><g class="relationship" transform="translate(-219.41410133796643 512.8743666458782) rotate(292.2604388000784)"><path class="b-outline" fill="#A5ABB6" stroke="none" d="M 25 0.5 L 47.51894440963308 0.5 L 47.51894440963308 -0.5 L 25 -0.5 Z M 108.51894440963308 0.5 L 131.03788881926616 0.5 L 131.03788881926616 3.5 L 138.03788881926616 0 L 131.03788881926616 -3.5 L 131.03788881926616 -0.5 L 108.51894440963308 -0.5 Z"/><text text-anchor="middle" pointer-events="none" font-size="8px" fill="#000000" x="78.01894440963308" y="3" font-family="Helvetica Neue, Helvetica, Arial, sans-serif">RESOLVES_TO</text></g><g class="relationship" transform="translate(-157.6525388316966 361.98744677729746) rotate(299.75708930267825)"><path class="b-outline" fill="#A5ABB6" stroke="none" d="M 25 0.5 L 69.80810390632342 0.5 L 69.80810390632342 -0.5 L 25 -0.5 Z M 110.80810390632342 0.5 L 155.61620781264685 0.5 L 155.61620781264685 3.5 L 162.61620781264685 0 L 155.61620781264685 -3.5 L 155.61620781264685 -0.5 L 110.80810390632342 -0.5 Z"/><text text-anchor="middle" pointer-events="none" font-size="8px" fill="#000000" x="90.30810390632342" y="3" font-family="Helvetica Neue, Helvetica, Arial, sans-serif">PART_OF</text></g><g class="relationship" transform="translate(-96.99041440434186 537.9601970888706) rotate(283.3323600739373)"><path class="b-outline" fill="#A5ABB6" stroke="none" d="M 25 0.5 L 46.81050269591489 0.5 L 46.81050269591489 -0.5 L 25 -0.5 Z M 107.81050269591489 0.5 L 129.62100539182978 0.5 L 129.62100539182978 3.5 L 136.62100539182978 0 L 129.62100539182978 -3.5 L 129.62100539182978 -0.5 L 107.81050269591489 -0.5 Z"/><text text-anchor="middle" pointer-events="none" font-size="8px" fill="#000000" x="77.31050269591489" y="3" font-family="Helvetica Neue, Helvetica, Arial, sans-serif">RESOLVES_TO</text></g><g class="relationship" transform="translate(-59.72071690700624 380.6950737069746) rotate(268.4815674037726)"><path class="b-outline" fill="#A5ABB6" stroke="none" d="M 25 0.5 L 66.82403052897831 0.5 L 66.82403052897831 -0.5 L 25 -0.5 Z M 107.82403052897831 0.5 L 149.64806105795662 0.5 L 149.64806105795662 3.5 L 156.64806105795662 0 L 149.64806105795662 -3.5 L 149.64806105795662 -0.5 L 107.82403052897831 -0.5 Z"/><text text-anchor="middle" pointer-events="none" font-size="8px" fill="#000000" x="87.32403052897831" y="3" transform="rotate(180 87.32403052897831 0)" font-family="Helvetica Neue, Helvetica, Arial, sans-serif">PART_OF</text></g></g><g class="layer nodes"><g class="node" aria-label="graph-node3074310" transform="translate(136.20136481072723,714.4035734334396)"><circle class="b-outline" cx="0" cy="0" r="25" fill="#4C8EDA" stroke="#2870c2" stroke-width="2px"/><text class="caption" text-anchor="middle" pointer-events="none" x="0" y="5" font-size="10px" fill="#FFFFFF" font-family="Helvetica Neue, Helvetica, Arial, sans-serif"> zexy.net</text></g><g class="node" aria-label="graph-node3736522" transform="translate(122.96629668950393,551.6498628397891)"><circle class="b-outline" cx="0" cy="0" r="25" fill="#A5ABB6" stroke="#9AA1AC" stroke-width="2px"/><text class="caption" text-anchor="middle" pointer-events="none" x="0" y="5" font-size="10px" fill="#FFFFFF" font-family="Helvetica Neue, Helvetica, Arial, sans-serif"> 160.17.…</text></g><g class="node" aria-label="graph-node964925" transform="translate(132.17732680166677,343.0765314905424)"><circle class="b-outline" cx="0" cy="0" r="25" fill="#DA7194" stroke="#cc3c6c" stroke-width="2px"/><text class="caption" text-anchor="middle" pointer-events="none" x="0" y="5" font-size="10px" fill="#FFFFFF" font-family="Helvetica Neue, Helvetica, Arial, sans-serif"> 160.17.…</text></g><g class="node" aria-label="graph-node320" transform="translate(-34.94423487196649,-9.143271877653834)"><circle class="b-outline" cx="0" cy="0" r="25" fill="#FFC454" stroke="#d7a013" stroke-width="2px"/><text class="caption" text-anchor="middle" pointer-events="none" x="0" y="5" font-size="10px" fill="#2A2C34" font-family="Helvetica Neue, Helvetica, Arial, sans-serif"> 2497</text></g><g class="node" aria-label="graph-node2952372" transform="translate(0.9140989141545681,654.5706046041723)"><circle class="b-outline" cx="0" cy="0" r="25" fill="#4C8EDA" stroke="#2870c2" stroke-width="2px"/><text class="caption" text-anchor="middle" pointer-events="none" x="0" y="5" font-size="10px" fill="#FFFFFF" font-family="Helvetica Neue, Helvetica, Arial, sans-serif"> jalan.net</text></g><g class="node" aria-label="graph-node3569822" transform="translate(40.92428667578565,495.7366550261878)"><circle class="b-outline" cx="0" cy="0" r="25" fill="#A5ABB6" stroke="#9AA1AC" stroke-width="2px"/><text class="caption" text-anchor="middle" pointer-events="none" x="0" y="5" font-size="10px" fill="#FFFFFF" font-family="Helvetica Neue, Helvetica, Arial, sans-serif"> 160.17.…</text></g><g class="node" aria-label="graph-node2849586" transform="translate(444.3853958162277,441.4863505796801)"><circle class="b-outline" cx="0" cy="0" r="25" fill="#4C8EDA" stroke="#2870c2" stroke-width="2px"/><text class="caption" text-anchor="middle" pointer-events="none" x="0" y="5" font-size="10px" fill="#FFFFFF" font-family="Helvetica Neue, Helvetica, Arial, sans-serif"> carsens…</text></g><g class="node" aria-label="graph-node3518878" transform="translate(303.8488959854402,366.56655144814187)"><circle class="b-outline" cx="0" cy="0" r="25" fill="#A5ABB6" stroke="#9AA1AC" stroke-width="2px"/><text class="caption" text-anchor="middle" pointer-events="none" x="0" y="5" font-size="10px" fill="#FFFFFF" font-family="Helvetica Neue, Helvetica, Arial, sans-serif"> 160.17.…</text></g><g class="node" aria-label="graph-node3202318" transform="translate(287.9438021172236,658.6888927367288)"><circle class="b-outline" cx="0" cy="0" r="25" fill="#4C8EDA" stroke="#2870c2" stroke-width="2px"/><text class="caption" text-anchor="middle" pointer-events="none" x="0" y="5" font-size="10px" fill="#FFFFFF" font-family="Helvetica Neue, Helvetica, Arial, sans-serif"> suumo.jp</text></g><g class="node" aria-label="graph-node3460805" transform="translate(214.4614663713701,513.695701743857)"><circle class="b-outline" cx="0" cy="0" r="25" fill="#A5ABB6" stroke="#9AA1AC" stroke-width="2px"/><text class="caption" text-anchor="middle" pointer-events="none" x="0" y="5" font-size="10px" fill="#FFFFFF" font-family="Helvetica Neue, Helvetica, Arial, sans-serif"> 160.17.…</text></g><g class="node" aria-label="graph-node2688600" transform="translate(424.1445829091642,575.3854366050352)"><circle class="b-outline" cx="0" cy="0" r="25" fill="#4C8EDA" stroke="#2870c2" stroke-width="2px"/><text class="caption" text-anchor="middle" pointer-events="none" x="0" y="5" font-size="10px" fill="#FFFFFF" font-family="Helvetica Neue, Helvetica, Arial, sans-serif"> hotpepp…</text></g><g class="node" aria-label="graph-node3309157" transform="translate(301.7454650241657,465.8199440227704)"><circle class="b-outline" cx="0" cy="0" r="25" fill="#A5ABB6" stroke="#9AA1AC" stroke-width="2px"/><text class="caption" text-anchor="middle" pointer-events="none" x="0" y="5" font-size="10px" fill="#FFFFFF" font-family="Helvetica Neue, Helvetica, Arial, sans-serif"> 160.17.…</text></g><g class="node" aria-label="graph-node2437187" transform="translate(445.722159233363,291.66134673158695)"><circle class="b-outline" cx="0" cy="0" r="25" fill="#4C8EDA" stroke="#2870c2" stroke-width="2px"/><text class="caption" text-anchor="middle" pointer-events="none" x="0" y="5" font-size="10px" fill="#FFFFFF" font-family="Helvetica Neue, Helvetica, Arial, sans-serif"> csf.ne.jp</text></g><g class="node" aria-label="graph-node3793890" transform="translate(298.0505218081196,222.0783682516452)"><circle class="b-outline" cx="0" cy="0" r="25" fill="#A5ABB6" stroke="#9AA1AC" stroke-width="2px"/><text class="caption" text-anchor="middle" pointer-events="none" x="0" y="5" font-size="10px" fill="#FFFFFF" font-family="Helvetica Neue, Helvetica, Arial, sans-serif"> 133.159…</text></g><g class="node" aria-label="graph-node1409710" transform="translate(160.70651441353584,98.38862890296865)"><circle class="b-outline" cx="0" cy="0" r="25" fill="#DA7194" stroke="#cc3c6c" stroke-width="2px"/><text class="caption" text-anchor="middle" pointer-events="none" x="0" y="5" font-size="10px" fill="#FFFFFF" font-family="Helvetica Neue, Helvetica, Arial, sans-serif"> 133.159…</text></g><g class="node" aria-label="graph-node2523251" transform="translate(515.0796264689732,190.09890685860543)"><circle class="b-outline" cx="0" cy="0" r="25" fill="#4C8EDA" stroke="#2870c2" stroke-width="2px"/><text class="caption" text-anchor="middle" pointer-events="none" x="0" y="5" font-size="10px" fill="#FFFFFF" font-family="Helvetica Neue, Helvetica, Arial, sans-serif"> ndl.go.jp</text></g><g class="node" aria-label="graph-node3443404" transform="translate(356.152984075898,141.12291852102095)"><circle class="b-outline" cx="0" cy="0" r="25" fill="#A5ABB6" stroke="#9AA1AC" stroke-width="2px"/><text class="caption" text-anchor="middle" pointer-events="none" x="0" y="5" font-size="10px" fill="#FFFFFF" font-family="Helvetica Neue, Helvetica, Arial, sans-serif"> 133.159…</text></g><g class="node" aria-label="graph-node3065026" transform="translate(517.1934551259575,-55.30634071089345)"><circle class="b-outline" cx="0" cy="0" r="25" fill="#4C8EDA" stroke="#2870c2" stroke-width="2px"/><text class="caption" text-anchor="middle" pointer-events="none" x="0" y="5" font-size="10px" fill="#FFFFFF" font-family="Helvetica Neue, Helvetica, Arial, sans-serif"> goo-net.…</text></g><g class="node" aria-label="graph-node3737203" transform="translate(355.450006428007,-67.15706571315026)"><circle class="b-outline" cx="0" cy="0" r="25" fill="#A5ABB6" stroke="#9AA1AC" stroke-width="2px"/><text class="caption" text-anchor="middle" pointer-events="none" x="0" y="5" font-size="10px" fill="#FFFFFF" font-family="Helvetica Neue, Helvetica, Arial, sans-serif"> 163.49.…</text></g><g class="node" aria-label="graph-node1391581" transform="translate(181.86134980634222,-22.38400217002922)"><circle class="b-outline" cx="0" cy="0" r="25" fill="#DA7194" stroke="#cc3c6c" stroke-width="2px"/><text class="caption" text-anchor="middle" pointer-events="none" x="0" y="5" font-size="10px" fill="#FFFFFF" font-family="Helvetica Neue, Helvetica, Arial, sans-serif"> 163.49.…</text></g><g class="node" aria-label="graph-node3005099" transform="translate(534.1931070412413,63.90359230503455)"><circle class="b-outline" cx="0" cy="0" r="25" fill="#4C8EDA" stroke="#2870c2" stroke-width="2px"/><text class="caption" text-anchor="middle" pointer-events="none" x="0" y="5" font-size="10px" fill="#FFFFFF" font-family="Helvetica Neue, Helvetica, Arial, sans-serif"> goobike…</text></g><g class="node" aria-label="graph-node3730623" transform="translate(371.1412777818865,31.26347757288274)"><circle class="b-outline" cx="0" cy="0" r="25" fill="#A5ABB6" stroke="#9AA1AC" stroke-width="2px"/><text class="caption" text-anchor="middle" pointer-events="none" x="0" y="5" font-size="10px" fill="#FFFFFF" font-family="Helvetica Neue, Helvetica, Arial, sans-serif"> 163.49.…</text></g><g class="node" aria-label="graph-node2881334" transform="translate(581.6319024810545,-181.66997257704205)"><circle class="b-outline" cx="0" cy="0" r="25" fill="#4C8EDA" stroke="#2870c2" stroke-width="2px"/><text class="caption" text-anchor="middle" pointer-events="none" x="0" y="5" font-size="10px" fill="#FFFFFF" font-family="Helvetica Neue, Helvetica, Arial, sans-serif"> preside…</text></g><g class="node" aria-label="graph-node3755003" transform="translate(418.63845481357464,-197.80747316087025)"><circle class="b-outline" cx="0" cy="0" r="25" fill="#A5ABB6" stroke="#9AA1AC" stroke-width="2px"/><text class="caption" text-anchor="middle" pointer-events="none" x="0" y="5" font-size="10px" fill="#FFFFFF" font-family="Helvetica Neue, Helvetica, Arial, sans-serif"> 202.238…</text></g><g class="node" aria-label="graph-node1311145" transform="translate(272.23799944462235,-283.21460701631145)"><circle class="b-outline" cx="0" cy="0" r="25" fill="#DA7194" stroke="#cc3c6c" stroke-width="2px"/><text class="caption" text-anchor="middle" pointer-events="none" x="0" y="5" font-size="10px" fill="#FFFFFF" font-family="Helvetica Neue, Helvetica, Arial, sans-serif"> 202.238…</text></g><g class="node" aria-label="graph-node2657681" transform="translate(639.89170958508,-304.03651196220346)"><circle class="b-outline" cx="0" cy="0" r="25" fill="#4C8EDA" stroke="#2870c2" stroke-width="2px"/><text class="caption" text-anchor="middle" pointer-events="none" x="0" y="5" font-size="10px" fill="#FFFFFF" font-family="Helvetica Neue, Helvetica, Arial, sans-serif"> bunshu…</text></g><g class="node" aria-label="graph-node3687218" transform="translate(477.5014191359954,-277.6481069220667)"><circle class="b-outline" cx="0" cy="0" r="25" fill="#A5ABB6" stroke="#9AA1AC" stroke-width="2px"/><text class="caption" text-anchor="middle" pointer-events="none" x="0" y="5" font-size="10px" fill="#FFFFFF" font-family="Helvetica Neue, Helvetica, Arial, sans-serif"> 202.238…</text></g><g class="node" aria-label="graph-node2798435" transform="translate(572.8901040884186,-463.83372989817985)"><circle class="b-outline" cx="0" cy="0" r="25" fill="#4C8EDA" stroke="#2870c2" stroke-width="2px"/><text class="caption" text-anchor="middle" pointer-events="none" x="0" y="5" font-size="10px" fill="#FFFFFF" font-family="Helvetica Neue, Helvetica, Arial, sans-serif"> afpbb.c…</text></g><g class="node" aria-label="graph-node3479919" transform="translate(439.6516443171532,-369.17954121066526)"><circle class="b-outline" cx="0" cy="0" r="25" fill="#A5ABB6" stroke="#9AA1AC" stroke-width="2px"/><text class="caption" text-anchor="middle" pointer-events="none" x="0" y="5" font-size="10px" fill="#FFFFFF" font-family="Helvetica Neue, Helvetica, Arial, sans-serif"> 202.238…</text></g><g class="node" aria-label="graph-node3226402" transform="translate(336.143812087739,-629.1281175285247)"><circle class="b-outline" cx="0" cy="0" r="25" fill="#4C8EDA" stroke="#2870c2" stroke-width="2px"/><text class="caption" text-anchor="middle" pointer-events="none" x="0" y="5" font-size="10px" fill="#FFFFFF" font-family="Helvetica Neue, Helvetica, Arial, sans-serif"> okinawa…</text></g><g class="node" aria-label="graph-node3435791" transform="translate(291.82185996630847,-472.3614189350812)"><circle class="b-outline" cx="0" cy="0" r="25" fill="#A5ABB6" stroke="#9AA1AC" stroke-width="2px"/><text class="caption" text-anchor="middle" pointer-events="none" x="0" y="5" font-size="10px" fill="#FFFFFF" font-family="Helvetica Neue, Helvetica, Arial, sans-serif"> 202.238…</text></g><g class="node" aria-label="graph-node2743188" transform="translate(484.703778562171,-584.8519406014017)"><circle class="b-outline" cx="0" cy="0" r="25" fill="#4C8EDA" stroke="#2870c2" stroke-width="2px"/><text class="caption" text-anchor="middle" pointer-events="none" x="0" y="5" font-size="10px" fill="#FFFFFF" font-family="Helvetica Neue, Helvetica, Arial, sans-serif"> jprime.jp</text></g><g class="node" aria-label="graph-node3355609" transform="translate(389.5188072747212,-454.79143222210945)"><circle class="b-outline" cx="0" cy="0" r="25" fill="#A5ABB6" stroke="#9AA1AC" stroke-width="2px"/><text class="caption" text-anchor="middle" pointer-events="none" x="0" y="5" font-size="10px" fill="#FFFFFF" font-family="Helvetica Neue, Helvetica, Arial, sans-serif"> 202.238…</text></g><g class="node" aria-label="graph-node3088359" transform="translate(203.58923914330953,-600.0952594496999)"><circle class="b-outline" cx="0" cy="0" r="25" fill="#4C8EDA" stroke="#2870c2" stroke-width="2px"/><text class="caption" text-anchor="middle" pointer-events="none" x="0" y="5" font-size="10px" fill="#FFFFFF" font-family="Helvetica Neue, Helvetica, Arial, sans-serif"> toyokeiz…</text></g><g class="node" aria-label="graph-node3318935" transform="translate(198.89964992762737,-437.594410761817)"><circle class="b-outline" cx="0" cy="0" r="25" fill="#A5ABB6" stroke="#9AA1AC" stroke-width="2px"/><text class="caption" text-anchor="middle" pointer-events="none" x="0" y="5" font-size="10px" fill="#FFFFFF" font-family="Helvetica Neue, Helvetica, Arial, sans-serif"> 202.238…</text></g><g class="node" aria-label="graph-node2461198" transform="translate(79.6595225669907,-555.9235467242723)"><circle class="b-outline" cx="0" cy="0" r="25" fill="#4C8EDA" stroke="#2870c2" stroke-width="2px"/><text class="caption" text-anchor="middle" pointer-events="none" x="0" y="5" font-size="10px" fill="#FFFFFF" font-family="Helvetica Neue, Helvetica, Arial, sans-serif"> konami.…</text></g><g class="node" aria-label="graph-node3597754" transform="translate(35.39707842244664,-403.45300099493693)"><circle class="b-outline" cx="0" cy="0" r="25" fill="#A5ABB6" stroke="#9AA1AC" stroke-width="2px"/><text class="caption" text-anchor="middle" pointer-events="none" x="0" y="5" font-size="10px" fill="#FFFFFF" font-family="Helvetica Neue, Helvetica, Arial, sans-serif"> 210.149…</text></g><g class="node" aria-label="graph-node1017063" transform="translate(24.622751624753327,-195.15588065171534)"><circle class="b-outline" cx="0" cy="0" r="25" fill="#DA7194" stroke="#cc3c6c" stroke-width="2px"/><text class="caption" text-anchor="middle" pointer-events="none" x="0" y="5" font-size="10px" fill="#FFFFFF" font-family="Helvetica Neue, Helvetica, Arial, sans-serif"> 210.149…</text></g><g class="node" aria-label="graph-node2741998" transform="translate(-19.829868033360732,-551.8934972483495)"><circle class="b-outline" cx="0" cy="0" r="25" fill="#4C8EDA" stroke="#2870c2" stroke-width="2px"/><text class="caption" text-anchor="middle" pointer-events="none" x="0" y="5" font-size="10px" fill="#FFFFFF" font-family="Helvetica Neue, Helvetica, Arial, sans-serif"> yugioh-c…</text></g><g class="node" aria-label="graph-node2488073" transform="translate(-143.84545919843407,-619.5517037154751)"><circle class="b-outline" cx="0" cy="0" r="25" fill="#4C8EDA" stroke="#2870c2" stroke-width="2px"/><text class="caption" text-anchor="middle" pointer-events="none" x="0" y="5" font-size="10px" fill="#FFFFFF" font-family="Helvetica Neue, Helvetica, Arial, sans-serif"> pia.co.jp</text></g><g class="node" aria-label="graph-node3319164" transform="translate(-139.23754796213007,-456.6211108617975)"><circle class="b-outline" cx="0" cy="0" r="25" fill="#A5ABB6" stroke="#9AA1AC" stroke-width="2px"/><text class="caption" text-anchor="middle" pointer-events="none" x="0" y="5" font-size="10px" fill="#FFFFFF" font-family="Helvetica Neue, Helvetica, Arial, sans-serif"> 202.214…</text></g><g class="node" aria-label="graph-node698919" transform="translate(-73.29339799206842,-226.1023570346323)"><circle class="b-outline" cx="0" cy="0" r="25" fill="#DA7194" stroke="#cc3c6c" stroke-width="2px"/><text class="caption" text-anchor="middle" pointer-events="none" x="0" y="5" font-size="10px" fill="#FFFFFF" font-family="Helvetica Neue, Helvetica, Arial, sans-serif"> 202.214…</text></g><g class="node" aria-label="graph-node3245785" transform="translate(-237.32052658047175,-585.4676320728261)"><circle class="b-outline" cx="0" cy="0" r="25" fill="#4C8EDA" stroke="#2870c2" stroke-width="2px"/><text class="caption" text-anchor="middle" pointer-events="none" x="0" y="5" font-size="10px" fill="#FFFFFF" font-family="Helvetica Neue, Helvetica, Arial, sans-serif"> pia.jp</text></g><g class="node" aria-label="graph-node2535042" transform="translate(-412.89969581864005,-522.9989048873535)"><circle class="b-outline" cx="0" cy="0" r="25" fill="#4C8EDA" stroke="#2870c2" stroke-width="2px"/><text class="caption" text-anchor="middle" pointer-events="none" x="0" y="5" font-size="10px" fill="#FFFFFF" font-family="Helvetica Neue, Helvetica, Arial, sans-serif"> tower.jp</text></g><g class="node" aria-label="graph-node3734380" transform="translate(-345.0433347733605,-364.6887054816788)"><circle class="b-outline" cx="0" cy="0" r="25" fill="#A5ABB6" stroke="#9AA1AC" stroke-width="2px"/><text class="caption" text-anchor="middle" pointer-events="none" x="0" y="5" font-size="10px" fill="#FFFFFF" font-family="Helvetica Neue, Helvetica, Arial, sans-serif"> 202.238…</text></g><g class="node" aria-label="graph-node1669929" transform="translate(-183.7960341942158,-231.87399182622462)"><circle class="b-outline" cx="0" cy="0" r="25" fill="#DA7194" stroke="#cc3c6c" stroke-width="2px"/><text class="caption" text-anchor="middle" pointer-events="none" x="0" y="5" font-size="10px" fill="#FFFFFF" font-family="Helvetica Neue, Helvetica, Arial, sans-serif"> 202.238…</text></g><g class="node" aria-label="graph-node3557761" transform="translate(-265.88984767678005,-424.62357874745675)"><circle class="b-outline" cx="0" cy="0" r="25" fill="#A5ABB6" stroke="#9AA1AC" stroke-width="2px"/><text class="caption" text-anchor="middle" pointer-events="none" x="0" y="5" font-size="10px" fill="#FFFFFF" font-family="Helvetica Neue, Helvetica, Arial, sans-serif"> 202.238…</text></g><g class="node" aria-label="graph-node2720921" transform="translate(-478.38163506098573,-348.654703697368)"><circle class="b-outline" cx="0" cy="0" r="25" fill="#4C8EDA" stroke="#2870c2" stroke-width="2px"/><text class="caption" text-anchor="middle" pointer-events="none" x="0" y="5" font-size="10px" fill="#FFFFFF" font-family="Helvetica Neue, Helvetica, Arial, sans-serif"> kenwoo…</text></g><g class="node" aria-label="graph-node3451606" transform="translate(-346.28815568381265,-248.97725416278143)"><circle class="b-outline" cx="0" cy="0" r="25" fill="#A5ABB6" stroke="#9AA1AC" stroke-width="2px"/><text class="caption" text-anchor="middle" pointer-events="none" x="0" y="5" font-size="10px" fill="#FFFFFF" font-family="Helvetica Neue, Helvetica, Arial, sans-serif"> 150.31.…</text></g><g class="node" aria-label="graph-node486472" transform="translate(-177.74722589084058,-124.00070372308069)"><circle class="b-outline" cx="0" cy="0" r="25" fill="#DA7194" stroke="#cc3c6c" stroke-width="2px"/><text class="caption" text-anchor="middle" pointer-events="none" x="0" y="5" font-size="10px" fill="#FFFFFF" font-family="Helvetica Neue, Helvetica, Arial, sans-serif"> 150.31.…</text></g><g class="node" aria-label="graph-node2835309" transform="translate(-621.6024638414345,-260.17317799733155)"><circle class="b-outline" cx="0" cy="0" r="25" fill="#4C8EDA" stroke="#2870c2" stroke-width="2px"/><text class="caption" text-anchor="middle" pointer-events="none" x="0" y="5" font-size="10px" fill="#FFFFFF" font-family="Helvetica Neue, Helvetica, Arial, sans-serif"> hi-ho.ne…</text></g><g class="node" aria-label="graph-node3695750" transform="translate(-475.63035515407495,-184.23890775097922)"><circle class="b-outline" cx="0" cy="0" r="25" fill="#A5ABB6" stroke="#9AA1AC" stroke-width="2px"/><text class="caption" text-anchor="middle" pointer-events="none" x="0" y="5" font-size="10px" fill="#FFFFFF" font-family="Helvetica Neue, Helvetica, Arial, sans-serif"> 58.138.…</text></g><g class="node" aria-label="graph-node1111828" transform="translate(-297.22727646087395,-80.62198781557439)"><circle class="b-outline" cx="0" cy="0" r="25" fill="#DA7194" stroke="#cc3c6c" stroke-width="2px"/><text class="caption" text-anchor="middle" pointer-events="none" x="0" y="5" font-size="10px" fill="#FFFFFF" font-family="Helvetica Neue, Helvetica, Arial, sans-serif"> 58.138.…</text></g><g class="node" aria-label="graph-node3037231" transform="translate(-673.6989648697731,-108.37450438140723)"><circle class="b-outline" cx="0" cy="0" r="25" fill="#4C8EDA" stroke="#2870c2" stroke-width="2px"/><text class="caption" text-anchor="middle" pointer-events="none" x="0" y="5" font-size="10px" fill="#FFFFFF" font-family="Helvetica Neue, Helvetica, Arial, sans-serif"> nikonim…</text></g><g class="node" aria-label="graph-node3520955" transform="translate(-509.90186776848066,-90.65797845590018)"><circle class="b-outline" cx="0" cy="0" r="25" fill="#A5ABB6" stroke="#9AA1AC" stroke-width="2px"/><text class="caption" text-anchor="middle" pointer-events="none" x="0" y="5" font-size="10px" fill="#FFFFFF" font-family="Helvetica Neue, Helvetica, Arial, sans-serif"> 58.138.…</text></g><g class="node" aria-label="graph-node2852826" transform="translate(-600.7416744082542,39.56603549706959)"><circle class="b-outline" cx="0" cy="0" r="25" fill="#4C8EDA" stroke="#2870c2" stroke-width="2px"/><text class="caption" text-anchor="middle" pointer-events="none" x="0" y="5" font-size="10px" fill="#FFFFFF" font-family="Helvetica Neue, Helvetica, Arial, sans-serif"> r-agent.…</text></g><g class="node" aria-label="graph-node3507570" transform="translate(-436.9596139795977,21.34611589184985)"><circle class="b-outline" cx="0" cy="0" r="25" fill="#A5ABB6" stroke="#9AA1AC" stroke-width="2px"/><text class="caption" text-anchor="middle" pointer-events="none" x="0" y="5" font-size="10px" fill="#FFFFFF" font-family="Helvetica Neue, Helvetica, Arial, sans-serif"> 202.221…</text></g><g class="node" aria-label="graph-node371289" transform="translate(-225.57850946762133,-1.8481690856607027)"><circle class="b-outline" cx="0" cy="0" r="25" fill="#DA7194" stroke="#cc3c6c" stroke-width="2px"/><text class="caption" text-anchor="middle" pointer-events="none" x="0" y="5" font-size="10px" fill="#FFFFFF" font-family="Helvetica Neue, Helvetica, Arial, sans-serif"> 202.221…</text></g><g class="node" aria-label="graph-node3252619" transform="translate(-542.6611329819842,180.10065261468077)"><circle class="b-outline" cx="0" cy="0" r="25" fill="#4C8EDA" stroke="#2870c2" stroke-width="2px"/><text class="caption" text-anchor="middle" pointer-events="none" x="0" y="5" font-size="10px" fill="#FFFFFF" font-family="Helvetica Neue, Helvetica, Arial, sans-serif"> athome.…</text></g><g class="node" aria-label="graph-node3329209" transform="translate(-382.7841197710274,145.4806710098001)"><circle class="b-outline" cx="0" cy="0" r="25" fill="#A5ABB6" stroke="#9AA1AC" stroke-width="2px"/><text class="caption" text-anchor="middle" pointer-events="none" x="0" y="5" font-size="10px" fill="#FFFFFF" font-family="Helvetica Neue, Helvetica, Arial, sans-serif"> 220.156…</text></g><g class="node" aria-label="graph-node979444" transform="translate(-186.70725347915408,89.87606198738705)"><circle class="b-outline" cx="0" cy="0" r="25" fill="#DA7194" stroke="#cc3c6c" stroke-width="2px"/><text class="caption" text-anchor="middle" pointer-events="none" x="0" y="5" font-size="10px" fill="#FFFFFF" font-family="Helvetica Neue, Helvetica, Arial, sans-serif"> 220.156…</text></g><g class="node" aria-label="graph-node2445425" transform="translate(-600.2646999009027,337.86243008377835)"><circle class="b-outline" cx="0" cy="0" r="25" fill="#4C8EDA" stroke="#2870c2" stroke-width="2px"/><text class="caption" text-anchor="middle" pointer-events="none" x="0" y="5" font-size="10px" fill="#FFFFFF" font-family="Helvetica Neue, Helvetica, Arial, sans-serif"> family.co…</text></g><g class="node" aria-label="graph-node3668046" transform="translate(-448.8483995680888,274.2231279566429)"><circle class="b-outline" cx="0" cy="0" r="25" fill="#A5ABB6" stroke="#9AA1AC" stroke-width="2px"/><text class="caption" text-anchor="middle" pointer-events="none" x="0" y="5" font-size="10px" fill="#FFFFFF" font-family="Helvetica Neue, Helvetica, Arial, sans-serif"> 202.232…</text></g><g class="node" aria-label="graph-node937499" transform="translate(-257.13151562124415,218.12963230072808)"><circle class="b-outline" cx="0" cy="0" r="25" fill="#DA7194" stroke="#cc3c6c" stroke-width="2px"/><text class="caption" text-anchor="middle" pointer-events="none" x="0" y="5" font-size="10px" fill="#FFFFFF" font-family="Helvetica Neue, Helvetica, Arial, sans-serif"> 202.232…</text></g><g class="node" aria-label="graph-node3226559" transform="translate(-517.3342191723452,478.0928748349502)"><circle class="b-outline" cx="0" cy="0" r="25" fill="#4C8EDA" stroke="#2870c2" stroke-width="2px"/><text class="caption" text-anchor="middle" pointer-events="none" x="0" y="5" font-size="10px" fill="#FFFFFF" font-family="Helvetica Neue, Helvetica, Arial, sans-serif"> nhk.jp</text></g><g class="node" aria-label="graph-node3525938" transform="translate(-402.9208625139814,362.5238801280957)"><circle class="b-outline" cx="0" cy="0" r="25" fill="#A5ABB6" stroke="#9AA1AC" stroke-width="2px"/><text class="caption" text-anchor="middle" pointer-events="none" x="0" y="5" font-size="10px" fill="#FFFFFF" font-family="Helvetica Neue, Helvetica, Arial, sans-serif"> 202.232…</text></g><g class="node" aria-label="graph-node3054558" transform="translate(-384.62724242987815,553.2840411951568)"><circle class="b-outline" cx="0" cy="0" r="25" fill="#4C8EDA" stroke="#2870c2" stroke-width="2px"/><text class="caption" text-anchor="middle" pointer-events="none" x="0" y="5" font-size="10px" fill="#FFFFFF" font-family="Helvetica Neue, Helvetica, Arial, sans-serif"> iij.ad.jp</text></g><g class="node" aria-label="graph-node3307725" transform="translate(-313.3576007610524,406.13943202739057)"><circle class="b-outline" cx="0" cy="0" r="25" fill="#A5ABB6" stroke="#9AA1AC" stroke-width="2px"/><text class="caption" text-anchor="middle" pointer-events="none" x="0" y="5" font-size="10px" fill="#FFFFFF" font-family="Helvetica Neue, Helvetica, Arial, sans-serif"> 202.232…</text></g><g class="node" aria-label="graph-node2812372" transform="translate(-219.41410133796643,512.8743666458782)"><circle class="b-outline" cx="0" cy="0" r="25" fill="#4C8EDA" stroke="#2870c2" stroke-width="2px"/><text class="caption" text-anchor="middle" pointer-events="none" x="0" y="5" font-size="10px" fill="#FFFFFF" font-family="Helvetica Neue, Helvetica, Arial, sans-serif"> ismedia.jp</text></g><g class="node" aria-label="graph-node3832558" transform="translate(-157.6525388316966,361.98744677729746)"><circle class="b-outline" cx="0" cy="0" r="25" fill="#A5ABB6" stroke="#9AA1AC" stroke-width="2px"/><text class="caption" text-anchor="middle" pointer-events="none" x="0" y="5" font-size="10px" fill="#FFFFFF" font-family="Helvetica Neue, Helvetica, Arial, sans-serif"> 210.148…</text></g><g class="node" aria-label="graph-node1681885" transform="translate(-64.53412644504688,199.1107980255868)"><circle class="b-outline" cx="0" cy="0" r="25" fill="#DA7194" stroke="#cc3c6c" stroke-width="2px"/><text class="caption" text-anchor="middle" pointer-events="none" x="0" y="5" font-size="10px" fill="#FFFFFF" font-family="Helvetica Neue, Helvetica, Arial, sans-serif"> 210.148…</text></g><g class="node" aria-label="graph-node2656766" transform="translate(-96.99041440434186,537.9601970888706)"><circle class="b-outline" cx="0" cy="0" r="25" fill="#4C8EDA" stroke="#2870c2" stroke-width="2px"/><text class="caption" text-anchor="middle" pointer-events="none" x="0" y="5" font-size="10px" fill="#FFFFFF" font-family="Helvetica Neue, Helvetica, Arial, sans-serif"> diamon…</text></g><g class="node" aria-label="graph-node3537342" transform="translate(-59.72071690700624,380.6950737069746)"><circle class="b-outline" cx="0" cy="0" r="25" fill="#A5ABB6" stroke="#9AA1AC" stroke-width="2px"/><text class="caption" text-anchor="middle" pointer-events="none" x="0" y="5" font-size="10px" fill="#FFFFFF" font-family="Helvetica Neue, Helvetica, Arial, sans-serif"> 210.148…</text></g></g></svg>