<svg xmlns="http://www.w3.org/2000/svg" width="66.51453399658203" height="263.0552978515625" viewBox="-33.257266998291016 -89.15162658691406 66.51453399658203 263.0552978515625"><title>Neo4j Graph Visualization</title><desc>Created using Neo4j (http://www.neo4j.com/)</desc><g class="layer relationships"><g class="relationship" transform="translate(-5.416145445561315e-15 81.19402756626904) rotate(270)"><path class="b-outline" fill="#A5ABB6" stroke="none" d="M 21.40063509461097,-12.933012701892217 L 21.90063509461097,-12.06698729810778 A 94.721514570253 94.721514570253 0 0 1 44.427241066541086,-21.443791990257452 L 44.16506038429727,-22.40881079310958 A 95.721514570253 95.721514570253 0 0 0 21.40063509461097,-12.933012701892217 Z M 89.94536784326442,-23.49580241611278 L 89.7292829269696,-22.519427842012306 A 94.721514570253 94.721514570253 0 0 1 112.67553222720032,-14.222314735577163 L 111.30052866931496,-11.555975444376102 L 119.1261578329837,-11.458362982378143 L 114.50887030438082,-17.77743379051191 L 113.13386674649546,-15.11109449931085 A 95.721514570253 95.721514570253 0 0 0 89.94536784326442,-23.49580241611278"/><text text-anchor="middle" pointer-events="none" font-size="8px" fill="#000000" x="67.00112304765041" y="-22.230434223840717" font-family="Helvetica Neue, Helvetica, Arial, sans-serif">COUNTRY</text></g><g class="relationship" transform="translate(-5.416145445561315e-15 81.19402756626904) rotate(270)"><path class="b-outline" fill="#A5ABB6" stroke="none" d="M 25 0.5 L 44.17282596316299 0.5 L 44.17282596316299 -0.5 L 25 -0.5 Z M 90.17282596316299 0.5 L 109.34565192632598 0.5 L 109.34565192632598 3.5 L 116.34565192632598 0 L 109.34565192632598 -3.5 L 109.34565192632598 -0.5 L 90.17282596316299 -0.5 Z"/><text text-anchor="middle" pointer-events="none" font-size="8px" fill="#000000" x="67.17282596316299" y="3" font-family="Helvetica Neue, Helvetica, Arial, sans-serif">COUNTRY</text></g><g class="relationship" transform="translate(-5.416145445561315e-15 81.19402756626904) rotate(270)"><path class="b-outline" fill="#A5ABB6" stroke="none" d="M 21.40063509461097,12.933012701892217 L 21.90063509461097,12.06698729810778 A 94.721514570253 94.721514570253 0 0 0 40.13679312877659,20.168557190015576 L 39.82931705659702,21.12011300290152 A 95.721514570253 95.721514570253 0 0 1 21.40063509461097,12.933012701892217 Z M 94.33738757906347,22.41433358228693 L 94.07541935476296,21.449257083009897 A 94.721514570253 94.721514570253 0 0 0 112.67553222720032,14.222314735577163 L 111.30052866931496,11.555975444376102 L 119.1261578329837,11.458362982378143 L 114.50887030438082,17.77743379051191 L 113.13386674649546,15.11109449931085 A 95.721514570253 95.721514570253 0 0 1 94.33738757906347,22.41433358228693"/><text text-anchor="middle" pointer-events="none" font-size="8px" fill="#000000" x="67.00112304765044" y="28.23043422384073" font-family="Helvetica Neue, Helvetica, Arial, sans-serif">POPULATION</text></g><g class="relationship" transform="translate(-5.416145445561315e-15 81.19402756626904) rotate(360)"><path class="b-outline" fill="#A5ABB6" stroke="none" d="M 6.953439040707552 24.018736134675446 L 17.306200844808384 62.65576918623819 A 17.916697508022974 17.916697508022974 0 1 1 -17.306200844808384 62.65576918623819 L -8.765172356425198 30.780216918698923 L -4.901469051268926 31.815493099109005 L -6.4704761275630185 24.148145657226706 L -11.662949835292403 30.00375978339136 L -7.79924653013613 31.039035963801442 L -16.340275018519314 62.91458823134071 A 16.916697508022974 16.916697508022974 0 1 0 16.340275018519314 62.91458823134071 L 5.987513214418485 24.277555179777966 Z"/><text text-anchor="middle" pointer-events="none" font-size="8px" fill="#000000" x="0" y="94.20964923467838" font-family="Helvetica Neue, Helvetica, Arial, sans-serif"/></g></g><g class="layer nodes"><g class="node" aria-label="graph-node320" transform="translate(-5.416145445561315e-15,81.19402756626904)"><circle class="b-outline" cx="0" cy="0" r="25" fill="#FFC454" stroke="#d7a013" stroke-width="2px"/><text class="caption" text-anchor="middle" pointer-events="none" x="0" y="5" font-size="10px" fill="#2A2C34" font-family="Helvetica Neue, Helvetica, Arial, sans-serif"> 2497</text></g><g class="node" aria-label="graph-node93" transform="translate(4.051269790650251e-15,-60.151624360056935)"><circle class="b-outline" cx="0" cy="0" r="25" fill="#57C7E3" stroke="#23b3d7" stroke-width="2px"/><text class="caption" text-anchor="middle" pointer-events="none" x="0" y="5" font-size="10px" fill="#2A2C34" font-family="Helvetica Neue, Helvetica, Arial, sans-serif"> JP</text></g></g></svg>