<svg xmlns="http://www.w3.org/2000/svg" width="825.8548583984375" height="766.833251953125" viewBox="-447.6307678222656 -495.5780944824219 825.8548583984375 766.833251953125"><title>Neo4j Graph Visualization</title><desc>Created using Neo4j (http://www.neo4j.com/)</desc><g class="layer relationships"><g class="relationship" transform="translate(-20.700409739783936 -132.49362757711864) rotate(198.5103783626247)"><path class="b-outline" fill="#A5ABB6" stroke="none" d="M 24.018736134675446,-6.953439040707552 L 24.277555179777966,-5.987513214418485 A 380.2125374981051 380.2125374981051 0 0 1 91.70479045037371,-17.678783590728415 L 91.62331230968819,-18.675458719639778 A 381.2125374981051 381.2125374981051 0 0 0 24.018736134675446,-6.953439040707552 Z M 148.31579319700862,-19.08024236919067 L 148.24855513528541,-18.08250540833592 A 380.2125374981051 380.2125374981051 0 0 1 215.83585850840427,-7.355237256646698 L 215.10085862083884,-4.446667992338424 L 222.7450201063845,-6.1249990630453635 L 216.81585835849154,-11.23332960905773 L 216.0808584709261,-8.324760344749457 A 381.2125374981051 381.2125374981051 0 0 0 148.31579319700862,-19.08024236919067"/><text text-anchor="middle" pointer-events="none" font-size="8px" fill="#000000" x="119.96558729784259" y="-16.433237380623666" transform="rotate(180 119.96558729784259 -19.433237380623666)" font-family="Helvetica Neue, Helvetica, Arial, sans-serif">MEMBER_OF</text></g><g class="relationship" transform="translate(-254.90612403799474 -210.90493891922506) rotate(507.1164253688237)"><path class="b-outline" fill="#A5ABB6" stroke="none" d="M 24.018736134675446,6.953439040707552 L 24.277555179777966,5.987513214418485 A 278.88343458710847 278.88343458710847 0 0 0 71.3229524648962,14.35525671588232 L 71.23282539447038,15.351186990136682 A 279.88343458710847 279.88343458710847 0 0 1 24.018736134675446,6.953439040707552 Z M 116.67235885732607,15.759291065828563 L 116.60013429186502,14.761902669994754 A 278.88343458710847 278.88343458710847 0 0 0 163.7882361148639,7.240494333573034 L 163.06395139569415,4.329238308147375 L 170.70188096071874,6.035705993081239 L 164.7539490737569,11.12216903414058 L 164.02966435458714,8.21091300871492 A 279.88343458710847 279.88343458710847 0 0 1 116.67235885732607,15.759291065828563"/><text text-anchor="middle" pointer-events="none" font-size="8px" fill="#000000" x="93.94878650270101" y="18.9789685443414" transform="rotate(180 93.94878650270101 15.978968544341399)" font-family="Helvetica Neue, Helvetica, Arial, sans-serif">COUNTRY</text></g><g class="relationship" transform="translate(-254.90612403799474 -210.90493891922506) rotate(507.1164253688237)"><path class="b-outline" fill="#A5ABB6" stroke="none" d="M 24.018736134675446,-6.953439040707552 L 24.277555179777966,-5.987513214418485 A 278.88343458710847 278.88343458710847 0 0 1 71.32295246489622,-14.35525671588232 L 71.2328253944704,-15.351186990136682 A 279.88343458710847 279.88343458710847 0 0 0 24.018736134675446,-6.953439040707552 Z M 116.6723588573261,-15.759291065828563 L 116.60013429186505,-14.761902669994754 A 278.88343458710847 278.88343458710847 0 0 1 163.7882361148639,-7.240494333573034 L 163.06395139569415,-4.329238308147375 L 170.70188096071874,-6.035705993081239 L 164.7539490737569,-11.12216903414058 L 164.02966435458714,-8.21091300871492 A 279.88343458710847 279.88343458710847 0 0 0 116.6723588573261,-15.759291065828563"/><text text-anchor="middle" pointer-events="none" font-size="8px" fill="#000000" x="93.94878650270103" y="-12.978968544341399" transform="rotate(180 93.94878650270103 -15.978968544341399)" font-family="Helvetica Neue, Helvetica, Arial, sans-serif">COUNTRY</text></g><g class="relationship" transform="translate(-20.700409739783936 -132.49362757711864) rotate(270.05144641726076)"><path class="b-outline" fill="#A5ABB6" stroke="none" d="M 5.987513214418485,-24.277555179777966 L 6.953439040707552,-24.018736134675446 A 93.31463358466317 93.31463358466317 0 0 1 66.30607622830252,-87.95836905296227 L 65.97619894989468,-88.90239287744458 A 94.31463358466317 94.31463358466317 0 0 0 5.987513214418485,-24.277555179777966 Z M 122.05509630774262,-90.81721071874844 L 121.79037977576887,-89.85288444735488 A 93.31463358466317 93.31463358466317 0 0 1 185.36614289640679,-30.110650286950513 L 182.52807712104885,-29.138342385747396 L 188.10787229510703,-23.650548127982532 L 189.150230596884,-31.407060821888 L 186.31216482152607,-30.434752920684883 A 94.31463358466317 94.31463358466317 0 0 0 122.05509630774262,-90.81721071874844"/><text text-anchor="middle" pointer-events="none" font-size="8px" fill="#000000" x="93.88701213164771" y="-90.62712456207993" font-family="Helvetica Neue, Helvetica, Arial, sans-serif">MEMBER_OF</text></g><g class="relationship" transform="translate(-20.52423057264861 -328.70398661911713) rotate(268.7666993496764)"><path class="b-outline" fill="#A5ABB6" stroke="none" d="M 24.018736134675446,6.953439040707552 L 24.277555179777966,5.987513214418485 A 167.0233536610693 167.0233536610693 0 0 0 42.867720208624235,9.851398894167033 L 42.72020395215193,10.840458525370536 A 168.0233536610693 168.0233536610693 0 0 1 24.018736134675446,6.953439040707552 Z M 88.12302049584247,11.40905746174505 L 88.00031945481176,10.416613783479136 A 167.0233536610693 167.0233536610693 0 0 0 106.68141719168344,7.0194921060371644 L 105.97777240940307,4.103178676316414 L 113.60342265807859,5.863706519003088 L 107.61961023472394,10.907910012331499 L 106.91596545244357,7.9915965826107485 A 168.0233536610693 168.0233536610693 0 0 1 88.12302049584247,11.40905746174505"/><text text-anchor="middle" pointer-events="none" font-size="8px" fill="#000000" x="65.4085778060342" y="15.165560657209255" transform="rotate(180 65.4085778060342 12.165560657209255)" font-family="Helvetica Neue, Helvetica, Arial, sans-serif">COUNTRY</text></g><g class="relationship" transform="translate(-20.52423057264861 -328.70398661911713) rotate(268.7666993496764)"><path class="b-outline" fill="#A5ABB6" stroke="none" d="M 24.018736134675446,-6.953439040707552 L 24.277555179777966,-5.987513214418485 A 167.0233536610693 167.0233536610693 0 0 1 42.867720208624135,-9.851398894167033 L 42.72020395215182,-10.840458525370536 A 168.0233536610693 168.0233536610693 0 0 0 24.018736134675446,-6.953439040707552 Z M 88.12302049584241,-11.40905746174505 L 88.0003194548117,-10.416613783479136 A 167.0233536610693 167.0233536610693 0 0 1 106.68141719168344,-7.0194921060371644 L 105.97777240940307,-4.103178676316414 L 113.60342265807859,-5.863706519003088 L 107.61961023472394,-10.907910012331499 L 106.91596545244357,-7.9915965826107485 A 168.0233536610693 168.0233536610693 0 0 0 88.12302049584241,-11.40905746174505"/><text text-anchor="middle" pointer-events="none" font-size="8px" fill="#000000" x="65.40857780603412" y="-9.165560657209255" transform="rotate(180 65.40857780603412 -12.165560657209255)" font-family="Helvetica Neue, Helvetica, Arial, sans-serif">COUNTRY</text></g><g class="relationship" transform="translate(-20.700409739783936 -132.49362757711864) rotate(270.05144641726076)"><path class="b-outline" fill="#A5ABB6" stroke="none" d="M 17.324116139070416,-18.03122292025696 L 18.031222920256962,-17.324116139070412 A 111.80380781799376 111.80380781799376 0 0 1 66.52235496126364,-45.81131841213386 L 66.2489644638726,-46.773221544437874 A 112.80380781799376 112.80380781799376 0 0 0 17.324116139070416,-18.03122292025696 Z M 122.55403876895421,-48.15866418634886 L 122.32828765584281,-47.18447917572256 A 111.80380781799376 111.80380781799376 0 0 1 172.1618007086891,-21.11665309112979 L 170.14737878738754,-18.893568674608524 L 177.68473466745567,-16.786849344179693 L 174.84769660375787,-24.080765646491486 L 172.8332746824563,-21.85768122997022 A 112.80380781799376 112.80380781799376 0 0 0 122.55403876895421,-48.15866418634886"/><text text-anchor="middle" pointer-events="none" font-size="8px" fill="#000000" x="94.32594229035894" y="-47.536711253228276" font-family="Helvetica Neue, Helvetica, Arial, sans-serif">MEMBER_OF</text></g><g class="relationship" transform="translate(-20.700409739783936 -132.49362757711864) rotate(270.05144641726076)"><path class="b-outline" fill="#A5ABB6" stroke="none" d="M 24.018736134675446,-6.953439040707552 L 24.277555179777966,-5.987513214418485 A 281.31970884220954 281.31970884220954 0 0 1 66.35326305606245,-13.889244452969137 L 66.24400945750988,-14.883258361927801 A 282.31970884220954 282.31970884220954 0 0 0 24.018736134675446,-6.953439040707552 Z M 122.91856402016427,-15.389137102197367 L 122.82707161060046,-14.393331328468264 A 281.31970884220954 281.31970884220954 0 0 1 165.03712627366406,-7.243937284362395 L 164.3125200280248,-4.332761269625292 L 171.95063801565718,-6.038385380327009 L 166.0032679345164,-11.125505304011865 L 165.27866168887715,-8.214329289274762 A 282.31970884220954 282.31970884220954 0 0 0 122.91856402016427,-15.389137102197367"/><text text-anchor="middle" pointer-events="none" font-size="8px" fill="#000000" x="94.57302278937789" y="-13.062023660776902" font-family="Helvetica Neue, Helvetica, Arial, sans-serif">MEMBER_OF</text></g><g class="relationship" transform="translate(-20.700409739783936 -132.49362757711864) rotate(270.05144641726076)"><path class="b-outline" fill="#A5ABB6" stroke="none" d="M 24.018736134675446,6.953439040707552 L 24.277555179777966,5.987513214418485 A 281.31970884220954 281.31970884220954 0 0 0 66.35326305606245,13.889244452969137 L 66.24400945750986,14.883258361927801 A 282.31970884220954 282.31970884220954 0 0 1 24.018736134675446,6.953439040707552 Z M 122.9185640201643,15.389137102197367 L 122.82707161060048,14.393331328468264 A 281.31970884220954 281.31970884220954 0 0 0 165.03712627366406,7.243937284362395 L 164.3125200280248,4.332761269625292 L 171.95063801565718,6.038385380327009 L 166.0032679345164,11.125505304011865 L 165.27866168887715,8.214329289274762 A 282.31970884220954 282.31970884220954 0 0 1 122.9185640201643,15.389137102197367"/><text text-anchor="middle" pointer-events="none" font-size="8px" fill="#000000" x="94.5730227893779" y="19.0620236607769" font-family="Helvetica Neue, Helvetica, Arial, sans-serif">MEMBER_OF</text></g><g class="relationship" transform="translate(-20.700409739783936 -132.49362757711864) rotate(529.8642230067469)"><path class="b-outline" fill="#A5ABB6" stroke="none" d="M 24.018736134675446,-6.953439040707552 L 24.277555179777966,-5.987513214418485 A 364.6334864408096 364.6334864408096 0 0 1 87.70349327478786,-17.096366781278334 L 87.61861858875699,-18.092758414960144 A 365.6334864408096 365.6334864408096 0 0 0 24.018736134675446,-6.953439040707552 Z M 144.30961266520345,-18.510725761910123 L 144.239438658544,-17.513190996205537 A 364.6334864408096 364.6334864408096 0 0 1 207.82227805815936,-7.340738750818447 L 207.08863206495317,-4.431827690532743 L 214.73201153102704,-6.113716610051616 L 208.80047271576763,-11.219286831199387 L 208.06682672256144,-8.310375770913682 A 365.6334864408096 365.6334864408096 0 0 0 144.30961266520345,-18.510725761910123"/><text text-anchor="middle" pointer-events="none" font-size="8px" fill="#000000" x="115.95968880088425" y="-15.902174571536648" transform="rotate(180 115.95968880088425 -18.902174571536648)" font-family="Helvetica Neue, Helvetica, Arial, sans-serif">MEMBER_OF</text></g><g class="relationship" transform="translate(-255.94381191478993 -90.4388256217944) rotate(185.1332115837148)"><path class="b-outline" fill="#A5ABB6" stroke="none" d="M 24.018736134675446,6.953439040707552 L 24.277555179777966,5.987513214418485 A 217.03231114629745 217.03231114629745 0 0 0 55.54030075205182,11.948516463447078 L 55.42552821047292,12.941908261127907 A 218.03231114629745 218.03231114629745 0 0 1 24.018736134675446,6.953439040707552 Z M 100.8548871403893,13.425765904180167 L 100.76129900968493,12.43015490494841 A 217.03231114629745 217.03231114629745 0 0 0 132.14391670754136,7.136372997669323 L 131.4293558332533,4.222715029249439 L 139.06154544623578,5.954673952400496 L 133.09666453992546,11.021250288895834 L 132.3821036656374,8.10759232047595 A 218.03231114629745 218.03231114629745 0 0 1 100.8548871403893,13.425765904180167"/><text text-anchor="middle" pointer-events="none" font-size="8px" fill="#000000" x="78.1328955434557" y="16.870372622235948" transform="rotate(180 78.1328955434557 13.870372622235948)" font-family="Helvetica Neue, Helvetica, Arial, sans-serif">COUNTRY</text></g><g class="relationship" transform="translate(-255.94381191478993 -90.4388256217944) rotate(185.1332115837148)"><path class="b-outline" fill="#A5ABB6" stroke="none" d="M 24.018736134675446,-6.953439040707552 L 24.277555179777966,-5.987513214418485 A 217.03231114629745 217.03231114629745 0 0 1 55.54030075205178,-11.948516463447078 L 55.425528210472876,-12.941908261127907 A 218.03231114629745 218.03231114629745 0 0 0 24.018736134675446,-6.953439040707552 Z M 100.85488714038917,-13.425765904180167 L 100.7612990096848,-12.43015490494841 A 217.03231114629745 217.03231114629745 0 0 1 132.14391670754136,-7.136372997669323 L 131.4293558332533,-4.222715029249439 L 139.06154544623578,-5.954673952400496 L 133.09666453992546,-11.021250288895834 L 132.3821036656374,-8.10759232047595 A 218.03231114629745 218.03231114629745 0 0 0 100.85488714038917,-13.425765904180167"/><text text-anchor="middle" pointer-events="none" font-size="8px" fill="#000000" x="78.13289554345562" y="-10.870372622235948" transform="rotate(180 78.13289554345562 -13.870372622235948)" font-family="Helvetica Neue, Helvetica, Arial, sans-serif">COUNTRY</text></g><g class="relationship" transform="translate(-20.700409739783936 -132.49362757711864) rotate(384.05206740217363)"><path class="b-outline" fill="#A5ABB6" stroke="none" d="M 25 0.5 L 107.43028344871936 0.5 L 107.43028344871936 -0.5 L 25 -0.5 Z M 164.10215844871936 0.5 L 246.53244189743873 0.5 L 246.53244189743873 3.5 L 253.53244189743873 0 L 246.53244189743873 -3.5 L 246.53244189743873 -0.5 L 164.10215844871936 -0.5 Z"/><text text-anchor="middle" pointer-events="none" font-size="8px" fill="#000000" x="135.76622094871936" y="3" font-family="Helvetica Neue, Helvetica, Arial, sans-serif">MEMBER_OF</text></g><g class="relationship" transform="translate(233.64858088443805 -18.973091294957314) rotate(445.3497167092558)"><path class="b-outline" fill="#A5ABB6" stroke="none" d="M 25 0.5 L 68.53049521536128 0.5 L 68.53049521536128 -0.5 L 25 -0.5 Z M 113.94065146536128 0.5 L 157.47114668072257 0.5 L 157.47114668072257 3.5 L 164.47114668072257 0 L 157.47114668072257 -3.5 L 157.47114668072257 -0.5 L 113.94065146536128 -0.5 Z"/><text text-anchor="middle" pointer-events="none" font-size="8px" fill="#000000" x="91.23557334036128" y="3" font-family="Helvetica Neue, Helvetica, Arial, sans-serif">COUNTRY</text></g><g class="relationship" transform="translate(-20.700409739783936 -132.49362757711864) rotate(340.0958947491067)"><path class="b-outline" fill="#A5ABB6" stroke="none" d="M 21.40063509461097,-12.933012701892217 L 21.90063509461097,-12.06698729810778 A 182.20973753162207 182.20973753162207 0 0 1 82.16904187107889,-33.850186579553394 L 81.99980578958795,-34.83576212141793 A 183.20973753162207 183.20973753162207 0 0 0 21.40063509461097,-12.933012701892217 Z M 138.59290148447448,-35.68287354364415 L 138.4532397068376,-34.69267427689664 A 182.20973753162207 182.20973753162207 0 0 1 199.3466214506225,-14.72308023709062 L 197.92505443516237,-12.08127267018576 L 205.74776694264386,-11.846391795501125 L 201.2420441379027,-18.2454903262971 L 199.82047712244255,-15.603682759392239 A 183.20973753162207 183.20973753162207 0 0 0 138.59290148447448,-35.68287354364415"/><text text-anchor="middle" pointer-events="none" font-size="8px" fill="#000000" x="110.27092700906628" y="-33.95799825621876" font-family="Helvetica Neue, Helvetica, Arial, sans-serif">MEMBER_OF</text></g><g class="relationship" transform="translate(193.4567197984799 -210.03478179617966) rotate(292.1305709693353)"><path class="b-outline" fill="#A5ABB6" stroke="none" d="M 21.40063509461097,12.933012701892217 L 21.90063509461097,12.06698729810778 A 82.12278449407039 82.12278449407039 0 0 0 38.63746096707208,19.38423414276103 L 38.341263431583855,20.339360846382448 A 83.12278449407039 83.12278449407039 0 0 1 21.40063509461097,12.933012701892217 Z M 83.43825449439781,21.50785955505009 L 83.19191737663424,20.538675349435934 A 82.12278449407039 82.12278449407039 0 0 0 100.28522205207545,14.097993945794599 L 98.92178089721091,11.425723709231383 L 106.74775946320038,11.362009623871188 L 102.10314359189485,17.661020927878887 L 100.7397024370303,14.98875069131567 A 83.12278449407039 83.12278449407039 0 0 1 83.43825449439781,21.50785955505009"/><text text-anchor="middle" pointer-events="none" font-size="8px" fill="#000000" x="60.82192392261524" y="26.541632956643582" font-family="Helvetica Neue, Helvetica, Arial, sans-serif">COUNTRY</text></g><g class="relationship" transform="translate(193.4567197984799 -210.03478179617966) rotate(292.1305709693353)"><path class="b-outline" fill="#A5ABB6" stroke="none" d="M 25 0.5 L 38.30326092561354 0.5 L 38.30326092561354 -0.5 L 25 -0.5 Z M 83.71341717561354 0.5 L 97.01667810122709 0.5 L 97.01667810122709 3.5 L 104.01667810122709 0 L 97.01667810122709 -3.5 L 97.01667810122709 -0.5 L 83.71341717561354 -0.5 Z"/><text text-anchor="middle" pointer-events="none" font-size="8px" fill="#000000" x="61.00833905061354" y="3" font-family="Helvetica Neue, Helvetica, Arial, sans-serif">COUNTRY</text></g><g class="relationship" transform="translate(193.4567197984799 -210.03478179617966) rotate(292.1305709693353)"><path class="b-outline" fill="#A5ABB6" stroke="none" d="M 21.40063509461097,-12.933012701892217 L 21.90063509461097,-12.06698729810778 A 82.12278449407039 82.12278449407039 0 0 1 38.63746096707209,-19.38423414276103 L 38.34126343158387,-20.339360846382448 A 83.12278449407039 83.12278449407039 0 0 0 21.40063509461097,-12.933012701892217 Z M 83.43825449439781,-21.50785955505009 L 83.19191737663424,-20.538675349435934 A 82.12278449407039 82.12278449407039 0 0 1 100.28522205207545,-14.097993945794599 L 98.92178089721091,-11.425723709231383 L 106.74775946320038,-11.362009623871188 L 102.10314359189485,-17.661020927878887 L 100.7397024370303,-14.98875069131567 A 83.12278449407039 83.12278449407039 0 0 0 83.43825449439781,-21.50785955505009"/><text text-anchor="middle" pointer-events="none" font-size="8px" fill="#000000" x="60.82192392261524" y="-20.541632956643582" font-family="Helvetica Neue, Helvetica, Arial, sans-serif">COUNTRY</text></g><g class="relationship" transform="translate(-20.700409739783936 -132.49362757711864) rotate(488.7265668105191)"><path class="b-outline" fill="#A5ABB6" stroke="none" d="M 25 0.5 L 150.96896677750885 0.5 L 150.96896677750885 -0.5 L 25 -0.5 Z M 207.64084177750885 0.5 L 333.6098085550177 0.5 L 333.6098085550177 3.5 L 340.6098085550177 0 L 333.6098085550177 -3.5 L 333.6098085550177 -0.5 L 207.64084177750885 -0.5 Z"/><text text-anchor="middle" pointer-events="none" font-size="8px" fill="#000000" x="179.30490427750885" y="3" transform="rotate(180 179.30490427750885 0)" font-family="Helvetica Neue, Helvetica, Arial, sans-serif">MEMBER_OF</text></g><g class="relationship" transform="translate(-249.4275357749243 152.7333590972521) rotate(236.7203425355662)"><path class="b-outline" fill="#A5ABB6" stroke="none" d="M 25 0.5 L 127.97313608248467 0.5 L 127.97313608248467 -0.5 L 25 -0.5 Z M 173.38329233248467 0.5 L 276.35642841496934 0.5 L 276.35642841496934 3.5 L 283.35642841496934 0 L 276.35642841496934 -3.5 L 276.35642841496934 -0.5 L 173.38329233248467 -0.5 Z"/><text text-anchor="middle" pointer-events="none" font-size="8px" fill="#000000" x="150.67821420748467" y="3" transform="rotate(180 150.67821420748467 0)" font-family="Helvetica Neue, Helvetica, Arial, sans-serif">COUNTRY</text></g><g class="relationship" transform="translate(-20.700409739783936 -132.49362757711864) rotate(412.58319148111445)"><path class="b-outline" fill="#A5ABB6" stroke="none" d="M 24.018736134675446,-6.953439040707552 L 24.277555179777966,-5.987513214418485 A 371.04938093104687 371.04938093104687 0 0 1 89.35107153561532,-17.33672750680114 L 89.26762946107277,-18.333240136021686 A 372.04938093104687 372.04938093104687 0 0 0 24.018736134675446,-6.953439040707552 Z M 145.95927437670318,-18.745676339836507 L 145.89033978346643,-17.74805515829746 A 371.04938093104687 371.04938093104687 0 0 1 211.12209236594154,-7.346822010895856 L 210.3878783066173,-4.4380542795204825 L 218.03158608237143,-6.118450494368554 L 212.10104444504051,-11.225178986063021 L 211.36683038571627,-8.316411254687647 A 372.04938093104687 372.04938093104687 0 0 0 145.95927437670318,-18.745676339836507"/><text text-anchor="middle" pointer-events="none" font-size="8px" fill="#000000" x="117.60922201346993" y="-16.120882210336447" font-family="Helvetica Neue, Helvetica, Arial, sans-serif">MEMBER_OF</text></g><g class="relationship" transform="translate(126.50579061079821 59.92707220620332) rotate(401.9079772066031)"><path class="b-outline" fill="#A5ABB6" stroke="none" d="M 24.018736134675446,6.953439040707552 L 24.277555179777966,5.987513214418485 A 219.51317786792 219.51317786792 0 0 0 56.17147508728747,12.048117098486642 L 56.05794991573408,13.041652218864243 A 220.51317786792 220.51317786792 0 0 1 24.018736134675446,6.953439040707552 Z M 101.4880230884695,13.52194453860065 L 101.39552849461937,12.526231351930676 A 219.51317786792 219.51317786792 0 0 0 133.410452223453,7.141279621119284 L 132.69543310976735,4.227734071953424 L 140.32789502378762,5.958492614047078 L 134.36381104170056,11.026007020007096 L 133.6487919280149,8.112461470841238 A 220.51317786792 220.51317786792 0 0 1 101.4880230884695,13.52194453860065"/><text text-anchor="middle" pointer-events="none" font-size="8px" fill="#000000" x="78.7658698711011" y="16.954948986849985" font-family="Helvetica Neue, Helvetica, Arial, sans-serif">COUNTRY</text></g><g class="relationship" transform="translate(126.50579061079821 59.92707220620332) rotate(401.9079772066031)"><path class="b-outline" fill="#A5ABB6" stroke="none" d="M 24.018736134675446,-6.953439040707552 L 24.277555179777966,-5.987513214418485 A 219.51317786792 219.51317786792 0 0 1 56.17147508728745,-12.048117098486642 L 56.057949915734056,-13.041652218864243 A 220.51317786792 220.51317786792 0 0 0 24.018736134675446,-6.953439040707552 Z M 101.4880230884694,-13.52194453860065 L 101.39552849461927,-12.526231351930676 A 219.51317786792 219.51317786792 0 0 1 133.410452223453,-7.141279621119284 L 132.69543310976735,-4.227734071953424 L 140.32789502378762,-5.958492614047078 L 134.36381104170056,-11.026007020007096 L 133.6487919280149,-8.112461470841238 A 220.51317786792 220.51317786792 0 0 0 101.4880230884694,-13.52194453860065"/><text text-anchor="middle" pointer-events="none" font-size="8px" fill="#000000" x="78.76586987110105" y="-10.954948986849985" font-family="Helvetica Neue, Helvetica, Arial, sans-serif">COUNTRY</text></g><g class="relationship" transform="translate(-20.700409739783936 -132.49362757711864) rotate(340.0958947491067)"><path class="b-outline" fill="#A5ABB6" stroke="none" d="M 25 0.5 L 82.04547750009222 0.5 L 82.04547750009222 -0.5 L 25 -0.5 Z M 138.7173525000922 0.5 L 195.76283000018444 0.5 L 195.76283000018444 3.5 L 202.76283000018444 0 L 195.76283000018444 -3.5 L 195.76283000018444 -0.5 L 138.7173525000922 -0.5 Z"/><text text-anchor="middle" pointer-events="none" font-size="8px" fill="#000000" x="110.38141500009222" y="3" font-family="Helvetica Neue, Helvetica, Arial, sans-serif">MEMBER_OF</text></g><g class="relationship" transform="translate(-20.700409739783936 -132.49362757711864) rotate(515.5371498494009)"><path class="b-outline" fill="#A5ABB6" stroke="none" d="M 24.018736134675446,-6.953439040707552 L 24.277555179777966,-5.987513214418485 A 398.8247791115267 398.8247791115267 0 0 1 96.48786282779807,-18.369498286010185 L 96.41010150887016,-19.3664702902704 A 399.8247791115267 399.8247791115267 0 0 0 24.018736134675446,-6.953439040707552 Z M 153.10398696813775,-19.75654589957071 L 153.03995145900203,-18.758598278916338 A 398.8247791115267 398.8247791115267 0 0 1 225.41380012529865,-7.37140748562468 L 224.67729024742113,-4.4632202152122575 L 232.32232206924056,-6.137582315645899 L 226.395813295802,-11.248990512841242 L 225.65930341792446,-8.340803242428821 A 399.8247791115267 399.8247791115267 0 0 0 153.10398696813775,-19.75654589957071"/><text text-anchor="middle" pointer-events="none" font-size="8px" fill="#000000" x="124.75356153819806" y="-17.067686403751054" transform="rotate(180 124.75356153819806 -20.067686403751054)" font-family="Helvetica Neue, Helvetica, Arial, sans-serif">MEMBER_OF</text></g><g class="relationship" transform="translate(-254.22647453816649 -26.252476717460752) rotate(205.6089287949559)"><path class="b-outline" fill="#A5ABB6" stroke="none" d="M 25 0.5 L 64.95183559101199 0.5 L 64.95183559101199 -0.5 L 25 -0.5 Z M 110.36199184101199 0.5 L 150.31382743202397 0.5 L 150.31382743202397 3.5 L 157.31382743202397 0 L 150.31382743202397 -3.5 L 150.31382743202397 -0.5 L 110.36199184101199 -0.5 Z"/><text text-anchor="middle" pointer-events="none" font-size="8px" fill="#000000" x="87.65691371601199" y="3" transform="rotate(180 87.65691371601199 0)" font-family="Helvetica Neue, Helvetica, Arial, sans-serif">COUNTRY</text></g><g class="relationship" transform="translate(-20.700409739783936 -132.49362757711864) rotate(270.05144641726076)"><path class="b-outline" fill="#A5ABB6" stroke="none" d="M 17.324116139070416,18.03122292025696 L 18.031222920256962,17.324116139070412 A 111.80380781799376 111.80380781799376 0 0 0 66.52235496126362,45.81131841213384 L 66.24896446387257,46.77322154443786 A 112.80380781799376 112.80380781799376 0 0 1 17.324116139070416,18.03122292025696 Z M 122.55403876895421,48.15866418634886 L 122.32828765584281,47.18447917572256 A 111.80380781799376 111.80380781799376 0 0 0 172.1618007086891,21.11665309112979 L 170.14737878738754,18.893568674608524 L 177.68473466745567,16.786849344179693 L 174.84769660375787,24.080765646491486 L 172.8332746824563,21.85768122997022 A 112.80380781799376 112.80380781799376 0 0 1 122.55403876895421,48.15866418634886"/><text text-anchor="middle" pointer-events="none" font-size="8px" fill="#000000" x="94.32594229035892" y="53.536711253228276" font-family="Helvetica Neue, Helvetica, Arial, sans-serif">MEMBER_OF</text></g><g class="relationship" transform="translate(-20.700409739783936 -132.49362757711864) rotate(211.36702927581803)"><path class="b-outline" fill="#A5ABB6" stroke="none" d="M 24.018736134675446,-6.953439040707552 L 24.277555179777966,-5.987513214418485 A 435.4310218185141 435.4310218185141 0 0 1 105.90256390020555,-19.714354795744896 L 105.83120280970519,-20.71180534327226 A 436.4310218185141 436.4310218185141 0 0 0 24.018736134675446,-6.953439040707552 Z M 162.52696509099002,-21.07584421877567 L 162.46841845393004,-20.077559544302005 A 435.4310218185141 435.4310218185141 0 0 1 244.26296754612576,-7.400021644019926 L 243.52378568460017,-4.4925123705022 L 251.1703528279214,-6.159848846046525 L 245.2485433614932,-11.276700675376894 L 244.5093614999676,-8.369191401859169 A 436.4310218185141 436.4310218185141 0 0 0 162.52696509099002,-21.07584421877567"/><text text-anchor="middle" pointer-events="none" font-size="8px" fill="#000000" x="134.17637654007194" y="-18.315479444070434" transform="rotate(180 134.17637654007194 -21.315479444070434)" font-family="Helvetica Neue, Helvetica, Arial, sans-serif">MEMBER_OF</text></g><g class="relationship" transform="translate(-255.85048480792227 -275.84417727497294) rotate(493.6243215686423)"><path class="b-outline" fill="#A5ABB6" stroke="none" d="M 24.018736134675446,6.953439040707552 L 24.277555179777966,5.987513214418485 A 358.72974167234304 358.72974167234304 0 0 0 91.79342880077077,17.31552109327464 L 91.72281794076672,18.313025031336792 A 359.72974167234304 359.72974167234304 0 0 1 24.018736134675446,6.953439040707552 Z M 137.16464242042534,18.65224425277802 L 137.10893115797043,17.653797331186468 A 358.72974167234304 358.72974167234304 0 0 0 204.7863963063357,7.334995830958887 L 204.0532865993314,4.425949568436399 L 211.69635587005556,6.109247558369241 L 205.76387591567476,11.21372418098887 L 205.03076620867046,8.304677918466382 A 359.72974167234304 359.72974167234304 0 0 1 137.16464242042534,18.65224425277802"/><text text-anchor="middle" pointer-events="none" font-size="8px" fill="#000000" x="114.44210066867834" y="21.70092414297801" transform="rotate(180 114.44210066867834 18.70092414297801)" font-family="Helvetica Neue, Helvetica, Arial, sans-serif">COUNTRY</text></g><g class="relationship" transform="translate(-255.85048480792227 -275.84417727497294) rotate(493.6243215686423)"><path class="b-outline" fill="#A5ABB6" stroke="none" d="M 24.018736134675446,-6.953439040707552 L 24.277555179777966,-5.987513214418485 A 358.72974167234304 358.72974167234304 0 0 1 91.79342880077078,-17.31552109327464 L 91.72281794076672,-18.313025031336792 A 359.72974167234304 359.72974167234304 0 0 0 24.018736134675446,-6.953439040707552 Z M 137.16464242042528,-18.652244252778075 L 137.1089311579704,-17.653797331186524 A 358.72974167234304 358.72974167234304 0 0 1 204.7863963063357,-7.334995830958887 L 204.0532865993314,-4.425949568436399 L 211.69635587005556,-6.109247558369241 L 205.76387591567476,-11.21372418098887 L 205.03076620867046,-8.304677918466382 A 359.72974167234304 359.72974167234304 0 0 0 137.16464242042528,-18.652244252778075"/><text text-anchor="middle" pointer-events="none" font-size="8px" fill="#000000" x="114.44210066867831" y="-15.70092414297801" transform="rotate(180 114.44210066867831 -18.70092414297801)" font-family="Helvetica Neue, Helvetica, Arial, sans-serif">COUNTRY</text></g><g class="relationship" transform="translate(-20.700409739783936 -132.49362757711864) rotate(504.40267502710566)"><path class="b-outline" fill="#A5ABB6" stroke="none" d="M 25 0.5 L 111.67001892020815 0.5 L 111.67001892020815 -0.5 L 25 -0.5 Z M 168.34189392020815 0.5 L 255.0119128404163 0.5 L 255.0119128404163 3.5 L 262.0119128404163 0 L 255.0119128404163 -3.5 L 255.0119128404163 -0.5 L 168.34189392020815 -0.5 Z"/><text text-anchor="middle" pointer-events="none" font-size="8px" fill="#000000" x="140.00595642020815" y="3" transform="rotate(180 140.00595642020815 0)" font-family="Helvetica Neue, Helvetica, Arial, sans-serif">MEMBER_OF</text></g><g class="relationship" transform="translate(-254.07781470554283 34.57170384673745) rotate(220.31498035439517)"><path class="b-outline" fill="#A5ABB6" stroke="none" d="M 24.018736134675446,6.953439040707552 L 24.277555179777966,5.987513214418485 A 319.5347461573349 319.5347461573349 0 0 0 81.73497354415349,15.876646470863932 L 81.65597036901613,16.873520835223985 A 320.5347461573349 320.5347461573349 0 0 1 24.018736134675446,6.953439040707552 Z M 127.0974231621339,17.243418984450045 L 127.03465870259863,16.245390616807526 A 319.5347461573349 319.5347461573349 0 0 0 184.64544964402776,7.292924545074732 L 183.91626869403032,4.382891015686997 L 191.55705803759872,6.07650791664533 L 185.61769091069104,11.172969250925044 L 184.8885099606936,8.26293572153731 A 320.5347461573349 320.5347461573349 0 0 1 127.0974231621339,17.243418984450045"/><text text-anchor="middle" pointer-events="none" font-size="8px" fill="#000000" x="104.37420326190242" y="20.36479323063236" transform="rotate(180 104.37420326190242 17.36479323063236)" font-family="Helvetica Neue, Helvetica, Arial, sans-serif">COUNTRY</text></g><g class="relationship" transform="translate(-254.07781470554283 34.57170384673745) rotate(220.31498035439517)"><path class="b-outline" fill="#A5ABB6" stroke="none" d="M 24.018736134675446,-6.953439040707552 L 24.277555179777966,-5.987513214418485 A 319.5347461573349 319.5347461573349 0 0 1 81.73497354415332,-15.876646470863875 L 81.65597036901596,-16.87352083522393 A 320.5347461573349 320.5347461573349 0 0 0 24.018736134675446,-6.953439040707552 Z M 127.0974231621338,-17.243418984450045 L 127.03465870259853,-16.245390616807526 A 319.5347461573349 319.5347461573349 0 0 1 184.64544964402776,-7.292924545074732 L 183.91626869403032,-4.382891015686997 L 191.55705803759872,-6.07650791664533 L 185.61769091069104,-11.172969250925044 L 184.8885099606936,-8.26293572153731 A 320.5347461573349 320.5347461573349 0 0 0 127.0974231621338,-17.243418984450045"/><text text-anchor="middle" pointer-events="none" font-size="8px" fill="#000000" x="104.3742032619023" y="-14.364793230632358" transform="rotate(180 104.3742032619023 -17.36479323063236)" font-family="Helvetica Neue, Helvetica, Arial, sans-serif">COUNTRY</text></g><g class="relationship" transform="translate(-20.700409739783936 -132.49362757711864) rotate(221.35347045699956)"><path class="b-outline" fill="#A5ABB6" stroke="none" d="M 24.018736134675446,-6.953439040707552 L 24.277555179777966,-5.987513214418485 A 513.0949103960943 513.0949103960943 0 0 1 125.90185607169637,-22.52288025045948 L 125.84109843557074,-23.521032798746774 A 514.0949103960943 514.0949103960943 0 0 0 24.018736134675446,-6.953439040707552 Z M 182.53847433574532,-23.839863351805548 L 182.488946157416,-22.841090625129823 A 513.0949103960943 513.0949103960943 0 0 1 284.29278328464756,-7.449676104044557 L 283.54896479743445,-4.54334954667355 L 291.1981816663821,-6.198487393442479 L 285.28454126759834,-11.324778180539234 L 284.54072278038524,-8.418451623168226 A 514.0949103960943 514.0949103960943 0 0 0 182.53847433574532,-23.839863351805548"/><text text-anchor="middle" pointer-events="none" font-size="8px" fill="#000000" x="154.1881993013396" y="-20.962677978664146" transform="rotate(180 154.1881993013396 -23.962677978664146)" font-family="Helvetica Neue, Helvetica, Arial, sans-serif">MEMBER_OF</text></g><g class="relationship" transform="translate(-257.46793637725784 -340.8908002316424) rotate(484.3472860973296)"><path class="b-outline" fill="#A5ABB6" stroke="none" d="M 24.018736134675446,6.953439040707552 L 24.277555179777966,5.987513214418485 A 455.32301200088756 455.32301200088756 0 0 0 116.63585636231471,20.788329171385783 L 116.57987859417,21.78676118683478 A 456.32301200088756 456.32301200088756 0 0 1 24.018736134675446,6.953439040707552 Z M 162.02017727924914,22.068307093435635 L 161.97657580749132,21.069258089802418 A 455.32301200088756 455.32301200088756 0 0 0 254.51118927280288,7.414029745262148 L 253.77069935277967,4.50685333535097 L 261.4180158825995,6.170749333526571 L 255.49850916616714,11.290264958477053 L 254.75801924614393,8.383088548565874 A 456.32301200088756 456.32301200088756 0 0 1 162.02017727924914,22.068307093435635"/><text text-anchor="middle" pointer-events="none" font-size="8px" fill="#000000" x="139.29961909527262" y="24.99351939005129" transform="rotate(180 139.29961909527262 21.99351939005129)" font-family="Helvetica Neue, Helvetica, Arial, sans-serif">COUNTRY</text></g><g class="relationship" transform="translate(-257.46793637725784 -340.8908002316424) rotate(484.3472860973296)"><path class="b-outline" fill="#A5ABB6" stroke="none" d="M 24.018736134675446,-6.953439040707552 L 24.277555179777966,-5.987513214418485 A 455.32301200088756 455.32301200088756 0 0 1 116.63585636231463,-20.788329171385726 L 116.57987859416991,-21.786761186834724 A 456.32301200088756 456.32301200088756 0 0 0 24.018736134675446,-6.953439040707552 Z M 162.02017727924905,-22.068307093435635 L 161.97657580749123,-21.069258089802418 A 455.32301200088756 455.32301200088756 0 0 1 254.51118927280288,-7.414029745262148 L 253.77069935277967,-4.50685333535097 L 261.4180158825995,-6.170749333526571 L 255.49850916616714,-11.290264958477053 L 254.75801924614393,-8.383088548565874 A 456.32301200088756 456.32301200088756 0 0 0 162.02017727924905,-22.068307093435635"/><text text-anchor="middle" pointer-events="none" font-size="8px" fill="#000000" x="139.29961909527253" y="-18.99351939005129" transform="rotate(180 139.29961909527253 -21.99351939005129)" font-family="Helvetica Neue, Helvetica, Arial, sans-serif">COUNTRY</text></g><g class="relationship" transform="translate(-20.700409739783936 -132.49362757711864) rotate(198.5103783626247)"><path class="b-outline" fill="#A5ABB6" stroke="none" d="M 24.018736134675446,6.953439040707552 L 24.277555179777966,5.987513214418485 A 380.2125374981051 380.2125374981051 0 0 0 91.70479045037386,17.678783590728415 L 91.62331230968834,18.675458719639778 A 381.2125374981051 381.2125374981051 0 0 1 24.018736134675446,6.953439040707552 Z M 148.3157931970088,19.08024236919067 L 148.24855513528556,18.08250540833592 A 380.2125374981051 380.2125374981051 0 0 0 215.83585850840427,7.355237256646698 L 215.10085862083884,4.446667992338424 L 222.7450201063845,6.1249990630453635 L 216.81585835849154,11.23332960905773 L 216.0808584709261,8.324760344749457 A 381.2125374981051 381.2125374981051 0 0 1 148.3157931970088,19.08024236919067"/><text text-anchor="middle" pointer-events="none" font-size="8px" fill="#000000" x="119.96558729784275" y="22.433237380623666" transform="rotate(180 119.96558729784275 19.433237380623666)" font-family="Helvetica Neue, Helvetica, Arial, sans-serif">MEMBER_OF</text></g><g class="relationship" transform="translate(-20.700409739783936 -132.49362757711864) rotate(397.3254231964794)"><path class="b-outline" fill="#A5ABB6" stroke="none" d="M 24.018736134675446,-6.953439040707552 L 24.277555179777966,-5.987513214418485 A 403.8988574830825 403.8988574830825 0 0 1 97.79229874622375,-18.556929512956458 L 97.71549245556317,-19.553975546856066 A 404.8988574830825 404.8988574830825 0 0 0 24.018736134675446,-6.953439040707552 Z M 154.40970140033846,-19.940223637969495 L 154.3464870218937,-18.94222366684835 A 403.8988574830825 403.8988574830825 0 0 1 228.02566526058195,-7.375614751620029 L 227.2887625066058,-4.467527006867066 L 234.9340204573349,-6.140856283134527 L 229.00820226588348,-11.253065077957313 L 228.27129951190733,-8.34497733320435 A 404.8988574830825 404.8988574830825 0 0 0 154.40970140033846,-19.940223637969495"/><text text-anchor="middle" pointer-events="none" font-size="8px" fill="#000000" x="126.05923446342513" y="-17.240648352328435" font-family="Helvetica Neue, Helvetica, Arial, sans-serif">MEMBER_OF</text></g><g class="relationship" transform="translate(185.39122141227801 24.650687783205818) rotate(426.3430978651504)"><path class="b-outline" fill="#A5ABB6" stroke="none" d="M 24.018736134675446,6.953439040707552 L 24.277555179777966,5.987513214418485 A 207.62673188891688 207.62673188891688 0 0 0 53.149171605020314,11.567814836055021 L 53.02940795111226,12.560617267157312 A 208.62673188891688 208.62673188891688 0 0 1 24.018736134675446,6.953439040707552 Z M 98.45569352010179,13.058475617434596 L 98.35771764869733,12.063286826992055 A 207.62673188891688 207.62673188891688 0 0 0 127.34470122585297,7.11709796156584 L 126.6319404973276,4.202999105337384 L 134.26305867847358,5.939672737711392 L 128.2950488638868,11.00256310320378 L 127.58228813536142,8.088464246975324 A 208.62673188891688 208.62673188891688 0 0 1 98.45569352010179,13.058475617434596"/><text text-anchor="middle" pointer-events="none" font-size="8px" fill="#000000" x="75.73443861233329" y="16.5497241016609" font-family="Helvetica Neue, Helvetica, Arial, sans-serif">COUNTRY</text></g><g class="relationship" transform="translate(185.39122141227801 24.650687783205818) rotate(426.3430978651504)"><path class="b-outline" fill="#A5ABB6" stroke="none" d="M 24.018736134675446,-6.953439040707552 L 24.277555179777966,-5.987513214418485 A 207.62673188891688 207.62673188891688 0 0 1 53.14917160502027,-11.567814836055021 L 53.02940795111222,-12.560617267157312 A 208.62673188891688 208.62673188891688 0 0 0 24.018736134675446,-6.953439040707552 Z M 98.45569352010172,-13.058475617434596 L 98.35771764869727,-12.063286826992055 A 207.62673188891688 207.62673188891688 0 0 1 127.34470122585297,-7.11709796156584 L 126.6319404973276,-4.202999105337384 L 134.26305867847358,-5.939672737711392 L 128.2950488638868,-11.00256310320378 L 127.58228813536142,-8.088464246975324 A 208.62673188891688 208.62673188891688 0 0 0 98.45569352010172,-13.058475617434596"/><text text-anchor="middle" pointer-events="none" font-size="8px" fill="#000000" x="75.73443861233324" y="-10.5497241016609" font-family="Helvetica Neue, Helvetica, Arial, sans-serif">COUNTRY</text></g><g class="relationship" transform="translate(-20.700409739783936 -132.49362757711864) rotate(469.9902831157432)"><path class="b-outline" fill="#A5ABB6" stroke="none" d="M 24.018736134675446,-6.953439040707552 L 24.277555179777966,-5.987513214418485 A 362.01161610959787 362.01161610959787 0 0 1 87.03031983809053,-16.997929358758597 L 86.94484540919865,-17.99426972329553 A 363.01161610959787 363.01161610959787 0 0 0 24.018736134675446,-6.953439040707552 Z M 143.63555672644307,-18.414539923263703 L 143.56486339430074,-17.417041826628633 A 362.01161610959787 362.01161610959787 0 0 1 206.4739708469917,-7.338205810555698 L 205.7405613849905,-4.4292351058137065 L 213.38380406838988,-6.111745516676585 L 207.45185012965996,-11.216833416878355 L 206.71844066765877,-8.307862712136362 A 363.01161610959787 363.01161610959787 0 0 0 143.63555672644307,-18.414539923263703"/><text text-anchor="middle" pointer-events="none" font-size="8px" fill="#000000" x="115.28569080759965" y="-15.812798804546162" transform="rotate(180 115.28569080759965 -18.812798804546162)" font-family="Helvetica Neue, Helvetica, Arial, sans-serif">MEMBER_OF</text></g><g class="relationship" transform="translate(-101.93515372754739 90.81482432226967) rotate(464.3799188218222)"><path class="b-outline" fill="#A5ABB6" stroke="none" d="M 25 0.5 L 47.46196308614961 0.5 L 47.46196308614961 -0.5 L 25 -0.5 Z M 92.87211933614961 0.5 L 115.33408242229922 0.5 L 115.33408242229922 3.5 L 122.33408242229922 0 L 115.33408242229922 -3.5 L 115.33408242229922 -0.5 L 92.87211933614961 -0.5 Z"/><text text-anchor="middle" pointer-events="none" font-size="8px" fill="#000000" x="70.16704121114961" y="3" transform="rotate(180 70.16704121114961 0)" font-family="Helvetica Neue, Helvetica, Arial, sans-serif">COUNTRY</text></g><g class="relationship" transform="translate(-20.700409739783936 -132.49362757711864) rotate(450.6781304987701)"><path class="b-outline" fill="#A5ABB6" stroke="none" d="M 21.40063509461097,-12.933012701892217 L 21.90063509461097,-12.06698729810778 A 183.98872184765668 183.98872184765668 0 0 1 83.04902322857562,-34.112687370091066 L 82.88137179603073,-35.09853370556414 A 184.98872184765668 184.98872184765668 0 0 0 21.40063509461097,-12.933012701892217 Z M 139.47743389748746,-35.93934096566656 L 139.33914201880677,-34.94894944899704 A 183.98872184765668 183.98872184765668 0 0 1 201.11543397367606,-14.72945352668017 L 199.69327444542864,-12.087964878925828 L 207.51593407314408,-11.851329402061898 L 203.01164667800595,-18.251438390352625 L 201.58948714975853,-15.609949742598284 A 184.98872184765668 184.98872184765668 0 0 0 139.47743389748746,-35.93934096566656"/><text text-anchor="middle" pointer-events="none" font-size="8px" fill="#000000" x="111.1544812959774" y="-34.19644620433371" transform="rotate(180 111.1544812959774 -37.19644620433371)" font-family="Helvetica Neue, Helvetica, Arial, sans-serif">MEMBER_OF</text></g><g class="relationship" transform="translate(-23.416954216879404 97.01863572587587) rotate(490.1375358183584)"><path class="b-outline" fill="#A5ABB6" stroke="none" d="M 25 0.5 L 63.07841814933248 0.5 L 63.07841814933248 -0.5 L 25 -0.5 Z M 108.48857439933248 0.5 L 146.56699254866496 0.5 L 146.56699254866496 3.5 L 153.56699254866496 0 L 146.56699254866496 -3.5 L 146.56699254866496 -0.5 L 108.48857439933248 -0.5 Z"/><text text-anchor="middle" pointer-events="none" font-size="8px" fill="#000000" x="85.78349627433248" y="3" transform="rotate(180 85.78349627433248 0)" font-family="Helvetica Neue, Helvetica, Arial, sans-serif">COUNTRY</text></g><g class="relationship" transform="translate(-23.416954216879404 97.01863572587587) rotate(435.56797788902793)"><path class="b-outline" fill="#A5ABB6" stroke="none" d="M 25 0.5 L 48.779394318330404 0.5 L 48.779394318330404 -0.5 L 25 -0.5 Z M 94.1895505683304 0.5 L 117.96894488666081 0.5 L 117.96894488666081 3.5 L 124.96894488666081 0 L 117.96894488666081 -3.5 L 117.96894488666081 -0.5 L 94.1895505683304 -0.5 Z"/><text text-anchor="middle" pointer-events="none" font-size="8px" fill="#000000" x="71.4844724433304" y="3" font-family="Helvetica Neue, Helvetica, Arial, sans-serif">COUNTRY</text></g><g class="relationship" transform="translate(-20.700409739783936 -132.49362757711864) rotate(450.6781304987701)"><path class="b-outline" fill="#A5ABB6" stroke="none" d="M 25 0.5 L 82.92823223554848 0.5 L 82.92823223554848 -0.5 L 25 -0.5 Z M 139.60010723554848 0.5 L 197.52833947109696 0.5 L 197.52833947109696 3.5 L 204.52833947109696 0 L 197.52833947109696 -3.5 L 197.52833947109696 -0.5 L 139.60010723554848 -0.5 Z"/><text text-anchor="middle" pointer-events="none" font-size="8px" fill="#000000" x="111.26416973554848" y="3" transform="rotate(180 111.26416973554848 0)" font-family="Helvetica Neue, Helvetica, Arial, sans-serif">MEMBER_OF</text></g><g class="relationship" transform="translate(-20.700409739783936 -132.49362757711864) rotate(316.33123786303497)"><path class="b-outline" fill="#A5ABB6" stroke="none" d="M 24.018736134675446,-6.953439040707552 L 24.277555179777966,-5.987513214418485 A 298.6860782028334 298.6860782028334 0 0 1 70.79538980939742,-14.573992035378467 L 70.69231232047827,-15.568665364305161 A 299.6860782028334 299.6860782028334 0 0 0 24.018736134675446,-6.953439040707552 Z M 127.37199724330068,-16.053334926038985 L 127.2859445421799,-15.05704433959852 A 298.6860782028334 298.6860782028334 0 0 1 173.94381259557386,-7.267313542998787 L 173.21702332934515,-4.356681762354806 L 180.85641829478126,-6.056577218572484 L 174.91286495054547,-11.14815591719076 L 174.18607568431676,-8.23752413654678 A 299.6860782028334 299.6860782028334 0 0 0 127.37199724330068,-16.053334926038985"/><text text-anchor="middle" pointer-events="none" font-size="8px" fill="#000000" x="99.02494578036473" y="-13.654056873491413" font-family="Helvetica Neue, Helvetica, Arial, sans-serif">MEMBER_OF</text></g><g class="relationship" transform="translate(127.66583610068203 -274.1208130079389) rotate(334.1490521005861)"><path class="b-outline" fill="#A5ABB6" stroke="none" d="M 24.018736134675446,6.953439040707552 L 24.277555179777966,5.987513214418485 A 145.70016347298375 145.70016347298375 0 0 0 37.50516706280857,8.88048126578434 L 37.33713454510402,9.866262718741268 A 146.70016347298375 146.70016347298375 0 0 1 24.018736134675446,6.953439040707552 Z M 82.71549598329642,10.480366967675309 L 82.57420122852966,9.49039939635017 A 145.70016347298375 145.70016347298375 0 0 0 95.87525554481037,6.956443131995225 L 95.17749950166173,4.038715162452906 L 102.79958014760057,5.814633692905425 L 96.80559693567524,10.846747091384982 L 96.1078408925266,7.929019121842663 A 146.70016347298375 146.70016347298375 0 0 1 82.71549598329642,10.480366967675309"/><text text-anchor="middle" pointer-events="none" font-size="8px" fill="#000000" x="60.00919029560431" y="14.438740079903681" font-family="Helvetica Neue, Helvetica, Arial, sans-serif">COUNTRY</text></g><g class="relationship" transform="translate(127.66583610068203 -274.1208130079389) rotate(334.1490521005861)"><path class="b-outline" fill="#A5ABB6" stroke="none" d="M 24.018736134675446,-6.953439040707552 L 24.277555179777966,-5.987513214418485 A 145.70016347298375 145.70016347298375 0 0 1 37.50516706280855,-8.880481265784312 L 37.33713454510402,-9.86626271874124 A 146.70016347298375 146.70016347298375 0 0 0 24.018736134675446,-6.953439040707552 Z M 82.71549598329635,-10.480366967675309 L 82.57420122852959,-9.49039939635017 A 145.70016347298375 145.70016347298375 0 0 1 95.87525554481037,-6.956443131995225 L 95.17749950166173,-4.038715162452906 L 102.79958014760057,-5.814633692905425 L 96.80559693567524,-10.846747091384982 L 96.1078408925266,-7.929019121842663 A 146.70016347298375 146.70016347298375 0 0 0 82.71549598329635,-10.480366967675309"/><text text-anchor="middle" pointer-events="none" font-size="8px" fill="#000000" x="60.00919029560427" y="-8.438740079903681" font-family="Helvetica Neue, Helvetica, Arial, sans-serif">COUNTRY</text></g><g class="relationship" transform="translate(-20.700409739783936 -132.49362757711864) rotate(184.0033623188706)"><path class="b-outline" fill="#A5ABB6" stroke="none" d="M 24.018736134675446,-6.953439040707552 L 24.277555179777966,-5.987513214418485 A 357.73323407946725 357.73323407946725 0 0 1 85.93197754226554,-16.837023134011474 L 85.84550597983721,-17.833277453395453 A 358.73323407946725 358.73323407946725 0 0 0 24.018736134675446,-6.953439040707552 Z M 142.53573371683288,-18.257359924899617 L 142.4641763531639,-17.259923438849114 A 357.73323407946725 357.73323407946725 0 0 1 204.274013365371,-7.334012353626089 L 203.54099549775827,-4.4249429481700195 L 211.18401162270393,-6.1084822301058 L 205.25137052218793,-11.212771560900848 L 204.5183526545752,-8.303702155444778 A 358.73323407946725 358.73323407946725 0 0 0 142.53573371683288,-18.257359924899617"/><text text-anchor="middle" pointer-events="none" font-size="8px" fill="#000000" x="114.18596957874757" y="-15.666954478564662" transform="rotate(180 114.18596957874757 -18.666954478564662)" font-family="Helvetica Neue, Helvetica, Arial, sans-serif">MEMBER_OF</text></g><g class="relationship" transform="translate(-255.55221574413372 -148.92991503149213) rotate(524.9410599651445)"><path class="b-outline" fill="#A5ABB6" stroke="none" d="M 24.018736134675446,6.953439040707552 L 24.277555179777966,5.987513214418485 A 227.8815741125861 227.8815741125861 0 0 0 58.30189859299959,12.381791915087604 L 58.192386676153134,13.375777397913481 A 228.8815741125861 228.8815741125861 0 0 1 24.018736134675446,6.953439040707552 Z M 103.6246124056017,13.844414072195434 L 103.53562767235478,12.848381082154958 A 227.8815741125861 227.8815741125861 0 0 0 137.6846322819775,7.157315366963353 L 136.96811556614557,4.244137755499642 L 144.60146616136484,5.970972631932788 L 138.63998790308676,11.041552182248301 L 137.92347118725482,8.12837457078459 A 228.8815741125861 228.8815741125861 0 0 1 103.6246124056017,13.844414072195434"/><text text-anchor="middle" pointer-events="none" font-size="8px" fill="#000000" x="80.90199955186348" y="17.240240545151863" transform="rotate(180 80.90199955186348 14.240240545151863)" font-family="Helvetica Neue, Helvetica, Arial, sans-serif">COUNTRY</text></g><g class="relationship" transform="translate(-255.55221574413372 -148.92991503149213) rotate(524.9410599651445)"><path class="b-outline" fill="#A5ABB6" stroke="none" d="M 24.018736134675446,-6.953439040707552 L 24.277555179777966,-5.987513214418485 A 227.8815741125861 227.8815741125861 0 0 1 58.301898592999606,-12.381791915087604 L 58.19238667615315,-13.375777397913481 A 228.8815741125861 228.8815741125861 0 0 0 24.018736134675446,-6.953439040707552 Z M 103.62461240560162,-13.844414072195434 L 103.5356276723547,-12.848381082154958 A 227.8815741125861 227.8815741125861 0 0 1 137.6846322819775,-7.157315366963353 L 136.96811556614557,-4.244137755499642 L 144.60146616136484,-5.970972631932788 L 138.63998790308676,-11.041552182248301 L 137.92347118725482,-8.12837457078459 A 228.8815741125861 228.8815741125861 0 0 0 103.62461240560162,-13.844414072195434"/><text text-anchor="middle" pointer-events="none" font-size="8px" fill="#000000" x="80.90199955186345" y="-11.240240545151863" transform="rotate(180 80.90199955186345 -14.240240545151863)" font-family="Helvetica Neue, Helvetica, Arial, sans-serif">COUNTRY</text></g><g class="relationship" transform="translate(-20.700409739783936 -132.49362757711864) rotate(429.0275553788115)"><path class="b-outline" fill="#A5ABB6" stroke="none" d="M 24.018736134675446,-6.953439040707552 L 24.277555179777966,-5.987513214418485 A 366.7832079457056 366.7832079457056 0 0 1 88.25549055613882,-17.176984062107294 L 88.17110134858174,-18.17341693071802 A 367.7832079457056 367.7832079457056 0 0 0 24.018736134675446,-6.953439040707552 Z M 144.86231986097056,-18.589514699071856 L 144.7925660372864,-17.591950463505327 A 366.7832079457056 366.7832079457056 0 0 1 208.9278549647866,-7.342795032000247 L 208.19401695202123,-4.433932407017664 L 215.83750742520687,-6.115316773044805 L 209.9063056484738,-11.221278531977024 L 209.17246763570841,-8.312415906994442 A 367.7832079457056 367.7832079457056 0 0 0 144.86231986097056,-18.589514699071856"/><text text-anchor="middle" pointer-events="none" font-size="8px" fill="#000000" x="116.51235088721272" y="-15.975455304476895" font-family="Helvetica Neue, Helvetica, Arial, sans-serif">MEMBER_OF</text></g><g class="relationship" transform="translate(65.22805906345046 91.67987309085262) rotate(383.0485317474675)"><path class="b-outline" fill="#A5ABB6" stroke="none" d="M 24.018736134675446,6.953439040707552 L 24.277555179777966,5.987513214418485 A 288.17840811927897 288.17840811927897 0 0 0 73.7015034065321,14.706345821870912 L 73.6141890503107,15.702526630357852 A 289.17840811927897 289.17840811927897 0 0 1 24.018736134675446,6.953439040707552 Z M 119.05436277205067,16.101223363163115 L 118.98454169752787,15.10366383233179 A 288.17840811927897 288.17840811927897 0 0 0 168.55386879821685,7.253408349703659 L 167.82837808226083,4.342452626738847 L 175.4670139377941,6.045755966300366 L 169.5211897528249,11.134682646990075 L 168.79569903686888,8.223726924025263 A 289.17840811927897 289.17840811927897 0 0 1 119.05436277205067,16.101223363163115"/><text text-anchor="middle" pointer-events="none" font-size="8px" fill="#000000" x="96.33081919509992" y="19.295843058929847" font-family="Helvetica Neue, Helvetica, Arial, sans-serif">COUNTRY</text></g><g class="relationship" transform="translate(65.22805906345046 91.67987309085262) rotate(383.0485317474675)"><path class="b-outline" fill="#A5ABB6" stroke="none" d="M 24.018736134675446,-6.953439040707552 L 24.277555179777966,-5.987513214418485 A 288.17840811927897 288.17840811927897 0 0 1 73.70150340653207,-14.706345821870912 L 73.61418905031067,-15.702526630357852 A 289.17840811927897 289.17840811927897 0 0 0 24.018736134675446,-6.953439040707552 Z M 119.05436277205055,-16.10122336316317 L 118.98454169752776,-15.10366383233179 A 288.17840811927897 288.17840811927897 0 0 1 168.55386879821685,-7.253408349703659 L 167.82837808226083,-4.342452626738847 L 175.4670139377941,-6.045755966300366 L 169.5211897528249,-11.134682646990075 L 168.79569903686888,-8.223726924025263 A 289.17840811927897 289.17840811927897 0 0 0 119.05436277205055,-16.10122336316317"/><text text-anchor="middle" pointer-events="none" font-size="8px" fill="#000000" x="96.33081919509985" y="-13.295843058929847" font-family="Helvetica Neue, Helvetica, Arial, sans-serif">COUNTRY</text></g><g class="relationship" transform="translate(-20.700409739783936 -132.49362757711864) rotate(495.57544210891683)"><path class="b-outline" fill="#A5ABB6" stroke="none" d="M 25 0.5 L 129.56928466590463 0.5 L 129.56928466590463 -0.5 L 25 -0.5 Z M 186.24115966590463 0.5 L 290.81044433180926 0.5 L 290.81044433180926 3.5 L 297.81044433180926 0 L 290.81044433180926 -3.5 L 290.81044433180926 -0.5 L 186.24115966590463 -0.5 Z"/><text text-anchor="middle" pointer-events="none" font-size="8px" fill="#000000" x="157.90522216590463" y="3" transform="rotate(180 157.90522216590463 0)" font-family="Helvetica Neue, Helvetica, Arial, sans-serif">MEMBER_OF</text></g><g class="relationship" transform="translate(-251.24282509536943 93.46384119015363) rotate(229.86270781245747)"><path class="b-outline" fill="#A5ABB6" stroke="none" d="M 25 0.5 L 103.62921038557582 0.5 L 103.62921038557582 -0.5 L 25 -0.5 Z M 149.03936663557582 0.5 L 227.66857702115163 0.5 L 227.66857702115163 3.5 L 234.66857702115163 0 L 227.66857702115163 -3.5 L 227.66857702115163 -0.5 L 149.03936663557582 -0.5 Z"/><text text-anchor="middle" pointer-events="none" font-size="8px" fill="#000000" x="126.33428851057582" y="3" transform="rotate(180 126.33428851057582 0)" font-family="Helvetica Neue, Helvetica, Arial, sans-serif">COUNTRY</text></g><g class="relationship" transform="translate(-20.700409739783936 -132.49362757711864) rotate(365.5971378006638)"><path class="b-outline" fill="#A5ABB6" stroke="none" d="M 24.018736134675446,-6.953439040707552 L 24.277555179777966,-5.987513214418485 A 357.18828636512876 357.18828636512876 0 0 1 85.79209227672798,-16.816503099614522 L 85.70549202895205,-17.812746241164405 A 358.18828636512876 358.18828636512876 0 0 0 24.018736134675446,-6.953439040707552 Z M 142.39565613146934,-18.237319214985064 L 142.3239872055718,-17.239890738822112 A 357.18828636512876 357.18828636512876 0 0 1 203.99381920968926,-7.333472780263737 L 203.26085172870748,-4.424390679012 L 210.9038386927736,-6.108062341514861 L 204.97110918433165,-11.212248915266052 L 204.23814170334987,-8.303166814014315 A 358.18828636512876 358.18828636512876 0 0 0 142.39565613146934,-18.237319214985064"/><text text-anchor="middle" pointer-events="none" font-size="8px" fill="#000000" x="114.04590562464402" y="-15.648377897218552" font-family="Helvetica Neue, Helvetica, Arial, sans-serif">MEMBER_OF</text></g><g class="relationship" transform="translate(213.32466707153165 -109.55907118264452) rotate(359.02220154727274)"><path class="b-outline" fill="#A5ABB6" stroke="none" d="M 24.018736134675446,6.953439040707552 L 24.277555179777966,5.987513214418485 A 163.10333151200643 163.10333151200643 0 0 0 41.87954758521494,9.677439134522615 L 41.728647809708335,10.665988201464671 A 164.10333151200643 164.10333151200643 0 0 1 24.018736134675446,6.953439040707552 Z M 87.1278523380416,11.242459136499576 L 87.0021020046806,10.250397216224627 A 163.10333151200643 163.10333151200643 0 0 0 104.69211214845369,7.008602797986379 L 103.98948440750739,4.092044165341955 L 111.61452024811506,5.855231174552437 L 105.62894913638208,10.897347641512278 L 104.92632139543578,7.980789008867854 A 164.10333151200643 164.10333151200643 0 0 1 87.1278523380416,11.242459136499576"/><text text-anchor="middle" pointer-events="none" font-size="8px" fill="#000000" x="64.41456546636603" y="15.031936798007195" font-family="Helvetica Neue, Helvetica, Arial, sans-serif">COUNTRY</text></g><g class="relationship" transform="translate(213.32466707153165 -109.55907118264452) rotate(359.02220154727274)"><path class="b-outline" fill="#A5ABB6" stroke="none" d="M 24.018736134675446,-6.953439040707552 L 24.277555179777966,-5.987513214418485 A 163.10333151200643 163.10333151200643 0 0 1 41.8795475852149,-9.677439134522587 L 41.7286478097083,-10.665988201464671 A 164.10333151200643 164.10333151200643 0 0 0 24.018736134675446,-6.953439040707552 Z M 87.1278523380416,-11.242459136499576 L 87.0021020046806,-10.250397216224627 A 163.10333151200643 163.10333151200643 0 0 1 104.69211214845369,-7.008602797986379 L 103.98948440750739,-4.092044165341955 L 111.61452024811506,-5.855231174552437 L 105.62894913638208,-10.897347641512278 L 104.92632139543578,-7.980789008867854 A 164.10333151200643 164.10333151200643 0 0 0 87.1278523380416,-11.242459136499576"/><text text-anchor="middle" pointer-events="none" font-size="8px" fill="#000000" x="64.41456546636601" y="-9.031936798007195" font-family="Helvetica Neue, Helvetica, Arial, sans-serif">COUNTRY</text></g><g class="relationship" transform="translate(-20.700409739783936 -132.49362757711864) rotate(221.35347045699956)"><path class="b-outline" fill="#A5ABB6" stroke="none" d="M 24.018736134675446,6.953439040707552 L 24.277555179777966,5.987513214418485 A 513.0949103960943 513.0949103960943 0 0 0 125.90185607169647,22.52288025045948 L 125.84109843557084,23.521032798746774 A 514.0949103960943 514.0949103960943 0 0 1 24.018736134675446,6.953439040707552 Z M 182.53847433574552,23.839863351805548 L 182.4889461574162,22.841090625129823 A 513.0949103960943 513.0949103960943 0 0 0 284.29278328464756,7.449676104044557 L 283.54896479743445,4.54334954667355 L 291.1981816663821,6.198487393442479 L 285.28454126759834,11.324778180539234 L 284.54072278038524,8.418451623168226 A 514.0949103960943 514.0949103960943 0 0 1 182.53847433574552,23.839863351805548"/><text text-anchor="middle" pointer-events="none" font-size="8px" fill="#000000" x="154.18819930133975" y="26.962677978664146" transform="rotate(180 154.18819930133975 23.962677978664146)" font-family="Helvetica Neue, Helvetica, Arial, sans-serif">MEMBER_OF</text></g><g class="relationship" transform="translate(-20.700409739783936 -132.49362757711864) rotate(515.5371498494009)"><path class="b-outline" fill="#A5ABB6" stroke="none" d="M 24.018736134675446,6.953439040707552 L 24.277555179777966,5.987513214418485 A 398.8247791115267 398.8247791115267 0 0 0 96.48786282779805,18.369498286010185 L 96.41010150887013,19.3664702902704 A 399.8247791115267 399.8247791115267 0 0 1 24.018736134675446,6.953439040707552 Z M 153.10398696813786,19.75654589957071 L 153.0399514590021,18.758598278916338 A 398.8247791115267 398.8247791115267 0 0 0 225.41380012529865,7.37140748562468 L 224.67729024742113,4.4632202152122575 L 232.32232206924056,6.137582315645899 L 226.395813295802,11.248990512841242 L 225.65930341792446,8.340803242428821 A 399.8247791115267 399.8247791115267 0 0 1 153.10398696813786,19.75654589957071"/><text text-anchor="middle" pointer-events="none" font-size="8px" fill="#000000" x="124.75356153819808" y="23.067686403751054" transform="rotate(180 124.75356153819808 20.067686403751054)" font-family="Helvetica Neue, Helvetica, Arial, sans-serif">MEMBER_OF</text></g><g class="relationship" transform="translate(-20.700409739783936 -132.49362757711864) rotate(316.33123786303497)"><path class="b-outline" fill="#A5ABB6" stroke="none" d="M 24.018736134675446,6.953439040707552 L 24.277555179777966,5.987513214418485 A 298.6860782028334 298.6860782028334 0 0 0 70.79538980939743,14.573992035378467 L 70.6923123204783,15.568665364305161 A 299.6860782028334 299.6860782028334 0 0 1 24.018736134675446,6.953439040707552 Z M 127.37199724330065,16.053334926038985 L 127.28594454217986,15.05704433959852 A 298.6860782028334 298.6860782028334 0 0 0 173.94381259557386,7.267313542998787 L 173.21702332934515,4.356681762354806 L 180.85641829478126,6.056577218572484 L 174.91286495054547,11.14815591719076 L 174.18607568431676,8.23752413654678 A 299.6860782028334 299.6860782028334 0 0 1 127.37199724330065,16.053334926038985"/><text text-anchor="middle" pointer-events="none" font-size="8px" fill="#000000" x="99.02494578036472" y="19.654056873491413" font-family="Helvetica Neue, Helvetica, Arial, sans-serif">MEMBER_OF</text></g><g class="relationship" transform="translate(-20.700409739783936 -132.49362757711864) rotate(397.3254231964794)"><path class="b-outline" fill="#A5ABB6" stroke="none" d="M 24.018736134675446,6.953439040707552 L 24.277555179777966,5.987513214418485 A 403.8988574830825 403.8988574830825 0 0 0 97.7922987462239,18.556929512956515 L 97.71549245556332,19.553975546856122 A 404.8988574830825 404.8988574830825 0 0 1 24.018736134675446,6.953439040707552 Z M 154.40970140033872,19.940223637969495 L 154.34648702189395,18.94222366684835 A 403.8988574830825 403.8988574830825 0 0 0 228.02566526058195,7.375614751620029 L 227.2887625066058,4.467527006867066 L 234.9340204573349,6.140856283134527 L 229.00820226588348,11.253065077957313 L 228.27129951190733,8.34497733320435 A 404.8988574830825 404.8988574830825 0 0 1 154.40970140033872,19.940223637969495"/><text text-anchor="middle" pointer-events="none" font-size="8px" fill="#000000" x="126.05923446342533" y="23.240648352328435" font-family="Helvetica Neue, Helvetica, Arial, sans-serif">MEMBER_OF</text></g><g class="relationship" transform="translate(-20.700409739783936 -132.49362757711864) rotate(365.5971378006638)"><path class="b-outline" fill="#A5ABB6" stroke="none" d="M 24.018736134675446,6.953439040707552 L 24.277555179777966,5.987513214418485 A 357.18828636512876 357.18828636512876 0 0 0 85.79209227672813,16.816503099614522 L 85.70549202895221,17.812746241164405 A 358.18828636512876 358.18828636512876 0 0 1 24.018736134675446,6.953439040707552 Z M 142.3956561314695,18.237319214985064 L 142.323987205572,17.239890738822112 A 357.18828636512876 357.18828636512876 0 0 0 203.99381920968926,7.333472780263737 L 203.26085172870748,4.424390679012 L 210.9038386927736,6.108062341514861 L 204.97110918433165,11.212248915266052 L 204.23814170334987,8.303166814014315 A 358.18828636512876 358.18828636512876 0 0 1 142.3956561314695,18.237319214985064"/><text text-anchor="middle" pointer-events="none" font-size="8px" fill="#000000" x="114.04590562464418" y="21.648377897218552" font-family="Helvetica Neue, Helvetica, Arial, sans-serif">MEMBER_OF</text></g><g class="relationship" transform="translate(-20.700409739783936 -132.49362757711864) rotate(270.05144641726076)"><path class="b-outline" fill="#A5ABB6" stroke="none" d="M 5.987513214418485,24.277555179777966 L 6.953439040707552,24.018736134675446 A 93.31463358466317 93.31463358466317 0 0 0 66.30607622830253,87.95836905296227 L 65.9761989498947,88.90239287744458 A 94.31463358466317 94.31463358466317 0 0 1 5.987513214418485,24.277555179777966 Z M 122.0550963077426,90.81721071874844 L 121.79037977576886,89.85288444735491 A 93.31463358466317 93.31463358466317 0 0 0 185.36614289640679,30.110650286950513 L 182.52807712104885,29.138342385747396 L 188.10787229510703,23.650548127982532 L 189.150230596884,31.407060821888 L 186.31216482152607,30.434752920684883 A 94.31463358466317 94.31463358466317 0 0 1 122.0550963077426,90.81721071874844"/><text text-anchor="middle" pointer-events="none" font-size="8px" fill="#000000" x="93.88701213164771" y="96.62712456207993" font-family="Helvetica Neue, Helvetica, Arial, sans-serif">MEMBER_OF</text></g><g class="relationship" transform="translate(-20.700409739783936 -132.49362757711864) rotate(529.8642230067469)"><path class="b-outline" fill="#A5ABB6" stroke="none" d="M 24.018736134675446,6.953439040707552 L 24.277555179777966,5.987513214418485 A 364.6334864408096 364.6334864408096 0 0 0 87.70349327478797,17.096366781278334 L 87.6186185887571,18.092758414960144 A 365.6334864408096 365.6334864408096 0 0 1 24.018736134675446,6.953439040707552 Z M 144.3096126652036,18.510725761910123 L 144.23943865854417,17.513190996205537 A 364.6334864408096 364.6334864408096 0 0 0 207.82227805815936,7.340738750818447 L 207.08863206495317,4.431827690532743 L 214.73201153102704,6.113716610051616 L 208.80047271576763,11.219286831199387 L 208.06682672256144,8.310375770913682 A 365.6334864408096 365.6334864408096 0 0 1 144.3096126652036,18.510725761910123"/><text text-anchor="middle" pointer-events="none" font-size="8px" fill="#000000" x="115.95968880088438" y="21.902174571536648" transform="rotate(180 115.95968880088438 18.902174571536648)" font-family="Helvetica Neue, Helvetica, Arial, sans-serif">MEMBER_OF</text></g><g class="relationship" transform="translate(-20.700409739783936 -132.49362757711864) rotate(211.36702927581803)"><path class="b-outline" fill="#A5ABB6" stroke="none" d="M 24.018736134675446,6.953439040707552 L 24.277555179777966,5.987513214418485 A 435.4310218185141 435.4310218185141 0 0 0 105.90256390020552,19.714354795744896 L 105.83120280970516,20.71180534327226 A 436.4310218185141 436.4310218185141 0 0 1 24.018736134675446,6.953439040707552 Z M 162.52696509099005,21.07584421877567 L 162.46841845393007,20.077559544302005 A 435.4310218185141 435.4310218185141 0 0 0 244.26296754612576,7.400021644019926 L 243.52378568460017,4.4925123705022 L 251.1703528279214,6.159848846046525 L 245.2485433614932,11.276700675376894 L 244.5093614999676,8.369191401859169 A 436.4310218185141 436.4310218185141 0 0 1 162.52696509099005,21.07584421877567"/><text text-anchor="middle" pointer-events="none" font-size="8px" fill="#000000" x="134.17637654007197" y="24.315479444070434" transform="rotate(180 134.17637654007197 21.315479444070434)" font-family="Helvetica Neue, Helvetica, Arial, sans-serif">MEMBER_OF</text></g><g class="relationship" transform="translate(-20.700409739783936 -132.49362757711864) rotate(412.58319148111445)"><path class="b-outline" fill="#A5ABB6" stroke="none" d="M 24.018736134675446,6.953439040707552 L 24.277555179777966,5.987513214418485 A 371.04938093104687 371.04938093104687 0 0 0 89.35107153561533,17.33672750680114 L 89.26762946107277,18.333240136021686 A 372.04938093104687 372.04938093104687 0 0 1 24.018736134675446,6.953439040707552 Z M 145.95927437670312,18.745676339836507 L 145.89033978346635,17.74805515829746 A 371.04938093104687 371.04938093104687 0 0 0 211.12209236594154,7.346822010895856 L 210.3878783066173,4.4380542795204825 L 218.03158608237143,6.118450494368554 L 212.10104444504051,11.225178986063021 L 211.36683038571627,8.316411254687647 A 372.04938093104687 372.04938093104687 0 0 1 145.95927437670312,18.745676339836507"/><text text-anchor="middle" pointer-events="none" font-size="8px" fill="#000000" x="117.6092220134699" y="22.120882210336447" font-family="Helvetica Neue, Helvetica, Arial, sans-serif">MEMBER_OF</text></g><g class="relationship" transform="translate(-20.700409739783936 -132.49362757711864) rotate(450.6781304987701)"><path class="b-outline" fill="#A5ABB6" stroke="none" d="M 21.40063509461097,12.933012701892217 L 21.90063509461097,12.06698729810778 A 183.98872184765668 183.98872184765668 0 0 0 83.04902322857565,34.112687370091066 L 82.88137179603075,35.09853370556414 A 184.98872184765668 184.98872184765668 0 0 1 21.40063509461097,12.933012701892217 Z M 139.4774338974874,35.93934096566656 L 139.33914201880674,34.94894944899704 A 183.98872184765668 183.98872184765668 0 0 0 201.11543397367606,14.72945352668017 L 199.69327444542864,12.087964878925828 L 207.51593407314408,11.851329402061898 L 203.01164667800595,18.251438390352625 L 201.58948714975853,15.609949742598284 A 184.98872184765668 184.98872184765668 0 0 1 139.4774338974874,35.93934096566656"/><text text-anchor="middle" pointer-events="none" font-size="8px" fill="#000000" x="111.1544812959774" y="40.19644620433371" transform="rotate(180 111.1544812959774 37.19644620433371)" font-family="Helvetica Neue, Helvetica, Arial, sans-serif">MEMBER_OF</text></g><g class="relationship" transform="translate(-20.700409739783936 -132.49362757711864) rotate(184.0033623188706)"><path class="b-outline" fill="#A5ABB6" stroke="none" d="M 24.018736134675446,6.953439040707552 L 24.277555179777966,5.987513214418485 A 357.73323407946725 357.73323407946725 0 0 0 85.93197754226559,16.837023134011474 L 85.84550597983724,17.833277453395453 A 358.73323407946725 358.73323407946725 0 0 1 24.018736134675446,6.953439040707552 Z M 142.53573371683277,18.257359924899617 L 142.4641763531638,17.259923438849114 A 357.73323407946725 357.73323407946725 0 0 0 204.274013365371,7.334012353626089 L 203.54099549775827,4.4249429481700195 L 211.18401162270393,6.1084822301058 L 205.25137052218793,11.212771560900848 L 204.5183526545752,8.303702155444778 A 358.73323407946725 358.73323407946725 0 0 1 142.53573371683277,18.257359924899617"/><text text-anchor="middle" pointer-events="none" font-size="8px" fill="#000000" x="114.18596957874755" y="21.666954478564662" transform="rotate(180 114.18596957874755 18.666954478564662)" font-family="Helvetica Neue, Helvetica, Arial, sans-serif">MEMBER_OF</text></g><g class="relationship" transform="translate(-20.700409739783936 -132.49362757711864) rotate(340.0958947491067)"><path class="b-outline" fill="#A5ABB6" stroke="none" d="M 21.40063509461097,12.933012701892217 L 21.90063509461097,12.06698729810778 A 182.20973753162207 182.20973753162207 0 0 0 82.16904187107892,33.850186579553394 L 81.999805789588,34.83576212141793 A 183.20973753162207 183.20973753162207 0 0 1 21.40063509461097,12.933012701892217 Z M 138.59290148447445,35.68287354364415 L 138.45323970683756,34.69267427689664 A 182.20973753162207 182.20973753162207 0 0 0 199.3466214506225,14.72308023709062 L 197.92505443516237,12.08127267018576 L 205.74776694264386,11.846391795501125 L 201.2420441379027,18.2454903262971 L 199.82047712244255,15.603682759392239 A 183.20973753162207 183.20973753162207 0 0 1 138.59290148447445,35.68287354364415"/><text text-anchor="middle" pointer-events="none" font-size="8px" fill="#000000" x="110.27092700906628" y="39.95799825621876" font-family="Helvetica Neue, Helvetica, Arial, sans-serif">MEMBER_OF</text></g><g class="relationship" transform="translate(-20.700409739783936 -132.49362757711864) rotate(469.9902831157432)"><path class="b-outline" fill="#A5ABB6" stroke="none" d="M 24.018736134675446,6.953439040707552 L 24.277555179777966,5.987513214418485 A 362.01161610959787 362.01161610959787 0 0 0 87.03031983809058,16.997929358758597 L 86.9448454091987,17.99426972329553 A 363.01161610959787 363.01161610959787 0 0 1 24.018736134675446,6.953439040707552 Z M 143.6355567264431,18.414539923263703 L 143.5648633943008,17.417041826628633 A 362.01161610959787 362.01161610959787 0 0 0 206.4739708469917,7.338205810555698 L 205.7405613849905,4.4292351058137065 L 213.38380406838988,6.111745516676585 L 207.45185012965996,11.216833416878355 L 206.71844066765877,8.307862712136362 A 363.01161610959787 363.01161610959787 0 0 1 143.6355567264431,18.414539923263703"/><text text-anchor="middle" pointer-events="none" font-size="8px" fill="#000000" x="115.28569080759969" y="21.812798804546162" transform="rotate(180 115.28569080759969 18.812798804546162)" font-family="Helvetica Neue, Helvetica, Arial, sans-serif">MEMBER_OF</text></g><g class="relationship" transform="translate(-20.700409739783936 -132.49362757711864) rotate(429.0275553788115)"><path class="b-outline" fill="#A5ABB6" stroke="none" d="M 24.018736134675446,6.953439040707552 L 24.277555179777966,5.987513214418485 A 366.7832079457056 366.7832079457056 0 0 0 88.25549055613894,17.176984062107294 L 88.17110134858184,18.17341693071802 A 367.7832079457056 367.7832079457056 0 0 1 24.018736134675446,6.953439040707552 Z M 144.86231986097076,18.5895146990718 L 144.79256603728658,17.59195046350527 A 366.7832079457056 366.7832079457056 0 0 0 208.9278549647866,7.342795032000247 L 208.19401695202123,4.433932407017664 L 215.83750742520687,6.115316773044805 L 209.9063056484738,11.221278531977024 L 209.17246763570841,8.312415906994442 A 367.7832079457056 367.7832079457056 0 0 1 144.86231986097076,18.5895146990718"/><text text-anchor="middle" pointer-events="none" font-size="8px" fill="#000000" x="116.51235088721288" y="21.975455304476895" font-family="Helvetica Neue, Helvetica, Arial, sans-serif">MEMBER_OF</text></g></g><g class="layer nodes"><g class="node" aria-label="graph-node2497" transform="translate(-20.700409739783936,-132.49362757711864)"><circle class="b-outline" cx="0" cy="0" r="25" fill="#F79767" stroke="#f36924" stroke-width="2px"/><text class="caption" text-anchor="middle" pointer-events="none" x="0" y="5" font-size="10px" fill="#FFFFFF" font-family="Helvetica Neue, Helvetica, Arial, sans-serif"> 2497</text></g><g class="node" aria-label="graph-node223421" transform="translate(-418.6307360517319,-105.05330456268719)"><circle class="b-outline" cx="0" cy="0" r="25" fill="#57C7E3" stroke="#23b3d7" stroke-width="2px"/><text class="caption" text-anchor="middle" pointer-events="none" x="0" y="5" font-size="10px" fill="#2A2C34" font-family="Helvetica Neue, Helvetica, Arial, sans-serif"> US</text></g><g class="node" aria-label="graph-node223337" transform="translate(-23.492450395702292,-466.57807425914837)"><circle class="b-outline" cx="0" cy="0" r="25" fill="#57C7E3" stroke="#23b3d7" stroke-width="2px"/><text class="caption" text-anchor="middle" pointer-events="none" x="0" y="5" font-size="10px" fill="#2A2C34" font-family="Helvetica Neue, Helvetica, Arial, sans-serif"> DE</text></g><g class="node" aria-label="graph-node223348" transform="translate(249.00970313360767,169.87433746104654)"><circle class="b-outline" cx="0" cy="0" r="25" fill="#57C7E3" stroke="#23b3d7" stroke-width="2px"/><text class="caption" text-anchor="middle" pointer-events="none" x="0" y="5" font-size="10px" fill="#2A2C34" font-family="Helvetica Neue, Helvetica, Arial, sans-serif"> JP</text></g><g class="node" aria-label="graph-node223483" transform="translate(242.05969853048208,-329.5465121269392)"><circle class="b-outline" cx="0" cy="0" r="25" fill="#57C7E3" stroke="#23b3d7" stroke-width="2px"/><text class="caption" text-anchor="middle" pointer-events="none" x="0" y="5" font-size="10px" fill="#2A2C34" font-family="Helvetica Neue, Helvetica, Arial, sans-serif"> SG</text></g><g class="node" aria-label="graph-node223353" transform="translate(-138.52563207177786,233.5329687109957)"><circle class="b-outline" cx="0" cy="0" r="25" fill="#57C7E3" stroke="#23b3d7" stroke-width="2px"/><text class="caption" text-anchor="middle" pointer-events="none" x="0" y="5" font-size="10px" fill="#2A2C34" font-family="Helvetica Neue, Helvetica, Arial, sans-serif"> HK</text></g><g class="node" aria-label="graph-node223376" transform="translate(13.959983025940566,242.25516347549058)"><circle class="b-outline" cx="0" cy="0" r="25" fill="#57C7E3" stroke="#23b3d7" stroke-width="2px"/><text class="caption" text-anchor="middle" pointer-events="none" x="0" y="5" font-size="10px" fill="#2A2C34" font-family="Helvetica Neue, Helvetica, Arial, sans-serif"> CN</text></g><g class="node" aria-label="graph-node223453" transform="translate(349.22405041214085,-111.8785283863948)"><circle class="b-outline" cx="0" cy="0" r="25" fill="#57C7E3" stroke="#23b3d7" stroke-width="2px"/><text class="caption" text-anchor="middle" pointer-events="none" x="0" y="5" font-size="10px" fill="#2A2C34" font-family="Helvetica Neue, Helvetica, Arial, sans-serif"> GB</text></g><g class="node" aria-label="graph-node2847517" transform="translate(-254.90612403799474,-210.90493891922506)"><circle class="b-outline" cx="0" cy="0" r="25" fill="#DA7194" stroke="#cc3c6c" stroke-width="2px"/><text class="caption" text-anchor="middle" pointer-events="none" x="0" y="-5" font-size="10px" fill="#FFFFFF" font-family="Helvetica Neue, Helvetica, Arial, sans-serif"> Equinix</text><text class="caption" text-anchor="middle" pointer-events="none" x="0" y="5" font-size="10px" fill="#FFFFFF" font-family="Helvetica Neue, Helvetica, Arial, sans-serif"> Los</text><text class="caption" text-anchor="middle" pointer-events="none" x="0" y="15" font-size="10px" fill="#FFFFFF" font-family="Helvetica Neue, Helvetica, Arial, sans-serif"> Ang…</text></g><g class="node" aria-label="graph-node2847280" transform="translate(-20.52423057264861,-328.70398661911713)"><circle class="b-outline" cx="0" cy="0" r="25" fill="#DA7194" stroke="#cc3c6c" stroke-width="2px"/><text class="caption" text-anchor="middle" pointer-events="none" x="0" y="0" font-size="10px" fill="#FFFFFF" font-family="Helvetica Neue, Helvetica, Arial, sans-serif"> DE-CIX</text><text class="caption" text-anchor="middle" pointer-events="none" x="0" y="10" font-size="10px" fill="#FFFFFF" font-family="Helvetica Neue, Helvetica, Arial, sans-serif"> Frankf…</text></g><g class="node" aria-label="graph-node2847579" transform="translate(-255.94381191478993,-90.4388256217944)"><circle class="b-outline" cx="0" cy="0" r="25" fill="#DA7194" stroke="#cc3c6c" stroke-width="2px"/><text class="caption" text-anchor="middle" pointer-events="none" x="0" y="0" font-size="10px" fill="#FFFFFF" font-family="Helvetica Neue, Helvetica, Arial, sans-serif"> NYIIX</text><text class="caption" text-anchor="middle" pointer-events="none" x="0" y="10" font-size="10px" fill="#FFFFFF" font-family="Helvetica Neue, Helvetica, Arial, sans-serif"> Y…</text></g><g class="node" aria-label="graph-node2890055" transform="translate(233.64858088443805,-18.973091294957314)"><circle class="b-outline" cx="0" cy="0" r="25" fill="#DA7194" stroke="#cc3c6c" stroke-width="2px"/><text class="caption" text-anchor="middle" pointer-events="none" x="0" y="5" font-size="10px" fill="#FFFFFF" font-family="Helvetica Neue, Helvetica, Arial, sans-serif"> NSPIXP6</text></g><g class="node" aria-label="graph-node2847376" transform="translate(193.4567197984799,-210.03478179617966)"><circle class="b-outline" cx="0" cy="0" r="25" fill="#DA7194" stroke="#cc3c6c" stroke-width="2px"/><text class="caption" text-anchor="middle" pointer-events="none" x="0" y="5" font-size="10px" fill="#FFFFFF" font-family="Helvetica Neue, Helvetica, Arial, sans-serif"> SGIX</text></g><g class="node" aria-label="graph-node2890120" transform="translate(-249.4275357749243,152.7333590972521)"><circle class="b-outline" cx="0" cy="0" r="25" fill="#DA7194" stroke="#cc3c6c" stroke-width="2px"/><text class="caption" text-anchor="middle" pointer-events="none" x="0" y="5" font-size="10px" fill="#FFFFFF" font-family="Helvetica Neue, Helvetica, Arial, sans-serif"> SIX</text></g><g class="node" aria-label="graph-node2848107" transform="translate(126.50579061079821,59.92707220620332)"><circle class="b-outline" cx="0" cy="0" r="25" fill="#DA7194" stroke="#cc3c6c" stroke-width="2px"/><text class="caption" text-anchor="middle" pointer-events="none" x="0" y="5" font-size="10px" fill="#FFFFFF" font-family="Helvetica Neue, Helvetica, Arial, sans-serif"> DIX-IE</text></g><g class="node" aria-label="graph-node2847168" transform="translate(-254.22647453816649,-26.252476717460752)"><circle class="b-outline" cx="0" cy="0" r="25" fill="#DA7194" stroke="#cc3c6c" stroke-width="2px"/><text class="caption" text-anchor="middle" pointer-events="none" x="0" y="0" font-size="10px" fill="#FFFFFF" font-family="Helvetica Neue, Helvetica, Arial, sans-serif"> SIX</text><text class="caption" text-anchor="middle" pointer-events="none" x="0" y="10" font-size="10px" fill="#FFFFFF" font-family="Helvetica Neue, Helvetica, Arial, sans-serif"> Seattle</text></g><g class="node" aria-label="graph-node2848112" transform="translate(-255.85048480792227,-275.84417727497294)"><circle class="b-outline" cx="0" cy="0" r="25" fill="#DA7194" stroke="#cc3c6c" stroke-width="2px"/><text class="caption" text-anchor="middle" pointer-events="none" x="0" y="0" font-size="10px" fill="#FFFFFF" font-family="Helvetica Neue, Helvetica, Arial, sans-serif"> Equinix</text><text class="caption" text-anchor="middle" pointer-events="none" x="0" y="10" font-size="10px" fill="#FFFFFF" font-family="Helvetica Neue, Helvetica, Arial, sans-serif"> Y…</text></g><g class="node" aria-label="graph-node2847590" transform="translate(-254.07781470554283,34.57170384673745)"><circle class="b-outline" cx="0" cy="0" r="25" fill="#DA7194" stroke="#cc3c6c" stroke-width="2px"/><text class="caption" text-anchor="middle" pointer-events="none" x="0" y="0" font-size="10px" fill="#FFFFFF" font-family="Helvetica Neue, Helvetica, Arial, sans-serif"> Equinix</text><text class="caption" text-anchor="middle" pointer-events="none" x="0" y="10" font-size="10px" fill="#FFFFFF" font-family="Helvetica Neue, Helvetica, Arial, sans-serif"> A…</text></g><g class="node" aria-label="graph-node2847107" transform="translate(-257.46793637725784,-340.8908002316424)"><circle class="b-outline" cx="0" cy="0" r="25" fill="#DA7194" stroke="#cc3c6c" stroke-width="2px"/><text class="caption" text-anchor="middle" pointer-events="none" x="0" y="0" font-size="10px" fill="#FFFFFF" font-family="Helvetica Neue, Helvetica, Arial, sans-serif"> Equinix</text><text class="caption" text-anchor="middle" pointer-events="none" x="0" y="10" font-size="10px" fill="#FFFFFF" font-family="Helvetica Neue, Helvetica, Arial, sans-serif"> Ashbu…</text></g><g class="node" aria-label="graph-node2847102" transform="translate(185.39122141227801,24.650687783205818)"><circle class="b-outline" cx="0" cy="0" r="25" fill="#DA7194" stroke="#cc3c6c" stroke-width="2px"/><text class="caption" text-anchor="middle" pointer-events="none" x="0" y="0" font-size="10px" fill="#FFFFFF" font-family="Helvetica Neue, Helvetica, Arial, sans-serif"> JPNAP</text><text class="caption" text-anchor="middle" pointer-events="none" x="0" y="10" font-size="10px" fill="#FFFFFF" font-family="Helvetica Neue, Helvetica, Arial, sans-serif"> Osaka</text></g><g class="node" aria-label="graph-node2847670" transform="translate(-101.93515372754739,90.81482432226967)"><circle class="b-outline" cx="0" cy="0" r="25" fill="#DA7194" stroke="#cc3c6c" stroke-width="2px"/><text class="caption" text-anchor="middle" pointer-events="none" x="0" y="-5" font-size="10px" fill="#FFFFFF" font-family="Helvetica Neue, Helvetica, Arial, sans-serif"> Equinix</text><text class="caption" text-anchor="middle" pointer-events="none" x="0" y="5" font-size="10px" fill="#FFFFFF" font-family="Helvetica Neue, Helvetica, Arial, sans-serif"> Hong</text><text class="caption" text-anchor="middle" pointer-events="none" x="0" y="15" font-size="10px" fill="#FFFFFF" font-family="Helvetica Neue, Helvetica, Arial, sans-serif"> Kong</text></g><g class="node" aria-label="graph-node2847623" transform="translate(-23.416954216879404,97.01863572587587)"><circle class="b-outline" cx="0" cy="0" r="25" fill="#DA7194" stroke="#cc3c6c" stroke-width="2px"/><text class="caption" text-anchor="middle" pointer-events="none" x="0" y="5" font-size="10px" fill="#FFFFFF" font-family="Helvetica Neue, Helvetica, Arial, sans-serif"> HKIX</text></g><g class="node" aria-label="graph-node2848020" transform="translate(127.66583610068203,-274.1208130079389)"><circle class="b-outline" cx="0" cy="0" r="25" fill="#DA7194" stroke="#cc3c6c" stroke-width="2px"/><text class="caption" text-anchor="middle" pointer-events="none" x="0" y="0" font-size="10px" fill="#FFFFFF" font-family="Helvetica Neue, Helvetica, Arial, sans-serif"> Equinix</text><text class="caption" text-anchor="middle" pointer-events="none" x="0" y="10" font-size="10px" fill="#FFFFFF" font-family="Helvetica Neue, Helvetica, Arial, sans-serif"> Singa…</text></g><g class="node" aria-label="graph-node2847618" transform="translate(-255.55221574413372,-148.92991503149213)"><circle class="b-outline" cx="0" cy="0" r="25" fill="#DA7194" stroke="#cc3c6c" stroke-width="2px"/><text class="caption" text-anchor="middle" pointer-events="none" x="0" y="0" font-size="10px" fill="#FFFFFF" font-family="Helvetica Neue, Helvetica, Arial, sans-serif"> Equinix</text><text class="caption" text-anchor="middle" pointer-events="none" x="0" y="10" font-size="10px" fill="#FFFFFF" font-family="Helvetica Neue, Helvetica, Arial, sans-serif"> J…</text></g><g class="node" aria-label="graph-node2848140" transform="translate(65.22805906345046,91.67987309085262)"><circle class="b-outline" cx="0" cy="0" r="25" fill="#DA7194" stroke="#cc3c6c" stroke-width="2px"/><text class="caption" text-anchor="middle" pointer-events="none" x="0" y="0" font-size="10px" fill="#FFFFFF" font-family="Helvetica Neue, Helvetica, Arial, sans-serif"> JPNAP</text><text class="caption" text-anchor="middle" pointer-events="none" x="0" y="10" font-size="10px" fill="#FFFFFF" font-family="Helvetica Neue, Helvetica, Arial, sans-serif"> Tokyo</text></g><g class="node" aria-label="graph-node2889948" transform="translate(-251.24282509536943,93.46384119015363)"><circle class="b-outline" cx="0" cy="0" r="25" fill="#DA7194" stroke="#cc3c6c" stroke-width="2px"/><text class="caption" text-anchor="middle" pointer-events="none" x="0" y="-5" font-size="10px" fill="#FFFFFF" font-family="Helvetica Neue, Helvetica, Arial, sans-serif"> Equinix</text><text class="caption" text-anchor="middle" pointer-events="none" x="0" y="5" font-size="10px" fill="#FFFFFF" font-family="Helvetica Neue, Helvetica, Arial, sans-serif"> IBX San</text><text class="caption" text-anchor="middle" pointer-events="none" x="0" y="15" font-size="10px" fill="#FFFFFF" font-family="Helvetica Neue, Helvetica, Arial, sans-serif"> Jos</text></g><g class="node" aria-label="graph-node2847586" transform="translate(213.32466707153165,-109.55907118264452)"><circle class="b-outline" cx="0" cy="0" r="25" fill="#DA7194" stroke="#cc3c6c" stroke-width="2px"/><text class="caption" text-anchor="middle" pointer-events="none" x="0" y="0" font-size="10px" fill="#FFFFFF" font-family="Helvetica Neue, Helvetica, Arial, sans-serif"> LINX</text><text class="caption" text-anchor="middle" pointer-events="none" x="0" y="10" font-size="10px" fill="#FFFFFF" font-family="Helvetica Neue, Helvetica, Arial, sans-serif"> LON1</text></g></g></svg>