<svg xmlns="http://www.w3.org/2000/svg" width="716.5377197265625" height="651.5174560546875" viewBox="-393.4301452636719 -282.26983642578125 716.5377197265625 651.5174560546875"><title>Neo4j Graph Visualization</title><desc>Created using Neo4j (http://www.neo4j.com/)</desc><g class="layer relationships"><g class="relationship" transform="translate(-14.377841048113053 19.502028082691687) rotate(487.4291858958004)"><path class="b-outline" fill="#A5ABB6" stroke="none" d="M 25 0.5 L 71.63185459153732 0.5 L 71.63185459153732 -0.5 L 25 -0.5 Z M 127.63185459153732 0.5 L 174.26370918307464 0.5 L 174.26370918307464 3.5 L 181.26370918307464 0 L 174.26370918307464 -3.5 L 174.26370918307464 -0.5 L 127.63185459153732 -0.5 Z"/><text text-anchor="middle" pointer-events="none" font-size="8px" fill="#000000" x="99.63185459153732" y="3" transform="rotate(180 99.63185459153732 0)" font-family="Helvetica Neue, Helvetica, Arial, sans-serif">MEMBER_OF</text></g><g class="relationship" transform="translate(-14.377841048113053 19.502028082691687) rotate(431.12240025285575)"><path class="b-outline" fill="#A5ABB6" stroke="none" d="M 25 0.5 L 73.73435679040949 0.5 L 73.73435679040949 -0.5 L 25 -0.5 Z M 129.7343567904095 0.5 L 178.46871358081899 0.5 L 178.46871358081899 3.5 L 185.46871358081899 0 L 178.46871358081899 -3.5 L 178.46871358081899 -0.5 L 129.7343567904095 -0.5 Z"/><text text-anchor="middle" pointer-events="none" font-size="8px" fill="#000000" x="101.73435679040949" y="3" font-family="Helvetica Neue, Helvetica, Arial, sans-serif">MEMBER_OF</text></g><g class="relationship" transform="translate(-14.377841048113053 19.502028082691687) rotate(376.9148020777176)"><path class="b-outline" fill="#A5ABB6" stroke="none" d="M 25 0.5 L 69.62547608860389 0.5 L 69.62547608860389 -0.5 L 25 -0.5 Z M 125.62547608860389 0.5 L 170.25095217720778 0.5 L 170.25095217720778 3.5 L 177.25095217720778 0 L 170.25095217720778 -3.5 L 170.25095217720778 -0.5 L 125.62547608860389 -0.5 Z"/><text text-anchor="middle" pointer-events="none" font-size="8px" fill="#000000" x="97.62547608860389" y="3" font-family="Helvetica Neue, Helvetica, Arial, sans-serif">MEMBER_OF</text></g><g class="relationship" transform="translate(-14.377841048113053 19.502028082691687) rotate(333.9703839902438)"><path class="b-outline" fill="#A5ABB6" stroke="none" d="M 25 0.5 L 84.04584403246076 0.5 L 84.04584403246076 -0.5 L 25 -0.5 Z M 140.04584403246076 0.5 L 199.09168806492153 0.5 L 199.09168806492153 3.5 L 206.09168806492153 0 L 199.09168806492153 -3.5 L 199.09168806492153 -0.5 L 140.04584403246076 -0.5 Z"/><text text-anchor="middle" pointer-events="none" font-size="8px" fill="#000000" x="112.04584403246076" y="3" font-family="Helvetica Neue, Helvetica, Arial, sans-serif">MEMBER_OF</text></g><g class="relationship" transform="translate(-14.377841048113053 19.502028082691687) rotate(309.24614882875386)"><path class="b-outline" fill="#A5ABB6" stroke="none" d="M 25 0.5 L 35.70303141176066 0.5 L 35.70303141176066 -0.5 L 25 -0.5 Z M 91.70303141176066 0.5 L 102.40606282352132 0.5 L 102.40606282352132 3.5 L 109.40606282352132 0 L 102.40606282352132 -3.5 L 102.40606282352132 -0.5 L 91.70303141176066 -0.5 Z"/><text text-anchor="middle" pointer-events="none" font-size="8px" fill="#000000" x="63.70303141176066" y="3" font-family="Helvetica Neue, Helvetica, Arial, sans-serif">MEMBER_OF</text></g><g class="relationship" transform="translate(-14.377841048113053 19.502028082691687) rotate(309.68784857124103)"><path class="b-outline" fill="#A5ABB6" stroke="none" d="M 25 0.5 L 84.70047460317109 0.5 L 84.70047460317109 -0.5 L 25 -0.5 Z M 140.70047460317107 0.5 L 200.40094920634218 0.5 L 200.40094920634218 3.5 L 207.40094920634218 0 L 200.40094920634218 -3.5 L 200.40094920634218 -0.5 L 140.70047460317107 -0.5 Z"/><text text-anchor="middle" pointer-events="none" font-size="8px" fill="#000000" x="112.70047460317109" y="3" font-family="Helvetica Neue, Helvetica, Arial, sans-serif">MEMBER_OF</text></g><g class="relationship" transform="translate(-14.377841048113053 19.502028082691687) rotate(284.66450335198255)"><path class="b-outline" fill="#A5ABB6" stroke="none" d="M 25 0.5 L 69.50451792704163 0.5 L 69.50451792704163 -0.5 L 25 -0.5 Z M 125.50451792704163 0.5 L 170.00903585408327 0.5 L 170.00903585408327 3.5 L 177.00903585408327 0 L 170.00903585408327 -3.5 L 170.00903585408327 -0.5 L 125.50451792704163 -0.5 Z"/><text text-anchor="middle" pointer-events="none" font-size="8px" fill="#000000" x="97.50451792704163" y="3" font-family="Helvetica Neue, Helvetica, Arial, sans-serif">MEMBER_OF</text></g><g class="relationship" transform="translate(-14.377841048113053 19.502028082691687) rotate(405.49470850612977)"><path class="b-outline" fill="#A5ABB6" stroke="none" d="M 25 0.5 L 44.316253424900864 0.5 L 44.316253424900864 -0.5 L 25 -0.5 Z M 100.31625342490086 0.5 L 119.63250684980173 0.5 L 119.63250684980173 3.5 L 126.63250684980173 0 L 119.63250684980173 -3.5 L 119.63250684980173 -0.5 L 100.31625342490086 -0.5 Z"/><text text-anchor="middle" pointer-events="none" font-size="8px" fill="#000000" x="72.31625342490086" y="3" font-family="Helvetica Neue, Helvetica, Arial, sans-serif">MEMBER_OF</text></g><g class="relationship" transform="translate(-14.377841048113053 19.502028082691687) rotate(263.1045823048639)"><path class="b-outline" fill="#A5ABB6" stroke="none" d="M 25 0.5 L 95.13337990141024 0.5 L 95.13337990141024 -0.5 L 25 -0.5 Z M 151.13337990141025 0.5 L 221.26675980282047 0.5 L 221.26675980282047 3.5 L 228.26675980282047 0 L 221.26675980282047 -3.5 L 221.26675980282047 -0.5 L 151.13337990141025 -0.5 Z"/><text text-anchor="middle" pointer-events="none" font-size="8px" fill="#000000" x="123.13337990141024" y="3" transform="rotate(180 123.13337990141024 0)" font-family="Helvetica Neue, Helvetica, Arial, sans-serif">MEMBER_OF</text></g><g class="relationship" transform="translate(-14.377841048113053 19.502028082691687) rotate(212.01353204946065)"><path class="b-outline" fill="#A5ABB6" stroke="none" d="M 25 0.5 L 54.09094159118462 0.5 L 54.09094159118462 -0.5 L 25 -0.5 Z M 110.09094159118462 0.5 L 139.18188318236923 0.5 L 139.18188318236923 3.5 L 146.18188318236923 0 L 139.18188318236923 -3.5 L 139.18188318236923 -0.5 L 110.09094159118462 -0.5 Z"/><text text-anchor="middle" pointer-events="none" font-size="8px" fill="#000000" x="82.09094159118462" y="3" transform="rotate(180 82.09094159118462 0)" font-family="Helvetica Neue, Helvetica, Arial, sans-serif">MEMBER_OF</text></g><g class="relationship" transform="translate(-14.377841048113053 19.502028082691687) rotate(264.3762143835737)"><path class="b-outline" fill="#A5ABB6" stroke="none" d="M 25 0.5 L 29.48331434157309 0.5 L 29.48331434157309 -0.5 L 25 -0.5 Z M 85.48331434157309 0.5 L 89.96662868314618 0.5 L 89.96662868314618 3.5 L 96.96662868314618 0 L 89.96662868314618 -3.5 L 89.96662868314618 -0.5 L 85.48331434157309 -0.5 Z"/><text text-anchor="middle" pointer-events="none" font-size="8px" fill="#000000" x="57.48331434157309" y="3" transform="rotate(180 57.48331434157309 0)" font-family="Helvetica Neue, Helvetica, Arial, sans-serif">MEMBER_OF</text></g><g class="relationship" transform="translate(-14.377841048113053 19.502028082691687) rotate(183.8028055483698)"><path class="b-outline" fill="#A5ABB6" stroke="none" d="M 25 0.5 L 72.30249789137224 0.5 L 72.30249789137224 -0.5 L 25 -0.5 Z M 128.30249789137224 0.5 L 175.60499578274448 0.5 L 175.60499578274448 3.5 L 182.60499578274448 0 L 175.60499578274448 -3.5 L 175.60499578274448 -0.5 L 128.30249789137224 -0.5 Z"/><text text-anchor="middle" pointer-events="none" font-size="8px" fill="#000000" x="100.30249789137224" y="3" transform="rotate(180 100.30249789137224 0)" font-family="Helvetica Neue, Helvetica, Arial, sans-serif">MEMBER_OF</text></g><g class="relationship" transform="translate(-14.377841048113053 19.502028082691687) rotate(242.17831045347202)"><path class="b-outline" fill="#A5ABB6" stroke="none" d="M 25 0.5 L 68.3420704896979 0.5 L 68.3420704896979 -0.5 L 25 -0.5 Z M 124.3420704896979 0.5 L 167.6841409793958 0.5 L 167.6841409793958 3.5 L 174.6841409793958 0 L 167.6841409793958 -3.5 L 167.6841409793958 -0.5 L 124.3420704896979 -0.5 Z"/><text text-anchor="middle" pointer-events="none" font-size="8px" fill="#000000" x="96.3420704896979" y="3" transform="rotate(180 96.3420704896979 0)" font-family="Helvetica Neue, Helvetica, Arial, sans-serif">MEMBER_OF</text></g><g class="relationship" transform="translate(-14.377841048113053 19.502028082691687) rotate(465.30154622785807)"><path class="b-outline" fill="#A5ABB6" stroke="none" d="M 25 0.5 L 33.252584988445406 0.5 L 33.252584988445406 -0.5 L 25 -0.5 Z M 89.2525849884454 0.5 L 97.50516997689081 0.5 L 97.50516997689081 3.5 L 104.50516997689081 0 L 97.50516997689081 -3.5 L 97.50516997689081 -0.5 L 89.2525849884454 -0.5 Z"/><text text-anchor="middle" pointer-events="none" font-size="8px" fill="#000000" x="61.252584988445406" y="3" transform="rotate(180 61.252584988445406 0)" font-family="Helvetica Neue, Helvetica, Arial, sans-serif">MEMBER_OF</text></g><g class="relationship" transform="translate(-14.377841048113053 19.502028082691687) rotate(515.74899121352)"><path class="b-outline" fill="#A5ABB6" stroke="none" d="M 25 0.5 L 52.074585351622474 0.5 L 52.074585351622474 -0.5 L 25 -0.5 Z M 108.07458535162247 0.5 L 135.14917070324495 0.5 L 135.14917070324495 3.5 L 142.14917070324495 0 L 135.14917070324495 -3.5 L 135.14917070324495 -0.5 L 108.07458535162247 -0.5 Z"/><text text-anchor="middle" pointer-events="none" font-size="8px" fill="#000000" x="80.07458535162247" y="3" transform="rotate(180 80.07458535162247 0)" font-family="Helvetica Neue, Helvetica, Arial, sans-serif">MEMBER_OF</text></g><g class="relationship" transform="translate(-14.377841048113053 19.502028082691687) rotate(349.4183945185257)"><path class="b-outline" fill="#A5ABB6" stroke="none" d="M 25 0.5 L 41.83504528980119 0.5 L 41.83504528980119 -0.5 L 25 -0.5 Z M 97.83504528980119 0.5 L 114.67009057960237 0.5 L 114.67009057960237 3.5 L 121.67009057960237 0 L 114.67009057960237 -3.5 L 114.67009057960237 -0.5 L 97.83504528980119 -0.5 Z"/><text text-anchor="middle" pointer-events="none" font-size="8px" fill="#000000" x="69.83504528980119" y="3" font-family="Helvetica Neue, Helvetica, Arial, sans-serif">MEMBER_OF</text></g><g class="relationship" transform="translate(-14.377841048113053 19.502028082691687) rotate(455.64249440693743)"><path class="b-outline" fill="#A5ABB6" stroke="none" d="M 21.40063509461097,-12.933012701892217 L 21.90063509461097,-12.06698729810778 A 192.6856253905057 192.6856253905057 0 0 1 92.61791767675703,-36.170376798364 L 92.48492628177792,-37.161493990658414 A 193.6856253905057 193.6856253905057 0 0 0 21.40063509461097,-12.933012701892217 Z M 138.49038389051628,-37.82080198882855 L 138.38584884275613,-36.826280785540376 A 192.6856253905057 192.6856253905057 0 0 1 209.76480302742638,-14.759284145605243 L 208.33987023777877,-12.119290481789536 L 216.16227704127095,-11.8744399137301 L 211.6647134136232,-18.279275697359516 L 210.23978062397558,-15.639282033543811 A 193.6856253905057 193.6856253905057 0 0 0 138.49038389051628,-37.82080198882855"/><text text-anchor="middle" pointer-events="none" font-size="8px" fill="#000000" x="115.47517295714417" y="-35.36213098753157" transform="rotate(180 115.47517295714417 -38.36213098753157)" font-family="Helvetica Neue, Helvetica, Arial, sans-serif">COUNTRY</text></g><g class="relationship" transform="translate(-14.377841048113053 19.502028082691687) rotate(455.64249440693743)"><path class="b-outline" fill="#A5ABB6" stroke="none" d="M 25 0.5 L 92.5811121198676 0.5 L 92.5811121198676 -0.5 L 25 -0.5 Z M 138.5811121198676 0.5 L 206.1622242397352 0.5 L 206.1622242397352 3.5 L 213.1622242397352 0 L 206.1622242397352 -3.5 L 206.1622242397352 -0.5 L 138.5811121198676 -0.5 Z"/><text text-anchor="middle" pointer-events="none" font-size="8px" fill="#000000" x="115.5811121198676" y="3" transform="rotate(180 115.5811121198676 0)" font-family="Helvetica Neue, Helvetica, Arial, sans-serif">COUNTRY</text></g><g class="relationship" transform="translate(-14.377841048113053 19.502028082691687) rotate(455.64249440693743)"><path class="b-outline" fill="#A5ABB6" stroke="none" d="M 21.40063509461097,12.933012701892217 L 21.90063509461097,12.06698729810778 A 192.6856253905057 192.6856253905057 0 0 0 88.17678778233226,35.52171003678359 L 88.02074780816918,36.50946077784286 A 193.6856253905057 193.6856253905057 0 0 1 21.40063509461097,12.933012701892217 Z M 142.97141388117342,37.296963294497004 L 142.84374324974965,36.305146673406284 A 192.6856253905057 192.6856253905057 0 0 0 209.76480302742638,14.759284145605243 L 208.33987023777877,12.119290481789536 L 216.16227704127095,11.8744399137301 L 211.6647134136232,18.279275697359516 L 210.23978062397558,15.639282033543811 A 193.6856253905057 193.6856253905057 0 0 1 142.97141388117342,37.296963294497004"/><text text-anchor="middle" pointer-events="none" font-size="8px" fill="#000000" x="115.47517295714422" y="41.36213098753157" transform="rotate(180 115.47517295714422 38.36213098753157)" font-family="Helvetica Neue, Helvetica, Arial, sans-serif">POPULATION</text></g><g class="relationship" transform="translate(-14.377841048113053 19.502028082691687) rotate(137.09592125146634)"><path class="b-outline" fill="#A5ABB6" stroke="none" d="M 6.953439040707552 24.018736134675446 L 17.306200844808384 62.65576918623819 A 17.916697508022974 17.916697508022974 0 1 1 -17.306200844808384 62.65576918623819 L -8.765172356425198 30.780216918698923 L -4.901469051268926 31.815493099109005 L -6.4704761275630185 24.148145657226706 L -11.662949835292403 30.00375978339136 L -7.79924653013613 31.039035963801442 L -16.340275018519314 62.91458823134071 A 16.916697508022974 16.916697508022974 0 1 0 16.340275018519314 62.91458823134071 L 5.987513214418485 24.277555179777966 Z"/><text text-anchor="middle" pointer-events="none" font-size="8px" fill="#000000" x="0" y="94.20964923467838" transform="rotate(180 0 91.20964923467838)" font-family="Helvetica Neue, Helvetica, Arial, sans-serif"/></g><g class="relationship" transform="translate(-139.74088644482362 183.29709691817973) rotate(395.68408418625313)"><path class="b-outline" fill="#A5ABB6" stroke="none" d="M 25 0.5 L 36.25607897150162 0.5 L 36.25607897150162 -0.5 L 25 -0.5 Z M 82.25607897150162 0.5 L 93.51215794300325 0.5 L 93.51215794300325 3.5 L 100.51215794300325 0 L 93.51215794300325 -3.5 L 93.51215794300325 -0.5 L 82.25607897150162 -0.5 Z"/><text text-anchor="middle" pointer-events="none" font-size="8px" fill="#000000" x="59.25607897150162" y="3" font-family="Helvetica Neue, Helvetica, Arial, sans-serif">COUNTRY</text></g><g class="relationship" transform="translate(53.71878793335075 218.65003464496104) rotate(411.34867971028496)"><path class="b-outline" fill="#A5ABB6" stroke="none" d="M 25 0.5 L 51.35123911073289 0.5 L 51.35123911073289 -0.5 L 25 -0.5 Z M 97.35123911073289 0.5 L 123.70247822146578 0.5 L 123.70247822146578 3.5 L 130.70247822146578 0 L 123.70247822146578 -3.5 L 123.70247822146578 -0.5 L 97.35123911073289 -0.5 Z"/><text text-anchor="middle" pointer-events="none" font-size="8px" fill="#000000" x="74.35123911073289" y="3" font-family="Helvetica Neue, Helvetica, Arial, sans-serif">COUNTRY</text></g><g class="relationship" transform="translate(179.12342158496344 78.34681558330509) rotate(310.46138509063036)"><path class="b-outline" fill="#A5ABB6" stroke="none" d="M 25 0.5 L 62.094496318811935 0.5 L 62.094496318811935 -0.5 L 25 -0.5 Z M 108.09449631881193 0.5 L 145.18899263762387 0.5 L 145.18899263762387 3.5 L 152.18899263762387 0 L 145.18899263762387 -3.5 L 145.18899263762387 -0.5 L 108.09449631881193 -0.5 Z"/><text text-anchor="middle" pointer-events="none" font-size="8px" fill="#000000" x="85.09449631881193" y="3" font-family="Helvetica Neue, Helvetica, Arial, sans-serif">COUNTRY</text></g><g class="relationship" transform="translate(193.27360090416005 -81.90924815341899) rotate(241.20568064298232)"><path class="b-outline" fill="#A5ABB6" stroke="none" d="M 25 0.5 L 71.2689878581773 0.5 L 71.2689878581773 -0.5 L 25 -0.5 Z M 117.2689878581773 0.5 L 163.5379757163546 0.5 L 163.5379757163546 3.5 L 170.5379757163546 0 L 163.5379757163546 -3.5 L 163.5379757163546 -0.5 L 117.2689878581773 -0.5 Z"/><text text-anchor="middle" pointer-events="none" font-size="8px" fill="#000000" x="94.2689878581773" y="3" transform="rotate(180 94.2689878581773 0)" font-family="Helvetica Neue, Helvetica, Arial, sans-serif">COUNTRY</text></g><g class="relationship" transform="translate(70.65459489167993 -84.58675403077797) rotate(279.5683792077806)"><path class="b-outline" fill="#A5ABB6" stroke="none" d="M 25 0.5 L 59.03145368054429 0.5 L 59.03145368054429 -0.5 L 25 -0.5 Z M 105.03145368054429 0.5 L 139.06290736108858 0.5 L 139.06290736108858 3.5 L 146.06290736108858 0 L 139.06290736108858 -3.5 L 139.06290736108858 -0.5 L 105.03145368054429 -0.5 Z"/><text text-anchor="middle" pointer-events="none" font-size="8px" fill="#000000" x="82.03145368054429" y="3" font-family="Helvetica Neue, Helvetica, Arial, sans-serif">COUNTRY</text></g><g class="relationship" transform="translate(134.034480437917 -159.33863849830746) rotate(392.727169405631)"><path class="b-outline" fill="#A5ABB6" stroke="none" d="M 25 0.5 L 68.63955228469952 0.5 L 68.63955228469952 -0.5 L 25 -0.5 Z M 114.63955228469952 0.5 L 158.27910456939904 0.5 L 158.27910456939904 3.5 L 165.27910456939904 0 L 158.27910456939904 -3.5 L 158.27910456939904 -0.5 L 114.63955228469952 -0.5 Z"/><text text-anchor="middle" pointer-events="none" font-size="8px" fill="#000000" x="91.63955228469952" y="3" font-family="Helvetica Neue, Helvetica, Arial, sans-serif">COUNTRY</text></g><g class="relationship" transform="translate(36.76249199149988 -175.92651871458094) rotate(308.86354098187655)"><path class="b-outline" fill="#A5ABB6" stroke="none" d="M 25 0.5 L 27.16547187702878 0.5 L 27.16547187702878 -0.5 L 25 -0.5 Z M 65.16547187702878 0.5 L 67.33094375405756 0.5 L 67.33094375405756 3.5 L 74.33094375405756 0 L 67.33094375405756 -3.5 L 67.33094375405756 -0.5 L 65.16547187702878 -0.5 Z"/><text text-anchor="middle" pointer-events="none" font-size="8px" fill="#000000" x="46.16547187702878" y="3" font-family="Helvetica Neue, Helvetica, Arial, sans-serif">COUN…</text></g><g class="relationship" transform="translate(91.91277558314627 127.64416579830106) rotate(495.18631492603527)"><path class="b-outline" fill="#A5ABB6" stroke="none" d="M 25 0.5 L 64.91987827279709 0.5 L 64.91987827279709 -0.5 L 25 -0.5 Z M 110.91987827279709 0.5 L 150.83975654559418 0.5 L 150.83975654559418 3.5 L 157.83975654559418 0 L 150.83975654559418 -3.5 L 150.83975654559418 -0.5 L 110.91987827279709 -0.5 Z"/><text text-anchor="middle" pointer-events="none" font-size="8px" fill="#000000" x="87.91987827279709" y="3" transform="rotate(180 87.91987827279709 0)" font-family="Helvetica Neue, Helvetica, Arial, sans-serif">COUNTRY</text></g><g class="relationship" transform="translate(-44.78440021774754 -231.93283978666943) rotate(351.5643269133823)"><path class="b-outline" fill="#A5ABB6" stroke="none" d="M 25 0.5 L 46.22371021117851 0.5 L 46.22371021117851 -0.5 L 25 -0.5 Z M 92.22371021117851 0.5 L 113.44742042235703 0.5 L 113.44742042235703 3.5 L 120.44742042235703 0 L 113.44742042235703 -3.5 L 113.44742042235703 -0.5 L 92.22371021117851 -0.5 Z"/><text text-anchor="middle" pointer-events="none" font-size="8px" fill="#000000" x="69.22371021117851" y="3" font-family="Helvetica Neue, Helvetica, Arial, sans-serif">COUNTRY</text></g><g class="relationship" transform="translate(-159.52688273943775 -71.24483316304172) rotate(522.7461059388966)"><path class="b-outline" fill="#A5ABB6" stroke="none" d="M 25 0.5 L 56.107955585669245 0.5 L 56.107955585669245 -0.5 L 25 -0.5 Z M 102.10795558566925 0.5 L 133.2159111713385 0.5 L 133.2159111713385 3.5 L 140.2159111713385 0 L 133.2159111713385 -3.5 L 133.2159111713385 -0.5 L 102.10795558566925 -0.5 Z"/><text text-anchor="middle" pointer-events="none" font-size="8px" fill="#000000" x="79.10795558566925" y="3" transform="rotate(180 79.10795558566925 0)" font-family="Helvetica Neue, Helvetica, Arial, sans-serif">COUNTRY</text></g><g class="relationship" transform="translate(-26.330088570774365 -101.87755130152554) rotate(309.6397385047121)"><path class="b-outline" fill="#A5ABB6" stroke="none" d="M 25 0.5 L 71.79761002803781 0.5 L 71.79761002803781 -0.5 L 25 -0.5 Z M 117.79761002803781 0.5 L 164.59522005607562 0.5 L 164.59522005607562 3.5 L 171.59522005607562 0 L 164.59522005607562 -3.5 L 164.59522005607562 -0.5 L 117.79761002803781 -0.5 Z"/><text text-anchor="middle" pointer-events="none" font-size="8px" fill="#000000" x="94.79761002803781" y="3" font-family="Helvetica Neue, Helvetica, Arial, sans-serif">COUNTRY</text></g><g class="relationship" transform="translate(-221.5257367027386 5.73309203760394) rotate(515.0279563986228)"><path class="b-outline" fill="#A5ABB6" stroke="none" d="M 25 0.5 L 52.32086632124572 0.5 L 52.32086632124572 -0.5 L 25 -0.5 Z M 98.32086632124572 0.5 L 125.64173264249143 0.5 L 125.64173264249143 3.5 L 132.64173264249143 0 L 125.64173264249143 -3.5 L 125.64173264249143 -0.5 L 98.32086632124572 -0.5 Z"/><text text-anchor="middle" pointer-events="none" font-size="8px" fill="#000000" x="75.32086632124572" y="3" transform="rotate(180 75.32086632124572 0)" font-family="Helvetica Neue, Helvetica, Arial, sans-serif">COUNTRY</text></g><g class="relationship" transform="translate(-107.57471657839386 -157.09949668443076) rotate(335.04527905992245)"><path class="b-outline" fill="#A5ABB6" stroke="none" d="M 25 0.5 L 87.4723759015932 0.5 L 87.4723759015932 -0.5 L 25 -0.5 Z M 133.47237590159318 0.5 L 195.9447518031864 0.5 L 195.9447518031864 3.5 L 202.9447518031864 0 L 195.9447518031864 -3.5 L 195.9447518031864 -0.5 L 133.47237590159318 -0.5 Z"/><text text-anchor="middle" pointer-events="none" font-size="8px" fill="#000000" x="110.4723759015932" y="3" font-family="Helvetica Neue, Helvetica, Arial, sans-serif">COUNTRY</text></g><g class="relationship" transform="translate(-48.554136280421815 144.41627825030648) rotate(444.51695592105875)"><path class="b-outline" fill="#A5ABB6" stroke="none" d="M 25 0.5 L 29.804630305119524 0.5 L 29.804630305119524 -0.5 L 25 -0.5 Z M 75.80463030511953 0.5 L 80.60926061023905 0.5 L 80.60926061023905 3.5 L 87.60926061023905 0 L 80.60926061023905 -3.5 L 80.60926061023905 -0.5 L 75.80463030511953 -0.5 Z"/><text text-anchor="middle" pointer-events="none" font-size="8px" fill="#000000" x="52.804630305119524" y="3" font-family="Helvetica Neue, Helvetica, Arial, sans-serif">COUNTRY</text></g><g class="relationship" transform="translate(-166.77690176771893 88.15602693610444) rotate(216.25563132313584)"><path class="b-outline" fill="#A5ABB6" stroke="none" d="M 25 0.5 L 66.83684543061581 0.5 L 66.83684543061581 -0.5 L 25 -0.5 Z M 112.83684543061581 0.5 L 154.67369086123162 0.5 L 154.67369086123162 3.5 L 161.67369086123162 0 L 154.67369086123162 -3.5 L 154.67369086123162 -0.5 L 112.83684543061581 -0.5 Z"/><text text-anchor="middle" pointer-events="none" font-size="8px" fill="#000000" x="89.83684543061581" y="3" transform="rotate(180 89.83684543061581 0)" font-family="Helvetica Neue, Helvetica, Arial, sans-serif">COUNTRY</text></g><g class="relationship" transform="translate(129.79803005926306 -7.431847632808923) rotate(262.8798414136338)"><path class="b-outline" fill="#A5ABB6" stroke="none" d="M 25 0.5 L 97.37425687439688 0.5 L 97.37425687439688 -0.5 L 25 -0.5 Z M 143.37425687439688 0.5 L 215.74851374879375 0.5 L 215.74851374879375 3.5 L 222.74851374879375 0 L 215.74851374879375 -3.5 L 215.74851374879375 -0.5 L 143.37425687439688 -0.5 Z"/><text text-anchor="middle" pointer-events="none" font-size="8px" fill="#000000" x="120.37425687439688" y="3" transform="rotate(180 120.37425687439688 0)" font-family="Helvetica Neue, Helvetica, Arial, sans-serif">COUNTRY</text></g></g><g class="layer nodes"><g class="node" aria-label="graph-node320" transform="translate(-14.377841048113053,19.502028082691687)"><circle class="b-outline" cx="0" cy="0" r="25" fill="#FFC454" stroke="#d7a013" stroke-width="2px"/><text class="caption" text-anchor="middle" pointer-events="none" x="0" y="5" font-size="10px" fill="#2A2C34" font-family="Helvetica Neue, Helvetica, Arial, sans-serif"> 2497</text></g><g class="node" aria-label="graph-node2382705" transform="translate(-139.74088644482362,183.29709691817973)"><circle class="b-outline" cx="0" cy="0" r="25" fill="#8DCC93" stroke="#5db665" stroke-width="2px"/><text class="caption" text-anchor="middle" pointer-events="none" x="0" y="0" font-size="10px" fill="#2A2C34" font-family="Helvetica Neue, Helvetica, Arial, sans-serif"> JPNAP</text><text class="caption" text-anchor="middle" pointer-events="none" x="0" y="10" font-size="10px" fill="#2A2C34" font-family="Helvetica Neue, Helvetica, Arial, sans-serif"> Osaka</text></g><g class="node" aria-label="graph-node93" transform="translate(-37.794189213346435,256.51029733383507)"><circle class="b-outline" cx="0" cy="0" r="25" fill="#57C7E3" stroke="#23b3d7" stroke-width="2px"/><text class="caption" text-anchor="middle" pointer-events="none" x="0" y="5" font-size="10px" fill="#2A2C34" font-family="Helvetica Neue, Helvetica, Arial, sans-serif"> JP</text></g><g class="node" aria-label="graph-node2382507" transform="translate(53.71878793335075,218.65003464496104)"><circle class="b-outline" cx="0" cy="0" r="25" fill="#8DCC93" stroke="#5db665" stroke-width="2px"/><text class="caption" text-anchor="middle" pointer-events="none" x="0" y="0" font-size="10px" fill="#2A2C34" font-family="Helvetica Neue, Helvetica, Arial, sans-serif"> DE-CIX</text><text class="caption" text-anchor="middle" pointer-events="none" x="0" y="10" font-size="10px" fill="#2A2C34" font-family="Helvetica Neue, Helvetica, Arial, sans-serif"> Frankf…</text></g><g class="node" aria-label="graph-node37" transform="translate(150.9673422107964,340.24765146064016)"><circle class="b-outline" cx="0" cy="0" r="25" fill="#57C7E3" stroke="#23b3d7" stroke-width="2px"/><text class="caption" text-anchor="middle" pointer-events="none" x="0" y="5" font-size="10px" fill="#2A2C34" font-family="Helvetica Neue, Helvetica, Arial, sans-serif"> DE</text></g><g class="node" aria-label="graph-node2382730" transform="translate(179.12342158496344,78.34681558330509)"><circle class="b-outline" cx="0" cy="0" r="25" fill="#8DCC93" stroke="#5db665" stroke-width="2px"/><text class="caption" text-anchor="middle" pointer-events="none" x="0" y="5" font-size="10px" fill="#2A2C34" font-family="Helvetica Neue, Helvetica, Arial, sans-serif"> HKIX</text></g><g class="node" aria-label="graph-node61" transform="translate(294.1076348911601,-56.46627651939459)"><circle class="b-outline" cx="0" cy="0" r="25" fill="#57C7E3" stroke="#23b3d7" stroke-width="2px"/><text class="caption" text-anchor="middle" pointer-events="none" x="0" y="5" font-size="10px" fill="#2A2C34" font-family="Helvetica Neue, Helvetica, Arial, sans-serif"> HK</text></g><g class="node" aria-label="graph-node2382848" transform="translate(193.27360090416005,-81.90924815341899)"><circle class="b-outline" cx="0" cy="0" r="25" fill="#8DCC93" stroke="#5db665" stroke-width="2px"/><text class="caption" text-anchor="middle" pointer-events="none" x="0" y="0" font-size="10px" fill="#2A2C34" font-family="Helvetica Neue, Helvetica, Arial, sans-serif"> Equinix</text><text class="caption" text-anchor="middle" pointer-events="none" x="0" y="10" font-size="10px" fill="#2A2C34" font-family="Helvetica Neue, Helvetica, Arial, sans-serif"> Ashb…</text></g><g class="node" aria-label="graph-node10" transform="translate(99.08945191576022,-253.2698212925766)"><circle class="b-outline" cx="0" cy="0" r="25" fill="#57C7E3" stroke="#23b3d7" stroke-width="2px"/><text class="caption" text-anchor="middle" pointer-events="none" x="0" y="5" font-size="10px" fill="#2A2C34" font-family="Helvetica Neue, Helvetica, Arial, sans-serif"> US</text></g><g class="node" aria-label="graph-node2383044" transform="translate(70.65459489167993,-84.58675403077797)"><circle class="b-outline" cx="0" cy="0" r="25" fill="#8DCC93" stroke="#5db665" stroke-width="2px"/><text class="caption" text-anchor="middle" pointer-events="none" x="0" y="0" font-size="10px" fill="#2A2C34" font-family="Helvetica Neue, Helvetica, Arial, sans-serif"> Equinix</text><text class="caption" text-anchor="middle" pointer-events="none" x="0" y="10" font-size="10px" fill="#2A2C34" font-family="Helvetica Neue, Helvetica, Arial, sans-serif">Al…</text></g><g class="node" aria-label="graph-node2383268" transform="translate(134.034480437917,-159.33863849830746)"><circle class="b-outline" cx="0" cy="0" r="25" fill="#8DCC93" stroke="#5db665" stroke-width="2px"/><text class="caption" text-anchor="middle" pointer-events="none" x="0" y="-5" font-size="10px" fill="#2A2C34" font-family="Helvetica Neue, Helvetica, Arial, sans-serif"> Equinix</text><text class="caption" text-anchor="middle" pointer-events="none" x="0" y="5" font-size="10px" fill="#2A2C34" font-family="Helvetica Neue, Helvetica, Arial, sans-serif"> Hong</text><text class="caption" text-anchor="middle" pointer-events="none" x="0" y="15" font-size="10px" fill="#2A2C34" font-family="Helvetica Neue, Helvetica, Arial, sans-serif"> Kong</text></g><g class="node" aria-label="graph-node2382431" transform="translate(36.76249199149988,-175.92651871458094)"><circle class="b-outline" cx="0" cy="0" r="25" fill="#8DCC93" stroke="#5db665" stroke-width="2px"/><text class="caption" text-anchor="middle" pointer-events="none" x="0" y="0" font-size="10px" fill="#2A2C34" font-family="Helvetica Neue, Helvetica, Arial, sans-serif"> Equinix</text><text class="caption" text-anchor="middle" pointer-events="none" x="0" y="10" font-size="10px" fill="#2A2C34" font-family="Helvetica Neue, Helvetica, Arial, sans-serif"> J…</text></g><g class="node" aria-label="graph-node2383077" transform="translate(91.91277558314627,127.64416579830106)"><circle class="b-outline" cx="0" cy="0" r="25" fill="#8DCC93" stroke="#5db665" stroke-width="2px"/><text class="caption" text-anchor="middle" pointer-events="none" x="0" y="0" font-size="10px" fill="#2A2C34" font-family="Helvetica Neue, Helvetica, Arial, sans-serif"> JPNAP</text><text class="caption" text-anchor="middle" pointer-events="none" x="0" y="10" font-size="10px" fill="#2A2C34" font-family="Helvetica Neue, Helvetica, Arial, sans-serif"> Tokyo</text></g><g class="node" aria-label="graph-node2383022" transform="translate(-44.78440021774754,-231.93283978666943)"><circle class="b-outline" cx="0" cy="0" r="25" fill="#8DCC93" stroke="#5db665" stroke-width="2px"/><text class="caption" text-anchor="middle" pointer-events="none" x="0" y="-5" font-size="10px" fill="#2A2C34" font-family="Helvetica Neue, Helvetica, Arial, sans-serif"> Equinix</text><text class="caption" text-anchor="middle" pointer-events="none" x="0" y="5" font-size="10px" fill="#2A2C34" font-family="Helvetica Neue, Helvetica, Arial, sans-serif"> Los</text><text class="caption" text-anchor="middle" pointer-events="none" x="0" y="15" font-size="10px" fill="#2A2C34" font-family="Helvetica Neue, Helvetica, Arial, sans-serif"> Ang…</text></g><g class="node" aria-label="graph-node2382560" transform="translate(-159.52688273943775,-71.24483316304172)"><circle class="b-outline" cx="0" cy="0" r="25" fill="#8DCC93" stroke="#5db665" stroke-width="2px"/><text class="caption" text-anchor="middle" pointer-events="none" x="0" y="5" font-size="10px" fill="#2A2C34" font-family="Helvetica Neue, Helvetica, Arial, sans-serif"> SGIX</text></g><g class="node" aria-label="graph-node64" transform="translate(-317.30804288961343,-22.240723071742025)"><circle class="b-outline" cx="0" cy="0" r="25" fill="#57C7E3" stroke="#23b3d7" stroke-width="2px"/><text class="caption" text-anchor="middle" pointer-events="none" x="0" y="5" font-size="10px" fill="#2A2C34" font-family="Helvetica Neue, Helvetica, Arial, sans-serif"> SG</text></g><g class="node" aria-label="graph-node2383195" transform="translate(-26.330088570774365,-101.87755130152554)"><circle class="b-outline" cx="0" cy="0" r="25" fill="#8DCC93" stroke="#5db665" stroke-width="2px"/><text class="caption" text-anchor="middle" pointer-events="none" x="0" y="0" font-size="10px" fill="#2A2C34" font-family="Helvetica Neue, Helvetica, Arial, sans-serif"> NYIIX</text><text class="caption" text-anchor="middle" pointer-events="none" x="0" y="10" font-size="10px" fill="#2A2C34" font-family="Helvetica Neue, Helvetica, Arial, sans-serif">Yo…</text></g><g class="node" aria-label="graph-node2383246" transform="translate(-221.5257367027386,5.73309203760394)"><circle class="b-outline" cx="0" cy="0" r="25" fill="#8DCC93" stroke="#5db665" stroke-width="2px"/><text class="caption" text-anchor="middle" pointer-events="none" x="0" y="0" font-size="10px" fill="#2A2C34" font-family="Helvetica Neue, Helvetica, Arial, sans-serif"> LINX</text><text class="caption" text-anchor="middle" pointer-events="none" x="0" y="10" font-size="10px" fill="#2A2C34" font-family="Helvetica Neue, Helvetica, Arial, sans-serif"> LON1</text></g><g class="node" aria-label="graph-node18" transform="translate(-364.430156636837,72.28564746431623)"><circle class="b-outline" cx="0" cy="0" r="25" fill="#57C7E3" stroke="#23b3d7" stroke-width="2px"/><text class="caption" text-anchor="middle" pointer-events="none" x="0" y="5" font-size="10px" fill="#2A2C34" font-family="Helvetica Neue, Helvetica, Arial, sans-serif"> GB</text></g><g class="node" aria-label="graph-node2382673" transform="translate(-107.57471657839386,-157.09949668443076)"><circle class="b-outline" cx="0" cy="0" r="25" fill="#8DCC93" stroke="#5db665" stroke-width="2px"/><text class="caption" text-anchor="middle" pointer-events="none" x="0" y="0" font-size="10px" fill="#2A2C34" font-family="Helvetica Neue, Helvetica, Arial, sans-serif"> SIX</text><text class="caption" text-anchor="middle" pointer-events="none" x="0" y="10" font-size="10px" fill="#2A2C34" font-family="Helvetica Neue, Helvetica, Arial, sans-serif"> Seattle</text></g><g class="node" aria-label="graph-node2383047" transform="translate(-48.554136280421815,144.41627825030648)"><circle class="b-outline" cx="0" cy="0" r="25" fill="#8DCC93" stroke="#5db665" stroke-width="2px"/><text class="caption" text-anchor="middle" pointer-events="none" x="0" y="5" font-size="10px" fill="#2A2C34" font-family="Helvetica Neue, Helvetica, Arial, sans-serif"> DIX-IE</text></g><g class="node" aria-label="graph-node2382563" transform="translate(-166.77690176771893,88.15602693610444)"><circle class="b-outline" cx="0" cy="0" r="25" fill="#8DCC93" stroke="#5db665" stroke-width="2px"/><text class="caption" text-anchor="middle" pointer-events="none" x="0" y="0" font-size="10px" fill="#2A2C34" font-family="Helvetica Neue, Helvetica, Arial, sans-serif"> Equinix</text><text class="caption" text-anchor="middle" pointer-events="none" x="0" y="10" font-size="10px" fill="#2A2C34" font-family="Helvetica Neue, Helvetica, Arial, sans-serif"> Singa…</text></g><g class="node" aria-label="graph-node2382438" transform="translate(129.79803005926306,-7.431847632808923)"><circle class="b-outline" cx="0" cy="0" r="25" fill="#8DCC93" stroke="#5db665" stroke-width="2px"/><text class="caption" text-anchor="middle" pointer-events="none" x="0" y="0" font-size="10px" fill="#2A2C34" font-family="Helvetica Neue, Helvetica, Arial, sans-serif"> Equinix</text><text class="caption" text-anchor="middle" pointer-events="none" x="0" y="10" font-size="10px" fill="#2A2C34" font-family="Helvetica Neue, Helvetica, Arial, sans-serif">Yo…</text></g></g></svg>