<svg xmlns="http://www.w3.org/2000/svg" width="336.72637939453125" height="226.42388916015625" viewBox="-214.69290161132812 -72.04803466796875 336.72637939453125 226.42388916015625"><title>Neo4j Graph Visualization</title><desc>Created using Neo4j (http://www.neo4j.com/)</desc><g class="layer relationships"><g class="relationship" transform="translate(-48.96031829175196 100.93073220485043) rotate(369.7680773652009)"><path class="b-outline" fill="#A5ABB6" stroke="none" d="M 25 0.5 L 53.98466203847023 0.5 L 53.98466203847023 -0.5 L 25 -0.5 Z M 83.09794328847023 0.5 L 112.08260532694047 0.5 L 112.08260532694047 3.5 L 119.08260532694047 0 L 112.08260532694047 -3.5 L 112.08260532694047 -0.5 L 83.09794328847023 -0.5 Z"/><text text-anchor="middle" pointer-events="none" font-size="8px" fill="#000000" x="68.54130266347023" y="3" font-family="Helvetica Neue, Helvetica, Arial, sans-serif">NAME</text></g><g class="relationship" transform="translate(-48.96031829175196 100.93073220485043) rotate(308.302640806596)"><path class="b-outline" fill="#A5ABB6" stroke="none" d="M 21.40063509461097,-12.933012701892217 L 21.90063509461097,-12.06698729810778 A 123.74084487169446 123.74084487169446 0 0 1 66.86495198753644,-27.48477747520778 L 66.72832688561111,-28.47540030026478 A 124.74084487169446 124.74084487169446 0 0 0 21.40063509461097,-12.933012701892217 Z M 95.88617356508925,-29.055399183279164 L 95.7890512789039,-28.060126727352582 A 123.74084487169446 123.74084487169446 0 0 1 141.3309285802678,-14.4426578193646 L 139.93543452712407,-11.786985334354348 L 147.760080054149,-11.62911710953097 L 143.19158731779277,-17.983554466044936 L 141.79609326464904,-15.327881981034684 A 124.74084487169446 124.74084487169446 0 0 0 95.88617356508925,-29.055399183279164"/><text text-anchor="middle" pointer-events="none" font-size="8px" fill="#000000" x="81.30018579454715" y="-26.120544546813733" font-family="Helvetica Neue, Helvetica, Arial, sans-serif">NAME</text></g><g class="relationship" transform="translate(-48.96031829175196 100.93073220485043) rotate(261.18104079994527)"><path class="b-outline" fill="#A5ABB6" stroke="none" d="M 25 0.5 L 54.79400374083551 0.5 L 54.79400374083551 -0.5 L 25 -0.5 Z M 83.9072849908355 0.5 L 113.70128873167101 0.5 L 113.70128873167101 3.5 L 120.70128873167101 0 L 113.70128873167101 -3.5 L 113.70128873167101 -0.5 L 83.9072849908355 -0.5 Z"/><text text-anchor="middle" pointer-events="none" font-size="8px" fill="#000000" x="69.3506443658355" y="3" transform="rotate(180 69.3506443658355 0)" font-family="Helvetica Neue, Helvetica, Arial, sans-serif">NAME</text></g><g class="relationship" transform="translate(-48.96031829175196 100.93073220485043) rotate(195.77361315256553)"><path class="b-outline" fill="#A5ABB6" stroke="none" d="M 25 0.5 L 52.98483579483542 0.5 L 52.98483579483542 -0.5 L 25 -0.5 Z M 82.09811704483542 0.5 L 110.08295283967084 0.5 L 110.08295283967084 3.5 L 117.08295283967084 0 L 110.08295283967084 -3.5 L 110.08295283967084 -0.5 L 82.09811704483542 -0.5 Z"/><text text-anchor="middle" pointer-events="none" font-size="8px" fill="#000000" x="67.54147641983542" y="3" transform="rotate(180 67.54147641983542 0)" font-family="Helvetica Neue, Helvetica, Arial, sans-serif">NAME</text></g><g class="relationship" transform="translate(-48.96031829175196 100.93073220485043) rotate(308.302640806596)"><path class="b-outline" fill="#A5ABB6" stroke="none" d="M 25 0.5 L 66.88870142295055 0.5 L 66.88870142295055 -0.5 L 25 -0.5 Z M 96.00198267295055 0.5 L 137.8906840959011 0.5 L 137.8906840959011 3.5 L 144.8906840959011 0 L 137.8906840959011 -3.5 L 137.8906840959011 -0.5 L 96.00198267295055 -0.5 Z"/><text text-anchor="middle" pointer-events="none" font-size="8px" fill="#000000" x="81.44534204795055" y="3" font-family="Helvetica Neue, Helvetica, Arial, sans-serif">NAME</text></g><g class="relationship" transform="translate(-48.96031829175196 100.93073220485043) rotate(308.302640806596)"><path class="b-outline" fill="#A5ABB6" stroke="none" d="M 21.40063509461097,12.933012701892217 L 21.90063509461097,12.06698729810778 A 123.74084487169446 123.74084487169446 0 0 0 66.86495198753649,27.484777475207792 L 66.72832688561115,28.47540030026478 A 124.74084487169446 124.74084487169446 0 0 1 21.40063509461097,12.933012701892217 Z M 95.88617356508925,29.055399183279164 L 95.7890512789039,28.060126727352582 A 123.74084487169446 123.74084487169446 0 0 0 141.3309285802678,14.4426578193646 L 139.93543452712407,11.786985334354348 L 147.760080054149,11.62911710953097 L 143.19158731779277,17.983554466044936 L 141.79609326464904,15.327881981034684 A 124.74084487169446 124.74084487169446 0 0 1 95.88617356508925,29.055399183279164"/><text text-anchor="middle" pointer-events="none" font-size="8px" fill="#000000" x="81.30018579454718" y="32.12054454681373" font-family="Helvetica Neue, Helvetica, Arial, sans-serif">NAME</text></g></g><g class="layer nodes"><g class="node" aria-label="graph-node2497" transform="translate(-48.96031829175196,100.93073220485043)"><circle class="b-outline" cx="0" cy="0" r="25" fill="#F79767" stroke="#f36924" stroke-width="2px"/><text class="caption" text-anchor="middle" pointer-events="none" x="0" y="5" font-size="10px" fill="#FFFFFF" font-family="Helvetica Neue, Helvetica, Arial, sans-serif"> 2497</text></g><g class="node" aria-label="graph-node214823" transform="translate(93.03346079226577,125.37585153853469)"><circle class="b-outline" cx="0" cy="0" r="25" fill="#DA7194" stroke="#cc3c6c" stroke-width="2px"/><text class="caption" text-anchor="middle" pointer-events="none" x="0" y="-5" font-size="10px" fill="#FFFFFF" font-family="Helvetica Neue, Helvetica, Arial, sans-serif"> IIJ</text><text class="caption" text-anchor="middle" pointer-events="none" x="0" y="5" font-size="10px" fill="#FFFFFF" font-family="Helvetica Neue, Helvetica, Arial, sans-serif"> Internet</text><text class="caption" text-anchor="middle" pointer-events="none" x="0" y="15" font-size="10px" fill="#FFFFFF" font-family="Helvetica Neue, Helvetica, Arial, sans-serif"> Initia</text></g><g class="node" aria-label="graph-node311623" transform="translate(56.34051040334026,-32.39060899264917)"><circle class="b-outline" cx="0" cy="0" r="25" fill="#DA7194" stroke="#cc3c6c" stroke-width="2px"/><text class="caption" text-anchor="middle" pointer-events="none" x="0" y="5" font-size="10px" fill="#FFFFFF" font-family="Helvetica Neue, Helvetica, Arial, sans-serif"> IIJ</text></g><g class="node" aria-label="graph-node2852935" transform="translate(-71.29819565832231,-43.04803280174985)"><circle class="b-outline" cx="0" cy="0" r="25" fill="#DA7194" stroke="#cc3c6c" stroke-width="2px"/><text class="caption" text-anchor="middle" pointer-events="none" x="0" y="0" font-size="10px" fill="#FFFFFF" font-family="Helvetica Neue, Helvetica, Arial, sans-serif"> Internet</text><text class="caption" text-anchor="middle" pointer-events="none" x="0" y="10" font-size="10px" fill="#FFFFFF" font-family="Helvetica Neue, Helvetica, Arial, sans-serif"> Initiative</text></g><g class="node" aria-label="graph-node265329" transform="translate(-185.6928941132621,62.307317067720035)"><circle class="b-outline" cx="0" cy="0" r="25" fill="#DA7194" stroke="#cc3c6c" stroke-width="2px"/><text class="caption" text-anchor="middle" pointer-events="none" x="0" y="0" font-size="10px" fill="#FFFFFF" font-family="Helvetica Neue, Helvetica, Arial, sans-serif"> Internet</text><text class="caption" text-anchor="middle" pointer-events="none" x="0" y="10" font-size="10px" fill="#FFFFFF" font-family="Helvetica Neue, Helvetica, Arial, sans-serif"> Initiative</text></g></g></svg>