<svg xmlns="http://www.w3.org/2000/svg" width="913.98388671875" height="888.7772216796875" viewBox="-473.9237365722656 -166.6145477294922 913.98388671875 888.7772216796875"><title>Neo4j Graph Visualization</title><desc>Created using Neo4j (http://www.neo4j.com/)</desc><g class="layer relationships"><g class="relationship" transform="translate(167.04032757905054 517.9413686684086) rotate(498.24520558458823)"><path class="b-outline" fill="#A5ABB6" stroke="none" d="M 25 0.5 L 113.94527152870646 0.5 L 113.94527152870646 -0.5 L 25 -0.5 Z M 142.17183402870646 0.5 L 231.1171055574129 0.5 L 231.1171055574129 3.5 L 238.1171055574129 0 L 231.1171055574129 -3.5 L 231.1171055574129 -0.5 L 142.17183402870646 -0.5 Z"/><text text-anchor="middle" pointer-events="none" font-size="8px" fill="#000000" x="128.05855277870646" y="3" transform="rotate(180 128.05855277870646 0)" font-family="Helvetica Neue, Helvetica, Arial, sans-serif">RANK</text></g><g class="relationship" transform="translate(248.1807445074092 411.7722326989369) rotate(487.389094151108)"><path class="b-outline" fill="#A5ABB6" stroke="none" d="M 25 0.5 L 42.23439757588402 0.5 L 42.23439757588402 -0.5 L 25 -0.5 Z M 84.39064757588402 0.5 L 101.62504515176803 0.5 L 101.62504515176803 3.5 L 108.62504515176803 0 L 101.62504515176803 -3.5 L 101.62504515176803 -0.5 L 84.39064757588402 -0.5 Z"/><text text-anchor="middle" pointer-events="none" font-size="8px" fill="#000000" x="63.31252257588402" y="3" transform="rotate(180 63.31252257588402 0)" font-family="Helvetica Neue, Helvetica, Arial, sans-serif">PART_OF</text></g><g class="relationship" transform="translate(248.1807445074092 411.7722326989369) rotate(279.1737679300503)"><path class="b-outline" fill="#A5ABB6" stroke="none" d="M 25 0.5 L 73.41634627045572 0.5 L 73.41634627045572 -0.5 L 25 -0.5 Z M 137.36556502045573 0.5 L 185.78191129091144 0.5 L 185.78191129091144 3.5 L 192.78191129091144 0 L 185.78191129091144 -3.5 L 185.78191129091144 -0.5 L 137.36556502045573 -0.5 Z"/><text text-anchor="middle" pointer-events="none" font-size="8px" fill="#000000" x="105.39095564545572" y="3" font-family="Helvetica Neue, Helvetica, Arial, sans-serif">RESOLVES_TO</text></g><g class="relationship" transform="translate(282.90154572191875 196.77589122182027) rotate(290.21695931795045)"><path class="b-outline" fill="#A5ABB6" stroke="none" d="M 25 0.5 L 52.52136988152117 0.5 L 52.52136988152117 -0.5 L 25 -0.5 Z M 94.67761988152117 0.5 L 122.19898976304233 0.5 L 122.19898976304233 3.5 L 129.19898976304233 0 L 122.19898976304233 -3.5 L 122.19898976304233 -0.5 L 94.67761988152117 -0.5 Z"/><text text-anchor="middle" pointer-events="none" font-size="8px" fill="#000000" x="73.59949488152117" y="3" font-family="Helvetica Neue, Helvetica, Arial, sans-serif">PART_OF</text></g><g class="relationship" transform="translate(-17.549117673454276 -137.61454190725976) rotate(388.2023654010532)"><path class="b-outline" fill="#A5ABB6" stroke="none" d="M 25 0.5 L 172.48967665693874 0.5 L 172.48967665693874 -0.5 L 25 -0.5 Z M 221.89983290693874 0.5 L 369.3895095638775 0.5 L 369.3895095638775 3.5 L 376.3895095638775 0 L 369.3895095638775 -3.5 L 369.3895095638775 -0.5 L 221.89983290693874 -0.5 Z"/><text text-anchor="middle" pointer-events="none" font-size="8px" fill="#000000" x="197.19475478193874" y="3" font-family="Helvetica Neue, Helvetica, Arial, sans-serif">ORIGINATE</text></g><g class="relationship" transform="translate(250.70859590021018 600.704018970544) rotate(521.7234921302479)"><path class="b-outline" fill="#A5ABB6" stroke="none" d="M 25 0.5 L 129.80014798820716 0.5 L 129.80014798820716 -0.5 L 25 -0.5 Z M 158.02671048820716 0.5 L 262.8268584764143 0.5 L 262.8268584764143 3.5 L 269.8268584764143 0 L 262.8268584764143 -3.5 L 262.8268584764143 -0.5 L 158.02671048820716 -0.5 Z"/><text text-anchor="middle" pointer-events="none" font-size="8px" fill="#000000" x="143.91342923820716" y="3" transform="rotate(180 143.91342923820716 0)" font-family="Helvetica Neue, Helvetica, Arial, sans-serif">RANK</text></g><g class="relationship" transform="translate(349.6194832315235 499.2257084160674) rotate(494.2659561084339)"><path class="b-outline" fill="#A5ABB6" stroke="none" d="M 25 0.5 L 46.27597005748159 0.5 L 46.27597005748159 -0.5 L 25 -0.5 Z M 88.43222005748159 0.5 L 109.70819011496317 0.5 L 109.70819011496317 3.5 L 116.70819011496317 0 L 109.70819011496317 -3.5 L 109.70819011496317 -0.5 L 88.43222005748159 -0.5 Z"/><text text-anchor="middle" pointer-events="none" font-size="8px" fill="#000000" x="67.35409505748159" y="3" transform="rotate(180 67.35409505748159 0)" font-family="Helvetica Neue, Helvetica, Arial, sans-serif">PART_OF</text></g><g class="relationship" transform="translate(349.6194832315235 499.2257084160674) rotate(284.4852519259107)"><path class="b-outline" fill="#A5ABB6" stroke="none" d="M 25 0.5 L 87.34229215828847 0.5 L 87.34229215828847 -0.5 L 25 -0.5 Z M 151.29151090828847 0.5 L 213.63380306657695 0.5 L 213.63380306657695 3.5 L 220.63380306657695 0 L 213.63380306657695 -3.5 L 213.63380306657695 -0.5 L 151.29151090828847 -0.5 Z"/><text text-anchor="middle" pointer-events="none" font-size="8px" fill="#000000" x="119.31690153328847" y="3" font-family="Helvetica Neue, Helvetica, Arial, sans-serif">RESOLVES_TO</text></g><g class="relationship" transform="translate(411.0600609804371 261.4000987462305) rotate(250.31879945827689)"><path class="b-outline" fill="#A5ABB6" stroke="none" d="M 25 0.5 L 86.5769933211952 0.5 L 86.5769933211952 -0.5 L 25 -0.5 Z M 128.7332433211952 0.5 L 190.3102366423904 0.5 L 190.3102366423904 3.5 L 197.3102366423904 0 L 190.3102366423904 -3.5 L 190.3102366423904 -0.5 L 128.7332433211952 -0.5 Z"/><text text-anchor="middle" pointer-events="none" font-size="8px" fill="#000000" x="107.6551183211952" y="3" transform="rotate(180 107.6551183211952 0)" font-family="Helvetica Neue, Helvetica, Arial, sans-serif">PART_OF</text></g><g class="relationship" transform="translate(117.02448947834517 485.7918856194859) rotate(485.19741233671476)"><path class="b-outline" fill="#A5ABB6" stroke="none" d="M 25 0.5 L 109.27006545994014 0.5 L 109.27006545994014 -0.5 L 25 -0.5 Z M 137.49662795994016 0.5 L 221.76669341988028 0.5 L 221.76669341988028 3.5 L 228.76669341988028 0 L 221.76669341988028 -3.5 L 221.76669341988028 -0.5 L 137.49662795994016 -0.5 Z"/><text text-anchor="middle" pointer-events="none" font-size="8px" fill="#000000" x="123.38334670994014" y="3" transform="rotate(180 123.38334670994014 0)" font-family="Helvetica Neue, Helvetica, Arial, sans-serif">RANK</text></g><g class="relationship" transform="translate(185.2984426300615 370.2592798440658) rotate(480.5809493530219)"><path class="b-outline" fill="#A5ABB6" stroke="none" d="M 25 0.5 L 42.52089823473381 0.5 L 42.52089823473381 -0.5 L 25 -0.5 Z M 84.6771482347338 0.5 L 102.19804646946761 0.5 L 102.19804646946761 3.5 L 109.19804646946761 0 L 102.19804646946761 -3.5 L 102.19804646946761 -0.5 L 84.6771482347338 -0.5 Z"/><text text-anchor="middle" pointer-events="none" font-size="8px" fill="#000000" x="63.59902323473381" y="3" transform="rotate(180 63.59902323473381 0)" font-family="Helvetica Neue, Helvetica, Arial, sans-serif">PART_OF</text></g><g class="relationship" transform="translate(185.2984426300615 370.2592798440658) rotate(280.4352308770596)"><path class="b-outline" fill="#A5ABB6" stroke="none" d="M 25 0.5 L 63.25034041769034 0.5 L 63.25034041769034 -0.5 L 25 -0.5 Z M 127.19955916769034 0.5 L 165.44989958538068 0.5 L 165.44989958538068 3.5 L 172.44989958538068 0 L 165.44989958538068 -3.5 L 165.44989958538068 -0.5 L 127.19955916769034 -0.5 Z"/><text text-anchor="middle" pointer-events="none" font-size="8px" fill="#000000" x="95.22494979269034" y="3" font-family="Helvetica Neue, Helvetica, Arial, sans-serif">RESOLVES_TO</text></g><g class="relationship" transform="translate(221.0613393014987 176.07514540475321) rotate(312.87555882761956)"><path class="b-outline" fill="#A5ABB6" stroke="none" d="M 25 0.5 L 60.02377445390154 0.5 L 60.02377445390154 -0.5 L 25 -0.5 Z M 102.18002445390154 0.5 L 137.20379890780308 0.5 L 137.20379890780308 3.5 L 144.20379890780308 0 L 137.20379890780308 -3.5 L 137.20379890780308 -0.5 L 102.18002445390154 -0.5 Z"/><text text-anchor="middle" pointer-events="none" font-size="8px" fill="#000000" x="81.10189945390154" y="3" font-family="Helvetica Neue, Helvetica, Arial, sans-serif">PART_OF</text></g><g class="relationship" transform="translate(213.33237023518188 554.9846327142828) rotate(510.3331477596663)"><path class="b-outline" fill="#A5ABB6" stroke="none" d="M 25 0.5 L 121.97286801493553 0.5 L 121.97286801493553 -0.5 L 25 -0.5 Z M 150.19943051493553 0.5 L 247.17229852987106 0.5 L 247.17229852987106 3.5 L 254.17229852987106 0 L 247.17229852987106 -3.5 L 247.17229852987106 -0.5 L 150.19943051493553 -0.5 Z"/><text text-anchor="middle" pointer-events="none" font-size="8px" fill="#000000" x="136.08614926493553" y="3" transform="rotate(180 136.08614926493553 0)" font-family="Helvetica Neue, Helvetica, Arial, sans-serif">RANK</text></g><g class="relationship" transform="translate(301.05094606052825 447.87201645406276) rotate(489.3153448711662)"><path class="b-outline" fill="#A5ABB6" stroke="none" d="M 25 0.5 L 44.645536249128185 0.5 L 44.645536249128185 -0.5 L 25 -0.5 Z M 86.80178624912818 0.5 L 106.44732249825637 0.5 L 106.44732249825637 3.5 L 113.44732249825637 0 L 106.44732249825637 -3.5 L 106.44732249825637 -0.5 L 86.80178624912818 -0.5 Z"/><text text-anchor="middle" pointer-events="none" font-size="8px" fill="#000000" x="65.72366124912818" y="3" transform="rotate(180 65.72366124912818 0)" font-family="Helvetica Neue, Helvetica, Arial, sans-serif">PART_OF</text></g><g class="relationship" transform="translate(301.05094606052825 447.87201645406276) rotate(280.69341548229943)"><path class="b-outline" fill="#A5ABB6" stroke="none" d="M 25 0.5 L 78.55718951887721 0.5 L 78.55718951887721 -0.5 L 25 -0.5 Z M 142.5064082688772 0.5 L 196.06359778775442 0.5 L 196.06359778775442 3.5 L 203.06359778775442 0 L 196.06359778775442 -3.5 L 196.06359778775442 -0.5 L 142.5064082688772 -0.5 Z"/><text text-anchor="middle" pointer-events="none" font-size="8px" fill="#000000" x="110.53179889387721" y="3" font-family="Helvetica Neue, Helvetica, Arial, sans-serif">RESOLVES_TO</text></g><g class="relationship" transform="translate(343.3689883694504 223.76894210871848) rotate(267.605346265301)"><path class="b-outline" fill="#A5ABB6" stroke="none" d="M 25 0.5 L 61.34288715127896 0.5 L 61.34288715127896 -0.5 L 25 -0.5 Z M 103.49913715127896 0.5 L 139.84202430255792 0.5 L 139.84202430255792 3.5 L 146.84202430255792 0 L 139.84202430255792 -3.5 L 139.84202430255792 -0.5 L 103.49913715127896 -0.5 Z"/><text text-anchor="middle" pointer-events="none" font-size="8px" fill="#000000" x="82.42101215127896" y="3" transform="rotate(180 82.42101215127896 0)" font-family="Helvetica Neue, Helvetica, Arial, sans-serif">PART_OF</text></g><g class="relationship" transform="translate(59.21193663569265 462.59643857832543) rotate(470.98945759689946)"><path class="b-outline" fill="#A5ABB6" stroke="none" d="M 25 0.5 L 105.86292154751173 0.5 L 105.86292154751173 -0.5 L 25 -0.5 Z M 134.08948404751175 0.5 L 214.95240559502346 0.5 L 214.95240559502346 3.5 L 221.95240559502346 0 L 214.95240559502346 -3.5 L 214.95240559502346 -0.5 L 134.08948404751175 -0.5 Z"/><text text-anchor="middle" pointer-events="none" font-size="8px" fill="#000000" x="119.97620279751173" y="3" transform="rotate(180 119.97620279751173 0)" font-family="Helvetica Neue, Helvetica, Arial, sans-serif">RANK</text></g><g class="relationship" transform="translate(93.27533905078482 307.61464162362915) rotate(462.39592489530503)"><path class="b-outline" fill="#A5ABB6" stroke="none" d="M 25 0.5 L 54.762395497724256 0.5 L 54.762395497724256 -0.5 L 25 -0.5 Z M 96.91864549772426 0.5 L 126.68104099544851 0.5 L 126.68104099544851 3.5 L 133.6810409954485 0 L 126.68104099544851 -3.5 L 126.68104099544851 -0.5 L 96.91864549772426 -0.5 Z"/><text text-anchor="middle" pointer-events="none" font-size="8px" fill="#000000" x="75.84052049772426" y="3" transform="rotate(180 75.84052049772426 0)" font-family="Helvetica Neue, Helvetica, Arial, sans-serif">PART_OF</text></g><g class="relationship" transform="translate(93.27533905078482 307.61464162362915) rotate(276.3045009146773)"><path class="b-outline" fill="#A5ABB6" stroke="none" d="M 25 0.5 L 41.844861290261846 0.5 L 41.844861290261846 -0.5 L 25 -0.5 Z M 105.79408004026185 0.5 L 122.63894133052369 0.5 L 122.63894133052369 3.5 L 129.6389413305237 0 L 122.63894133052369 -3.5 L 122.63894133052369 -0.5 L 105.79408004026185 -0.5 Z"/><text text-anchor="middle" pointer-events="none" font-size="8px" fill="#000000" x="73.81947066526185" y="3" font-family="Helvetica Neue, Helvetica, Arial, sans-serif">RESOLVES_TO</text></g><g class="relationship" transform="translate(110.2566111148937 153.91090525098966) rotate(260.08112562228126)"><path class="b-outline" fill="#A5ABB6" stroke="none" d="M 25 0.5 L 47.23397886326042 0.5 L 47.23397886326042 -0.5 L 25 -0.5 Z M 89.39022886326042 0.5 L 111.62420772652084 0.5 L 111.62420772652084 3.5 L 118.62420772652084 0 L 111.62420772652084 -3.5 L 111.62420772652084 -0.5 L 89.39022886326042 -0.5 Z"/><text text-anchor="middle" pointer-events="none" font-size="8px" fill="#000000" x="68.31210386326042" y="3" transform="rotate(180 68.31210386326042 0)" font-family="Helvetica Neue, Helvetica, Arial, sans-serif">PART_OF</text></g><g class="relationship" transform="translate(-17.549117673454276 -137.61454190725976) rotate(415.51536170260835)"><path class="b-outline" fill="#A5ABB6" stroke="none" d="M 25 0.5 L 62.81278188449602 0.5 L 62.81278188449602 -0.5 L 25 -0.5 Z M 112.22293813449602 0.5 L 150.03572001899204 0.5 L 150.03572001899204 3.5 L 157.03572001899204 0 L 150.03572001899204 -3.5 L 150.03572001899204 -0.5 L 112.22293813449602 -0.5 Z"/><text text-anchor="middle" pointer-events="none" font-size="8px" fill="#000000" x="87.51786000949602" y="3" font-family="Helvetica Neue, Helvetica, Arial, sans-serif">ORIGINATE</text></g><g class="relationship" transform="translate(4.007098738100964 445.7773379098355) rotate(457.6555885227609)"><path class="b-outline" fill="#A5ABB6" stroke="none" d="M 25 0.5 L 107.19179296983113 0.5 L 107.19179296983113 -0.5 L 25 -0.5 Z M 135.4183554698311 0.5 L 217.61014843966225 0.5 L 217.61014843966225 3.5 L 224.61014843966225 0 L 217.61014843966225 -3.5 L 217.61014843966225 -0.5 L 135.4183554698311 -0.5 Z"/><text text-anchor="middle" pointer-events="none" font-size="8px" fill="#000000" x="121.30507421983113" y="3" transform="rotate(180 121.30507421983113 0)" font-family="Helvetica Neue, Helvetica, Arial, sans-serif">RANK</text></g><g class="relationship" transform="translate(17.851812760510157 296.9078945415143) rotate(455.3131696115255)"><path class="b-outline" fill="#A5ABB6" stroke="none" d="M 25 0.5 L 50.17778994182267 0.5 L 50.17778994182267 -0.5 L 25 -0.5 Z M 92.33403994182267 0.5 L 117.51182988364533 0.5 L 117.51182988364533 3.5 L 124.51182988364533 0 L 117.51182988364533 -3.5 L 117.51182988364533 -0.5 L 92.33403994182267 -0.5 Z"/><text text-anchor="middle" pointer-events="none" font-size="8px" fill="#000000" x="71.25591494182267" y="3" transform="rotate(180 71.25591494182267 0)" font-family="Helvetica Neue, Helvetica, Arial, sans-serif">PART_OF</text></g><g class="relationship" transform="translate(17.851812760510157 296.9078945415143) rotate(273.4809189034151)"><path class="b-outline" fill="#A5ABB6" stroke="none" d="M 25 0.5 L 41.64975161376327 0.5 L 41.64975161376327 -0.5 L 25 -0.5 Z M 105.59897036376327 0.5 L 122.24872197752654 0.5 L 122.24872197752654 3.5 L 129.24872197752654 0 L 122.24872197752654 -3.5 L 122.24872197752654 -0.5 L 105.59897036376327 -0.5 Z"/><text text-anchor="middle" pointer-events="none" font-size="8px" fill="#000000" x="73.62436098876327" y="3" font-family="Helvetica Neue, Helvetica, Arial, sans-serif">RESOLVES_TO</text></g><g class="relationship" transform="translate(27.217198117651648 142.94375005062147) rotate(294.0705705854704)"><path class="b-outline" fill="#A5ABB6" stroke="none" d="M 25 0.5 L 46.891748826458524 0.5 L 46.891748826458524 -0.5 L 25 -0.5 Z M 89.04799882645852 0.5 L 110.93974765291705 0.5 L 110.93974765291705 3.5 L 117.93974765291705 0 L 110.93974765291705 -3.5 L 110.93974765291705 -0.5 L 89.04799882645852 -0.5 Z"/><text text-anchor="middle" pointer-events="none" font-size="8px" fill="#000000" x="67.96987382645852" y="3" font-family="Helvetica Neue, Helvetica, Arial, sans-serif">PART_OF</text></g><g class="relationship" transform="translate(-56.30085028667696 442.5814676726176) rotate(443.83761679293195)"><path class="b-outline" fill="#A5ABB6" stroke="none" d="M 25 0.5 L 108.4054901938228 0.5 L 108.4054901938228 -0.5 L 25 -0.5 Z M 136.6320526938228 0.5 L 220.0375428876456 0.5 L 220.0375428876456 3.5 L 227.0375428876456 0 L 220.0375428876456 -3.5 L 220.0375428876456 -0.5 L 136.6320526938228 -0.5 Z"/><text text-anchor="middle" pointer-events="none" font-size="8px" fill="#000000" x="122.5187714438228" y="3" font-family="Helvetica Neue, Helvetica, Arial, sans-serif">RANK</text></g><g class="relationship" transform="translate(-61.912176135545934 296.4167668926402) rotate(447.8014699931464)"><path class="b-outline" fill="#A5ABB6" stroke="none" d="M 25 0.5 L 48.558060865620746 0.5 L 48.558060865620746 -0.5 L 25 -0.5 Z M 90.71431086562075 0.5 L 114.27237173124149 0.5 L 114.27237173124149 3.5 L 121.27237173124149 0 L 114.27237173124149 -3.5 L 114.27237173124149 -0.5 L 90.71431086562075 -0.5 Z"/><text text-anchor="middle" pointer-events="none" font-size="8px" fill="#000000" x="69.63618586562075" y="3" font-family="Helvetica Neue, Helvetica, Arial, sans-serif">PART_OF</text></g><g class="relationship" transform="translate(-61.912176135545934 296.4167668926402) rotate(264.7487794400033)"><path class="b-outline" fill="#A5ABB6" stroke="none" d="M 25 0.5 L 39.48270517929838 0.5 L 39.48270517929838 -0.5 L 25 -0.5 Z M 103.43192392929838 0.5 L 117.91462910859676 0.5 L 117.91462910859676 3.5 L 124.91462910859676 0 L 117.91462910859676 -3.5 L 117.91462910859676 -0.5 L 103.43192392929838 -0.5 Z"/><text text-anchor="middle" pointer-events="none" font-size="8px" fill="#000000" x="71.45731455429838" y="3" transform="rotate(180 71.45731455429838 0)" font-family="Helvetica Neue, Helvetica, Arial, sans-serif">RESOLVES_TO</text></g><g class="relationship" transform="translate(-75.63278755977106 147.13133276421112) rotate(261.14082175754066)"><path class="b-outline" fill="#A5ABB6" stroke="none" d="M 25 0.5 L 47.71846418756259 0.5 L 47.71846418756259 -0.5 L 25 -0.5 Z M 89.87471418756259 0.5 L 112.59317837512518 0.5 L 112.59317837512518 3.5 L 119.59317837512518 0 L 112.59317837512518 -3.5 L 112.59317837512518 -0.5 L 89.87471418756259 -0.5 Z"/><text text-anchor="middle" pointer-events="none" font-size="8px" fill="#000000" x="68.79658918756259" y="3" transform="rotate(180 68.79658918756259 0)" font-family="Helvetica Neue, Helvetica, Arial, sans-serif">PART_OF</text></g><g class="relationship" transform="translate(-17.549117673454276 -137.61454190725976) rotate(479.5248962760451)"><path class="b-outline" fill="#A5ABB6" stroke="none" d="M 25 0.5 L 53.32056575601628 0.5 L 53.32056575601628 -0.5 L 25 -0.5 Z M 102.73072200601628 0.5 L 131.05128776203256 0.5 L 131.05128776203256 3.5 L 138.05128776203256 0 L 131.05128776203256 -3.5 L 131.05128776203256 -0.5 L 102.73072200601628 -0.5 Z"/><text text-anchor="middle" pointer-events="none" font-size="8px" fill="#000000" x="78.02564388101628" y="3" transform="rotate(180 78.02564388101628 0)" font-family="Helvetica Neue, Helvetica, Arial, sans-serif">ORIGINATE</text></g><g class="relationship" transform="translate(-170.59222436046332 477.8290780359781) rotate(416.7187705905543)"><path class="b-outline" fill="#A5ABB6" stroke="none" d="M 25 0.5 L 111.17671552328429 0.5 L 111.17671552328429 -0.5 L 25 -0.5 Z M 139.4032780232843 0.5 L 225.57999354656857 0.5 L 225.57999354656857 3.5 L 232.57999354656857 0 L 225.57999354656857 -3.5 L 225.57999354656857 -0.5 L 139.4032780232843 -0.5 Z"/><text text-anchor="middle" pointer-events="none" font-size="8px" fill="#000000" x="125.28999677328429" y="3" font-family="Helvetica Neue, Helvetica, Arial, sans-serif">RANK</text></g><g class="relationship" transform="translate(-209.6355608233663 322.76769968284873) rotate(435.8671206125998)"><path class="b-outline" fill="#A5ABB6" stroke="none" d="M 25 0.5 L 55.372505358565334 0.5 L 55.372505358565334 -0.5 L 25 -0.5 Z M 97.52875535856533 0.5 L 127.90126071713067 0.5 L 127.90126071713067 3.5 L 134.90126071713067 0 L 127.90126071713067 -3.5 L 127.90126071713067 -0.5 L 97.52875535856533 -0.5 Z"/><text text-anchor="middle" pointer-events="none" font-size="8px" fill="#000000" x="76.45063035856533" y="3" font-family="Helvetica Neue, Helvetica, Arial, sans-serif">PART_OF</text></g><g class="relationship" transform="translate(-209.6355608233663 322.76769968284873) rotate(255.1641977434569)"><path class="b-outline" fill="#A5ABB6" stroke="none" d="M 25 0.5 L 34.142534705007506 0.5 L 34.142534705007506 -0.5 L 25 -0.5 Z M 98.0917534550075 0.5 L 107.23428816001501 0.5 L 107.23428816001501 3.5 L 114.23428816001501 0 L 107.23428816001501 -3.5 L 107.23428816001501 -0.5 L 98.0917534550075 -0.5 Z"/><text text-anchor="middle" pointer-events="none" font-size="8px" fill="#000000" x="66.1171440800075" y="3" transform="rotate(180 66.1171440800075 0)" font-family="Helvetica Neue, Helvetica, Arial, sans-serif">RESOLVES_TO</text></g><g class="relationship" transform="translate(-245.28647862853063 188.17498420732414) rotate(232.64727533548734)"><path class="b-outline" fill="#A5ABB6" stroke="none" d="M 25 0.5 L 61.7413371020053 0.5 L 61.7413371020053 -0.5 L 25 -0.5 Z M 103.8975871020053 0.5 L 140.6389242040106 0.5 L 140.6389242040106 3.5 L 147.6389242040106 0 L 140.6389242040106 -3.5 L 140.6389242040106 -0.5 L 103.8975871020053 -0.5 Z"/><text text-anchor="middle" pointer-events="none" font-size="8px" fill="#000000" x="82.8194621020053" y="3" transform="rotate(180 82.8194621020053 0)" font-family="Helvetica Neue, Helvetica, Arial, sans-serif">PART_OF</text></g><g class="relationship" transform="translate(-17.549117673454276 -137.61454190725976) rotate(510.4416109921069)"><path class="b-outline" fill="#A5ABB6" stroke="none" d="M 25 0.5 L 162.90808302619007 0.5 L 162.90808302619007 -0.5 L 25 -0.5 Z M 212.31823927619007 0.5 L 350.22632230238014 0.5 L 350.22632230238014 3.5 L 357.22632230238014 0 L 350.22632230238014 -3.5 L 350.22632230238014 -0.5 L 212.31823927619007 -0.5 Z"/><text text-anchor="middle" pointer-events="none" font-size="8px" fill="#000000" x="187.61316115119007" y="3" transform="rotate(180 187.61316115119007 0)" font-family="Helvetica Neue, Helvetica, Arial, sans-serif">ORIGINATE</text></g><g class="relationship" transform="translate(-114.91101644730423 456.83377579034124) rotate(430.0752054882729)"><path class="b-outline" fill="#A5ABB6" stroke="none" d="M 25 0.5 L 108.07474854340796 0.5 L 108.07474854340796 -0.5 L 25 -0.5 Z M 136.30131104340796 0.5 L 219.37605958681593 0.5 L 219.37605958681593 3.5 L 226.37605958681593 0 L 219.37605958681593 -3.5 L 219.37605958681593 -0.5 L 136.30131104340796 -0.5 Z"/><text text-anchor="middle" pointer-events="none" font-size="8px" fill="#000000" x="122.18802979340796" y="3" font-family="Helvetica Neue, Helvetica, Arial, sans-serif">RANK</text></g><g class="relationship" transform="translate(-139.64254693805208 308.7072513122295) rotate(440.52120338064765)"><path class="b-outline" fill="#A5ABB6" stroke="none" d="M 25 0.5 L 50.51034923935883 0.5 L 50.51034923935883 -0.5 L 25 -0.5 Z M 92.66659923935883 0.5 L 118.17694847871766 0.5 L 118.17694847871766 3.5 L 125.17694847871766 0 L 118.17694847871766 -3.5 L 118.17694847871766 -0.5 L 92.66659923935883 -0.5 Z"/><text text-anchor="middle" pointer-events="none" font-size="8px" fill="#000000" x="71.58847423935883" y="3" font-family="Helvetica Neue, Helvetica, Arial, sans-serif">PART_OF</text></g><g class="relationship" transform="translate(-139.64254693805208 308.7072513122295) rotate(254.42419788018748)"><path class="b-outline" fill="#A5ABB6" stroke="none" d="M 25 0.5 L 38.810485238075756 0.5 L 38.810485238075756 -0.5 L 25 -0.5 Z M 102.75970398807576 0.5 L 116.57018922615151 0.5 L 116.57018922615151 3.5 L 123.57018922615151 0 L 116.57018922615151 -3.5 L 116.57018922615151 -0.5 L 102.75970398807576 -0.5 Z"/><text text-anchor="middle" pointer-events="none" font-size="8px" fill="#000000" x="70.78509461307576" y="3" transform="rotate(180 70.78509461307576 0)" font-family="Helvetica Neue, Helvetica, Arial, sans-serif">RESOLVES_TO</text></g><g class="relationship" transform="translate(-179.53557736909204 165.59314561428448) rotate(213.91944887146258)"><path class="b-outline" fill="#A5ABB6" stroke="none" d="M 25 0.5 L 78.15127260579496 0.5 L 78.15127260579496 -0.5 L 25 -0.5 Z M 120.30752260579496 0.5 L 173.45879521158992 0.5 L 173.45879521158992 3.5 L 180.45879521158992 0 L 173.45879521158992 -3.5 L 173.45879521158992 -0.5 L 120.30752260579496 -0.5 Z"/><text text-anchor="middle" pointer-events="none" font-size="8px" fill="#000000" x="99.22939760579496" y="3" transform="rotate(180 99.22939760579496 0)" font-family="Helvetica Neue, Helvetica, Arial, sans-serif">PART_OF</text></g><g class="relationship" transform="translate(-217.1436040649682 512.6258457209505) rotate(403.85538247647594)"><path class="b-outline" fill="#A5ABB6" stroke="none" d="M 25 0.5 L 112.67413900967932 0.5 L 112.67413900967932 -0.5 L 25 -0.5 Z M 140.90070150967932 0.5 L 228.57484051935864 0.5 L 228.57484051935864 3.5 L 235.57484051935864 0 L 228.57484051935864 -3.5 L 228.57484051935864 -0.5 L 140.90070150967932 -0.5 Z"/><text text-anchor="middle" pointer-events="none" font-size="8px" fill="#000000" x="126.78742025967932" y="3" font-family="Helvetica Neue, Helvetica, Arial, sans-serif">RANK</text></g><g class="relationship" transform="translate(-274.44690999526097 347.1894831645092) rotate(430.89510503076804)"><path class="b-outline" fill="#A5ABB6" stroke="none" d="M 25 0.5 L 62.96166441950767 0.5 L 62.96166441950767 -0.5 L 25 -0.5 Z M 105.11791441950767 0.5 L 143.07957883901534 0.5 L 143.07957883901534 3.5 L 150.07957883901534 0 L 143.07957883901534 -3.5 L 143.07957883901534 -0.5 L 105.11791441950767 -0.5 Z"/><text text-anchor="middle" pointer-events="none" font-size="8px" fill="#000000" x="84.03978941950767" y="3" font-family="Helvetica Neue, Helvetica, Arial, sans-serif">PART_OF</text></g><g class="relationship" transform="translate(-274.44690999526097 347.1894831645092) rotate(253.395435491301)"><path class="b-outline" fill="#A5ABB6" stroke="none" d="M 25 0.5 L 32.59812937106943 0.5 L 32.59812937106943 -0.5 L 25 -0.5 Z M 96.54734812106943 0.5 L 104.14547749213887 0.5 L 104.14547749213887 3.5 L 111.14547749213887 0 L 104.14547749213887 -3.5 L 104.14547749213887 -0.5 L 96.54734812106943 -0.5 Z"/><text text-anchor="middle" pointer-events="none" font-size="8px" fill="#000000" x="64.57273874606943" y="3" transform="rotate(180 64.57273874606943 0)" font-family="Helvetica Neue, Helvetica, Arial, sans-serif">RESOLVES_TO</text></g><g class="relationship" transform="translate(-313.35248315305404 216.72129769837306) rotate(257.5246953061555)"><path class="b-outline" fill="#A5ABB6" stroke="none" d="M 25 0.5 L 60.31613118019405 0.5 L 60.31613118019405 -0.5 L 25 -0.5 Z M 102.47238118019405 0.5 L 137.7885123603881 0.5 L 137.7885123603881 3.5 L 144.7885123603881 0 L 137.7885123603881 -3.5 L 137.7885123603881 -0.5 L 102.47238118019405 -0.5 Z"/><text text-anchor="middle" pointer-events="none" font-size="8px" fill="#000000" x="81.39425618019405" y="3" transform="rotate(180 81.39425618019405 0)" font-family="Helvetica Neue, Helvetica, Arial, sans-serif">PART_OF</text></g><g class="relationship" transform="translate(-300.26215922273565 593.6929867220643) rotate(380.1543549970405)"><path class="b-outline" fill="#A5ABB6" stroke="none" d="M 25 0.5 L 126.73374936503143 0.5 L 126.73374936503143 -0.5 L 25 -0.5 Z M 154.96031186503143 0.5 L 256.69406123006286 0.5 L 256.69406123006286 3.5 L 263.69406123006286 0 L 256.69406123006286 -3.5 L 256.69406123006286 -0.5 L 154.96031186503143 -0.5 Z"/><text text-anchor="middle" pointer-events="none" font-size="8px" fill="#000000" x="140.84703061503143" y="3" font-family="Helvetica Neue, Helvetica, Arial, sans-serif">RANK</text></g><g class="relationship" transform="translate(-390.7601785933059 408.56873827201434) rotate(423.9482954372062)"><path class="b-outline" fill="#A5ABB6" stroke="none" d="M 25 0.5 L 78.45206338451179 0.5 L 78.45206338451179 -0.5 L 25 -0.5 Z M 120.60831338451179 0.5 L 174.06037676902358 0.5 L 174.06037676902358 3.5 L 181.06037676902358 0 L 174.06037676902358 -3.5 L 174.06037676902358 -0.5 L 120.60831338451179 -0.5 Z"/><text text-anchor="middle" pointer-events="none" font-size="8px" fill="#000000" x="99.53018838451179" y="3" font-family="Helvetica Neue, Helvetica, Arial, sans-serif">PART_OF</text></g><g class="relationship" transform="translate(-390.7601785933059 408.56873827201434) rotate(248.87915730738035)"><path class="b-outline" fill="#A5ABB6" stroke="none" d="M 25 0.5 L 39.682341003272825 0.5 L 39.682341003272825 -0.5 L 25 -0.5 Z M 103.63155975327282 0.5 L 118.31390075654565 0.5 L 118.31390075654565 3.5 L 125.31390075654565 0 L 118.31390075654565 -3.5 L 118.31390075654565 -0.5 L 103.63155975327282 -0.5 Z"/><text text-anchor="middle" pointer-events="none" font-size="8px" fill="#000000" x="71.65695037827282" y="3" transform="rotate(180 71.65695037827282 0)" font-family="Helvetica Neue, Helvetica, Arial, sans-serif">RESOLVES_TO</text></g><g class="relationship" transform="translate(-444.9237136145442 268.35254721459137) rotate(293.5799086473531)"><path class="b-outline" fill="#A5ABB6" stroke="none" d="M 25 0.5 L 94.03081897322295 0.5 L 94.03081897322295 -0.5 L 25 -0.5 Z M 136.18706897322295 0.5 L 205.2178879464459 0.5 L 205.2178879464459 3.5 L 212.2178879464459 0 L 205.2178879464459 -3.5 L 205.2178879464459 -0.5 L 136.18706897322295 -0.5 Z"/><text text-anchor="middle" pointer-events="none" font-size="8px" fill="#000000" x="115.10894397322295" y="3" font-family="Helvetica Neue, Helvetica, Arial, sans-serif">PART_OF</text></g><g class="relationship" transform="translate(-260.967104183895 551.2924316796705) rotate(391.47680869748103)"><path class="b-outline" fill="#A5ABB6" stroke="none" d="M 25 0.5 L 118.23780978398145 0.5 L 118.23780978398145 -0.5 L 25 -0.5 Z M 146.46437228398145 0.5 L 239.7021820679629 0.5 L 239.7021820679629 3.5 L 246.7021820679629 0 L 239.7021820679629 -3.5 L 239.7021820679629 -0.5 L 146.46437228398145 -0.5 Z"/><text text-anchor="middle" pointer-events="none" font-size="8px" fill="#000000" x="132.35109103398145" y="3" font-family="Helvetica Neue, Helvetica, Arial, sans-serif">RANK</text></g><g class="relationship" transform="translate(-335.79463826061397 379.7431711348412) rotate(426.4338025525737)"><path class="b-outline" fill="#A5ABB6" stroke="none" d="M 25 0.5 L 69.001131047321 0.5 L 69.001131047321 -0.5 L 25 -0.5 Z M 111.157381047321 0.5 L 155.158512094642 0.5 L 155.158512094642 3.5 L 162.158512094642 0 L 155.158512094642 -3.5 L 155.158512094642 -0.5 L 111.157381047321 -0.5 Z"/><text text-anchor="middle" pointer-events="none" font-size="8px" fill="#000000" x="90.079256047321" y="3" font-family="Helvetica Neue, Helvetica, Arial, sans-serif">PART_OF</text></g><g class="relationship" transform="translate(-335.79463826061397 379.7431711348412) rotate(251.20638701179143)"><path class="b-outline" fill="#A5ABB6" stroke="none" d="M 25 0.5 L 33.47085399934576 0.5 L 33.47085399934576 -0.5 L 25 -0.5 Z M 97.42007274934576 0.5 L 105.89092674869153 0.5 L 105.89092674869153 3.5 L 112.89092674869153 0 L 105.89092674869153 -3.5 L 105.89092674869153 -0.5 L 97.42007274934576 -0.5 Z"/><text text-anchor="middle" pointer-events="none" font-size="8px" fill="#000000" x="65.44546337434576" y="3" transform="rotate(180 65.44546337434576 0)" font-family="Helvetica Neue, Helvetica, Arial, sans-serif">RESOLVES_TO</text></g><g class="relationship" transform="translate(-380.21760212347755 249.20387451787713) rotate(278.65741875622183)"><path class="b-outline" fill="#A5ABB6" stroke="none" d="M 25 0.5 L 75.69551371724894 0.5 L 75.69551371724894 -0.5 L 25 -0.5 Z M 117.85176371724894 0.5 L 168.5472774344979 0.5 L 168.5472774344979 3.5 L 175.5472774344979 0 L 168.5472774344979 -3.5 L 168.5472774344979 -0.5 L 117.85176371724894 -0.5 Z"/><text text-anchor="middle" pointer-events="none" font-size="8px" fill="#000000" x="96.77363871724894" y="3" font-family="Helvetica Neue, Helvetica, Arial, sans-serif">PART_OF</text></g></g><g class="layer nodes"><g class="node" aria-label="graph-node3054525" transform="translate(-29.24546798908606,693.1626507522195)"><circle class="b-outline" cx="0" cy="0" r="25" fill="#F79767" stroke="#f36924" stroke-width="2px"/><text class="caption" text-anchor="middle" pointer-events="none" x="0" y="0" font-size="10px" fill="#FFFFFF" font-family="Helvetica Neue, Helvetica, Arial, sans-serif"> Tranco</text><text class="caption" text-anchor="middle" pointer-events="none" x="0" y="10" font-size="10px" fill="#FFFFFF" font-family="Helvetica Neue, Helvetica, Arial, sans-serif"> top 1M</text></g><g class="node" aria-label="graph-node2497" transform="translate(-17.549117673454276,-137.61454190725976)"><circle class="b-outline" cx="0" cy="0" r="25" fill="#F79767" stroke="#f36924" stroke-width="2px"/><text class="caption" text-anchor="middle" pointer-events="none" x="0" y="5" font-size="10px" fill="#FFFFFF" font-family="Helvetica Neue, Helvetica, Arial, sans-serif"> 2497</text></g><g class="node" aria-label="graph-node3514997" transform="translate(167.04032757905054,517.9413686684086)"><circle class="b-outline" cx="0" cy="0" r="25" fill="#57C7E3" stroke="#23b3d7" stroke-width="2px"/><text class="caption" text-anchor="middle" pointer-events="none" x="0" y="5" font-size="10px" fill="#2A2C34" font-family="Helvetica Neue, Helvetica, Arial, sans-serif"> presiden…</text></g><g class="node" aria-label="graph-node4505181" transform="translate(248.1807445074092,411.7722326989369)"><circle class="b-outline" cx="0" cy="0" r="25" fill="#8DCC93" stroke="#5db665" stroke-width="2px"/><text class="caption" text-anchor="middle" pointer-events="none" x="0" y="5" font-size="10px" fill="#2A2C34" font-family="Helvetica Neue, Helvetica, Arial, sans-serif"> presiden…</text></g><g class="node" aria-label="graph-node6821119" transform="translate(282.90154572191875,196.77589122182027)"><circle class="b-outline" cx="0" cy="0" r="25" fill="#4C8EDA" stroke="#2870c2" stroke-width="2px"/><text class="caption" text-anchor="middle" pointer-events="none" x="0" y="5" font-size="10px" fill="#FFFFFF" font-family="Helvetica Neue, Helvetica, Arial, sans-serif"> 202.238.…</text></g><g class="node" aria-label="graph-node1572606" transform="translate(336.18901179753,52.07698174706502)"><circle class="b-outline" cx="0" cy="0" r="25" fill="#D9C8AE" stroke="#c0a378" stroke-width="2px"/><text class="caption" text-anchor="middle" pointer-events="none" x="0" y="5" font-size="10px" fill="#2A2C34" font-family="Helvetica Neue, Helvetica, Arial, sans-serif"> 202.238.…</text></g><g class="node" aria-label="graph-node3962530" transform="translate(250.70859590021018,600.704018970544)"><circle class="b-outline" cx="0" cy="0" r="25" fill="#57C7E3" stroke="#23b3d7" stroke-width="2px"/><text class="caption" text-anchor="middle" pointer-events="none" x="0" y="5" font-size="10px" fill="#2A2C34" font-family="Helvetica Neue, Helvetica, Arial, sans-serif"> limo.me…</text></g><g class="node" aria-label="graph-node4935913" transform="translate(349.6194832315235,499.2257084160674)"><circle class="b-outline" cx="0" cy="0" r="25" fill="#8DCC93" stroke="#5db665" stroke-width="2px"/><text class="caption" text-anchor="middle" pointer-events="none" x="0" y="5" font-size="10px" fill="#2A2C34" font-family="Helvetica Neue, Helvetica, Arial, sans-serif"> limo.me…</text></g><g class="node" aria-label="graph-node6712382" transform="translate(411.0600609804371,261.4000987462305)"><circle class="b-outline" cx="0" cy="0" r="25" fill="#4C8EDA" stroke="#2870c2" stroke-width="2px"/><text class="caption" text-anchor="middle" pointer-events="none" x="0" y="5" font-size="10px" fill="#FFFFFF" font-family="Helvetica Neue, Helvetica, Arial, sans-serif"> 202.238.…</text></g><g class="node" aria-label="graph-node3791797" transform="translate(117.02448947834517,485.7918856194859)"><circle class="b-outline" cx="0" cy="0" r="25" fill="#57C7E3" stroke="#23b3d7" stroke-width="2px"/><text class="caption" text-anchor="middle" pointer-events="none" x="0" y="5" font-size="10px" fill="#2A2C34" font-family="Helvetica Neue, Helvetica, Arial, sans-serif"> toyokeiz…</text></g><g class="node" aria-label="graph-node5735349" transform="translate(185.2984426300615,370.2592798440658)"><circle class="b-outline" cx="0" cy="0" r="25" fill="#8DCC93" stroke="#5db665" stroke-width="2px"/><text class="caption" text-anchor="middle" pointer-events="none" x="0" y="5" font-size="10px" fill="#2A2C34" font-family="Helvetica Neue, Helvetica, Arial, sans-serif"> toyokeiz…</text></g><g class="node" aria-label="graph-node6386803" transform="translate(221.0613393014987,176.07514540475321)"><circle class="b-outline" cx="0" cy="0" r="25" fill="#4C8EDA" stroke="#2870c2" stroke-width="2px"/><text class="caption" text-anchor="middle" pointer-events="none" x="0" y="5" font-size="10px" fill="#FFFFFF" font-family="Helvetica Neue, Helvetica, Arial, sans-serif"> 202.238.…</text></g><g class="node" aria-label="graph-node3877580" transform="translate(213.33237023518188,554.9846327142828)"><circle class="b-outline" cx="0" cy="0" r="25" fill="#57C7E3" stroke="#23b3d7" stroke-width="2px"/><text class="caption" text-anchor="middle" pointer-events="none" x="0" y="5" font-size="10px" fill="#2A2C34" font-family="Helvetica Neue, Helvetica, Arial, sans-serif"> bunshun…</text></g><g class="node" aria-label="graph-node4854438" transform="translate(301.05094606052825,447.87201645406276)"><circle class="b-outline" cx="0" cy="0" r="25" fill="#8DCC93" stroke="#5db665" stroke-width="2px"/><text class="caption" text-anchor="middle" pointer-events="none" x="0" y="5" font-size="10px" fill="#2A2C34" font-family="Helvetica Neue, Helvetica, Arial, sans-serif"> bunshun…</text></g><g class="node" aria-label="graph-node6271806" transform="translate(343.3689883694504,223.76894210871848)"><circle class="b-outline" cx="0" cy="0" r="25" fill="#4C8EDA" stroke="#2870c2" stroke-width="2px"/><text class="caption" text-anchor="middle" pointer-events="none" x="0" y="5" font-size="10px" fill="#FFFFFF" font-family="Helvetica Neue, Helvetica, Arial, sans-serif"> 202.238.…</text></g><g class="node" aria-label="graph-node3279914" transform="translate(59.21193663569265,462.59643857832543)"><circle class="b-outline" cx="0" cy="0" r="25" fill="#57C7E3" stroke="#23b3d7" stroke-width="2px"/><text class="caption" text-anchor="middle" pointer-events="none" x="0" y="5" font-size="10px" fill="#2A2C34" font-family="Helvetica Neue, Helvetica, Arial, sans-serif"> goo-net.…</text></g><g class="node" aria-label="graph-node4278491" transform="translate(93.27533905078482,307.61464162362915)"><circle class="b-outline" cx="0" cy="0" r="25" fill="#8DCC93" stroke="#5db665" stroke-width="2px"/><text class="caption" text-anchor="middle" pointer-events="none" x="0" y="5" font-size="10px" fill="#2A2C34" font-family="Helvetica Neue, Helvetica, Arial, sans-serif"> goo-net.…</text></g><g class="node" aria-label="graph-node6266408" transform="translate(110.2566111148937,153.91090525098966)"><circle class="b-outline" cx="0" cy="0" r="25" fill="#4C8EDA" stroke="#2870c2" stroke-width="2px"/><text class="caption" text-anchor="middle" pointer-events="none" x="0" y="5" font-size="10px" fill="#FFFFFF" font-family="Helvetica Neue, Helvetica, Arial, sans-serif"> 163.49.4…</text></g><g class="node" aria-label="graph-node851093" transform="translate(85.51682346905244,12.433500863188272)"><circle class="b-outline" cx="0" cy="0" r="25" fill="#D9C8AE" stroke="#c0a378" stroke-width="2px"/><text class="caption" text-anchor="middle" pointer-events="none" x="0" y="5" font-size="10px" fill="#2A2C34" font-family="Helvetica Neue, Helvetica, Arial, sans-serif"> 163.49.0…</text></g><g class="node" aria-label="graph-node3212731" transform="translate(4.007098738100964,445.7773379098355)"><circle class="b-outline" cx="0" cy="0" r="25" fill="#57C7E3" stroke="#23b3d7" stroke-width="2px"/><text class="caption" text-anchor="middle" pointer-events="none" x="0" y="5" font-size="10px" fill="#2A2C34" font-family="Helvetica Neue, Helvetica, Arial, sans-serif"> tokyo-sp…</text></g><g class="node" aria-label="graph-node4214218" transform="translate(17.851812760510157,296.9078945415143)"><circle class="b-outline" cx="0" cy="0" r="25" fill="#8DCC93" stroke="#5db665" stroke-width="2px"/><text class="caption" text-anchor="middle" pointer-events="none" x="0" y="5" font-size="10px" fill="#2A2C34" font-family="Helvetica Neue, Helvetica, Arial, sans-serif"> tokyo-sp…</text></g><g class="node" aria-label="graph-node6752587" transform="translate(27.217198117651648,142.94375005062147)"><circle class="b-outline" cx="0" cy="0" r="25" fill="#4C8EDA" stroke="#2870c2" stroke-width="2px"/><text class="caption" text-anchor="middle" pointer-events="none" x="0" y="5" font-size="10px" fill="#FFFFFF" font-family="Helvetica Neue, Helvetica, Arial, sans-serif"> 163.49.3…</text></g><g class="node" aria-label="graph-node3614724" transform="translate(-56.30085028667696,442.5814676726176)"><circle class="b-outline" cx="0" cy="0" r="25" fill="#57C7E3" stroke="#23b3d7" stroke-width="2px"/><text class="caption" text-anchor="middle" pointer-events="none" x="0" y="5" font-size="10px" fill="#2A2C34" font-family="Helvetica Neue, Helvetica, Arial, sans-serif"> diamond…</text></g><g class="node" aria-label="graph-node5565804" transform="translate(-61.912176135545934,296.4167668926402)"><circle class="b-outline" cx="0" cy="0" r="25" fill="#8DCC93" stroke="#5db665" stroke-width="2px"/><text class="caption" text-anchor="middle" pointer-events="none" x="0" y="5" font-size="10px" fill="#2A2C34" font-family="Helvetica Neue, Helvetica, Arial, sans-serif"> diamond…</text></g><g class="node" aria-label="graph-node6562332" transform="translate(-75.63278755977106,147.13133276421112)"><circle class="b-outline" cx="0" cy="0" r="25" fill="#4C8EDA" stroke="#2870c2" stroke-width="2px"/><text class="caption" text-anchor="middle" pointer-events="none" x="0" y="5" font-size="10px" fill="#FFFFFF" font-family="Helvetica Neue, Helvetica, Arial, sans-serif"> 210.148.…</text></g><g class="node" aria-label="graph-node759741" transform="translate(-97.90106984351229,4.263173831745064)"><circle class="b-outline" cx="0" cy="0" r="25" fill="#D9C8AE" stroke="#c0a378" stroke-width="2px"/><text class="caption" text-anchor="middle" pointer-events="none" x="0" y="5" font-size="10px" fill="#2A2C34" font-family="Helvetica Neue, Helvetica, Arial, sans-serif"> 210.148.…</text></g><g class="node" aria-label="graph-node3101781" transform="translate(-170.59222436046332,477.8290780359781)"><circle class="b-outline" cx="0" cy="0" r="25" fill="#57C7E3" stroke="#23b3d7" stroke-width="2px"/><text class="caption" text-anchor="middle" pointer-events="none" x="0" y="5" font-size="10px" fill="#2A2C34" font-family="Helvetica Neue, Helvetica, Arial, sans-serif"> townwor…</text></g><g class="node" aria-label="graph-node5070291" transform="translate(-209.6355608233663,322.76769968284873)"><circle class="b-outline" cx="0" cy="0" r="25" fill="#8DCC93" stroke="#5db665" stroke-width="2px"/><text class="caption" text-anchor="middle" pointer-events="none" x="0" y="5" font-size="10px" fill="#2A2C34" font-family="Helvetica Neue, Helvetica, Arial, sans-serif"> townwor…</text></g><g class="node" aria-label="graph-node6760693" transform="translate(-245.28647862853063,188.17498420732414)"><circle class="b-outline" cx="0" cy="0" r="25" fill="#4C8EDA" stroke="#2870c2" stroke-width="2px"/><text class="caption" text-anchor="middle" pointer-events="none" x="0" y="5" font-size="10px" fill="#FFFFFF" font-family="Helvetica Neue, Helvetica, Arial, sans-serif"> 160.17.2…</text></g><g class="node" aria-label="graph-node1911642" transform="translate(-350.0299932029034,50.94162709278629)"><circle class="b-outline" cx="0" cy="0" r="25" fill="#D9C8AE" stroke="#c0a378" stroke-width="2px"/><text class="caption" text-anchor="middle" pointer-events="none" x="0" y="5" font-size="10px" fill="#2A2C34" font-family="Helvetica Neue, Helvetica, Arial, sans-serif"> 160.17.0…</text></g><g class="node" aria-label="graph-node3839514" transform="translate(-114.91101644730423,456.83377579034124)"><circle class="b-outline" cx="0" cy="0" r="25" fill="#57C7E3" stroke="#23b3d7" stroke-width="2px"/><text class="caption" text-anchor="middle" pointer-events="none" x="0" y="5" font-size="10px" fill="#2A2C34" font-family="Helvetica Neue, Helvetica, Arial, sans-serif"> suumo.jp</text></g><g class="node" aria-label="graph-node5781585" transform="translate(-139.64254693805208,308.7072513122295)"><circle class="b-outline" cx="0" cy="0" r="25" fill="#8DCC93" stroke="#5db665" stroke-width="2px"/><text class="caption" text-anchor="middle" pointer-events="none" x="0" y="5" font-size="10px" fill="#2A2C34" font-family="Helvetica Neue, Helvetica, Arial, sans-serif"> suumo.jp</text></g><g class="node" aria-label="graph-node6744754" transform="translate(-179.53557736909204,165.59314561428448)"><circle class="b-outline" cx="0" cy="0" r="25" fill="#4C8EDA" stroke="#2870c2" stroke-width="2px"/><text class="caption" text-anchor="middle" pointer-events="none" x="0" y="5" font-size="10px" fill="#FFFFFF" font-family="Helvetica Neue, Helvetica, Arial, sans-serif"> 160.17.3…</text></g><g class="node" aria-label="graph-node3706009" transform="translate(-217.1436040649682,512.6258457209505)"><circle class="b-outline" cx="0" cy="0" r="25" fill="#57C7E3" stroke="#23b3d7" stroke-width="2px"/><text class="caption" text-anchor="middle" pointer-events="none" x="0" y="5" font-size="10px" fill="#2A2C34" font-family="Helvetica Neue, Helvetica, Arial, sans-serif"> carsens…</text></g><g class="node" aria-label="graph-node5652793" transform="translate(-274.44690999526097,347.1894831645092)"><circle class="b-outline" cx="0" cy="0" r="25" fill="#8DCC93" stroke="#5db665" stroke-width="2px"/><text class="caption" text-anchor="middle" pointer-events="none" x="0" y="5" font-size="10px" fill="#2A2C34" font-family="Helvetica Neue, Helvetica, Arial, sans-serif"> carsens…</text></g><g class="node" aria-label="graph-node6626712" transform="translate(-313.35248315305404,216.72129769837306)"><circle class="b-outline" cx="0" cy="0" r="25" fill="#4C8EDA" stroke="#2870c2" stroke-width="2px"/><text class="caption" text-anchor="middle" pointer-events="none" x="0" y="5" font-size="10px" fill="#FFFFFF" font-family="Helvetica Neue, Helvetica, Arial, sans-serif"> 160.17.8…</text></g><g class="node" aria-label="graph-node3993509" transform="translate(-300.26215922273565,593.6929867220643)"><circle class="b-outline" cx="0" cy="0" r="25" fill="#57C7E3" stroke="#23b3d7" stroke-width="2px"/><text class="caption" text-anchor="middle" pointer-events="none" x="0" y="5" font-size="10px" fill="#2A2C34" font-family="Helvetica Neue, Helvetica, Arial, sans-serif"> hotpepp…</text></g><g class="node" aria-label="graph-node5929877" transform="translate(-390.7601785933059,408.56873827201434)"><circle class="b-outline" cx="0" cy="0" r="25" fill="#8DCC93" stroke="#5db665" stroke-width="2px"/><text class="caption" text-anchor="middle" pointer-events="none" x="0" y="5" font-size="10px" fill="#2A2C34" font-family="Helvetica Neue, Helvetica, Arial, sans-serif"> hotpepp…</text></g><g class="node" aria-label="graph-node6274074" transform="translate(-444.9237136145442,268.35254721459137)"><circle class="b-outline" cx="0" cy="0" r="25" fill="#4C8EDA" stroke="#2870c2" stroke-width="2px"/><text class="caption" text-anchor="middle" pointer-events="none" x="0" y="5" font-size="10px" fill="#FFFFFF" font-family="Helvetica Neue, Helvetica, Arial, sans-serif"> 160.17.9…</text></g><g class="node" aria-label="graph-node3561920" transform="translate(-260.967104183895,551.2924316796705)"><circle class="b-outline" cx="0" cy="0" r="25" fill="#57C7E3" stroke="#23b3d7" stroke-width="2px"/><text class="caption" text-anchor="middle" pointer-events="none" x="0" y="5" font-size="10px" fill="#2A2C34" font-family="Helvetica Neue, Helvetica, Arial, sans-serif"> jalan.net</text></g><g class="node" aria-label="graph-node4550313" transform="translate(-335.79463826061397,379.7431711348412)"><circle class="b-outline" cx="0" cy="0" r="25" fill="#8DCC93" stroke="#5db665" stroke-width="2px"/><text class="caption" text-anchor="middle" pointer-events="none" x="0" y="5" font-size="10px" fill="#2A2C34" font-family="Helvetica Neue, Helvetica, Arial, sans-serif"> jalan.net</text></g><g class="node" aria-label="graph-node6418768" transform="translate(-380.21760212347755,249.20387451787713)"><circle class="b-outline" cx="0" cy="0" r="25" fill="#4C8EDA" stroke="#2870c2" stroke-width="2px"/><text class="caption" text-anchor="middle" pointer-events="none" x="0" y="5" font-size="10px" fill="#FFFFFF" font-family="Helvetica Neue, Helvetica, Arial, sans-serif"> 160.17.5…</text></g></g></svg>