<svg xmlns="http://www.w3.org/2000/svg" width="337.6532897949219" height="264.707763671875" viewBox="-163.7790069580078 -35.33140182495117 337.6532897949219 264.707763671875"><title>Neo4j Graph Visualization</title><desc>Created using Neo4j (http://www.neo4j.com/)</desc><g class="layer relationships"><g class="relationship" transform="translate(7.277224385355609 135.16267518563197) rotate(342.9436143469586)"><path class="b-outline" fill="#A5ABB6" stroke="none" d="M 25 0.5 L 53.96374525592016 0.5 L 53.96374525592016 -0.5 L 25 -0.5 Z M 82.96374525592016 0.5 L 111.92749051184032 0.5 L 111.92749051184032 3.5 L 118.92749051184032 0 L 111.92749051184032 -3.5 L 111.92749051184032 -0.5 L 82.96374525592016 -0.5 Z"/><text text-anchor="middle" pointer-events="none" font-size="8px" fill="#000000" x="68.46374525592016" y="3" font-family="Helvetica Neue, Helvetica, Arial, sans-serif">NAME</text></g><g class="relationship" transform="translate(7.277224385355609 135.16267518563197) rotate(286.2599504697772)"><path class="b-outline" fill="#A5ABB6" stroke="none" d="M 25 0.5 L 55.69473660637293 0.5 L 55.69473660637293 -0.5 L 25 -0.5 Z M 84.69473660637293 0.5 L 115.38947321274586 0.5 L 115.38947321274586 3.5 L 122.38947321274586 0 L 115.38947321274586 -3.5 L 115.38947321274586 -0.5 L 84.69473660637293 -0.5 Z"/><text text-anchor="middle" pointer-events="none" font-size="8px" fill="#000000" x="70.19473660637293" y="3" font-family="Helvetica Neue, Helvetica, Arial, sans-serif">NAME</text></g><g class="relationship" transform="translate(7.277224385355609 135.16267518563197) rotate(242.4619862460413)"><path class="b-outline" fill="#A5ABB6" stroke="none" d="M 25 0.5 L 55.44360662023894 0.5 L 55.44360662023894 -0.5 L 25 -0.5 Z M 84.44360662023894 0.5 L 114.88721324047788 0.5 L 114.88721324047788 3.5 L 121.88721324047788 0 L 114.88721324047788 -3.5 L 114.88721324047788 -0.5 L 84.44360662023894 -0.5 Z"/><text text-anchor="middle" pointer-events="none" font-size="8px" fill="#000000" x="69.94360662023894" y="3" transform="rotate(180 69.94360662023894 0)" font-family="Helvetica Neue, Helvetica, Arial, sans-serif">NAME</text></g><g class="relationship" transform="translate(7.277224385355609 135.16267518563197) rotate(189.31636335256565)"><path class="b-outline" fill="#A5ABB6" stroke="none" d="M 25 0.5 L 53.9775326591962 0.5 L 53.9775326591962 -0.5 L 25 -0.5 Z M 82.9775326591962 0.5 L 111.9550653183924 0.5 L 111.9550653183924 3.5 L 118.9550653183924 0 L 111.9550653183924 -3.5 L 111.9550653183924 -0.5 L 82.9775326591962 -0.5 Z"/><text text-anchor="middle" pointer-events="none" font-size="8px" fill="#000000" x="68.4775326591962" y="3" transform="rotate(180 68.4775326591962 0)" font-family="Helvetica Neue, Helvetica, Arial, sans-serif">NAME</text></g><g class="relationship" transform="translate(7.277224385355609 135.16267518563197) rotate(356.1299888497621)"><path class="b-outline" fill="#A5ABB6" stroke="none" d="M 6.953439040707552 24.018736134675446 L 17.306200844808384 62.65576918623819 A 17.916697508022974 17.916697508022974 0 1 1 -17.306200844808384 62.65576918623819 L -8.765172356425198 30.780216918698923 L -4.901469051268926 31.815493099109005 L -6.4704761275630185 24.148145657226706 L -11.662949835292403 30.00375978339136 L -7.79924653013613 31.039035963801442 L -16.340275018519314 62.91458823134071 A 16.916697508022974 16.916697508022974 0 1 0 16.340275018519314 62.91458823134071 L 5.987513214418485 24.277555179777966 Z"/><text text-anchor="middle" pointer-events="none" font-size="8px" fill="#000000" x="0" y="94.20964923467838" font-family="Helvetica Neue, Helvetica, Arial, sans-serif"/></g></g><g class="layer nodes"><g class="node" aria-label="graph-node320" transform="translate(7.277224385355609,135.16267518563197)"><circle class="b-outline" cx="0" cy="0" r="25" fill="#FFC454" stroke="#d7a013" stroke-width="2px"/><text class="caption" text-anchor="middle" pointer-events="none" x="0" y="5" font-size="10px" fill="#2A2C34" font-family="Helvetica Neue, Helvetica, Arial, sans-serif"> 2497</text></g><g class="node" aria-label="graph-node145952" transform="translate(144.87428953979597,92.94691763089212)"><circle class="b-outline" cx="0" cy="0" r="25" fill="#C990C0" stroke="#b261a5" stroke-width="2px"/><text class="caption" text-anchor="middle" pointer-events="none" x="0" y="-5" font-size="10px" fill="#FFFFFF" font-family="Helvetica Neue, Helvetica, Arial, sans-serif"> IIJ</text><text class="caption" text-anchor="middle" pointer-events="none" x="0" y="5" font-size="10px" fill="#FFFFFF" font-family="Helvetica Neue, Helvetica, Arial, sans-serif"> Internet</text><text class="caption" text-anchor="middle" pointer-events="none" x="0" y="15" font-size="10px" fill="#FFFFFF" font-family="Helvetica Neue, Helvetica, Arial, sans-serif"> Initia</text></g><g class="node" aria-label="graph-node2387369" transform="translate(48.545649033729404,-6.331402220357814)"><circle class="b-outline" cx="0" cy="0" r="25" fill="#C990C0" stroke="#b261a5" stroke-width="2px"/><text class="caption" text-anchor="middle" pointer-events="none" x="0" y="0" font-size="10px" fill="#FFFFFF" font-family="Helvetica Neue, Helvetica, Arial, sans-serif"> Internet</text><text class="caption" text-anchor="middle" pointer-events="none" x="0" y="10" font-size="10px" fill="#FFFFFF" font-family="Helvetica Neue, Helvetica, Arial, sans-serif"> Initiati…</text></g><g class="node" aria-label="graph-node240424" transform="translate(-60.63417093744808,4.917153961816013)"><circle class="b-outline" cx="0" cy="0" r="25" fill="#C990C0" stroke="#b261a5" stroke-width="2px"/><text class="caption" text-anchor="middle" pointer-events="none" x="0" y="0" font-size="10px" fill="#FFFFFF" font-family="Helvetica Neue, Helvetica, Arial, sans-serif"> Internet</text><text class="caption" text-anchor="middle" pointer-events="none" x="0" y="10" font-size="10px" fill="#FFFFFF" font-family="Helvetica Neue, Helvetica, Arial, sans-serif"> Initiati…</text></g><g class="node" aria-label="graph-node296314" transform="translate(-134.77900495758274,111.8584151525583)"><circle class="b-outline" cx="0" cy="0" r="25" fill="#C990C0" stroke="#b261a5" stroke-width="2px"/><text class="caption" text-anchor="middle" pointer-events="none" x="0" y="5" font-size="10px" fill="#FFFFFF" font-family="Helvetica Neue, Helvetica, Arial, sans-serif"> IIJ</text></g></g></svg>