<svg xmlns="http://www.w3.org/2000/svg" width="512.59814453125" height="302.03265380859375" viewBox="-206.80218505859375 -129.53970336914062 512.59814453125 302.03265380859375"><title>Neo4j Graph Visualization</title><desc>Created using Neo4j (http://www.neo4j.com/)</desc><g class="layer relationships"><g class="relationship" transform="translate(-21.374683449693855 100.17020456499512) rotate(524.5198712979673)"><path class="b-outline" fill="#A5ABB6" stroke="none" d="M 24.018736134675446,6.953439040707552 L 24.277555179777966,5.987513214418485 A 215.0199955258036 215.0199955258036 0 0 0 51.28424614747884,11.397610845577589 L 51.151027937320336,12.388697576637071 A 216.0199955258036 216.0199955258036 0 0 1 24.018736134675446,6.953439040707552 Z M 104.11231766316234,12.956199731375648 L 104.00036741288767,11.96248591871958 A 215.0199955258036 215.0199955258036 0 0 0 131.1167868332958,7.132339831894149 L 130.4026026253331,4.21858951364506 L 138.03456827720413,5.951535066355988 L 132.06903244391276,11.017340256226268 L 131.35484823595004,8.103589937977178 A 216.0199955258036 216.0199955258036 0 0 1 104.11231766316234,12.956199731375648"/><text text-anchor="middle" pointer-events="none" font-size="8px" fill="#000000" x="77.61957165487135" y="16.80176994486527" transform="rotate(180 77.61957165487135 13.80176994486527)" font-family="Helvetica Neue, Helvetica, Arial, sans-serif">PEERS_WITH</text></g><g class="relationship" transform="translate(-21.374683449693855 100.17020456499512) rotate(524.5198712979673)"><path class="b-outline" fill="#A5ABB6" stroke="none" d="M 24.018736134675446,-6.953439040707552 L 24.277555179777966,-5.987513214418485 A 215.0199955258036 215.0199955258036 0 0 1 51.2842461474788,-11.397610845577589 L 51.1510279373203,-12.388697576637071 A 216.0199955258036 216.0199955258036 0 0 0 24.018736134675446,-6.953439040707552 Z M 104.11231766316226,-12.956199731375648 L 104.0003674128876,-11.96248591871958 A 215.0199955258036 215.0199955258036 0 0 1 131.1167868332958,-7.132339831894149 L 130.4026026253331,-4.21858951364506 L 138.03456827720413,-5.951535066355988 L 132.06903244391276,-11.017340256226268 L 131.35484823595004,-8.103589937977178 A 216.0199955258036 216.0199955258036 0 0 0 104.11231766316226,-12.956199731375648"/><text text-anchor="middle" pointer-events="none" font-size="8px" fill="#000000" x="77.6195716548713" y="-10.80176994486527" transform="rotate(180 77.6195716548713 -13.80176994486527)" font-family="Helvetica Neue, Helvetica, Arial, sans-serif">PEERS_WITH</text></g><g class="relationship" transform="translate(104.18646933013042 17.69058409844706) rotate(506.6995667318272)"><path class="b-outline" fill="#A5ABB6" stroke="none" d="M 24.018736134675446,-6.953439040707552 L 24.277555179777966,-5.987513214418485 A 191.28626799685006 191.28626799685006 0 0 1 45.26693142856216,-10.367505983075603 L 45.11783994764177,-11.356329390119015 A 192.28626799685006 192.28626799685006 0 0 0 24.018736134675446,-6.953439040707552 Z M 98.05873500834471,-11.967292008594427 L 97.93250316216424,-10.975291241956683 A 191.28626799685006 191.28626799685006 0 0 1 119.01737018217597,-7.080854862333076 L 118.30799434063924,-4.165930177981169 L 125.9370904192532,-5.911465346139366 L 119.96320463755826,-10.967421108135618 L 119.25382879602154,-8.052496423783712 A 192.28626799685006 192.28626799685006 0 0 0 98.05873500834471,-11.967292008594427"/><text text-anchor="middle" pointer-events="none" font-size="8px" fill="#000000" x="71.57292880170883" y="-9.992664739941773" transform="rotate(180 71.57292880170883 -12.992664739941773)" font-family="Helvetica Neue, Helvetica, Arial, sans-serif">PEERS_WITH</text></g><g class="relationship" transform="translate(104.18646933013042 17.69058409844706) rotate(386.6719230424762)"><path class="b-outline" fill="#A5ABB6" stroke="none" d="M 21.40063509461097,12.933012701892217 L 21.90063509461097,12.06698729810778 A 147.29687267747533 147.29687267747533 0 0 0 66.75044041375881,28.95832477447452 L 66.5549262083578,29.93902564399916 A 148.29687267747533 148.29687267747533 0 0 1 21.40063509461097,12.933012701892217 Z M 119.41690352068619,30.8677045795625 L 119.25595722656409,29.88074141388286 A 147.29687267747533 147.29687267747533 0 0 0 164.6713974359495,14.575183289667965 L 163.26358086633462,11.926022572324111 L 171.08740853802098,11.731804746790566 L 166.548486195436,18.10739757945977 L 165.14066962582112,15.458236862115918 A 148.29687267747533 148.29687267747533 0 0 1 119.41690352068619,30.8677045795625"/><text text-anchor="middle" pointer-events="none" font-size="8px" fill="#000000" x="92.95297735331279" y="35.27822401466953" font-family="Helvetica Neue, Helvetica, Arial, sans-serif">PEERS_WITH</text></g><g class="relationship" transform="translate(276.79594541723884 104.39815151958314) rotate(206.67192304247618)"><path class="b-outline" fill="#A5ABB6" stroke="none" d="M 25 0.5 L 66.59437468754928 0.5 L 66.59437468754928 -0.5 L 25 -0.5 Z M 119.56937316167037 0.5 L 161.16374784921965 0.5 L 161.16374784921965 3.5 L 168.16374784921965 0 L 161.16374784921965 -3.5 L 161.16374784921965 -0.5 L 119.56937316167037 -0.5 Z"/><text text-anchor="middle" pointer-events="none" font-size="8px" fill="#000000" x="93.08187392460982" y="3" transform="rotate(180 93.08187392460982 0)" font-family="Helvetica Neue, Helvetica, Arial, sans-serif">PEERS_WITH</text></g><g class="relationship" transform="translate(276.79594541723884 104.39815151958314) rotate(206.67192304247618)"><path class="b-outline" fill="#A5ABB6" stroke="none" d="M 21.40063509461097,12.933012701892217 L 21.90063509461097,12.06698729810778 A 147.29687267747533 147.29687267747533 0 0 0 66.75044041375881,28.95832477447452 L 66.5549262083578,29.93902564399916 A 148.29687267747533 148.29687267747533 0 0 1 21.40063509461097,12.933012701892217 Z M 119.41690352068619,30.8677045795625 L 119.25595722656409,29.88074141388286 A 147.29687267747533 147.29687267747533 0 0 0 164.6713974359495,14.575183289667965 L 163.26358086633462,11.926022572324111 L 171.08740853802098,11.731804746790566 L 166.548486195436,18.10739757945977 L 165.14066962582112,15.458236862115918 A 148.29687267747533 148.29687267747533 0 0 1 119.41690352068619,30.8677045795625"/><text text-anchor="middle" pointer-events="none" font-size="8px" fill="#000000" x="92.95297735331279" y="35.27822401466953" transform="rotate(180 92.95297735331279 32.27822401466953)" font-family="Helvetica Neue, Helvetica, Arial, sans-serif">PEERS_WITH</text></g><g class="relationship" transform="translate(104.18646933013042 17.69058409844706) rotate(506.6995667318272)"><path class="b-outline" fill="#A5ABB6" stroke="none" d="M 24.018736134675446,6.953439040707552 L 24.277555179777966,5.987513214418485 A 191.28626799685006 191.28626799685006 0 0 0 45.266931428562195,10.367505983075603 L 45.117839947641805,11.356329390119015 A 192.28626799685006 192.28626799685006 0 0 1 24.018736134675446,6.953439040707552 Z M 98.05873500834468,11.967292008594427 L 97.93250316216421,10.975291241956683 A 191.28626799685006 191.28626799685006 0 0 0 119.01737018217597,7.080854862333076 L 118.30799434063924,4.165930177981169 L 125.9370904192532,5.911465346139366 L 119.96320463755826,10.967421108135618 L 119.25382879602154,8.052496423783712 A 192.28626799685006 192.28626799685006 0 0 1 98.05873500834468,11.967292008594427"/><text text-anchor="middle" pointer-events="none" font-size="8px" fill="#000000" x="71.57292880170883" y="15.992664739941773" transform="rotate(180 71.57292880170883 12.992664739941773)" font-family="Helvetica Neue, Helvetica, Arial, sans-serif">PEERS_WITH</text></g><g class="relationship" transform="translate(141.18497799602932 109.96740303854857) rotate(183.44894884685237)"><path class="b-outline" fill="#A5ABB6" stroke="none" d="M 25 0.5 L 51.43981286901099 0.5 L 51.43981286901099 -0.5 L 25 -0.5 Z M 104.41481134313209 0.5 L 130.85462421214308 0.5 L 130.85462421214308 3.5 L 137.85462421214308 0 L 130.85462421214308 -3.5 L 130.85462421214308 -0.5 L 104.41481134313209 -0.5 Z"/><text text-anchor="middle" pointer-events="none" font-size="8px" fill="#000000" x="77.92731210607154" y="3" transform="rotate(180 77.92731210607154 0)" font-family="Helvetica Neue, Helvetica, Arial, sans-serif">PEERS_WITH</text></g><g class="relationship" transform="translate(141.18497799602932 109.96740303854857) rotate(357.6483067497795)"><path class="b-outline" fill="#A5ABB6" stroke="none" d="M 21.40063509461097,12.933012701892217 L 21.90063509461097,12.06698729810778 A 88.98424576563157 88.98424576563157 0 0 0 38.343720326540634,19.452267956413806 L 38.02850680296072,20.40128873308433 A 89.98424576563157 89.98424576563157 0 0 1 21.40063509461097,12.933012701892217 Z M 90.50901286025405,21.696761384909863 L 90.24100755913011,20.733343947570532 A 88.98424576563157 88.98424576563157 0 0 0 107.02845293741554,14.168353466424572 L 105.65846790432275,11.49943214703321 L 113.4842668548442,11.416541942439938 L 108.85509964820594,17.726915225613055 L 107.48511461511315,15.057993906221691 A 89.98424576563157 89.98424576563157 0 0 1 90.50901286025405,21.696761384909863"/><text text-anchor="middle" pointer-events="none" font-size="8px" fill="#000000" x="64.18452678361297" y="27.461364932992424" font-family="Helvetica Neue, Helvetica, Arial, sans-serif">PEERS_WITH</text></g><g class="relationship" transform="translate(276.79594541723884 104.39815151958314) rotate(537.6483067497795)"><path class="b-outline" fill="#A5ABB6" stroke="none" d="M 25 0.5 L 37.87513968782552 0.5 L 37.87513968782552 -0.5 L 25 -0.5 Z M 90.85013816194662 0.5 L 103.72527784977214 0.5 L 103.72527784977214 3.5 L 110.72527784977214 0 L 103.72527784977214 -3.5 L 103.72527784977214 -0.5 L 90.85013816194662 -0.5 Z"/><text text-anchor="middle" pointer-events="none" font-size="8px" fill="#000000" x="64.36263892488607" y="3" transform="rotate(180 64.36263892488607 0)" font-family="Helvetica Neue, Helvetica, Arial, sans-serif">PEERS_WITH</text></g><g class="relationship" transform="translate(276.79594541723884 104.39815151958314) rotate(537.6483067497795)"><path class="b-outline" fill="#A5ABB6" stroke="none" d="M 21.40063509461097,12.933012701892217 L 21.90063509461097,12.06698729810778 A 88.98424576563157 88.98424576563157 0 0 0 38.343720326540634,19.452267956413806 L 38.02850680296072,20.40128873308433 A 89.98424576563157 89.98424576563157 0 0 1 21.40063509461097,12.933012701892217 Z M 90.50901286025405,21.696761384909863 L 90.24100755913011,20.733343947570532 A 88.98424576563157 88.98424576563157 0 0 0 107.02845293741554,14.168353466424572 L 105.65846790432275,11.49943214703321 L 113.4842668548442,11.416541942439938 L 108.85509964820594,17.726915225613055 L 107.48511461511315,15.057993906221691 A 89.98424576563157 89.98424576563157 0 0 1 90.50901286025405,21.696761384909863"/><text text-anchor="middle" pointer-events="none" font-size="8px" fill="#000000" x="64.18452678361297" y="27.461364932992424" transform="rotate(180 64.18452678361297 24.461364932992424)" font-family="Helvetica Neue, Helvetica, Arial, sans-serif">PEERS_WITH</text></g><g class="relationship" transform="translate(104.18646933013042 17.69058409844706) rotate(349.93285236454824)"><path class="b-outline" fill="#A5ABB6" stroke="none" d="M 21.40063509461097,-12.933012701892217 L 21.90063509461097,-12.06698729810778 A 91.18852787174808 91.18852787174808 0 0 1 39.399683988767734,-19.847964708894196 L 39.0915836641169,-20.79931858098915 A 92.18852787174808 92.18852787174808 0 0 0 21.40063509461097,-12.933012701892217 Z M 91.60217758094882,-22.076098994346893 L 91.34067781403637,-21.110895455239856 A 91.18852787174808 91.18852787174808 0 0 1 109.19720887181933,-14.189579088414142 L 107.82524978393977,-11.521671994607331 L 115.65098527201515,-11.432992398996312 L 111.02648765565874,-17.746788546823222 L 109.65452856777918,-15.078881453016411 A 92.18852787174808 92.18852787174808 0 0 0 91.60217758094882,-22.076098994346893"/><text text-anchor="middle" pointer-events="none" font-size="8px" fill="#000000" x="65.26617682322166" y="-21.756842124019187" font-family="Helvetica Neue, Helvetica, Arial, sans-serif">PEERS_WITH</text></g><g class="relationship" transform="translate(239.9470994116106 -6.411762937083088) rotate(529.9328523645482)"><path class="b-outline" fill="#A5ABB6" stroke="none" d="M 25 0.5 L 38.95427295647541 0.5 L 38.95427295647541 -0.5 L 25 -0.5 Z M 91.9292714305965 0.5 L 105.88354438707191 0.5 L 105.88354438707191 3.5 L 112.88354438707191 0 L 105.88354438707191 -3.5 L 105.88354438707191 -0.5 L 91.9292714305965 -0.5 Z"/><text text-anchor="middle" pointer-events="none" font-size="8px" fill="#000000" x="65.44177219353595" y="3" transform="rotate(180 65.44177219353595 0)" font-family="Helvetica Neue, Helvetica, Arial, sans-serif">PEERS_WITH</text></g><g class="relationship" transform="translate(239.9470994116106 -6.411762937083088) rotate(529.9328523645482)"><path class="b-outline" fill="#A5ABB6" stroke="none" d="M 21.40063509461097,-12.933012701892217 L 21.90063509461097,-12.06698729810778 A 91.18852787174808 91.18852787174808 0 0 1 39.399683988767734,-19.847964708894196 L 39.0915836641169,-20.79931858098915 A 92.18852787174808 92.18852787174808 0 0 0 21.40063509461097,-12.933012701892217 Z M 91.60217758094882,-22.076098994346893 L 91.34067781403637,-21.110895455239856 A 91.18852787174808 91.18852787174808 0 0 1 109.19720887181933,-14.189579088414142 L 107.82524978393977,-11.521671994607331 L 115.65098527201515,-11.432992398996312 L 111.02648765565874,-17.746788546823222 L 109.65452856777918,-15.078881453016411 A 92.18852787174808 92.18852787174808 0 0 0 91.60217758094882,-22.076098994346893"/><text text-anchor="middle" pointer-events="none" font-size="8px" fill="#000000" x="65.26617682322166" y="-21.756842124019187" transform="rotate(180 65.26617682322166 -24.756842124019187)" font-family="Helvetica Neue, Helvetica, Arial, sans-serif">PEERS_WITH</text></g><g class="relationship" transform="translate(141.18497799602932 109.96740303854857) rotate(310.3187262470167)"><path class="b-outline" fill="#A5ABB6" stroke="none" d="M 21.40063509461097,12.933012701892217 L 21.90063509461097,12.06698729810778 A 106.22172847284064 106.22172847284064 0 0 0 46.65395825769191,22.442797121304295 L 46.386992717956886,23.406503197135507 A 107.22172847284064 107.22172847284064 0 0 1 21.40063509461097,12.933012701892217 Z M 99.05263824995285,24.56800706834008 L 98.82841934151573,23.59346826403352 A 106.22172847284064 106.22172847284064 0 0 0 124.01511449052848,14.319050515529941 L 122.63111474215232,11.657369712635886 L 130.45636965534396,11.533331236467925 L 125.86044748836333,17.867958252722016 L 124.47644773998718,15.206277449827958 A 107.22172847284064 107.22172847284064 0 0 1 99.05263824995285,24.56800706834008"/><text text-anchor="middle" pointer-events="none" font-size="8px" fill="#000000" x="72.65839866205928" y="29.77205564166782" font-family="Helvetica Neue, Helvetica, Arial, sans-serif">PEERS_WITH</text></g><g class="relationship" transform="translate(239.9470994116106 -6.411762937083088) rotate(490.3187262470167)"><path class="b-outline" fill="#A5ABB6" stroke="none" d="M 25 0.5 L 46.33102226933664 0.5 L 46.33102226933664 -0.5 L 25 -0.5 Z M 99.30602074345774 0.5 L 120.63704301279438 0.5 L 120.63704301279438 3.5 L 127.63704301279438 0 L 120.63704301279438 -3.5 L 120.63704301279438 -0.5 L 99.30602074345774 -0.5 Z"/><text text-anchor="middle" pointer-events="none" font-size="8px" fill="#000000" x="72.81852150639719" y="3" transform="rotate(180 72.81852150639719 0)" font-family="Helvetica Neue, Helvetica, Arial, sans-serif">PEERS_WITH</text></g><g class="relationship" transform="translate(239.9470994116106 -6.411762937083088) rotate(490.3187262470167)"><path class="b-outline" fill="#A5ABB6" stroke="none" d="M 21.40063509461097,12.933012701892217 L 21.90063509461097,12.06698729810778 A 106.22172847284064 106.22172847284064 0 0 0 46.65395825769191,22.442797121304295 L 46.386992717956886,23.406503197135507 A 107.22172847284064 107.22172847284064 0 0 1 21.40063509461097,12.933012701892217 Z M 99.05263824995285,24.56800706834008 L 98.82841934151573,23.59346826403352 A 106.22172847284064 106.22172847284064 0 0 0 124.01511449052848,14.319050515529941 L 122.63111474215232,11.657369712635886 L 130.45636965534396,11.533331236467925 L 125.86044748836333,17.867958252722016 L 124.47644773998718,15.206277449827958 A 107.22172847284064 107.22172847284064 0 0 1 99.05263824995285,24.56800706834008"/><text text-anchor="middle" pointer-events="none" font-size="8px" fill="#000000" x="72.65839866205928" y="29.77205564166782" transform="rotate(180 72.65839866205928 26.77205564166782)" font-family="Helvetica Neue, Helvetica, Arial, sans-serif">PEERS_WITH</text></g><g class="relationship" transform="translate(104.18646933013042 17.69058409844706) rotate(305.90310538360546)"><path class="b-outline" fill="#A5ABB6" stroke="none" d="M 21.40063509461097,-12.933012701892217 L 21.90063509461097,-12.06698729810778 A 99.42667927520911 99.42667927520911 0 0 1 43.364912309058134,-21.29015015777196 L 43.08079276861804,-22.248939022298515 A 100.42667927520911 100.42667927520911 0 0 0 21.40063509461097,-12.933012701892217 Z M 95.68565075839021,-23.460046066240608 L 95.4459567229018,-22.489197587150656 A 99.42667927520911 99.42667927520911 0 0 1 117.31195154777231,-14.263615553442621 L 115.93310704199132,-11.599260504115001 L 123.7585874138336,-11.490370881508252 L 119.15041088881364,-17.816088952546114 L 117.77156638303265,-15.151733903218494 A 100.42667927520911 100.42667927520911 0 0 0 95.68565075839021,-23.460046066240608"/><text text-anchor="middle" pointer-events="none" font-size="8px" fill="#000000" x="69.3139999971242" y="-22.861164174519715" font-family="Helvetica Neue, Helvetica, Arial, sans-serif">PEERS_WITH</text></g><g class="relationship" transform="translate(189.78069325292321 -100.53970723146571) rotate(485.90310538360546)"><path class="b-outline" fill="#A5ABB6" stroke="none" d="M 25 0.5 L 42.99327384205468 0.5 L 42.99327384205468 -0.5 L 25 -0.5 Z M 95.96827231617577 0.5 L 113.96154615823045 0.5 L 113.96154615823045 3.5 L 120.96154615823045 0 L 113.96154615823045 -3.5 L 113.96154615823045 -0.5 L 95.96827231617577 -0.5 Z"/><text text-anchor="middle" pointer-events="none" font-size="8px" fill="#000000" x="69.48077307911522" y="3" transform="rotate(180 69.48077307911522 0)" font-family="Helvetica Neue, Helvetica, Arial, sans-serif">PEERS_WITH</text></g><g class="relationship" transform="translate(189.78069325292321 -100.53970723146571) rotate(485.90310538360546)"><path class="b-outline" fill="#A5ABB6" stroke="none" d="M 21.40063509461097,-12.933012701892217 L 21.90063509461097,-12.06698729810778 A 99.42667927520911 99.42667927520911 0 0 1 43.364912309058134,-21.29015015777196 L 43.08079276861804,-22.248939022298515 A 100.42667927520911 100.42667927520911 0 0 0 21.40063509461097,-12.933012701892217 Z M 95.68565075839021,-23.460046066240608 L 95.4459567229018,-22.489197587150656 A 99.42667927520911 99.42667927520911 0 0 1 117.31195154777231,-14.263615553442621 L 115.93310704199132,-11.599260504115001 L 123.7585874138336,-11.490370881508252 L 119.15041088881364,-17.816088952546114 L 117.77156638303265,-15.151733903218494 A 100.42667927520911 100.42667927520911 0 0 0 95.68565075839021,-23.460046066240608"/><text text-anchor="middle" pointer-events="none" font-size="8px" fill="#000000" x="69.3139999971242" y="-22.861164174519715" transform="rotate(180 69.3139999971242 -25.861164174519715)" font-family="Helvetica Neue, Helvetica, Arial, sans-serif">PEERS_WITH</text></g><g class="relationship" transform="translate(104.18646933013042 17.69058409844706) rotate(236.4971075621699)"><path class="b-outline" fill="#A5ABB6" stroke="none" d="M 21.40063509461097,12.933012701892217 L 21.90063509461097,12.06698729810778 A 83.65186473241177 83.65186473241177 0 0 0 35.79977534108461,18.474923450076986 L 35.46592991864166,19.417551284332845 A 84.65186473241177 84.65186473241177 0 0 1 21.40063509461097,12.933012701892217 Z M 87.86290433984075,20.760349835376346 L 87.57777964760486,19.80185940251988 A 83.65186473241177 83.65186473241177 0 0 0 101.7868969700381,14.114264986935696 L 100.42194247807417,11.442767422859038 L 108.24788370154428,11.37462076636599 L 103.60683629265667,17.676261739037905 L 102.24188180069274,15.004764174961247 A 84.65186473241177 84.65186473241177 0 0 1 87.86290433984075,20.760349835376346"/><text text-anchor="middle" pointer-events="none" font-size="8px" fill="#000000" x="61.570681272532994" y="26.746591746965507" transform="rotate(180 61.570681272532994 23.746591746965507)" font-family="Helvetica Neue, Helvetica, Arial, sans-serif">PEERS_WITH</text></g><g class="relationship" transform="translate(32.147478838906814 -91.13652100122596) rotate(416.4971075621699)"><path class="b-outline" fill="#A5ABB6" stroke="none" d="M 25 0.5 L 35.26768246403098 0.5 L 35.26768246403098 -0.5 L 25 -0.5 Z M 88.24268093815208 0.5 L 98.51036340218306 0.5 L 98.51036340218306 3.5 L 105.51036340218306 0 L 98.51036340218306 -3.5 L 98.51036340218306 -0.5 L 88.24268093815208 -0.5 Z"/><text text-anchor="middle" pointer-events="none" font-size="8px" fill="#000000" x="61.75518170109153" y="3" font-family="Helvetica Neue, Helvetica, Arial, sans-serif">PEERS_WITH</text></g><g class="relationship" transform="translate(32.147478838906814 -91.13652100122596) rotate(416.4971075621699)"><path class="b-outline" fill="#A5ABB6" stroke="none" d="M 21.40063509461097,12.933012701892217 L 21.90063509461097,12.06698729810778 A 83.65186473241177 83.65186473241177 0 0 0 35.79977534108461,18.474923450076986 L 35.46592991864166,19.417551284332845 A 84.65186473241177 84.65186473241177 0 0 1 21.40063509461097,12.933012701892217 Z M 87.86290433984075,20.760349835376346 L 87.57777964760486,19.80185940251988 A 83.65186473241177 83.65186473241177 0 0 0 101.7868969700381,14.114264986935696 L 100.42194247807417,11.442767422859038 L 108.24788370154428,11.37462076636599 L 103.60683629265667,17.676261739037905 L 102.24188180069274,15.004764174961247 A 84.65186473241177 84.65186473241177 0 0 1 87.86290433984075,20.760349835376346"/><text text-anchor="middle" pointer-events="none" font-size="8px" fill="#000000" x="61.570681272532994" y="26.746591746965507" font-family="Helvetica Neue, Helvetica, Arial, sans-serif">PEERS_WITH</text></g></g><g class="layer nodes"><g class="node" aria-label="graph-node2501" transform="translate(-177.80218612590207,143.49297144836632)"><circle class="b-outline" cx="0" cy="0" r="25" fill="#F16667" stroke="#eb2728" stroke-width="2px"/><text class="caption" text-anchor="middle" pointer-events="none" x="0" y="5" font-size="10px" fill="#FFFFFF" font-family="Helvetica Neue, Helvetica, Arial, sans-serif"> 2501</text></g><g class="node" aria-label="graph-node2907" transform="translate(-21.374683449693855,100.17020456499512)"><circle class="b-outline" cx="0" cy="0" r="25" fill="#F16667" stroke="#eb2728" stroke-width="2px"/><text class="caption" text-anchor="middle" pointer-events="none" x="0" y="5" font-size="10px" fill="#FFFFFF" font-family="Helvetica Neue, Helvetica, Arial, sans-serif"> 2907</text></g><g class="node" aria-label="graph-node1299" transform="translate(276.79594541723884,104.39815151958314)"><circle class="b-outline" cx="0" cy="0" r="25" fill="#F16667" stroke="#eb2728" stroke-width="2px"/><text class="caption" text-anchor="middle" pointer-events="none" x="0" y="5" font-size="10px" fill="#FFFFFF" font-family="Helvetica Neue, Helvetica, Arial, sans-serif"> 1299</text></g><g class="node" aria-label="graph-node3356" transform="translate(239.9470994116106,-6.411762937083088)"><circle class="b-outline" cx="0" cy="0" r="25" fill="#F16667" stroke="#eb2728" stroke-width="2px"/><text class="caption" text-anchor="middle" pointer-events="none" x="0" y="5" font-size="10px" fill="#FFFFFF" font-family="Helvetica Neue, Helvetica, Arial, sans-serif"> 3356</text></g><g class="node" aria-label="graph-node2497" transform="translate(104.18646933013042,17.69058409844706)"><circle class="b-outline" cx="0" cy="0" r="25" fill="#F16667" stroke="#eb2728" stroke-width="2px"/><text class="caption" text-anchor="middle" pointer-events="none" x="0" y="5" font-size="10px" fill="#FFFFFF" font-family="Helvetica Neue, Helvetica, Arial, sans-serif"> 2497</text></g><g class="node" aria-label="graph-node6939" transform="translate(141.18497799602932,109.96740303854857)"><circle class="b-outline" cx="0" cy="0" r="25" fill="#F16667" stroke="#eb2728" stroke-width="2px"/><text class="caption" text-anchor="middle" pointer-events="none" x="0" y="5" font-size="10px" fill="#FFFFFF" font-family="Helvetica Neue, Helvetica, Arial, sans-serif"> 6939</text></g><g class="node" aria-label="graph-node2914" transform="translate(189.78069325292321,-100.53970723146571)"><circle class="b-outline" cx="0" cy="0" r="25" fill="#F16667" stroke="#eb2728" stroke-width="2px"/><text class="caption" text-anchor="middle" pointer-events="none" x="0" y="5" font-size="10px" fill="#FFFFFF" font-family="Helvetica Neue, Helvetica, Arial, sans-serif"> 2914</text></g><g class="node" aria-label="graph-node174" transform="translate(32.147478838906814,-91.13652100122596)"><circle class="b-outline" cx="0" cy="0" r="25" fill="#F16667" stroke="#eb2728" stroke-width="2px"/><text class="caption" text-anchor="middle" pointer-events="none" x="0" y="5" font-size="10px" fill="#FFFFFF" font-family="Helvetica Neue, Helvetica, Arial, sans-serif"> 174</text></g></g></svg>