<svg xmlns="http://www.w3.org/2000/svg" width="541.3222045898438" height="426.581298828125" viewBox="-374.54229736328125 -365.4098815917969 541.3222045898438 426.581298828125"><title>Neo4j Graph Visualization</title><desc>Created using Neo4j (http://www.neo4j.com/)</desc><g class="layer relationships"><g class="relationship" transform="translate(-243.02509505737422 -88.24770782082953) rotate(494.74889357861116)"><path class="b-outline" fill="#A5ABB6" stroke="none" d="M 21.40063509461097,12.933012701892217 L 21.90063509461097,12.06698729810778 A 99.07954409401069 99.07954409401069 0 0 0 40.80667521267708,20.486478462877997 L 40.49749199822998,21.43748095493791 A 100.07954409401069 100.07954409401069 0 0 1 21.40063509461097,12.933012701892217 Z M 97.96046621406683,22.763406928400954 L 97.69547640708352,21.799155715181627 A 99.07954409401069 99.07954409401069 0 0 0 116.96973828868501,14.260653653165992 L 115.59116923399087,11.59615607173723 L 123.41666082113447,11.488075455784472 L 118.80783036161053,17.813317095071007 L 117.42926130691639,15.148819513642245 A 100.07954409401069 100.07954409401069 0 0 1 97.96046621406683,22.763406928400954"/><text text-anchor="middle" pointer-events="none" font-size="8px" fill="#000000" x="69.14327633592687" y="28.81463023413896" transform="rotate(180 69.14327633592687 25.81463023413896)" font-family="Helvetica Neue, Helvetica, Arial, sans-serif">PEERS_WITH</text></g><g class="relationship" transform="translate(-111.55189917894693 -220.9382472968331) rotate(494.735966193333)"><path class="b-outline" fill="#A5ABB6" stroke="none" d="M 17.324116139070416,-18.03122292025696 L 18.031222920256962,-17.324116139070412 A 105.07285932113597 105.07285932113597 0 0 1 61.22385396424826,-43.38961761007374 L 60.927820330999765,-44.34479512655207 A 106.07285932113597 106.07285932113597 0 0 0 17.324116139070416,-18.03122292025696 Z M 118.46080240565186,-45.82997421284874 L 118.21444487076496,-44.860795196874676 A 105.07285932113597 105.07285932113597 0 0 1 162.6943826760837,-21.05850799013331 L 160.68533593844427,-18.830564722009015 L 168.22775809131363,-16.742056146995353 L 165.37311165960296,-24.029099014299035 L 163.36406492196352,-21.80115574617474 A 106.07285932113597 106.07285932113597 0 0 0 118.46080240565186,-45.82997421284874"/><text text-anchor="middle" pointer-events="none" font-size="8px" fill="#000000" x="89.60456243671821" y="-45.56408570935426" transform="rotate(180 89.60456243671821 -48.56408570935426)" font-family="Helvetica Neue, Helvetica, Arial, sans-serif">PEERS_WITH</text></g><g class="relationship" transform="translate(-111.55189917894693 -220.9382472968331) rotate(415.09425638921584)"><path class="b-outline" fill="#A5ABB6" stroke="none" d="M 17.324116139070416,-18.03122292025696 L 18.031222920256962,-17.324116139070412 A 91.37765365936119 91.37765365936119 0 0 1 51.79759636588412,-38.72381246779143 L 51.46001508785288,-39.665108850830705 A 92.37765365936119 92.37765365936119 0 0 0 17.324116139070416,-18.03122292025696 Z M 108.79606452827093,-41.309182357351844 L 108.51297568567058,-40.35008866683188 A 91.37765365936119 91.37765365936119 0 0 1 143.45010431609822,-20.920420072334856 L 141.4538244683667,-18.6810302515263 L 149.00806053927346,-16.635665397762722 L 146.11181077974027,-23.90627316674627 L 144.11553093200874,-21.666883345937713 A 92.37765365936119 92.37765365936119 0 0 0 108.79606452827093,-41.309182357351844"/><text text-anchor="middle" pointer-events="none" font-size="8px" fill="#000000" x="80.01153259494208" y="-41.55026279751806" font-family="Helvetica Neue, Helvetica, Arial, sans-serif">PEERS_WITH</text></g><g class="relationship" transform="translate(-15.606620534429673 -83.4332929081155) rotate(235.09425638921584)"><path class="b-outline" fill="#A5ABB6" stroke="none" d="M 24.018736134675446,6.953439040707552 L 24.277555179777966,5.987513214418485 A 225.51441787759128 225.51441787759128 0 0 0 51.46323436870953,11.505586381818148 L 51.32496495162985,12.495981034620968 A 226.51441787759128 226.51441787759128 0 0 1 24.018736134675446,6.953439040707552 Z M 109.29854519222683,13.09812510643863 L 109.18087690439658,12.105072150127086 A 225.51441787759128 225.51441787759128 0 0 0 136.47530599976764,7.152858018847576 L 135.75920556102835,4.239578052617524 L 143.39230932742765,5.967503656160874 L 137.4301065847534,11.037231307154313 L 136.7140061460141,8.123951340924261 A 226.51441787759128 226.51441787759128 0 0 1 109.29854519222683,13.09812510643863"/><text text-anchor="middle" pointer-events="none" font-size="8px" fill="#000000" x="80.29760356204702" y="17.159540441954903" transform="rotate(180 80.29760356204702 14.159540441954903)" font-family="Helvetica Neue, Helvetica, Arial, sans-serif">PEERS_WITH</text></g><g class="relationship" transform="translate(-15.606620534429673 -83.4332929081155) rotate(235.09425638921584)"><path class="b-outline" fill="#A5ABB6" stroke="none" d="M 24.018736134675446,-6.953439040707552 L 24.277555179777966,-5.987513214418485 A 225.51441787759128 225.51441787759128 0 0 1 51.46323436870958,-11.505586381818148 L 51.3249649516299,-12.495981034620968 A 226.51441787759128 226.51441787759128 0 0 0 24.018736134675446,-6.953439040707552 Z M 109.2985451922268,-13.098125106438658 L 109.18087690439656,-12.105072150127114 A 225.51441787759128 225.51441787759128 0 0 1 136.47530599976764,-7.152858018847576 L 135.75920556102835,-4.239578052617524 L 143.39230932742765,-5.967503656160874 L 137.4301065847534,-11.037231307154313 L 136.7140061460141,-8.123951340924261 A 226.51441787759128 226.51441787759128 0 0 0 109.2985451922268,-13.098125106438658"/><text text-anchor="middle" pointer-events="none" font-size="8px" fill="#000000" x="80.29760356204703" y="-11.159540441954903" transform="rotate(180 80.29760356204703 -14.159540441954903)" font-family="Helvetica Neue, Helvetica, Arial, sans-serif">PEERS_WITH</text></g><g class="relationship" transform="translate(-15.606620534429673 -83.4332929081155) rotate(235.09425638921584)"><path class="b-outline" fill="#A5ABB6" stroke="none" d="M 17.324116139070416,-18.03122292025696 L 18.031222920256962,-17.324116139070412 A 91.37765365936119 91.37765365936119 0 0 1 51.79759636588412,-38.72381246779143 L 51.46001508785288,-39.665108850830705 A 92.37765365936119 92.37765365936119 0 0 0 17.324116139070416,-18.03122292025696 Z M 108.79606452827093,-41.309182357351844 L 108.51297568567058,-40.35008866683188 A 91.37765365936119 91.37765365936119 0 0 1 143.45010431609822,-20.920420072334856 L 141.4538244683667,-18.6810302515263 L 149.00806053927346,-16.635665397762722 L 146.11181077974027,-23.90627316674627 L 144.11553093200874,-21.666883345937713 A 92.37765365936119 92.37765365936119 0 0 0 108.79606452827093,-41.309182357351844"/><text text-anchor="middle" pointer-events="none" font-size="8px" fill="#000000" x="80.01153259494208" y="-41.55026279751806" transform="rotate(180 80.01153259494208 -44.55026279751806)" font-family="Helvetica Neue, Helvetica, Arial, sans-serif">PEERS_WITH</text></g><g class="relationship" transform="translate(-243.02509505737422 -88.24770782082953) rotate(494.74889357861116)"><path class="b-outline" fill="#A5ABB6" stroke="none" d="M 25 0.5 L 40.30649741652043 0.5 L 40.30649741652043 -0.5 L 25 -0.5 Z M 98.31430991652043 0.5 L 113.62080733304086 0.5 L 113.62080733304086 3.5 L 120.62080733304086 0 L 113.62080733304086 -3.5 L 113.62080733304086 -0.5 L 98.31430991652043 -0.5 Z"/><text text-anchor="middle" pointer-events="none" font-size="8px" fill="#000000" x="69.31040366652043" y="3" transform="rotate(180 69.31040366652043 0)" font-family="Helvetica Neue, Helvetica, Arial, sans-serif">PEERS_WITH</text></g><g class="relationship" transform="translate(-243.02509505737422 -88.24770782082953) rotate(494.74889357861116)"><path class="b-outline" fill="#A5ABB6" stroke="none" d="M 21.40063509461097,-12.933012701892217 L 21.90063509461097,-12.06698729810778 A 99.07954409401069 99.07954409401069 0 0 1 40.80667521267709,-20.486478462877997 L 40.49749199822999,-21.43748095493791 A 100.07954409401069 100.07954409401069 0 0 0 21.40063509461097,-12.933012701892217 Z M 97.96046621406686,-22.76340692840094 L 97.69547640708355,-21.799155715181612 A 99.07954409401069 99.07954409401069 0 0 1 116.96973828868501,-14.260653653165992 L 115.59116923399087,-11.59615607173723 L 123.41666082113447,-11.488075455784472 L 118.80783036161053,-17.813317095071007 L 117.42926130691639,-15.148819513642245 A 100.07954409401069 100.07954409401069 0 0 0 97.96046621406686,-22.76340692840094"/><text text-anchor="middle" pointer-events="none" font-size="8px" fill="#000000" x="69.1432763359269" y="-22.81463023413896" transform="rotate(180 69.1432763359269 -25.81463023413896)" font-family="Helvetica Neue, Helvetica, Arial, sans-serif">PEERS_WITH</text></g><g class="relationship" transform="translate(-111.55189917894693 -220.9382472968331) rotate(494.735966193333)"><path class="b-outline" fill="#A5ABB6" stroke="none" d="M 24.018736134675446,-6.953439040707552 L 24.277555179777966,-5.987513214418485 A 262.93041556566425 262.93041556566425 0 0 1 60.99372217849294,-13.072754350726825 L 60.87454527756657,-14.065627387064126 A 263.93041556566425 263.93041556566425 0 0 0 24.018736134675446,-6.953439040707552 Z M 118.87256964729008,-14.608505215338994 L 118.77199914151677,-13.613575281439864 A 262.93041556566425 262.93041556566425 0 0 1 155.61436102098386,-7.2168626742053785 L 154.8922832048445,-4.305058486517034 L 162.52891709494656,-6.017315134494876 L 156.57713144250306,-11.099268257789838 L 155.85505362636368,-8.187464070101493 A 263.93041556566425 263.93041556566425 0 0 0 118.87256964729008,-14.608505215338994"/><text text-anchor="middle" pointer-events="none" font-size="8px" fill="#000000" x="89.86327946053265" y="-12.435110416046939" transform="rotate(180 89.86327946053265 -15.435110416046939)" font-family="Helvetica Neue, Helvetica, Arial, sans-serif">PEERS_WITH</text></g><g class="relationship" transform="translate(-111.55189917894693 -220.9382472968331) rotate(494.735966193333)"><path class="b-outline" fill="#A5ABB6" stroke="none" d="M 24.018736134675446,6.953439040707552 L 24.277555179777966,5.987513214418485 A 262.93041556566425 262.93041556566425 0 0 0 60.99372217849297,13.072754350726882 L 60.8745452775666,14.065627387064126 A 263.93041556566425 263.93041556566425 0 0 1 24.018736134675446,6.953439040707552 Z M 118.8725696472901,14.608505215338994 L 118.7719991415168,13.613575281439864 A 262.93041556566425 262.93041556566425 0 0 0 155.61436102098386,7.2168626742053785 L 154.8922832048445,4.305058486517034 L 162.52891709494656,6.017315134494876 L 156.57713144250306,11.099268257789838 L 155.85505362636368,8.187464070101493 A 263.93041556566425 263.93041556566425 0 0 1 118.8725696472901,14.608505215338994"/><text text-anchor="middle" pointer-events="none" font-size="8px" fill="#000000" x="89.86327946053268" y="18.43511041604694" transform="rotate(180 89.86327946053268 15.435110416046939)" font-family="Helvetica Neue, Helvetica, Arial, sans-serif">PEERS_WITH</text></g><g class="relationship" transform="translate(-243.02509505737422 -88.24770782082953) rotate(314.735966193333)"><path class="b-outline" fill="#A5ABB6" stroke="none" d="M 17.324116139070416,-18.03122292025696 L 18.031222920256962,-17.324116139070412 A 105.07285932113597 105.07285932113597 0 0 1 61.22385396424826,-43.38961761007374 L 60.927820330999765,-44.34479512655207 A 106.07285932113597 106.07285932113597 0 0 0 17.324116139070416,-18.03122292025696 Z M 118.46080240565186,-45.82997421284874 L 118.21444487076496,-44.860795196874676 A 105.07285932113597 105.07285932113597 0 0 1 162.6943826760837,-21.05850799013331 L 160.68533593844427,-18.830564722009015 L 168.22775809131363,-16.742056146995353 L 165.37311165960296,-24.029099014299035 L 163.36406492196352,-21.80115574617474 A 106.07285932113597 106.07285932113597 0 0 0 118.46080240565186,-45.82997421284874"/><text text-anchor="middle" pointer-events="none" font-size="8px" fill="#000000" x="89.60456243671821" y="-45.56408570935426" font-family="Helvetica Neue, Helvetica, Arial, sans-serif">PEERS_WITH</text></g><g class="relationship" transform="translate(70.53963294798058 32.1713932695524) rotate(201.00842093925212)"><path class="b-outline" fill="#A5ABB6" stroke="none" d="M 24.018736134675446,6.953439040707552 L 24.277555179777966,5.987513214418485 A 552.7979037300946 552.7979037300946 0 0 0 135.46937326945607,23.90345324019779 L 135.41169792866103,24.901788632270154 A 553.7979037300946 553.7979037300946 0 0 1 24.018736134675446,6.953439040707552 Z M 193.44453270186486,25.208629075045565 L 193.39741740625206,24.209739617237915 A 552.7979037300946 552.7979037300946 0 0 0 304.77246939987896,7.470590579359965 L 304.02669800106537,4.564764531450071 L 311.67702541147094,6.214761656779922 L 305.7668312649637,11.34502530990649 L 305.0210598661501,8.439199261996595 A 553.7979037300946 553.7979037300946 0 0 1 193.44453270186486,25.208629075045565"/><text text-anchor="middle" pointer-events="none" font-size="8px" fill="#000000" x="164.42673688867902" y="28.315911130932363" transform="rotate(180 164.42673688867902 25.315911130932363)" font-family="Helvetica Neue, Helvetica, Arial, sans-serif">PEERS_WITH</text></g><g class="relationship" transform="translate(70.53963294798058 32.1713932695524) rotate(233.30727251628542)"><path class="b-outline" fill="#A5ABB6" stroke="none" d="M 17.324116139070416,18.03122292025696 L 18.031222920256962,17.324116139070412 A 74.48819841488019 74.48819841488019 0 0 0 40.33170898933213,32.66856952229057 L 39.923985017015085,33.581674753026874 A 75.48819841488019 75.48819841488019 0 0 1 17.324116139070416,18.03122292025696 Z M 96.84212580069489,35.47093683924254 L 96.4958492540055,34.53280435754665 A 74.48819841488019 74.48819841488019 0 0 0 119.76477437966862,20.70091901811745 L 117.78879258848814,18.44359849127082 L 125.3611859075075,16.46651492650408 L 122.39941676790927,23.71067972057962 L 120.42343497672879,21.45335919373299 A 75.48819841488019 75.48819841488019 0 0 1 96.84212580069489,35.47093683924254"/><text text-anchor="middle" pointer-events="none" font-size="8px" fill="#000000" x="68.2146485629481" y="42.59992932047268" transform="rotate(180 68.2146485629481 39.59992932047268)" font-family="Helvetica Neue, Helvetica, Arial, sans-serif">PEERS_WITH</text></g><g class="relationship" transform="translate(-15.606620534429673 -83.4332929081155) rotate(413.3072725162854)"><path class="b-outline" fill="#A5ABB6" stroke="none" d="M 24.018736134675446,-6.953439040707552 L 24.277555179777966,-5.987513214418485 A 179.3715680375085 179.3715680375085 0 0 1 39.78129663297148,-9.414184033637724 L 39.6089112496963,-10.399213616763575 A 180.3715680375085 180.3715680375085 0 0 0 24.018736134675446,-6.953439040707552 Z M 97.52205268604314,-11.09437439173172 L 97.37336118305261,-10.105490760085189 A 179.3715680375085 179.3715680375085 0 0 1 112.95488787270229,-7.051952161918478 L 112.24821141560494,-4.136371879198702 L 119.875687941898,-5.88897047581128 L 113.8971231488321,-10.93939253887818 L 113.19044669173475,-8.023812256158402 A 180.3715680375085 180.3715680375085 0 0 0 97.52205268604314,-11.09437439173172"/><text text-anchor="middle" pointer-events="none" font-size="8px" fill="#000000" x="68.54339911372523" y="-9.586494259841544" font-family="Helvetica Neue, Helvetica, Arial, sans-serif">PEERS_WITH</text></g><g class="relationship" transform="translate(-15.606620534429673 -83.4332929081155) rotate(413.3072725162854)"><path class="b-outline" fill="#A5ABB6" stroke="none" d="M 24.018736134675446,6.953439040707552 L 24.277555179777966,5.987513214418485 A 179.3715680375085 179.3715680375085 0 0 0 39.78129663297151,9.414184033637724 L 39.608911249696334,10.399213616763575 A 180.3715680375085 180.3715680375085 0 0 1 24.018736134675446,6.953439040707552 Z M 97.52205268604317,11.09437439173172 L 97.37336118305264,10.105490760085189 A 179.3715680375085 179.3715680375085 0 0 0 112.95488787270229,7.051952161918478 L 112.24821141560494,4.136371879198702 L 119.875687941898,5.88897047581128 L 113.8971231488321,10.93939253887818 L 113.19044669173475,8.023812256158402 A 180.3715680375085 180.3715680375085 0 0 1 97.52205268604317,11.09437439173172"/><text text-anchor="middle" pointer-events="none" font-size="8px" fill="#000000" x="68.54339911372526" y="15.586494259841544" font-family="Helvetica Neue, Helvetica, Arial, sans-serif">PEERS_WITH</text></g><g class="relationship" transform="translate(-15.606620534429673 -83.4332929081155) rotate(413.3072725162854)"><path class="b-outline" fill="#A5ABB6" stroke="none" d="M 17.324116139070416,18.03122292025696 L 18.031222920256962,17.324116139070412 A 74.48819841488019 74.48819841488019 0 0 0 40.33170898933213,32.66856952229057 L 39.923985017015085,33.581674753026874 A 75.48819841488019 75.48819841488019 0 0 1 17.324116139070416,18.03122292025696 Z M 96.84212580069489,35.47093683924254 L 96.4958492540055,34.53280435754665 A 74.48819841488019 74.48819841488019 0 0 0 119.76477437966862,20.70091901811745 L 117.78879258848814,18.44359849127082 L 125.3611859075075,16.46651492650408 L 122.39941676790927,23.71067972057962 L 120.42343497672879,21.45335919373299 A 75.48819841488019 75.48819841488019 0 0 1 96.84212580069489,35.47093683924254"/><text text-anchor="middle" pointer-events="none" font-size="8px" fill="#000000" x="68.2146485629481" y="42.59992932047268" font-family="Helvetica Neue, Helvetica, Arial, sans-serif">PEERS_WITH</text></g><g class="relationship" transform="translate(70.53963294798058 32.1713932695524) rotate(201.00842093925212)"><path class="b-outline" fill="#A5ABB6" stroke="none" d="M 24.018736134675446,-6.953439040707552 L 24.277555179777966,-5.987513214418485 A 552.7979037300946 552.7979037300946 0 0 1 135.46937326945618,-23.903453240197905 L 135.4116979286611,-24.901788632270154 A 553.7979037300946 553.7979037300946 0 0 0 24.018736134675446,-6.953439040707552 Z M 193.44453270186477,-25.208629075045565 L 193.39741740625198,-24.209739617237915 A 552.7979037300946 552.7979037300946 0 0 1 304.77246939987896,-7.470590579359965 L 304.02669800106537,-4.564764531450071 L 311.67702541147094,-6.214761656779922 L 305.7668312649637,-11.34502530990649 L 305.0210598661501,-8.439199261996595 A 553.7979037300946 553.7979037300946 0 0 0 193.44453270186477,-25.208629075045565"/><text text-anchor="middle" pointer-events="none" font-size="8px" fill="#000000" x="164.42673688867905" y="-22.315911130932363" transform="rotate(180 164.42673688867905 -25.315911130932363)" font-family="Helvetica Neue, Helvetica, Arial, sans-serif">PEERS_WITH</text></g><g class="relationship" transform="translate(-111.55189917894693 -220.9382472968331) rotate(365.4446357029617)"><path class="b-outline" fill="#A5ABB6" stroke="none" d="M 17.324116139070416,18.03122292025696 L 18.031222920256962,17.324116139070412 A 125.2421094822878 125.2421094822878 0 0 0 75.22228016836183,50.014742242948955 L 74.97181738242989,50.98286847070193 A 126.2421094822878 126.2421094822878 0 0 1 17.324116139070416,18.03122292025696 Z M 132.68062930231113,52.28132853703515 L 132.47396401777164,51.30291683424015 A 125.2421094822878 125.2421094822878 0 0 0 191.07749073382323,21.217692542893662 L 189.05372915895578,19.003107008738347 L 196.58215057599688,16.864679790562143 L 193.77583950031317,24.170473255100745 L 191.75207792544572,21.95588772094543 A 126.2421094822878 126.2421094822878 0 0 1 132.68062930231113,52.28132853703515"/><text text-anchor="middle" pointer-events="none" font-size="8px" fill="#000000" x="103.76226054322541" y="57.47486374666653" font-family="Helvetica Neue, Helvetica, Arial, sans-serif">PEERS_WITH</text></g><g class="relationship" transform="translate(-111.55189917894693 -220.9382472968331) rotate(365.4446357029617)"><path class="b-outline" fill="#A5ABB6" stroke="none" d="M 24.018736134675446,6.953439040707552 L 24.277555179777966,5.987513214418485 A 318.0338317564986 318.0338317564986 0 0 0 75.08638061464268,15.259996214640466 L 74.98732075350574,16.255077690657117 A 319.0338317564986 319.0338317564986 0 0 1 24.018736134675446,6.953439040707552 Z M 133.00400343787172,16.728979686221464 L 132.92121210672303,15.732412781549954 A 318.0338317564986 318.0338317564986 0 0 0 183.87472994830907,7.2911627184881445 L 183.14571352546957,4.381087967690439 L 190.78640710397696,6.0751368569956465 L 184.84675184542837,11.17126238621842 L 184.11773542258888,8.261187635420713 A 319.0338317564986 319.0338317564986 0 0 1 133.00400343787172,16.728979686221464"/><text text-anchor="middle" pointer-events="none" font-size="8px" fill="#000000" x="103.9889509720048" y="20.313627113577695" font-family="Helvetica Neue, Helvetica, Arial, sans-serif">PEERS_WITH</text></g><g class="relationship" transform="translate(102.51495868066834 -200.53470228452238) rotate(185.4446357029617)"><path class="b-outline" fill="#A5ABB6" stroke="none" d="M 24.018736134675446,6.953439040707552 L 24.277555179777966,5.987513214418485 A 318.0338317564986 318.0338317564986 0 0 0 75.08638061464268,15.259996214640466 L 74.98732075350574,16.255077690657117 A 319.0338317564986 319.0338317564986 0 0 1 24.018736134675446,6.953439040707552 Z M 133.00400343787172,16.728979686221464 L 132.92121210672303,15.732412781549954 A 318.0338317564986 318.0338317564986 0 0 0 183.87472994830907,7.2911627184881445 L 183.14571352546957,4.381087967690439 L 190.78640710397696,6.0751368569956465 L 184.84675184542837,11.17126238621842 L 184.11773542258888,8.261187635420713 A 319.0338317564986 319.0338317564986 0 0 1 133.00400343787172,16.728979686221464"/><text text-anchor="middle" pointer-events="none" font-size="8px" fill="#000000" x="103.9889509720048" y="20.313627113577695" transform="rotate(180 103.9889509720048 17.313627113577695)" font-family="Helvetica Neue, Helvetica, Arial, sans-serif">PEERS_WITH</text></g><g class="relationship" transform="translate(102.51495868066834 -200.53470228452238) rotate(185.4446357029617)"><path class="b-outline" fill="#A5ABB6" stroke="none" d="M 17.324116139070416,18.03122292025696 L 18.031222920256962,17.324116139070412 A 125.2421094822878 125.2421094822878 0 0 0 75.22228016836183,50.014742242948955 L 74.97181738242989,50.98286847070193 A 126.2421094822878 126.2421094822878 0 0 1 17.324116139070416,18.03122292025696 Z M 132.68062930231113,52.28132853703515 L 132.47396401777164,51.30291683424015 A 125.2421094822878 125.2421094822878 0 0 0 191.07749073382323,21.217692542893662 L 189.05372915895578,19.003107008738347 L 196.58215057599688,16.864679790562143 L 193.77583950031317,24.170473255100745 L 191.75207792544572,21.95588772094543 A 126.2421094822878 126.2421094822878 0 0 1 132.68062930231113,52.28132853703515"/><text text-anchor="middle" pointer-events="none" font-size="8px" fill="#000000" x="103.76226054322541" y="57.47486374666653" transform="rotate(180 103.76226054322541 54.47486374666653)" font-family="Helvetica Neue, Helvetica, Arial, sans-serif">PEERS_WITH</text></g><g class="relationship" transform="translate(70.53963294798058 32.1713932695524) rotate(277.82381763279983)"><path class="b-outline" fill="#A5ABB6" stroke="none" d="M 17.324116139070416,18.03122292025696 L 18.031222920256962,17.324116139070412 A 139.3930468064444 139.3930468064444 0 0 0 85.09494420847172,54.545101301704264 L 84.86894981290752,55.51922990367301 A 140.3930468064444 140.3930468064444 0 0 1 17.324116139070416,18.03122292025696 Z M 142.65561576223914,56.71180231158873 L 142.47000383353145,55.729179183466144 A 139.3930468064444 139.3930468064444 0 0 0 211.012265933775,21.306762712772112 L 208.98027201737412,19.099728339748044 L 216.500678456898,16.933282636674026 L 213.72159115564287,24.249475210137536 L 211.68959723924198,22.042440837113467 A 140.3930468064444 140.3930468064444 0 0 1 142.65561576223914,56.71180231158873"/><text text-anchor="middle" pointer-events="none" font-size="8px" fill="#000000" x="113.71056320631095" y="61.621613134201354" font-family="Helvetica Neue, Helvetica, Arial, sans-serif">PEERS_WITH</text></g><g class="relationship" transform="translate(102.51495868066834 -200.53470228452238) rotate(457.82381763279983)"><path class="b-outline" fill="#A5ABB6" stroke="none" d="M 24.018736134675446,-6.953439040707552 L 24.277555179777966,-5.987513214418485 A 356.6949115008196 356.6949115008196 0 0 1 85.00098157610957,-16.739455567691607 L 84.91240164695303,-17.735524639669336 A 357.6949115008196 357.6949115008196 0 0 0 24.018736134675446,-6.953439040707552 Z M 142.9359706195198,-18.17053992652876 L 142.86233530013084,-17.17325469163427 A 356.6949115008196 356.6949115008196 0 0 1 203.74014599188024,-7.332983198513385 L 203.00722422920745,-4.423889578534714 L 210.65018473227596,-6.107681355606649 L 204.7173750087773,-11.21177469181828 L 203.98445324610452,-8.302681071839608 A 357.6949115008196 357.6949115008196 0 0 0 142.9359706195198,-18.17053992652876"/><text text-anchor="middle" pointer-events="none" font-size="8px" fill="#000000" x="113.9190990685014" y="-15.631559361194888" transform="rotate(180 113.9190990685014 -18.63155936119489)" font-family="Helvetica Neue, Helvetica, Arial, sans-serif">PEERS_WITH</text></g><g class="relationship" transform="translate(102.51495868066834 -200.53470228452238) rotate(457.82381763279983)"><path class="b-outline" fill="#A5ABB6" stroke="none" d="M 24.018736134675446,6.953439040707552 L 24.277555179777966,5.987513214418485 A 356.6949115008196 356.6949115008196 0 0 0 85.00098157610964,16.739455567691607 L 84.9124016469531,17.735524639669336 A 357.6949115008196 357.6949115008196 0 0 1 24.018736134675446,6.953439040707552 Z M 142.93597061951988,18.17053992652876 L 142.86233530013092,17.17325469163427 A 356.6949115008196 356.6949115008196 0 0 0 203.74014599188024,7.332983198513385 L 203.00722422920745,4.423889578534714 L 210.65018473227596,6.107681355606649 L 204.7173750087773,11.21177469181828 L 203.98445324610452,8.302681071839608 A 357.6949115008196 357.6949115008196 0 0 1 142.93597061951988,18.17053992652876"/><text text-anchor="middle" pointer-events="none" font-size="8px" fill="#000000" x="113.91909906850148" y="21.63155936119489" transform="rotate(180 113.91909906850148 18.63155936119489)" font-family="Helvetica Neue, Helvetica, Arial, sans-serif">PEERS_WITH</text></g><g class="relationship" transform="translate(102.51495868066834 -200.53470228452238) rotate(457.82381763279983)"><path class="b-outline" fill="#A5ABB6" stroke="none" d="M 17.324116139070416,18.03122292025696 L 18.031222920256962,17.324116139070412 A 139.3930468064444 139.3930468064444 0 0 0 85.09494420847172,54.545101301704264 L 84.86894981290752,55.51922990367301 A 140.3930468064444 140.3930468064444 0 0 1 17.324116139070416,18.03122292025696 Z M 142.65561576223914,56.71180231158873 L 142.47000383353145,55.729179183466144 A 139.3930468064444 139.3930468064444 0 0 0 211.012265933775,21.306762712772112 L 208.98027201737412,19.099728339748044 L 216.500678456898,16.933282636674026 L 213.72159115564287,24.249475210137536 L 211.68959723924198,22.042440837113467 A 140.3930468064444 140.3930468064444 0 0 1 142.65561576223914,56.71180231158873"/><text text-anchor="middle" pointer-events="none" font-size="8px" fill="#000000" x="113.71056320631095" y="61.621613134201354" transform="rotate(180 113.71056320631095 58.621613134201354)" font-family="Helvetica Neue, Helvetica, Arial, sans-serif">PEERS_WITH</text></g><g class="relationship" transform="translate(-111.55189917894693 -220.9382472968331) rotate(224.48988764407034)"><path class="b-outline" fill="#A5ABB6" stroke="none" d="M 17.324116139070416,-18.03122292025696 L 18.031222920256962,-17.324116139070412 A 89.3012984692419 89.3012984692419 0 0 1 50.37662795737029,-38.000234737379884 L 50.03172649224926,-38.93887363459082 A 90.3012984692419 90.3012984692419 0 0 0 17.324116139070416,-18.03122292025696 Z M 107.32930162811627,-40.609864286095146 L 107.03968757566271,-39.65272077510977 A 89.3012984692419 89.3012984692419 0 0 1 140.53506565415617,-20.896741603521505 L 138.54097519740947,-18.6554019928619 L 146.09720648848636,-16.617420472889155 L 143.19385292981843,-23.885194417734315 L 141.19976247307173,-21.64385480707471 A 90.3012984692419 90.3012984692419 0 0 0 107.32930162811627,-40.609864286095146"/><text text-anchor="middle" pointer-events="none" font-size="8px" fill="#000000" x="78.55898070759052" y="-40.9416971230703" transform="rotate(180 78.55898070759052 -43.9416971230703)" font-family="Helvetica Neue, Helvetica, Arial, sans-serif">PEERS_WITH</text></g><g class="relationship" transform="translate(-229.0981498924549 -336.40985256086805) rotate(404.48988764407034)"><path class="b-outline" fill="#A5ABB6" stroke="none" d="M 24.018736134675446,6.953439040707552 L 24.277555179777966,5.987513214418485 A 219.84171000362574 219.84171000362574 0 0 0 50.02208301062195,11.25971034978366 L 49.88036880349772,12.24961796340179 A 220.84171000362574 220.84171000362574 0 0 1 24.018736134675446,6.953439040707552 Z M 107.848829491492,12.861868888772221 L 107.72805496545507,11.869188923294644 A 219.84171000362574 219.84171000362574 0 0 0 133.57819505179768,7.141924028695773 L 132.86311575568533,4.228393249680136 L 140.49561341885288,5.958994134269563 L 134.5316341132808,11.026631734049957 L 133.81655481716845,8.11310095503432 A 220.84171000362574 220.84171000362574 0 0 1 107.848829491492,12.861868888772221"/><text text-anchor="middle" pointer-events="none" font-size="8px" fill="#000000" x="78.84970273329961" y="16.966149135390793" font-family="Helvetica Neue, Helvetica, Arial, sans-serif">PEERS_WITH</text></g><g class="relationship" transform="translate(-229.0981498924549 -336.40985256086805) rotate(404.48988764407034)"><path class="b-outline" fill="#A5ABB6" stroke="none" d="M 24.018736134675446,-6.953439040707552 L 24.277555179777966,-5.987513214418485 A 219.84171000362574 219.84171000362574 0 0 1 50.0220830106219,-11.259710349783632 L 49.88036880349766,-12.24961796340176 A 220.84171000362574 220.84171000362574 0 0 0 24.018736134675446,-6.953439040707552 Z M 107.84882949149187,-12.861868888772221 L 107.72805496545494,-11.869188923294644 A 219.84171000362574 219.84171000362574 0 0 1 133.57819505179768,-7.141924028695773 L 132.86311575568533,-4.228393249680136 L 140.49561341885288,-5.958994134269563 L 134.5316341132808,-11.026631734049957 L 133.81655481716845,-8.11310095503432 A 220.84171000362574 220.84171000362574 0 0 0 107.84882949149187,-12.861868888772221"/><text text-anchor="middle" pointer-events="none" font-size="8px" fill="#000000" x="78.84970273329952" y="-10.966149135390793" font-family="Helvetica Neue, Helvetica, Arial, sans-serif">PEERS_WITH</text></g><g class="relationship" transform="translate(-229.0981498924549 -336.40985256086805) rotate(404.48988764407034)"><path class="b-outline" fill="#A5ABB6" stroke="none" d="M 17.324116139070416,-18.03122292025696 L 18.031222920256962,-17.324116139070412 A 89.3012984692419 89.3012984692419 0 0 1 50.37662795737029,-38.000234737379884 L 50.03172649224926,-38.93887363459082 A 90.3012984692419 90.3012984692419 0 0 0 17.324116139070416,-18.03122292025696 Z M 107.32930162811627,-40.609864286095146 L 107.03968757566271,-39.65272077510977 A 89.3012984692419 89.3012984692419 0 0 1 140.53506565415617,-20.896741603521505 L 138.54097519740947,-18.6554019928619 L 146.09720648848636,-16.617420472889155 L 143.19385292981843,-23.885194417734315 L 141.19976247307173,-21.64385480707471 A 90.3012984692419 90.3012984692419 0 0 0 107.32930162811627,-40.609864286095146"/><text text-anchor="middle" pointer-events="none" font-size="8px" fill="#000000" x="78.55898070759052" y="-40.9416971230703" font-family="Helvetica Neue, Helvetica, Arial, sans-serif">PEERS_WITH</text></g></g><g class="layer nodes"><g class="node" aria-label="graph-node2501" transform="translate(-345.54229051879634,15.172039631246477)"><circle class="b-outline" cx="0" cy="0" r="25" fill="#F79767" stroke="#f36924" stroke-width="2px"/><text class="caption" text-anchor="middle" pointer-events="none" x="0" y="5" font-size="10px" fill="#FFFFFF" font-family="Helvetica Neue, Helvetica, Arial, sans-serif"> 2501</text></g><g class="node" aria-label="graph-node3356" transform="translate(-15.606620534429673,-83.4332929081155)"><circle class="b-outline" cx="0" cy="0" r="25" fill="#F79767" stroke="#f36924" stroke-width="2px"/><text class="caption" text-anchor="middle" pointer-events="none" x="0" y="5" font-size="10px" fill="#FFFFFF" font-family="Helvetica Neue, Helvetica, Arial, sans-serif"> 3356</text></g><g class="node" aria-label="graph-node1299" transform="translate(102.51495868066834,-200.53470228452238)"><circle class="b-outline" cx="0" cy="0" r="25" fill="#F79767" stroke="#f36924" stroke-width="2px"/><text class="caption" text-anchor="middle" pointer-events="none" x="0" y="5" font-size="10px" fill="#FFFFFF" font-family="Helvetica Neue, Helvetica, Arial, sans-serif"> 1299</text></g><g class="node" aria-label="graph-node2497" transform="translate(-111.55189917894693,-220.9382472968331)"><circle class="b-outline" cx="0" cy="0" r="25" fill="#F79767" stroke="#f36924" stroke-width="2px"/><text class="caption" text-anchor="middle" pointer-events="none" x="0" y="5" font-size="10px" fill="#FFFFFF" font-family="Helvetica Neue, Helvetica, Arial, sans-serif"> 2497</text></g><g class="node" aria-label="graph-node2907" transform="translate(-243.02509505737422,-88.24770782082953)"><circle class="b-outline" cx="0" cy="0" r="25" fill="#F79767" stroke="#f36924" stroke-width="2px"/><text class="caption" text-anchor="middle" pointer-events="none" x="0" y="5" font-size="10px" fill="#FFFFFF" font-family="Helvetica Neue, Helvetica, Arial, sans-serif"> 2907</text></g><g class="node" aria-label="graph-node2914" transform="translate(-229.0981498924549,-336.40985256086805)"><circle class="b-outline" cx="0" cy="0" r="25" fill="#F79767" stroke="#f36924" stroke-width="2px"/><text class="caption" text-anchor="middle" pointer-events="none" x="0" y="5" font-size="10px" fill="#FFFFFF" font-family="Helvetica Neue, Helvetica, Arial, sans-serif"> 2914</text></g><g class="node" aria-label="graph-node6939" transform="translate(70.53963294798058,32.1713932695524)"><circle class="b-outline" cx="0" cy="0" r="25" fill="#F79767" stroke="#f36924" stroke-width="2px"/><text class="caption" text-anchor="middle" pointer-events="none" x="0" y="5" font-size="10px" fill="#FFFFFF" font-family="Helvetica Neue, Helvetica, Arial, sans-serif"> 6939</text></g></g></svg>