<svg xmlns="http://www.w3.org/2000/svg" width="410.3612976074219" height="530.1873779296875" viewBox="-191.70086669921875 -215.1715087890625 410.3612976074219 530.1873779296875"><title>Neo4j Graph Visualization</title><desc>Created using Neo4j (http://www.neo4j.com/)</desc><g class="layer relationships"><g class="relationship" transform="translate(44.74054487290995 -41.8451848139412) rotate(374.45555006604934)"><path class="b-outline" fill="#A5ABB6" stroke="none" d="M 25 0.5 L 40.987095786665876 0.5 L 40.987095786665876 -0.5 L 25 -0.5 Z M 101.67068953666588 0.5 L 117.65778532333175 0.5 L 117.65778532333175 3.5 L 124.65778532333175 0 L 117.65778532333175 -3.5 L 117.65778532333175 -0.5 L 101.67068953666588 -0.5 Z"/><text text-anchor="middle" pointer-events="none" font-size="8px" fill="#000000" x="71.32889266166588" y="3" font-family="Helvetica Neue, Helvetica, Arial, sans-serif">EXTERNAL_ID</text></g><g class="relationship" transform="translate(44.74054487290995 -41.8451848139412) rotate(335.49634583605507)"><path class="b-outline" fill="#A5ABB6" stroke="none" d="M 25 0.5 L 43.46041705409641 0.5 L 43.46041705409641 -0.5 L 25 -0.5 Z M 99.10104205409641 0.5 L 117.56145910819282 0.5 L 117.56145910819282 3.5 L 124.56145910819282 0 L 117.56145910819282 -3.5 L 117.56145910819282 -0.5 L 99.10104205409641 -0.5 Z"/><text text-anchor="middle" pointer-events="none" font-size="8px" fill="#000000" x="71.28072955409641" y="3" font-family="Helvetica Neue, Helvetica, Arial, sans-serif">LOCATED_IN</text></g><g class="relationship" transform="translate(44.74054487290995 -41.8451848139412) rotate(294.3017094596578)"><path class="b-outline" fill="#A5ABB6" stroke="none" d="M 25 0.5 L 40.39162468548341 0.5 L 40.39162468548341 -0.5 L 25 -0.5 Z M 101.96193718548341 0.5 L 117.35356187096681 0.5 L 117.35356187096681 3.5 L 124.35356187096681 0 L 117.35356187096681 -3.5 L 117.35356187096681 -0.5 L 101.96193718548341 -0.5 Z"/><text text-anchor="middle" pointer-events="none" font-size="8px" fill="#000000" x="71.17678093548341" y="3" font-family="Helvetica Neue, Helvetica, Arial, sans-serif">MANAGED_BY</text></g><g class="relationship" transform="translate(44.74054487290995 -41.8451848139412) rotate(468.45446088489047)"><path class="b-outline" fill="#A5ABB6" stroke="none" d="M 25 0.5 L 62.49676173188492 0.5 L 62.49676173188492 -0.5 L 25 -0.5 Z M 119.16863673188492 0.5 L 156.66539846376983 0.5 L 156.66539846376983 3.5 L 163.66539846376983 0 L 156.66539846376983 -3.5 L 156.66539846376983 -0.5 L 119.16863673188492 -0.5 Z"/><text text-anchor="middle" pointer-events="none" font-size="8px" fill="#000000" x="90.83269923188492" y="3" transform="rotate(180 90.83269923188492 0)" font-family="Helvetica Neue, Helvetica, Arial, sans-serif">MEMBER_OF</text></g><g class="relationship" transform="translate(44.74054487290995 -41.8451848139412) rotate(253.99266064616654)"><path class="b-outline" fill="#A5ABB6" stroke="none" d="M 25 0.5 L 57.01741771035525 0.5 L 57.01741771035525 -0.5 L 25 -0.5 Z M 86.13069896035525 0.5 L 118.1481166707105 0.5 L 118.1481166707105 3.5 L 125.1481166707105 0 L 118.1481166707105 -3.5 L 118.1481166707105 -0.5 L 86.13069896035525 -0.5 Z"/><text text-anchor="middle" pointer-events="none" font-size="8px" fill="#000000" x="71.57405833535525" y="3" transform="rotate(180 71.57405833535525 0)" font-family="Helvetica Neue, Helvetica, Arial, sans-serif">NAME</text></g><g class="relationship" transform="translate(44.74054487290995 -41.8451848139412) rotate(212.3909675988806)"><path class="b-outline" fill="#A5ABB6" stroke="none" d="M 25 0.5 L 50.89637500040604 0.5 L 50.89637500040604 -0.5 L 25 -0.5 Z M 92.90028125040604 0.5 L 118.79665625081208 0.5 L 118.79665625081208 3.5 L 125.79665625081208 0 L 118.79665625081208 -3.5 L 118.79665625081208 -0.5 L 92.90028125040604 -0.5 Z"/><text text-anchor="middle" pointer-events="none" font-size="8px" fill="#000000" x="71.89832812540604" y="3" transform="rotate(180 71.89832812540604 0)" font-family="Helvetica Neue, Helvetica, Arial, sans-serif">WEBSITE</text></g><g class="relationship" transform="translate(97.56829680776758 237.58618923542542) rotate(221.75377640107)"><path class="b-outline" fill="#A5ABB6" stroke="none" d="M 25 0.5 L 41.14909601781277 0.5 L 41.14909601781277 -0.5 L 25 -0.5 Z M 102.71940851781277 0.5 L 118.86850453562553 0.5 L 118.86850453562553 3.5 L 125.86850453562553 0 L 118.86850453562553 -3.5 L 118.86850453562553 -0.5 L 102.71940851781277 -0.5 Z"/><text text-anchor="middle" pointer-events="none" font-size="8px" fill="#000000" x="71.93425226781277" y="3" transform="rotate(180 71.93425226781277 0)" font-family="Helvetica Neue, Helvetica, Arial, sans-serif">MANAGED_BY</text></g><g class="relationship" transform="translate(-14.98164200129496 137.11819963230687) rotate(362.88029551164357)"><path class="b-outline" fill="#A5ABB6" stroke="none" d="M 25 0.5 L 48.176806608586105 0.5 L 48.176806608586105 -0.5 L 25 -0.5 Z M 93.5869628585861 0.5 L 116.76376946717221 0.5 L 116.76376946717221 3.5 L 123.76376946717221 0 L 116.76376946717221 -3.5 L 116.76376946717221 -0.5 L 93.5869628585861 -0.5 Z"/><text text-anchor="middle" pointer-events="none" font-size="8px" fill="#000000" x="70.8818847335861" y="3" font-family="Helvetica Neue, Helvetica, Arial, sans-serif">COUNTRY</text></g><g class="relationship" transform="translate(-14.98164200129496 137.11819963230687) rotate(233.77386708563898)"><path class="b-outline" fill="#A5ABB6" stroke="none" d="M 25 0.5 L 40.022056917290755 0.5 L 40.022056917290755 -0.5 L 25 -0.5 Z M 100.70565066729075 0.5 L 115.72770758458151 0.5 L 115.72770758458151 3.5 L 122.72770758458151 0 L 115.72770758458151 -3.5 L 115.72770758458151 -0.5 L 100.70565066729075 -0.5 Z"/><text text-anchor="middle" pointer-events="none" font-size="8px" fill="#000000" x="70.36385379229075" y="3" transform="rotate(180 70.36385379229075 0)" font-family="Helvetica Neue, Helvetica, Arial, sans-serif">EXTERNAL_ID</text></g><g class="relationship" transform="translate(-14.98164200129496 137.11819963230687) rotate(195.1235215671495)"><path class="b-outline" fill="#A5ABB6" stroke="none" d="M 25 0.5 L 45.18916072390121 0.5 L 45.18916072390121 -0.5 L 25 -0.5 Z M 100.82978572390121 0.5 L 121.01894644780242 0.5 L 121.01894644780242 3.5 L 128.01894644780242 0 L 121.01894644780242 -3.5 L 121.01894644780242 -0.5 L 100.82978572390121 -0.5 Z"/><text text-anchor="middle" pointer-events="none" font-size="8px" fill="#000000" x="73.00947322390121" y="3" transform="rotate(180 73.00947322390121 0)" font-family="Helvetica Neue, Helvetica, Arial, sans-serif">LOCATED_IN</text></g><g class="relationship" transform="translate(-14.98164200129496 137.11819963230687) rotate(517.0685379648969)"><path class="b-outline" fill="#A5ABB6" stroke="none" d="M 25 0.5 L 41.986650352254884 0.5 L 41.986650352254884 -0.5 L 25 -0.5 Z M 103.55696285225488 0.5 L 120.54361320450977 0.5 L 120.54361320450977 3.5 L 127.54361320450977 0 L 120.54361320450977 -3.5 L 120.54361320450977 -0.5 L 103.55696285225488 -0.5 Z"/><text text-anchor="middle" pointer-events="none" font-size="8px" fill="#000000" x="72.77180660225488" y="3" transform="rotate(180 72.77180660225488 0)" font-family="Helvetica Neue, Helvetica, Arial, sans-serif">MANAGED_BY</text></g><g class="relationship" transform="translate(-14.98164200129496 137.11819963230687) rotate(478.798466735645)"><path class="b-outline" fill="#A5ABB6" stroke="none" d="M 25 0.5 L 57.67722169231395 0.5 L 57.67722169231395 -0.5 L 25 -0.5 Z M 86.79050294231395 0.5 L 119.4677246346279 0.5 L 119.4677246346279 3.5 L 126.4677246346279 0 L 119.4677246346279 -3.5 L 119.4677246346279 -0.5 L 86.79050294231395 -0.5 Z"/><text text-anchor="middle" pointer-events="none" font-size="8px" fill="#000000" x="72.23386231731395" y="3" transform="rotate(180 72.23386231731395 0)" font-family="Helvetica Neue, Helvetica, Arial, sans-serif">NAME</text></g><g class="relationship" transform="translate(-14.98164200129496 137.11819963230687) rotate(440.30082095431624)"><path class="b-outline" fill="#A5ABB6" stroke="none" d="M 25 0.5 L 51.02648531212748 0.5 L 51.02648531212748 -0.5 L 25 -0.5 Z M 93.03039156212748 0.5 L 119.05687687425495 0.5 L 119.05687687425495 3.5 L 126.05687687425495 0 L 119.05687687425495 -3.5 L 119.05687687425495 -0.5 L 93.03039156212748 -0.5 Z"/><text text-anchor="middle" pointer-events="none" font-size="8px" fill="#000000" x="72.02843843712748" y="3" font-family="Helvetica Neue, Helvetica, Arial, sans-serif">WEBSITE</text></g></g><g class="layer nodes"><g class="node" aria-label="graph-node348" transform="translate(44.74054487290995,-41.8451848139412)"><circle class="b-outline" cx="0" cy="0" r="25" fill="#FFC454" stroke="#d7a013" stroke-width="2px"/><text class="caption" text-anchor="middle" pointer-events="none" x="0" y="5" font-size="10px" fill="#2A2C34" font-family="Helvetica Neue, Helvetica, Arial, sans-serif"> 2497</text></g><g class="node" aria-label="graph-node383618" transform="translate(-14.98164200129496,137.11819963230687)"><circle class="b-outline" cx="0" cy="0" r="25" fill="#8DCC93" stroke="#5db665" stroke-width="2px"/><text class="caption" text-anchor="middle" pointer-events="none" x="0" y="0" font-size="10px" fill="#2A2C34" font-family="Helvetica Neue, Helvetica, Arial, sans-serif"> DE-CIX</text><text class="caption" text-anchor="middle" pointer-events="none" x="0" y="10" font-size="10px" fill="#2A2C34" font-family="Helvetica Neue, Helvetica, Arial, sans-serif"> Frankf…</text></g><g class="node" aria-label="graph-node385897" transform="translate(97.56829680776758,237.58618923542542)"><circle class="b-outline" cx="0" cy="0" r="25" fill="#C990C0" stroke="#b261a5" stroke-width="2px"/><text class="caption" text-anchor="middle" pointer-events="none" x="0" y="5" font-size="10px" fill="#FFFFFF" font-family="Helvetica Neue, Helvetica, Arial, sans-serif"> 4</text></g><g class="node" aria-label="graph-node402376" transform="translate(189.66040315429902,-4.486285156877386)"><circle class="b-outline" cx="0" cy="0" r="25" fill="#A5ABB6" stroke="#9AA1AC" stroke-width="2px"/><text class="caption" text-anchor="middle" pointer-events="none" x="0" y="5" font-size="10px" fill="#FFFFFF" font-family="Helvetica Neue, Helvetica, Arial, sans-serif"> 690</text></g><g class="node" aria-label="graph-node366771" transform="translate(180.83172440328593,-103.87599090738644)"><circle class="b-outline" cx="0" cy="0" r="25" fill="#F16667" stroke="#eb2728" stroke-width="2px"/><text class="caption" text-anchor="middle" pointer-events="none" x="0" y="-5" font-size="10px" fill="#FFFFFF" font-family="Helvetica Neue, Helvetica, Arial, sans-serif"> IIJ</text><text class="caption" text-anchor="middle" pointer-events="none" x="0" y="5" font-size="10px" fill="#FFFFFF" font-family="Helvetica Neue, Helvetica, Arial, sans-serif"> Ikebukuro</text><text class="caption" text-anchor="middle" pointer-events="none" x="0" y="15" font-size="10px" fill="#FFFFFF" font-family="Helvetica Neue, Helvetica, Arial, sans-serif"> DC</text></g><g class="node" aria-label="graph-node297831" transform="translate(106.20574133923576,-177.96467668377105)"><circle class="b-outline" cx="0" cy="0" r="25" fill="#F79767" stroke="#f36924" stroke-width="2px"/><text class="caption" text-anchor="middle" pointer-events="none" x="0" y="0" font-size="10px" fill="#FFFFFF" font-family="Helvetica Neue, Helvetica, Arial, sans-serif"> Internet</text><text class="caption" text-anchor="middle" pointer-events="none" x="0" y="10" font-size="10px" fill="#FFFFFF" font-family="Helvetica Neue, Helvetica, Arial, sans-serif"> Initiative</text></g><g class="node" aria-label="graph-node395449" transform="translate(3.335627063562072,-186.17151547111004)"><circle class="b-outline" cx="0" cy="0" r="25" fill="#DA7194" stroke="#cc3c6c" stroke-width="2px"/><text class="caption" text-anchor="middle" pointer-events="none" x="0" y="0" font-size="10px" fill="#FFFFFF" font-family="Helvetica Neue, Helvetica, Arial, sans-serif"> Internet</text><text class="caption" text-anchor="middle" pointer-events="none" x="0" y="10" font-size="10px" fill="#FFFFFF" font-family="Helvetica Neue, Helvetica, Arial, sans-serif"> Initiative</text></g><g class="node" aria-label="graph-node398140" transform="translate(-82.59401935719667,-122.62600115516439)"><circle class="b-outline" cx="0" cy="0" r="25" fill="#8DCC93" stroke="#5db665" stroke-width="2px"/><text class="caption" text-anchor="middle" pointer-events="none" x="0" y="5" font-size="10px" fill="#2A2C34" font-family="Helvetica Neue, Helvetica, Arial, sans-serif"> http://ww…</text></g><g class="node" aria-label="graph-node7" transform="translate(133.59419381657185,144.59350010146852)"><circle class="b-outline" cx="0" cy="0" r="25" fill="#57C7E3" stroke="#23b3d7" stroke-width="2px"/><text class="caption" text-anchor="middle" pointer-events="none" x="0" y="5" font-size="10px" fill="#2A2C34" font-family="Helvetica Neue, Helvetica, Arial, sans-serif"> DE</text></g><g class="node" aria-label="graph-node382251" transform="translate(-102.28482679375263,17.947609664439334)"><circle class="b-outline" cx="0" cy="0" r="25" fill="#A5ABB6" stroke="#9AA1AC" stroke-width="2px"/><text class="caption" text-anchor="middle" pointer-events="none" x="0" y="5" font-size="10px" fill="#FFFFFF" font-family="Helvetica Neue, Helvetica, Arial, sans-serif"> 31</text></g><g class="node" aria-label="graph-node369660" transform="translate(-162.7008698036437,97.19542781629661)"><circle class="b-outline" cx="0" cy="0" r="25" fill="#F16667" stroke="#eb2728" stroke-width="2px"/><text class="caption" text-anchor="middle" pointer-events="none" x="0" y="-5" font-size="10px" fill="#FFFFFF" font-family="Helvetica Neue, Helvetica, Arial, sans-serif"> Global</text><text class="caption" text-anchor="middle" pointer-events="none" x="0" y="5" font-size="10px" fill="#FFFFFF" font-family="Helvetica Neue, Helvetica, Arial, sans-serif"> Switch</text><text class="caption" text-anchor="middle" pointer-events="none" x="0" y="15" font-size="10px" fill="#FFFFFF" font-family="Helvetica Neue, Helvetica, Arial, sans-serif"> Frank</text></g><g class="node" aria-label="graph-node303819" transform="translate(-155.4699763750706,196.5537263345184)"><circle class="b-outline" cx="0" cy="0" r="25" fill="#F79767" stroke="#f36924" stroke-width="2px"/><text class="caption" text-anchor="middle" pointer-events="none" x="0" y="0" font-size="10px" fill="#FFFFFF" font-family="Helvetica Neue, Helvetica, Arial, sans-serif"> DE-CIX</text><text class="caption" text-anchor="middle" pointer-events="none" x="0" y="10" font-size="10px" fill="#FFFFFF" font-family="Helvetica Neue, Helvetica, Arial, sans-serif">AG…</text></g><g class="node" aria-label="graph-node385504" transform="translate(-87.94822284475299,269.85233121121377)"><circle class="b-outline" cx="0" cy="0" r="25" fill="#DA7194" stroke="#cc3c6c" stroke-width="2px"/><text class="caption" text-anchor="middle" pointer-events="none" x="0" y="0" font-size="10px" fill="#FFFFFF" font-family="Helvetica Neue, Helvetica, Arial, sans-serif"> DE-CIX</text><text class="caption" text-anchor="middle" pointer-events="none" x="0" y="10" font-size="10px" fill="#FFFFFF" font-family="Helvetica Neue, Helvetica, Arial, sans-serif"> Frankf…</text></g><g class="node" aria-label="graph-node384653" transform="translate(10.467704006344858,286.0158518595574)"><circle class="b-outline" cx="0" cy="0" r="25" fill="#8DCC93" stroke="#5db665" stroke-width="2px"/><text class="caption" text-anchor="middle" pointer-events="none" x="0" y="5" font-size="10px" fill="#2A2C34" font-family="Helvetica Neue, Helvetica, Arial, sans-serif"> https://w…</text></g></g></svg>