<svg xmlns="http://www.w3.org/2000/svg" width="506.03082275390625" height="468.290283203125" viewBox="-257.3963623046875 -170.70433044433594 506.03082275390625 468.290283203125"><title>Neo4j Graph Visualization</title><desc>Created using Neo4j (http://www.neo4j.com/)</desc><g class="layer relationships"><g class="relationship" transform="translate(-30.084523002257917 64.71658906143567) rotate(389.01573077218455)"><path class="b-outline" fill="#A5ABB6" stroke="none" d="M 25 0.5 L 102.16971030030476 0.5 L 102.16971030030476 -0.5 L 25 -0.5 Z M 144.32596030030476 0.5 L 221.49567060060951 0.5 L 221.49567060060951 3.5 L 228.49567060060951 0 L 221.49567060060951 -3.5 L 221.49567060060951 -0.5 L 144.32596030030476 -0.5 Z"/><text text-anchor="middle" pointer-events="none" font-size="8px" fill="#000000" x="123.24783530030476" y="3" font-family="Helvetica Neue, Helvetica, Arial, sans-serif">PART_OF</text></g><g class="relationship" transform="translate(-30.084523002257917 64.71658906143567) rotate(376.0388324555768)"><path class="b-outline" fill="#A5ABB6" stroke="none" d="M 25 0.5 L 101.30128639568517 0.5 L 101.30128639568517 -0.5 L 25 -0.5 Z M 143.45753639568517 0.5 L 219.75882279137033 0.5 L 219.75882279137033 3.5 L 226.75882279137033 0 L 219.75882279137033 -3.5 L 219.75882279137033 -0.5 L 143.45753639568517 -0.5 Z"/><text text-anchor="middle" pointer-events="none" font-size="8px" fill="#000000" x="122.37941139568517" y="3" font-family="Helvetica Neue, Helvetica, Arial, sans-serif">PART_OF</text></g><g class="relationship" transform="translate(159.8157319884931 -98.26842038168658) rotate(499.3616158667783)"><path class="b-outline" fill="#A5ABB6" stroke="none" d="M 25 0.5 L 100.54803148689017 0.5 L 100.54803148689017 -0.5 L 25 -0.5 Z M 142.70428148689018 0.5 L 218.25231297378033 0.5 L 218.25231297378033 3.5 L 225.25231297378033 0 L 218.25231297378033 -3.5 L 218.25231297378033 -0.5 L 142.70428148689018 -0.5 Z"/><text text-anchor="middle" pointer-events="none" font-size="8px" fill="#000000" x="121.62615648689017" y="3" transform="rotate(180 121.62615648689017 0)" font-family="Helvetica Neue, Helvetica, Arial, sans-serif">PART_OF</text></g><g class="relationship" transform="translate(219.63441341071035 59.34182334622224) rotate(538.7669983859228)"><path class="b-outline" fill="#A5ABB6" stroke="none" d="M 25 0.5 L 100.31026047851189 0.5 L 100.31026047851189 -0.5 L 25 -0.5 Z M 142.4665104785119 0.5 L 217.77677095702379 0.5 L 217.77677095702379 3.5 L 224.77677095702379 0 L 217.77677095702379 -3.5 L 217.77677095702379 -0.5 L 142.4665104785119 -0.5 Z"/><text text-anchor="middle" pointer-events="none" font-size="8px" fill="#000000" x="121.38838547851189" y="3" transform="rotate(180 121.38838547851189 0)" font-family="Helvetica Neue, Helvetica, Arial, sans-serif">PART_OF</text></g><g class="relationship" transform="translate(214.3395033467371 3.308872475807174) rotate(525.8972118753966)"><path class="b-outline" fill="#A5ABB6" stroke="none" d="M 25 0.5 L 101.4318074586311 0.5 L 101.4318074586311 -0.5 L 25 -0.5 Z M 143.5880574586311 0.5 L 220.0198649172622 0.5 L 220.0198649172622 3.5 L 227.0198649172622 0 L 220.0198649172622 -3.5 L 220.0198649172622 -0.5 L 143.5880574586311 -0.5 Z"/><text text-anchor="middle" pointer-events="none" font-size="8px" fill="#000000" x="122.5099324586311" y="3" transform="rotate(180 122.5099324586311 0)" font-family="Helvetica Neue, Helvetica, Arial, sans-serif">PART_OF</text></g><g class="relationship" transform="translate(193.09707178588775 -49.699329712430185) rotate(512.8576732004401)"><path class="b-outline" fill="#A5ABB6" stroke="none" d="M 25 0.5 L 100.82226048689546 0.5 L 100.82226048689546 -0.5 L 25 -0.5 Z M 142.97851048689546 0.5 L 218.80077097379092 0.5 L 218.80077097379092 3.5 L 225.80077097379092 0 L 218.80077097379092 -3.5 L 218.80077097379092 -0.5 L 142.97851048689546 -0.5 Z"/><text text-anchor="middle" pointer-events="none" font-size="8px" fill="#000000" x="121.90038548689546" y="3" transform="rotate(180 121.90038548689546 0)" font-family="Helvetica Neue, Helvetica, Arial, sans-serif">PART_OF</text></g><g class="relationship" transform="translate(-30.084523002257917 64.71658906143567) rotate(298.0885424262888)"><path class="b-outline" fill="#A5ABB6" stroke="none" d="M 25 0.5 L 77.79758741015604 0.5 L 77.79758741015604 -0.5 L 25 -0.5 Z M 139.36789991015604 0.5 L 192.16548732031208 0.5 L 192.16548732031208 3.5 L 199.16548732031208 0 L 192.16548732031208 -3.5 L 192.16548732031208 -0.5 L 139.36789991015604 -0.5 Z"/><text text-anchor="middle" pointer-events="none" font-size="8px" fill="#000000" x="108.58274366015604" y="3" font-family="Helvetica Neue, Helvetica, Arial, sans-serif">MANAGED_BY</text></g><g class="relationship" transform="translate(-30.084523002257917 64.71658906143567) rotate(246.71796489048234)"><path class="b-outline" fill="#A5ABB6" stroke="none" d="M 25 0.5 L 71.6176351324684 0.5 L 71.6176351324684 -0.5 L 25 -0.5 Z M 133.1879476324684 0.5 L 179.8055827649368 0.5 L 179.8055827649368 3.5 L 186.8055827649368 0 L 179.8055827649368 -3.5 L 179.8055827649368 -0.5 L 133.1879476324684 -0.5 Z"/><text text-anchor="middle" pointer-events="none" font-size="8px" fill="#000000" x="102.4027913824684" y="3" transform="rotate(180 102.4027913824684 0)" font-family="Helvetica Neue, Helvetica, Arial, sans-serif">MANAGED_BY</text></g><g class="relationship" transform="translate(-30.084523002257917 64.71658906143567) rotate(264.13272059057226)"><path class="b-outline" fill="#A5ABB6" stroke="none" d="M 25 0.5 L 69.29910500916473 0.5 L 69.29910500916473 -0.5 L 25 -0.5 Z M 130.86941750916475 0.5 L 175.16852251832947 0.5 L 175.16852251832947 3.5 L 182.16852251832947 0 L 175.16852251832947 -3.5 L 175.16852251832947 -0.5 L 130.86941750916475 -0.5 Z"/><text text-anchor="middle" pointer-events="none" font-size="8px" fill="#000000" x="100.08426125916473" y="3" transform="rotate(180 100.08426125916473 0)" font-family="Helvetica Neue, Helvetica, Arial, sans-serif">MANAGED_BY</text></g><g class="relationship" transform="translate(-30.084523002257917 64.71658906143567) rotate(281.4139170427542)"><path class="b-outline" fill="#A5ABB6" stroke="none" d="M 25 0.5 L 71.00765424945251 0.5 L 71.00765424945251 -0.5 L 25 -0.5 Z M 132.57796674945251 0.5 L 178.58562099890503 0.5 L 178.58562099890503 3.5 L 185.58562099890503 0 L 178.58562099890503 -3.5 L 178.58562099890503 -0.5 L 132.57796674945251 -0.5 Z"/><text text-anchor="middle" pointer-events="none" font-size="8px" fill="#000000" x="101.79281049945251" y="3" font-family="Helvetica Neue, Helvetica, Arial, sans-serif">MANAGED_BY</text></g><g class="relationship" transform="translate(-228.39636897008057 37.137537327713595) rotate(367.91729289157684)"><path class="b-outline" fill="#A5ABB6" stroke="none" d="M 12.066987298107785,-21.900635094610966 L 12.933012701892222,-21.400635094610966 A 99.51297558826522 99.51297558826522 0 0 1 71.92211518027287,-67.37003620755067 L 71.64886777483156,-68.33197999770663 A 100.51297558826522 100.51297558826522 0 0 0 12.066987298107785,-21.900635094610966 Z M 120.78083385814605,-69.79401705742522 L 120.56526908987782,-68.81752751284144 A 99.51297558826522 99.51297558826522 0 0 1 182.1834288801804,-26.43707879006319 L 179.6791428565255,-24.78524601652751 L 186.45508635570616,-20.869050197124302 L 185.5224769117203,-28.639522488110764 L 183.0181908880654,-26.987689714575083 A 100.51297558826522 100.51297558826522 0 0 0 120.78083385814605,-69.79401705742522"/><text text-anchor="middle" pointer-events="none" font-size="8px" fill="#000000" x="96.1389733554836" y="-68.61287153920735" font-family="Helvetica Neue, Helvetica, Arial, sans-serif">ORIGINATE</text></g><g class="relationship" transform="translate(-30.084523002257917 64.71658906143567) rotate(471.43124601628074)"><path class="b-outline" fill="#A5ABB6" stroke="none" d="M 25 0.5 L 69.75740411367092 0.5 L 69.75740411367092 -0.5 L 25 -0.5 Z M 132.94490411367093 0.5 L 177.70230822734183 0.5 L 177.70230822734183 3.5 L 184.70230822734183 0 L 177.70230822734183 -3.5 L 177.70230822734183 -0.5 L 132.94490411367093 -0.5 Z"/><text text-anchor="middle" pointer-events="none" font-size="8px" fill="#000000" x="101.35115411367092" y="3" transform="rotate(180 101.35115411367092 0)" font-family="Helvetica Neue, Helvetica, Arial, sans-serif">CATEGORIZED</text></g><g class="relationship" transform="translate(-30.084523002257917 64.71658906143567) rotate(409.0065473987729)"><path class="b-outline" fill="#A5ABB6" stroke="none" d="M 24.018736134675446,-6.953439040707552 L 24.277555179777966,-5.987513214418485 A 361.9334993539904 361.9334993539904 0 0 1 92.61627717460573,-17.43218683398868 L 92.54627381558035,-18.429733589647356 A 362.9334993539904 362.9334993539904 0 0 0 24.018736134675446,-6.953439040707552 Z M 137.98808965137547,-18.766666728281336 L 137.93288600714354,-17.768191612084877 A 361.9334993539904 361.9334993539904 0 0 1 206.4338005352306,-7.338129917130605 L 205.70039816031945,-4.4291574256012165 L 213.3436367446177,-6.111686457592837 L 207.41167036844544,-11.216759905836456 L 206.6782679935343,-8.307787414307068 A 362.9334993539904 362.9334993539904 0 0 0 137.98808965137547,-18.766666728281336"/><text text-anchor="middle" pointer-events="none" font-size="8px" fill="#000000" x="115.26561031345842" y="-15.81013591397982" font-family="Helvetica Neue, Helvetica, Arial, sans-serif">COUNTRY</text></g><g class="relationship" transform="translate(-30.084523002257917 64.71658906143567) rotate(187.91729289157684)"><path class="b-outline" fill="#A5ABB6" stroke="none" d="M 21.40063509461097,12.933012701892217 L 21.90063509461097,12.06698729810778 A 154.42628494580023 154.42628494580023 0 0 0 66.28250663310908,29.225842922994147 L 66.06990506112976,30.202981895501082 A 155.42628494580023 155.42628494580023 0 0 1 21.40063509461097,12.933012701892217 Z M 126.98644615493419,31.23655408548929 L 126.80711568584948,30.25276519408125 A 154.42628494580023 154.42628494580023 0 0 0 171.74554302030475,14.609408894318454 L 170.33454426167467,11.961941707903419 L 178.15813291504483,11.75832298858408 L 173.6268746984782,18.13936514287183 L 172.2158759398481,15.491897956456798 A 155.42628494580023 155.42628494580023 0 0 1 126.98644615493419,31.23655408548929"/><text text-anchor="middle" pointer-events="none" font-size="8px" fill="#000000" x="96.48551842830055" y="36.233891210165424" transform="rotate(180 96.48551842830055 33.233891210165424)" font-family="Helvetica Neue, Helvetica, Arial, sans-serif">DEPENDS_ON</text></g><g class="relationship" transform="translate(-30.084523002257917 64.71658906143567) rotate(487.03217390134046)"><path class="b-outline" fill="#A5ABB6" stroke="none" d="M 25 0.5 L 74.93470480242713 0.5 L 74.93470480242713 -0.5 L 25 -0.5 Z M 138.12220480242712 0.5 L 188.05690960485427 0.5 L 188.05690960485427 3.5 L 195.05690960485427 0 L 188.05690960485427 -3.5 L 188.05690960485427 -0.5 L 138.12220480242712 -0.5 Z"/><text text-anchor="middle" pointer-events="none" font-size="8px" fill="#000000" x="106.52845480242713" y="3" transform="rotate(180 106.52845480242713 0)" font-family="Helvetica Neue, Helvetica, Arial, sans-serif">CATEGORIZED</text></g><g class="relationship" transform="translate(-30.084523002257917 64.71658906143567) rotate(454.5688332023468)"><path class="b-outline" fill="#A5ABB6" stroke="none" d="M 25 0.5 L 67.16584939787505 0.5 L 67.16584939787505 -0.5 L 25 -0.5 Z M 130.35334939787504 0.5 L 172.5191987957501 0.5 L 172.5191987957501 3.5 L 179.5191987957501 0 L 172.5191987957501 -3.5 L 172.5191987957501 -0.5 L 130.35334939787504 -0.5 Z"/><text text-anchor="middle" pointer-events="none" font-size="8px" fill="#000000" x="98.75959939787505" y="3" transform="rotate(180 98.75959939787505 0)" font-family="Helvetica Neue, Helvetica, Arial, sans-serif">CATEGORIZED</text></g><g class="relationship" transform="translate(-228.39636897008057 37.137537327713595) rotate(367.91729289157684)"><path class="b-outline" fill="#A5ABB6" stroke="none" d="M 25 0.5 L 71.90510160925172 0.5 L 71.90510160925172 -0.5 L 25 -0.5 Z M 121.31525785925172 0.5 L 168.22035946850343 0.5 L 168.22035946850343 3.5 L 175.22035946850343 0 L 168.22035946850343 -3.5 L 168.22035946850343 -0.5 L 121.31525785925172 -0.5 Z"/><text text-anchor="middle" pointer-events="none" font-size="8px" fill="#000000" x="96.61017973425172" y="3" font-family="Helvetica Neue, Helvetica, Arial, sans-serif">ORIGINATE</text></g><g class="relationship" transform="translate(-228.39636897008057 37.137537327713595) rotate(367.91729289157684)"><path class="b-outline" fill="#A5ABB6" stroke="none" d="M 21.40063509461097,12.933012701892217 L 21.90063509461097,12.06698729810778 A 154.42628494580023 154.42628494580023 0 0 0 31.08996807789093,16.966977461143884 L 30.649474352917267,17.864733150771556 A 155.42628494580023 155.42628494580023 0 0 1 21.40063509461097,12.933012701892217 Z M 162.80505521827405,20.107019575469124 L 162.395270749238,19.194837198454067 A 154.42628494580023 154.42628494580023 0 0 0 171.74554302030475,14.609408894318454 L 170.33454426167467,11.961941707903419 L 178.15813291504483,11.75832298858408 L 173.6268746984782,18.13936514287183 L 172.2158759398481,15.491897956456798 A 155.42628494580023 155.42628494580023 0 0 1 162.80505521827405,20.107019575469124"/><text text-anchor="middle" pointer-events="none" font-size="8px" fill="#000000" x="96.48551842830055" y="36.233891210165424" font-family="Helvetica Neue, Helvetica, Arial, sans-serif">ROUTE_ORIGIN_AUTHORIZATION</text></g><g class="relationship" transform="translate(-30.084523002257917 64.71658906143567) rotate(430.7086074434547)"><path class="b-outline" fill="#A5ABB6" stroke="none" d="M 25 0.5 L 80.7585684297957 0.5 L 80.7585684297957 -0.5 L 25 -0.5 Z M 128.1023184297957 0.5 L 183.8608868595914 0.5 L 183.8608868595914 3.5 L 190.8608868595914 0 L 183.8608868595914 -3.5 L 183.8608868595914 -0.5 L 128.1023184297957 -0.5 Z"/><text text-anchor="middle" pointer-events="none" font-size="8px" fill="#000000" x="104.4304434297957" y="3" font-family="Helvetica Neue, Helvetica, Arial, sans-serif">ASSIGNED</text></g><g class="relationship" transform="translate(-30.084523002257917 64.71658906143567) rotate(409.0065473987729)"><path class="b-outline" fill="#A5ABB6" stroke="none" d="M 24.018736134675446,6.953439040707552 L 24.277555179777966,5.987513214418485 A 361.9334993539904 361.9334993539904 0 0 0 92.6162771746057,17.43218683398868 L 92.54627381558034,18.429733589647356 A 362.9334993539904 362.9334993539904 0 0 1 24.018736134675446,6.953439040707552 Z M 137.98808965137556,18.766666728281336 L 137.93288600714365,17.768191612084877 A 361.9334993539904 361.9334993539904 0 0 0 206.4338005352306,7.338129917130605 L 205.70039816031945,4.4291574256012165 L 213.3436367446177,6.111686457592837 L 207.41167036844544,11.216759905836456 L 206.6782679935343,8.307787414307068 A 362.9334993539904 362.9334993539904 0 0 1 137.98808965137556,18.766666728281336"/><text text-anchor="middle" pointer-events="none" font-size="8px" fill="#000000" x="115.26561031345847" y="21.81013591397982" font-family="Helvetica Neue, Helvetica, Arial, sans-serif">COUNTRY</text></g><g class="relationship" transform="translate(-228.39636897008057 37.137537327713595) rotate(367.91729289157684)"><path class="b-outline" fill="#A5ABB6" stroke="none" d="M 12.066987298107785,21.900635094610966 L 12.933012701892222,21.400635094610966 A 99.51297558826522 99.51297558826522 0 0 0 71.92211518027287,67.37003620755067 L 71.64886777483156,68.33197999770663 A 100.51297558826522 100.51297558826522 0 0 1 12.066987298107785,21.900635094610966 Z M 120.7808338581461,69.79401705742522 L 120.56526908987786,68.81752751284142 A 99.51297558826522 99.51297558826522 0 0 0 182.1834288801804,26.43707879006319 L 179.6791428565255,24.78524601652751 L 186.45508635570616,20.869050197124302 L 185.5224769117203,28.639522488110764 L 183.0181908880654,26.987689714575083 A 100.51297558826522 100.51297558826522 0 0 1 120.7808338581461,69.79401705742522"/><text text-anchor="middle" pointer-events="none" font-size="8px" fill="#000000" x="96.13897335548361" y="74.61287153920735" font-family="Helvetica Neue, Helvetica, Arial, sans-serif">ORIGINATE</text></g></g><g class="layer nodes"><g class="node" aria-label="graph-node1749095" transform="translate(-30.084523002257917,64.71658906143567)"><circle class="b-outline" cx="0" cy="0" r="25" fill="#D9C8AE" stroke="#c0a378" stroke-width="2px"/><text class="caption" text-anchor="middle" pointer-events="none" x="0" y="5" font-size="10px" fill="#2A2C34" font-family="Helvetica Neue, Helvetica, Arial, sans-serif"> 8.8.8.0/24</text></g><g class="node" aria-label="graph-node20161820" transform="translate(191.59403595079465,187.67459617667282)"><circle class="b-outline" cx="0" cy="0" r="25" fill="#D9C8AE" stroke="#c0a378" stroke-width="2px"/><text class="caption" text-anchor="middle" pointer-events="none" x="0" y="5" font-size="10px" fill="#2A2C34" font-family="Helvetica Neue, Helvetica, Arial, sans-serif"> 8.0.0.0/8</text></g><g class="node" aria-label="graph-node1379082" transform="translate(211.87450221464118,134.27472998961602)"><circle class="b-outline" cx="0" cy="0" r="25" fill="#D9C8AE" stroke="#c0a378" stroke-width="2px"/><text class="caption" text-anchor="middle" pointer-events="none" x="0" y="5" font-size="10px" fill="#2A2C34" font-family="Helvetica Neue, Helvetica, Arial, sans-serif"> 8.0.0.0/12</text></g><g class="node" aria-label="graph-node34348488" transform="translate(159.8157319884931,-98.26842038168658)"><circle class="b-outline" cx="0" cy="0" r="25" fill="#4C8EDA" stroke="#2870c2" stroke-width="2px"/><text class="caption" text-anchor="middle" pointer-events="none" x="0" y="5" font-size="10px" fill="#FFFFFF" font-family="Helvetica Neue, Helvetica, Arial, sans-serif"> 8.8.8.4</text></g><g class="node" aria-label="graph-node12944708" transform="translate(219.63441341071035,59.34182334622224)"><circle class="b-outline" cx="0" cy="0" r="25" fill="#4C8EDA" stroke="#2870c2" stroke-width="2px"/><text class="caption" text-anchor="middle" pointer-events="none" x="0" y="5" font-size="10px" fill="#FFFFFF" font-family="Helvetica Neue, Helvetica, Arial, sans-serif"> 8.8.8.59</text></g><g class="node" aria-label="graph-node12938000" transform="translate(214.3395033467371,3.308872475807174)"><circle class="b-outline" cx="0" cy="0" r="25" fill="#4C8EDA" stroke="#2870c2" stroke-width="2px"/><text class="caption" text-anchor="middle" pointer-events="none" x="0" y="5" font-size="10px" fill="#FFFFFF" font-family="Helvetica Neue, Helvetica, Arial, sans-serif"> 8.8.8.57</text></g><g class="node" aria-label="graph-node6511135" transform="translate(193.09707178588775,-49.699329712430185)"><circle class="b-outline" cx="0" cy="0" r="25" fill="#4C8EDA" stroke="#2870c2" stroke-width="2px"/><text class="caption" text-anchor="middle" pointer-events="none" x="0" y="5" font-size="10px" fill="#FFFFFF" font-family="Helvetica Neue, Helvetica, Arial, sans-serif"> 8.8.8.8</text></g><g class="node" aria-label="graph-node6215639" transform="translate(75.46053975489036,-133.04691978977434)"><circle class="b-outline" cx="0" cy="0" r="25" fill="#569480" stroke="#447666" stroke-width="2px"/><text class="caption" text-anchor="middle" pointer-events="none" x="0" y="5" font-size="10px" fill="#FFFFFF" font-family="Helvetica Neue, Helvetica, Arial, sans-serif"> ns4.goo…</text></g><g class="node" aria-label="graph-node6188783" transform="translate(-113.80226971764395,-129.84174094602753)"><circle class="b-outline" cx="0" cy="0" r="25" fill="#569480" stroke="#447666" stroke-width="2px"/><text class="caption" text-anchor="middle" pointer-events="none" x="0" y="5" font-size="10px" fill="#FFFFFF" font-family="Helvetica Neue, Helvetica, Arial, sans-serif"> ns1.goo…</text></g><g class="node" aria-label="graph-node6132620" transform="translate(-51.262213996892115,-141.36665170928632)"><circle class="b-outline" cx="0" cy="0" r="25" fill="#569480" stroke="#447666" stroke-width="2px"/><text class="caption" text-anchor="middle" pointer-events="none" x="0" y="5" font-size="10px" fill="#FFFFFF" font-family="Helvetica Neue, Helvetica, Arial, sans-serif"> ns2.goo…</text></g><g class="node" aria-label="graph-node6054720" transform="translate(11.589411263582349,-141.70430855869603)"><circle class="b-outline" cx="0" cy="0" r="25" fill="#569480" stroke="#447666" stroke-width="2px"/><text class="caption" text-anchor="middle" pointer-events="none" x="0" y="5" font-size="10px" fill="#FFFFFF" font-family="Helvetica Neue, Helvetica, Arial, sans-serif"> ns3.goo…</text></g><g class="node" aria-label="graph-node15070" transform="translate(-228.39636897008057,37.137537327713595)"><circle class="b-outline" cx="0" cy="0" r="25" fill="#F79767" stroke="#f36924" stroke-width="2px"/><text class="caption" text-anchor="middle" pointer-events="none" x="0" y="5" font-size="10px" fill="#FFFFFF" font-family="Helvetica Neue, Helvetica, Arial, sans-serif"> 15169</text></g><g class="node" aria-label="graph-node2718669" transform="translate(-106.7064913226829,259.9193862918516)"><circle class="b-outline" cx="0" cy="0" r="25" fill="#C990C0" stroke="#b261a5" stroke-width="2px"/><text class="caption" text-anchor="middle" pointer-events="none" x="0" y="5" font-size="10px" fill="#FFFFFF" font-family="Helvetica Neue, Helvetica, Arial, sans-serif"> Anycast</text></g><g class="node" aria-label="graph-node223421" transform="translate(125.76481889349026,244.0421313049798)"><circle class="b-outline" cx="0" cy="0" r="25" fill="#57C7E3" stroke="#23b3d7" stroke-width="2px"/><text class="caption" text-anchor="middle" pointer-events="none" x="0" y="5" font-size="10px" fill="#2A2C34" font-family="Helvetica Neue, Helvetica, Arial, sans-serif"> US</text></g><g class="node" aria-label="graph-node2718656" transform="translate(-162.61674435016934,240.3874567926199)"><circle class="b-outline" cx="0" cy="0" r="25" fill="#C990C0" stroke="#b261a5" stroke-width="2px"/><text class="caption" text-anchor="middle" pointer-events="none" x="0" y="5" font-size="10px" fill="#FFFFFF" font-family="Helvetica Neue, Helvetica, Arial, sans-serif"> IRR Valid</text></g><g class="node" aria-label="graph-node2718660" transform="translate(-46.375847756549774,268.5858987031906)"><circle class="b-outline" cx="0" cy="0" r="25" fill="#C990C0" stroke="#b261a5" stroke-width="2px"/><text class="caption" text-anchor="middle" pointer-events="none" x="0" y="0" font-size="10px" fill="#FFFFFF" font-family="Helvetica Neue, Helvetica, Arial, sans-serif"> RPKI</text><text class="caption" text-anchor="middle" pointer-events="none" x="0" y="10" font-size="10px" fill="#FFFFFF" font-family="Helvetica Neue, Helvetica, Arial, sans-serif"> Valid</text></g><g class="node" aria-label="graph-node1994996" transform="translate(41.230000170232735,268.45701524261756)"><circle class="b-outline" cx="0" cy="0" r="25" fill="#A5ABB6" stroke="#9AA1AC" stroke-width="2px"/><text class="caption" text-anchor="middle" pointer-events="none" x="0" y="5" font-size="10px" fill="#FFFFFF" font-family="Helvetica Neue, Helvetica, Arial, sans-serif"> 9d99e3f…</text></g></g></svg>