<svg xmlns="http://www.w3.org/2000/svg" width="377.9754333496094" height="428.71014404296875" viewBox="-240.218505859375 -73.86079406738281 377.9754333496094 428.71014404296875"><title>Neo4j Graph Visualization</title><desc>Created using Neo4j (http://www.neo4j.com/)</desc><g class="layer relationships"><g class="relationship" transform="translate(-46.82520889320824 93.03241336658216) rotate(193.14796999653288)"><path class="b-outline" fill="#A5ABB6" stroke="none" d="M 25 0.5 L 53.576528128113324 0.5 L 53.576528128113324 -0.5 L 25 -0.5 Z M 99.57652812811332 0.5 L 128.15305625622665 0.5 L 128.15305625622665 3.5 L 135.15305625622665 0 L 128.15305625622665 -3.5 L 128.15305625622665 -0.5 L 99.57652812811332 -0.5 Z"/><text text-anchor="middle" pointer-events="none" font-size="8px" fill="#000000" x="76.57652812811332" y="3" transform="rotate(180 76.57652812811332 0)" font-family="Helvetica Neue, Helvetica, Arial, sans-serif">COUNTRY</text></g><g class="relationship" transform="translate(-46.82520889320824 93.03241336658216) rotate(384.590397086835)"><path class="b-outline" fill="#A5ABB6" stroke="none" d="M 25 0.5 L 39.50472133630947 0.5 L 39.50472133630947 -0.5 L 25 -0.5 Z M 101.50472133630947 0.5 L 116.00944267261895 0.5 L 116.00944267261895 3.5 L 123.00944267261895 0 L 116.00944267261895 -3.5 L 116.00944267261895 -0.5 L 101.50472133630947 -0.5 Z"/><text text-anchor="middle" pointer-events="none" font-size="8px" fill="#000000" x="70.50472133630947" y="3" font-family="Helvetica Neue, Helvetica, Arial, sans-serif">CATEGORIZED</text></g><g class="relationship" transform="translate(-46.82520889320824 93.03241336658216) rotate(283.95791141755404)"><path class="b-outline" fill="#A5ABB6" stroke="none" d="M 25 0.5 L 36.54431391215894 0.5 L 36.54431391215894 -0.5 L 25 -0.5 Z M 98.54431391215894 0.5 L 110.08862782431788 0.5 L 110.08862782431788 3.5 L 117.08862782431788 0 L 110.08862782431788 -3.5 L 110.08862782431788 -0.5 L 98.54431391215894 -0.5 Z"/><text text-anchor="middle" pointer-events="none" font-size="8px" fill="#000000" x="67.54431391215894" y="3" font-family="Helvetica Neue, Helvetica, Arial, sans-serif">CATEGORIZED</text></g><g class="relationship" transform="translate(108.7569304209587 59.49215600536251) rotate(527.8344096735755)"><path class="b-outline" fill="#A5ABB6" stroke="none" d="M 25 0.5 L 55.57818629723491 0.5 L 55.57818629723491 -0.5 L 25 -0.5 Z M 96.57818629723491 0.5 L 127.15637259446981 0.5 L 127.15637259446981 3.5 L 134.15637259446981 0 L 127.15637259446981 -3.5 L 127.15637259446981 -0.5 L 96.57818629723491 -0.5 Z"/><text text-anchor="middle" pointer-events="none" font-size="8px" fill="#000000" x="76.07818629723491" y="3" transform="rotate(180 76.07818629723491 0)" font-family="Helvetica Neue, Helvetica, Arial, sans-serif">PART_OF</text></g><g class="relationship" transform="translate(84.36864436976605 -35.04561908681743) rotate(495.688523509249)"><path class="b-outline" fill="#A5ABB6" stroke="none" d="M 25 0.5 L 67.67307337915659 0.5 L 67.67307337915659 -0.5 L 25 -0.5 Z M 108.67307337915659 0.5 L 151.34614675831318 0.5 L 151.34614675831318 3.5 L 158.34614675831318 0 L 151.34614675831318 -3.5 L 151.34614675831318 -0.5 L 108.67307337915659 -0.5 Z"/><text text-anchor="middle" pointer-events="none" font-size="8px" fill="#000000" x="88.17307337915659" y="3" transform="rotate(180 88.17307337915659 0)" font-family="Helvetica Neue, Helvetica, Arial, sans-serif">PART_OF</text></g><g class="relationship" transform="translate(-159.774987076378 258.9780816884592) rotate(258.00302357740037)"><path class="b-outline" fill="#A5ABB6" stroke="none" d="M 21.40063509461097,12.933012701892217 L 21.90063509461097,12.06698729810778 A 161.16421835586274 161.16421835586274 0 0 0 77.01256911946965,31.633535916994433 L 76.85453047160532,32.620968844226056 A 162.16421835586274 162.16421835586274 0 0 1 21.40063509461097,12.933012701892217 Z M 122.83508895060456,33.37667336093507 L 122.70958441646991,32.38458031494007 A 161.16421835586274 161.16421835586274 0 0 0 178.43474360831894,14.63967316221809 L 177.02093103669583,11.993707551647827 L 184.84429879492006,11.781771430192556 L 180.31982703714974,18.167627309645106 L 178.90601446552662,15.521661699074842 A 162.16421835586274 162.16421835586274 0 0 1 122.83508895060456,33.37667336093507"/><text text-anchor="middle" pointer-events="none" font-size="8px" fill="#000000" x="99.82610226778664" y="37.13706848958229" transform="rotate(180 99.82610226778664 34.13706848958229)" font-family="Helvetica Neue, Helvetica, Arial, sans-serif">COUNTRY</text></g><g class="relationship" transform="translate(-159.774987076378 258.9780816884592) rotate(258.00302357740037)"><path class="b-outline" fill="#A5ABB6" stroke="none" d="M 25 0.5 L 76.94700610816948 0.5 L 76.94700610816948 -0.5 L 25 -0.5 Z M 122.94700610816948 0.5 L 174.89401221633895 0.5 L 174.89401221633895 3.5 L 181.89401221633895 0 L 174.89401221633895 -3.5 L 174.89401221633895 -0.5 L 122.94700610816948 -0.5 Z"/><text text-anchor="middle" pointer-events="none" font-size="8px" fill="#000000" x="99.94700610816948" y="3" transform="rotate(180 99.94700610816948 0)" font-family="Helvetica Neue, Helvetica, Arial, sans-serif">COUNTRY</text></g><g class="relationship" transform="translate(-159.774987076378 258.9780816884592) rotate(258.00302357740037)"><path class="b-outline" fill="#A5ABB6" stroke="none" d="M 21.40063509461097,-12.933012701892217 L 21.90063509461097,-12.06698729810778 A 161.16421835586274 161.16421835586274 0 0 1 72.59330247021043,-30.86300560083147 L 72.40784293020054,-31.845657502075923 A 162.16421835586274 162.16421835586274 0 0 0 21.40063509461097,-12.933012701892217 Z M 127.30485294394447,-32.74790662199804 L 127.15178521468171,-31.759690921728932 A 161.16421835586274 161.16421835586274 0 0 1 178.43474360831894,-14.63967316221809 L 177.02093103669583,-11.993707551647827 L 184.84429879492006,-11.781771430192556 L 180.31982703714974,-18.167627309645106 L 178.90601446552662,-15.521661699074842 A 162.16421835586274 162.16421835586274 0 0 0 127.30485294394447,-32.74790662199804"/><text text-anchor="middle" pointer-events="none" font-size="8px" fill="#000000" x="99.82610226778667" y="-31.13706848958229" transform="rotate(180 99.82610226778667 -34.13706848958229)" font-family="Helvetica Neue, Helvetica, Arial, sans-serif">POPULATION</text></g><g class="relationship" transform="translate(-159.774987076378 258.9780816884592) rotate(304.2408917528578)"><path class="b-outline" fill="#A5ABB6" stroke="none" d="M 24.018736134675446,-6.953439040707552 L 24.277555179777966,-5.987513214418485 A 290.15427274882416 290.15427274882416 0 0 1 72.9197316332762,-14.665712493340152 L 72.82855504951908,-15.661547233934357 A 291.15427274882416 291.15427274882416 0 0 0 24.018736134675446,-6.953439040707552 Z M 120.85467604756532,-16.080876748360083 L 120.78090186297332,-15.083601776405146 A 290.15427274882416 290.15427274882416 0 0 1 169.56719440986245,-7.256077749786981 L 168.84145440858822,-4.345184166958765 L 176.48023610334067,-6.047833343951835 L 170.53484774489476,-11.137269193557938 L 169.80910774362053,-8.22637561072972 A 291.15427274882416 291.15427274882416 0 0 0 120.85467604756532,-16.080876748360083"/><text text-anchor="middle" pointer-events="none" font-size="8px" fill="#000000" x="96.83731984693401" y="-13.363201889567222" font-family="Helvetica Neue, Helvetica, Arial, sans-serif">ORIGINATE</text></g><g class="relationship" transform="translate(-159.774987076378 258.9780816884592) rotate(304.2408917528578)"><path class="b-outline" fill="#A5ABB6" stroke="none" d="M 24.018736134675446,6.953439040707552 L 24.277555179777966,5.987513214418485 A 290.15427274882416 290.15427274882416 0 0 0 30.617247769545415,7.609830968102926 L 30.38027811004632,8.58134801915088 A 291.15427274882416 291.15427274882416 0 0 1 24.018736134675446,6.953439040707552 Z M 163.42011035030572,9.74295605855201 L 163.20014070067427,8.767449342408554 A 290.15427274882416 290.15427274882416 0 0 0 169.56719440986245,7.256077749786981 L 168.84145440858822,4.345184166958765 L 176.48023610334067,6.047833343951835 L 170.53484774489476,11.137269193557938 L 169.80910774362053,8.22637561072972 A 291.15427274882416 291.15427274882416 0 0 1 163.42011035030572,9.74295605855201"/><text text-anchor="middle" pointer-events="none" font-size="8px" fill="#000000" x="96.83731984693407" y="19.36320188956722" font-family="Helvetica Neue, Helvetica, Arial, sans-serif">ROUTE_ORIGIN_AUTHORIZATION</text></g><g class="relationship" transform="translate(-159.774987076378 258.9780816884592) rotate(371.1219576651291)"><path class="b-outline" fill="#A5ABB6" stroke="none" d="M 6.953439040707552 24.018736134675446 L 17.306200844808384 62.65576918623819 A 17.916697508022974 17.916697508022974 0 1 1 -17.306200844808384 62.65576918623819 L -8.765172356425198 30.780216918698923 L -4.901469051268926 31.815493099109005 L -6.4704761275630185 24.148145657226706 L -11.662949835292403 30.00375978339136 L -7.79924653013613 31.039035963801442 L -16.340275018519314 62.91458823134071 A 16.916697508022974 16.916697508022974 0 1 0 16.340275018519314 62.91458823134071 L 5.987513214418485 24.277555179777966 Z"/><text text-anchor="middle" pointer-events="none" font-size="8px" fill="#000000" x="0" y="94.20964923467838" font-family="Helvetica Neue, Helvetica, Arial, sans-serif"/></g></g><g class="layer nodes"><g class="node" aria-label="graph-node969332" transform="translate(-46.82520889320824,93.03241336658216)"><circle class="b-outline" cx="0" cy="0" r="25" fill="#DA7194" stroke="#cc3c6c" stroke-width="2px"/><text class="caption" text-anchor="middle" pointer-events="none" x="0" y="5" font-size="10px" fill="#FFFFFF" font-family="Helvetica Neue, Helvetica, Arial, sans-serif"> 8.8.8.0/…</text></g><g class="node" aria-label="graph-node3634561" transform="translate(108.7569304209587,59.49215600536251)"><circle class="b-outline" cx="0" cy="0" r="25" fill="#A5ABB6" stroke="#9AA1AC" stroke-width="2px"/><text class="caption" text-anchor="middle" pointer-events="none" x="0" y="5" font-size="10px" fill="#FFFFFF" font-family="Helvetica Neue, Helvetica, Arial, sans-serif"> 8.8.8.8</text></g><g class="node" aria-label="graph-node3580909" transform="translate(84.36864436976605,-35.04561908681743)"><circle class="b-outline" cx="0" cy="0" r="25" fill="#A5ABB6" stroke="#9AA1AC" stroke-width="2px"/><text class="caption" text-anchor="middle" pointer-events="none" x="0" y="5" font-size="10px" fill="#FFFFFF" font-family="Helvetica Neue, Helvetica, Arial, sans-serif"> 8.8.8.30</text></g><g class="node" aria-label="graph-node10" transform="translate(-202.77999142005007,56.60293031760696)"><circle class="b-outline" cx="0" cy="0" r="25" fill="#57C7E3" stroke="#23b3d7" stroke-width="2px"/><text class="caption" text-anchor="middle" pointer-events="none" x="0" y="5" font-size="10px" fill="#2A2C34" font-family="Helvetica Neue, Helvetica, Arial, sans-serif"> US</text></g><g class="node" aria-label="graph-node2305931" transform="translate(87.76064554617446,154.62334537025106)"><circle class="b-outline" cx="0" cy="0" r="25" fill="#A5ABB6" stroke="#9AA1AC" stroke-width="2px"/><text class="caption" text-anchor="middle" pointer-events="none" x="0" y="5" font-size="10px" fill="#FFFFFF" font-family="Helvetica Neue, Helvetica, Arial, sans-serif"> IRR Valid</text></g><g class="node" aria-label="graph-node2305933" transform="translate(-12.552143637505168,-44.860788623131015)"><circle class="b-outline" cx="0" cy="0" r="25" fill="#A5ABB6" stroke="#9AA1AC" stroke-width="2px"/><text class="caption" text-anchor="middle" pointer-events="none" x="0" y="0" font-size="10px" fill="#FFFFFF" font-family="Helvetica Neue, Helvetica, Arial, sans-serif"> RPKI</text><text class="caption" text-anchor="middle" pointer-events="none" x="0" y="10" font-size="10px" fill="#FFFFFF" font-family="Helvetica Neue, Helvetica, Arial, sans-serif"> Valid</text></g><g class="node" aria-label="graph-node416" transform="translate(-159.774987076378,258.9780816884592)"><circle class="b-outline" cx="0" cy="0" r="25" fill="#FFC454" stroke="#d7a013" stroke-width="2px"/><text class="caption" text-anchor="middle" pointer-events="none" x="0" y="5" font-size="10px" fill="#2A2C34" font-family="Helvetica Neue, Helvetica, Arial, sans-serif"> 15169</text></g></g></svg>