<svg xmlns="http://www.w3.org/2000/svg" width="710.6297607421875" height="770.7261962890625" viewBox="-362.6583251953125 -419.4773864746094 710.6297607421875 770.7261962890625"><title>Neo4j Graph Visualization</title><desc>Created using Neo4j (http://www.neo4j.com/)</desc><g class="layer relationships"><g class="relationship" transform="translate(-161.22662546251746 187.91090370569032) rotate(448.91964374519193)"><path class="b-outline" fill="#A5ABB6" stroke="none" d="M 25 0.5 L 37.08090208484218 0.5 L 37.08090208484218 -0.5 L 25 -0.5 Z M 90.28090284778163 0.5 L 102.36180493262381 0.5 L 102.36180493262381 3.5 L 109.36180493262381 0 L 102.36180493262381 -3.5 L 102.36180493262381 -0.5 L 90.28090284778163 -0.5 Z"/><text text-anchor="middle" pointer-events="none" font-size="8px" fill="#000000" x="63.680902466311906" y="3" font-family="Helvetica Neue, Helvetica, Arial, sans-serif">PEERS_WITH</text></g><g class="relationship" transform="translate(-280.6411979516881 183.42599722557304) rotate(408.702542655762)"><path class="b-outline" fill="#A5ABB6" stroke="none" d="M 25 0.5 L 62.28921967532651 0.5 L 62.28921967532651 -0.5 L 25 -0.5 Z M 115.48922043826596 0.5 L 152.77844011359247 0.5 L 152.77844011359247 3.5 L 159.77844011359247 0 L 152.77844011359247 -3.5 L 152.77844011359247 -0.5 L 115.48922043826596 -0.5 Z"/><text text-anchor="middle" pointer-events="none" font-size="8px" fill="#000000" x="88.88922005679623" y="3" font-family="Helvetica Neue, Helvetica, Arial, sans-serif">PEERS_WITH</text></g><g class="relationship" transform="translate(-61.669953999250055 184.2635958993227) rotate(485.1126953842356)"><path class="b-outline" fill="#A5ABB6" stroke="none" d="M 25 0.5 L 54.24075026194967 0.5 L 54.24075026194967 -0.5 L 25 -0.5 Z M 107.44075102488912 0.5 L 136.6815012868388 0.5 L 136.6815012868388 3.5 L 143.6815012868388 0 L 136.6815012868388 -3.5 L 136.6815012868388 -0.5 L 107.44075102488912 -0.5 Z"/><text text-anchor="middle" pointer-events="none" font-size="8px" fill="#000000" x="80.8407506434194" y="3" transform="rotate(180 80.8407506434194 0)" font-family="Helvetica Neue, Helvetica, Arial, sans-serif">PEERS_WITH</text></g><g class="relationship" transform="translate(212.99102605629997 -131.49638425305582) rotate(345.41461205570056)"><path class="b-outline" fill="#A5ABB6" stroke="none" d="M 24.018736134675446,6.953439040707552 L 24.277555179777966,5.987513214418485 A 110.71623310974084 110.71623310974084 0 0 0 25.031672374304904,6.186733905432732 L 24.779664590508386,7.15445911276484 A 111.71623310974084 111.71623310974084 0 0 1 24.018736134675446,6.953439040707552 Z M 77.70438000940237,7.97913104867429 L 77.48264540191269,7.004023996171128 A 110.71623310974084 110.71623310974084 0 0 0 78.24260348800571,6.8283955981508 L 77.55680761508263,3.907833319978723 L 85.17154811589441,5.714965607692301 L 79.15699798523649,10.722478635713571 L 78.4712021123134,7.801916357541494 A 111.71623310974084 111.71623310974084 0 0 1 77.70438000940237,7.97913104867429"/><text text-anchor="middle" pointer-events="none" font-size="8px" fill="#000000" x="51.20026596768292" y="13.246578284472875" font-family="Helvetica Neue, Helvetica, Arial, sans-serif">PEERS_WITH</text></g><g class="relationship" transform="translate(104.17168260862663 -197.93686265816658) rotate(370.2555194896469)"><path class="b-outline" fill="#A5ABB6" stroke="none" d="M 24.018736134675446,6.953439040707552 L 24.277555179777966,5.987513214418485 A 324.3661416138494 324.3661416138494 0 0 0 79.0987103508808,15.729261853381274 L 79.00890140929384,16.725220865595645 A 325.3661416138494 325.3661416138494 0 0 1 24.018736134675446,6.953439040707552 Z M 132.2295410299965,17.153668547830023 L 132.15577843535436,16.156392718567247 A 324.3661416138494 324.3661416138494 0 0 0 187.12666812844216,7.298514463070065 L 186.39696516820067,4.3886117860351765 L 194.0380582015638,6.080858002012405 L 188.09960540876415,11.178384699116581 L 187.36990244852265,8.268482022081693 A 325.3661416138494 325.3661416138494 0 0 1 132.2295410299965,17.153668547830023"/><text text-anchor="middle" pointer-events="none" font-size="8px" fill="#000000" x="105.61447107722145" y="20.529494854168377" font-family="Helvetica Neue, Helvetica, Arial, sans-serif">PEERS_WITH</text></g><g class="relationship" transform="translate(198.3070860860403 -229.98992111151475) rotate(390.44349375126217)"><path class="b-outline" fill="#A5ABB6" stroke="none" d="M 24.018736134675446,6.953439040707552 L 24.277555179777966,5.987513214418485 A 171.0751056562916 171.0751056562916 0 0 0 40.053754153473115,9.425875747583717 L 39.88715307844387,10.411900129533336 A 172.0751056562916 172.0751056562916 0 0 1 24.018736134675446,6.953439040707552 Z M 93.02465721862947,11.068043981925427 L 92.88245415875772,10.078206475178433 A 171.0751056562916 171.0751056562916 0 0 0 108.73874405364143,7.030443076143086 L 108.03407647679674,4.114376614941655 L 115.66034372591888,5.872229807039055 L 109.67830082276768,10.918531691078327 L 108.973633245923,8.002465229876895 A 172.0751056562916 172.0751056562916 0 0 1 93.02465721862947,11.068043981925427"/><text text-anchor="middle" pointer-events="none" font-size="8px" fill="#000000" x="66.43659645992595" y="15.303677205527435" font-family="Helvetica Neue, Helvetica, Arial, sans-serif">PEERS_WITH</text></g><g class="relationship" transform="translate(240.63557478072636 -320.5737769766386) rotate(424.12425985279293)"><path class="b-outline" fill="#A5ABB6" stroke="none" d="M 24.018736134675446,6.953439040707552 L 24.277555179777966,5.987513214418485 A 248.66452988210955 248.66452988210955 0 0 0 59.73681741790787,12.775467957039666 L 59.620597167474386,13.768691423027661 A 249.66452988210955 249.66452988210955 0 0 1 24.018736134675446,6.953439040707552 Z M 112.82363928577556,14.286198715367902 L 112.72676141552917,13.290902438746457 A 248.66452988210955 248.66452988210955 0 0 0 148.31135504259265,7.193993020271567 L 147.59141299396813,4.281660029931636 L 155.22678902815656,5.999517071871005 L 149.271277774092,11.077103674058142 L 148.55133572546748,8.164770683718212 A 249.66452988210955 249.66452988210955 0 0 1 112.82363928577556,14.286198715367902"/><text text-anchor="middle" pointer-events="none" font-size="8px" fill="#000000" x="86.2131565242794" y="17.948765086132823" font-family="Helvetica Neue, Helvetica, Arial, sans-serif">PEERS_WITH</text></g><g class="relationship" transform="translate(176.21965097034246 -39.29702178820844) rotate(320.001568925029)"><path class="b-outline" fill="#A5ABB6" stroke="none" d="M 24.018736134675446,6.953439040707552 L 24.277555179777966,5.987513214418485 A 262.05314508403154 262.05314508403154 0 0 0 63.15323812910199,13.312889396551384 L 63.04276946131266,14.306769003665295 A 263.05314508403154 263.05314508403154 0 0 1 24.018736134675446,6.953439040707552 Z M 116.25060479416365,14.805967231764157 L 116.15880317426699,13.810189916003083 A 262.05314508403154 262.05314508403154 0 0 0 155.16508473626,7.215505716389254 L 154.44313364394057,4.30367010628027 L 162.07969300856757,6.016259102662052 L 156.12768619268596,11.097953196534567 L 155.4057351003665,8.186117586425583 A 263.05314508403154 263.05314508403154 0 0 1 116.25060479416365,14.805967231764157"/><text text-anchor="middle" pointer-events="none" font-size="8px" fill="#000000" x="89.63872332152854" y="18.405203040542176" font-family="Helvetica Neue, Helvetica, Arial, sans-serif">PEERS_WITH</text></g><g class="relationship" transform="translate(318.9714747566511 -159.07336341768823) rotate(190.25551948964687)"><path class="b-outline" fill="#A5ABB6" stroke="none" d="M 24.018736134675446,6.953439040707552 L 24.277555179777966,5.987513214418485 A 324.3661416138494 324.3661416138494 0 0 0 79.0987103508808,15.729261853381274 L 79.00890140929384,16.725220865595645 A 325.3661416138494 325.3661416138494 0 0 1 24.018736134675446,6.953439040707552 Z M 132.2295410299965,17.153668547830023 L 132.15577843535436,16.156392718567247 A 324.3661416138494 324.3661416138494 0 0 0 187.12666812844216,7.298514463070065 L 186.39696516820067,4.3886117860351765 L 194.0380582015638,6.080858002012405 L 188.09960540876415,11.178384699116581 L 187.36990244852265,8.268482022081693 A 325.3661416138494 325.3661416138494 0 0 1 132.2295410299965,17.153668547830023"/><text text-anchor="middle" pointer-events="none" font-size="8px" fill="#000000" x="105.61447107722145" y="20.529494854168377" transform="rotate(180 105.61447107722145 17.529494854168377)" font-family="Helvetica Neue, Helvetica, Arial, sans-serif">PEERS_WITH</text></g><g class="relationship" transform="translate(318.9714747566511 -159.07336341768823) rotate(210.44349375126217)"><path class="b-outline" fill="#A5ABB6" stroke="none" d="M 24.018736134675446,6.953439040707552 L 24.277555179777966,5.987513214418485 A 171.0751056562916 171.0751056562916 0 0 0 40.053754153473115,9.425875747583717 L 39.88715307844387,10.411900129533336 A 172.0751056562916 172.0751056562916 0 0 1 24.018736134675446,6.953439040707552 Z M 93.02465721862947,11.068043981925427 L 92.88245415875772,10.078206475178433 A 171.0751056562916 171.0751056562916 0 0 0 108.73874405364143,7.030443076143086 L 108.03407647679674,4.114376614941655 L 115.66034372591888,5.872229807039055 L 109.67830082276768,10.918531691078327 L 108.973633245923,8.002465229876895 A 172.0751056562916 172.0751056562916 0 0 1 93.02465721862947,11.068043981925427"/><text text-anchor="middle" pointer-events="none" font-size="8px" fill="#000000" x="66.43659645992595" y="15.303677205527435" transform="rotate(180 66.43659645992595 12.303677205527435)" font-family="Helvetica Neue, Helvetica, Arial, sans-serif">PEERS_WITH</text></g><g class="relationship" transform="translate(318.9714747566511 -159.07336341768823) rotate(244.12425985279293)"><path class="b-outline" fill="#A5ABB6" stroke="none" d="M 24.018736134675446,6.953439040707552 L 24.277555179777966,5.987513214418485 A 248.66452988210955 248.66452988210955 0 0 0 59.73681741790787,12.775467957039666 L 59.620597167474386,13.768691423027661 A 249.66452988210955 249.66452988210955 0 0 1 24.018736134675446,6.953439040707552 Z M 112.82363928577556,14.286198715367902 L 112.72676141552917,13.290902438746457 A 248.66452988210955 248.66452988210955 0 0 0 148.31135504259265,7.193993020271567 L 147.59141299396813,4.281660029931636 L 155.22678902815656,5.999517071871005 L 149.271277774092,11.077103674058142 L 148.55133572546748,8.164770683718212 A 249.66452988210955 249.66452988210955 0 0 1 112.82363928577556,14.286198715367902"/><text text-anchor="middle" pointer-events="none" font-size="8px" fill="#000000" x="86.2131565242794" y="17.948765086132823" transform="rotate(180 86.2131565242794 14.948765086132823)" font-family="Helvetica Neue, Helvetica, Arial, sans-serif">PEERS_WITH</text></g><g class="relationship" transform="translate(318.9714747566511 -159.07336341768823) rotate(500.001568925029)"><path class="b-outline" fill="#A5ABB6" stroke="none" d="M 24.018736134675446,6.953439040707552 L 24.277555179777966,5.987513214418485 A 262.05314508403154 262.05314508403154 0 0 0 63.15323812910199,13.312889396551384 L 63.04276946131266,14.306769003665295 A 263.05314508403154 263.05314508403154 0 0 1 24.018736134675446,6.953439040707552 Z M 116.25060479416365,14.805967231764157 L 116.15880317426699,13.810189916003083 A 262.05314508403154 262.05314508403154 0 0 0 155.16508473626,7.215505716389254 L 154.44313364394057,4.30367010628027 L 162.07969300856757,6.016259102662052 L 156.12768619268596,11.097953196534567 L 155.4057351003665,8.186117586425583 A 263.05314508403154 263.05314508403154 0 0 1 116.25060479416365,14.805967231764157"/><text text-anchor="middle" pointer-events="none" font-size="8px" fill="#000000" x="89.63872332152854" y="18.405203040542176" transform="rotate(180 89.63872332152854 15.405203040542176)" font-family="Helvetica Neue, Helvetica, Arial, sans-serif">PEERS_WITH</text></g><g class="relationship" transform="translate(318.9714747566511 -159.07336341768823) rotate(525.4146120557006)"><path class="b-outline" fill="#A5ABB6" stroke="none" d="M 24.018736134675446,6.953439040707552 L 24.277555179777966,5.987513214418485 A 110.71623310974084 110.71623310974084 0 0 0 25.031672374304904,6.186733905432732 L 24.779664590508386,7.15445911276484 A 111.71623310974084 111.71623310974084 0 0 1 24.018736134675446,6.953439040707552 Z M 77.70438000940237,7.97913104867429 L 77.48264540191269,7.004023996171128 A 110.71623310974084 110.71623310974084 0 0 0 78.24260348800571,6.8283955981508 L 77.55680761508263,3.907833319978723 L 85.17154811589441,5.714965607692301 L 79.15699798523649,10.722478635713571 L 78.4712021123134,7.801916357541494 A 111.71623310974084 111.71623310974084 0 0 1 77.70438000940237,7.97913104867429"/><text text-anchor="middle" pointer-events="none" font-size="8px" fill="#000000" x="51.20026596768292" y="13.246578284472875" transform="rotate(180 51.20026596768292 10.246578284472875)" font-family="Helvetica Neue, Helvetica, Arial, sans-serif">PEERS_WITH</text></g><g class="relationship" transform="translate(-186.65488229666195 45.26082811359315) rotate(408.03957134427947)"><path class="b-outline" fill="#A5ABB6" stroke="none" d="M 25 0.5 L 63.36523614206699 0.5 L 63.36523614206699 -0.5 L 25 -0.5 Z M 116.56523690500644 0.5 L 154.93047304707343 0.5 L 154.93047304707343 3.5 L 161.93047304707343 0 L 154.93047304707343 -3.5 L 154.93047304707343 -0.5 L 116.56523690500644 -0.5 Z"/><text text-anchor="middle" pointer-events="none" font-size="8px" fill="#000000" x="89.96523652353672" y="3" font-family="Helvetica Neue, Helvetica, Arial, sans-serif">PEERS_WITH</text></g><g class="relationship" transform="translate(44.22874278619852 55.130246412783066) rotate(489.3542331868622)"><path class="b-outline" fill="#A5ABB6" stroke="none" d="M 25 0.5 L 53.40143063990433 0.5 L 53.40143063990433 -0.5 L 25 -0.5 Z M 106.60143140284379 0.5 L 135.00286204274812 0.5 L 135.00286204274812 3.5 L 142.00286204274812 0 L 135.00286204274812 -3.5 L 135.00286204274812 -0.5 L 106.60143140284379 -0.5 Z"/><text text-anchor="middle" pointer-events="none" font-size="8px" fill="#000000" x="80.00143102137406" y="3" transform="rotate(180 80.00143102137406 0)" font-family="Helvetica Neue, Helvetica, Arial, sans-serif">PEERS_WITH</text></g><g class="relationship" transform="translate(4.9781761683107835 -110.46532773329193) rotate(436.6654563401722)"><path class="b-outline" fill="#A5ABB6" stroke="none" d="M 25 0.5 L 54.991863443154344 0.5 L 54.991863443154344 -0.5 L 25 -0.5 Z M 108.1918642060938 0.5 L 138.18372764924814 0.5 L 138.18372764924814 3.5 L 145.18372764924814 0 L 138.18372764924814 -3.5 L 138.18372764924814 -0.5 L 108.1918642060938 -0.5 Z"/><text text-anchor="middle" pointer-events="none" font-size="8px" fill="#000000" x="81.59186382462407" y="3" font-family="Helvetica Neue, Helvetica, Arial, sans-serif">PEERS_WITH</text></g><g class="relationship" transform="translate(240.63557478072636 -320.5737769766386) rotate(536.8640898855431)"><path class="b-outline" fill="#A5ABB6" stroke="none" d="M 24.018736134675446,-6.953439040707552 L 24.277555179777966,-5.987513214418485 A 258.75496990318004 258.75496990318004 0 0 1 62.311246665651,-13.181245148533549 L 62.199414909334095,-14.174972303379946 A 259.75496990318004 259.75496990318004 0 0 0 24.018736134675446,-6.953439040707552 Z M 115.40616307980926,-14.678561547696631 L 115.31316045628616,-13.682895684056689 A 258.75496990318004 258.75496990318004 0 0 1 153.47620003803019,-7.210347726357552 L 152.75473064184047,-4.2983927283602235 L 160.39100659938893,-6.012244968247738 L 154.43815923294983,-11.092954390353992 L 153.7166898367601,-8.180999392356663 A 259.75496990318004 259.75496990318004 0 0 0 115.40616307980926,-14.678561547696631"/><text text-anchor="middle" pointer-events="none" font-size="8px" fill="#000000" x="88.79459254220276" y="-12.29276353290362" transform="rotate(180 88.79459254220276 -15.29276353290362)" font-family="Helvetica Neue, Helvetica, Arial, sans-serif">PEERS_WITH</text></g><g class="relationship" transform="translate(-67.19686299925432 -390.47738806463923) rotate(392.9460329190483)"><path class="b-outline" fill="#A5ABB6" stroke="none" d="M 25 0.5 L 43.45464776562112 0.5 L 43.45464776562112 -0.5 L 25 -0.5 Z M 96.65464852856057 0.5 L 115.10929629418169 0.5 L 115.10929629418169 3.5 L 122.10929629418169 0 L 115.10929629418169 -3.5 L 115.10929629418169 -0.5 L 96.65464852856057 -0.5 Z"/><text text-anchor="middle" pointer-events="none" font-size="8px" fill="#000000" x="70.05464814709084" y="3" font-family="Helvetica Neue, Helvetica, Arial, sans-serif">PEERS_WITH</text></g><g class="relationship" transform="translate(104.17168260862663 -197.93686265816658) rotate(246.93596922781762)"><path class="b-outline" fill="#A5ABB6" stroke="none" d="M 24.018736134675446,6.953439040707552 L 24.277555179777966,5.987513214418485 A 136.18536720973975 136.18536720973975 0 0 0 31.31649710056103,7.674449248479789 L 31.1093645329781,8.652762132707778 A 137.18536720973975 137.18536720973975 0 0 1 24.018736134675446,6.953439040707552 Z M 84.16235685264861,9.397437786976383 L 83.98276455737822,8.41369665869135 A 136.18536720973975 136.18536720973975 0 0 0 91.06628122961331,6.924989803283544 L 90.37146298302966,4.006560841630646 L 97.99175184790069,5.790152054863822 L 91.99270555839152,10.81622841882074 L 91.29788731180787,7.897799457167843 A 137.18536720973975 137.18536720973975 0 0 1 84.16235685264861,9.397437786976383"/><text text-anchor="middle" pointer-events="none" font-size="8px" fill="#000000" x="57.60653357928435" y="14.114454056345124" transform="rotate(180 57.60653357928435 11.114454056345124)" font-family="Helvetica Neue, Helvetica, Arial, sans-serif">PEERS_WITH</text></g><g class="relationship" transform="translate(198.3070860860403 -229.98992111151475) rotate(209.53449021086726)"><path class="b-outline" fill="#A5ABB6" stroke="none" d="M 24.018736134675446,6.953439040707552 L 24.277555179777966,5.987513214418485 A 216.88600657554463 216.88600657554463 0 0 0 51.647037892163155,11.461783954621865 L 51.51441178658923,12.452950094136469 A 217.88600657554463 217.88600657554463 0 0 1 24.018736134675446,6.953439040707552 Z M 104.70079255809384,13.019674586470131 L 104.58931679770849,12.025907433236284 A 216.88600657554463 216.88600657554463 0 0 0 132.06923356114527,7.136081387743097 L 131.35469992093007,4.222416740430225 L 138.98687334491115,5.954447001793155 L 133.02194508143216,11.02096758416026 L 132.30741144121697,8.107302936847388 A 217.88600657554463 217.88600657554463 0 0 1 104.70079255809384,13.019674586470131"/><text text-anchor="middle" pointer-events="none" font-size="8px" fill="#000000" x="78.09557140321874" y="16.865384890006936" transform="rotate(180 78.09557140321874 13.865384890006936)" font-family="Helvetica Neue, Helvetica, Arial, sans-serif">PEERS_WITH</text></g><g class="relationship" transform="translate(56.254786002579394 -310.4721668919096) rotate(356.8640898855431)"><path class="b-outline" fill="#A5ABB6" stroke="none" d="M 24.018736134675446,-6.953439040707552 L 24.277555179777966,-5.987513214418485 A 258.75496990318004 258.75496990318004 0 0 1 62.311246665651,-13.181245148533549 L 62.199414909334095,-14.174972303379946 A 259.75496990318004 259.75496990318004 0 0 0 24.018736134675446,-6.953439040707552 Z M 115.40616307980926,-14.678561547696631 L 115.31316045628616,-13.682895684056689 A 258.75496990318004 258.75496990318004 0 0 1 153.47620003803019,-7.210347726357552 L 152.75473064184047,-4.2983927283602235 L 160.39100659938893,-6.012244968247738 L 154.43815923294983,-11.092954390353992 L 153.7166898367601,-8.180999392356663 A 259.75496990318004 259.75496990318004 0 0 0 115.40616307980926,-14.678561547696631"/><text text-anchor="middle" pointer-events="none" font-size="8px" fill="#000000" x="88.79459254220276" y="-12.29276353290362" font-family="Helvetica Neue, Helvetica, Arial, sans-serif">PEERS_WITH</text></g><g class="relationship" transform="translate(56.254786002579394 -310.4721668919096) rotate(389.53449021086726)"><path class="b-outline" fill="#A5ABB6" stroke="none" d="M 24.018736134675446,6.953439040707552 L 24.277555179777966,5.987513214418485 A 216.88600657554463 216.88600657554463 0 0 0 51.647037892163155,11.461783954621865 L 51.51441178658923,12.452950094136469 A 217.88600657554463 217.88600657554463 0 0 1 24.018736134675446,6.953439040707552 Z M 104.70079255809384,13.019674586470131 L 104.58931679770849,12.025907433236284 A 216.88600657554463 216.88600657554463 0 0 0 132.06923356114527,7.136081387743097 L 131.35469992093007,4.222416740430225 L 138.98687334491115,5.954447001793155 L 133.02194508143216,11.02096758416026 L 132.30741144121697,8.107302936847388 A 217.88600657554463 217.88600657554463 0 0 1 104.70079255809384,13.019674586470131"/><text text-anchor="middle" pointer-events="none" font-size="8px" fill="#000000" x="78.09557140321874" y="16.865384890006936" font-family="Helvetica Neue, Helvetica, Arial, sans-serif">PEERS_WITH</text></g><g class="relationship" transform="translate(56.254786002579394 -310.4721668919096) rotate(426.9359692278176)"><path class="b-outline" fill="#A5ABB6" stroke="none" d="M 24.018736134675446,6.953439040707552 L 24.277555179777966,5.987513214418485 A 136.18536720973975 136.18536720973975 0 0 0 31.31649710056103,7.674449248479789 L 31.1093645329781,8.652762132707778 A 137.18536720973975 137.18536720973975 0 0 1 24.018736134675446,6.953439040707552 Z M 84.16235685264861,9.397437786976383 L 83.98276455737822,8.41369665869135 A 136.18536720973975 136.18536720973975 0 0 0 91.06628122961331,6.924989803283544 L 90.37146298302966,4.006560841630646 L 97.99175184790069,5.790152054863822 L 91.99270555839152,10.81622841882074 L 91.29788731180787,7.897799457167843 A 137.18536720973975 137.18536720973975 0 0 1 84.16235685264861,9.397437786976383"/><text text-anchor="middle" pointer-events="none" font-size="8px" fill="#000000" x="57.60653357928435" y="14.114454056345124" font-family="Helvetica Neue, Helvetica, Arial, sans-serif">PEERS_WITH</text></g><g class="relationship" transform="translate(56.254786002579394 -310.4721668919096) rotate(464.3794605608424)"><path class="b-outline" fill="#A5ABB6" stroke="none" d="M 25 0.5 L 73.13762166872688 0.5 L 73.13762166872688 -0.5 L 25 -0.5 Z M 126.33762243166633 0.5 L 174.4752441003932 0.5 L 174.4752441003932 3.5 L 181.4752441003932 0 L 174.4752441003932 -3.5 L 174.4752441003932 -0.5 L 126.33762243166633 -0.5 Z"/><text text-anchor="middle" pointer-events="none" font-size="8px" fill="#000000" x="99.7376220501966" y="3" transform="rotate(180 99.7376220501966 0)" font-family="Helvetica Neue, Helvetica, Arial, sans-serif">PEERS_WITH</text></g><g class="relationship" transform="translate(4.9781761683107835 -110.46532773329193) rotate(500.9017658092914)"><path class="b-outline" fill="#A5ABB6" stroke="none" d="M 25 0.5 L 93.36443246407491 0.5 L 93.36443246407491 -0.5 L 25 -0.5 Z M 146.56443322701438 0.5 L 214.92886569108927 0.5 L 214.92886569108927 3.5 L 221.92886569108927 0 L 214.92886569108927 -3.5 L 214.92886569108927 -0.5 L 146.56443322701438 -0.5 Z"/><text text-anchor="middle" pointer-events="none" font-size="8px" fill="#000000" x="119.96443284554464" y="3" transform="rotate(180 119.96443284554464 0)" font-family="Helvetica Neue, Helvetica, Arial, sans-serif">PEERS_WITH</text></g><g class="relationship" transform="translate(-186.65488229666195 45.26082811359315) rotate(484.22534254272625)"><path class="b-outline" fill="#A5ABB6" stroke="none" d="M 25 0.5 L 53.450944386001666 0.5 L 53.450944386001666 -0.5 L 25 -0.5 Z M 106.65094514894112 0.5 L 135.10188953494279 0.5 L 135.10188953494279 3.5 L 142.10188953494279 0 L 135.10188953494279 -3.5 L 135.10188953494279 -0.5 L 106.65094514894112 -0.5 Z"/><text text-anchor="middle" pointer-events="none" font-size="8px" fill="#000000" x="80.05094476747139" y="3" transform="rotate(180 80.05094476747139 0)" font-family="Helvetica Neue, Helvetica, Arial, sans-serif">PEERS_WITH</text></g><g class="relationship" transform="translate(-186.65488229666195 45.26082811359315) rotate(439.89283382007306)"><path class="b-outline" fill="#A5ABB6" stroke="none" d="M 25 0.5 L 42.34936178282791 0.5 L 42.34936178282791 -0.5 L 25 -0.5 Z M 95.54936254576737 0.5 L 112.89872432859528 0.5 L 112.89872432859528 3.5 L 119.89872432859528 0 L 112.89872432859528 -3.5 L 112.89872432859528 -0.5 L 95.54936254576737 -0.5 Z"/><text text-anchor="middle" pointer-events="none" font-size="8px" fill="#000000" x="68.94936216429764" y="3" font-family="Helvetica Neue, Helvetica, Arial, sans-serif">PEERS_WITH</text></g><g class="relationship" transform="translate(-186.65488229666195 45.26082811359315) rotate(190.4060623807896)"><path class="b-outline" fill="#A5ABB6" stroke="none" d="M 25 0.5 L 44.63087463354307 0.5 L 44.63087463354307 -0.5 L 25 -0.5 Z M 97.83087539648253 0.5 L 117.4617500300256 0.5 L 117.4617500300256 3.5 L 124.4617500300256 0 L 117.4617500300256 -3.5 L 117.4617500300256 -0.5 L 97.83087539648253 -0.5 Z"/><text text-anchor="middle" pointer-events="none" font-size="8px" fill="#000000" x="71.2308750150128" y="3" transform="rotate(180 71.2308750150128 0)" font-family="Helvetica Neue, Helvetica, Arial, sans-serif">PEERS_WITH</text></g><g class="relationship" transform="translate(-186.65488229666195 45.26082811359315) rotate(262.21634126890075)"><path class="b-outline" fill="#A5ABB6" stroke="none" d="M 25 0.5 L 49.74974045790242 0.5 L 49.74974045790242 -0.5 L 25 -0.5 Z M 102.94974122084187 0.5 L 127.69948167874429 0.5 L 127.69948167874429 3.5 L 134.6994816787443 0 L 127.69948167874429 -3.5 L 127.69948167874429 -0.5 L 102.94974122084187 -0.5 Z"/><text text-anchor="middle" pointer-events="none" font-size="8px" fill="#000000" x="76.34974083937215" y="3" transform="rotate(180 76.34974083937215 0)" font-family="Helvetica Neue, Helvetica, Arial, sans-serif">PEERS_WITH</text></g><g class="relationship" transform="translate(-186.65488229666195 45.26082811359315) rotate(362.9850922194066)"><path class="b-outline" fill="#A5ABB6" stroke="none" d="M 25 0.5 L 35.64243519246081 0.5 L 35.64243519246081 -0.5 L 25 -0.5 Z M 88.84243595540026 0.5 L 99.48487114786107 0.5 L 99.48487114786107 3.5 L 106.48487114786107 0 L 99.48487114786107 -3.5 L 99.48487114786107 -0.5 L 88.84243595540026 -0.5 Z"/><text text-anchor="middle" pointer-events="none" font-size="8px" fill="#000000" x="62.242435573930535" y="3" font-family="Helvetica Neue, Helvetica, Arial, sans-serif">PEERS_WITH</text></g><g class="relationship" transform="translate(4.9781761683107835 -110.46532773329193) rotate(180.67214990087155)"><path class="b-outline" fill="#A5ABB6" stroke="none" d="M 25 0.5 L 76.53815632390935 0.5 L 76.53815632390935 -0.5 L 25 -0.5 Z M 129.7381570868488 0.5 L 181.27631341075815 0.5 L 181.27631341075815 3.5 L 188.27631341075815 0 L 181.27631341075815 -3.5 L 181.27631341075815 -0.5 L 129.7381570868488 -0.5 Z"/><text text-anchor="middle" pointer-events="none" font-size="8px" fill="#000000" x="103.13815670537907" y="3" transform="rotate(180 103.13815670537907 0)" font-family="Helvetica Neue, Helvetica, Arial, sans-serif">PEERS_WITH</text></g><g class="relationship" transform="translate(-208.28346168314184 -112.96726358374839) rotate(493.69247239673064)"><path class="b-outline" fill="#A5ABB6" stroke="none" d="M 25 0.5 L 60.64780029114732 0.5 L 60.64780029114732 -0.5 L 25 -0.5 Z M 113.84780105408677 0.5 L 149.4956013452341 0.5 L 149.4956013452341 3.5 L 156.4956013452341 0 L 149.4956013452341 -3.5 L 149.4956013452341 -0.5 L 113.84780105408677 -0.5 Z"/><text text-anchor="middle" pointer-events="none" font-size="8px" fill="#000000" x="87.24780067261705" y="3" transform="rotate(180 87.24780067261705 0)" font-family="Helvetica Neue, Helvetica, Arial, sans-serif">PEERS_WITH</text></g><g class="relationship" transform="translate(-280.6411979516881 183.42599722557304) rotate(252.20326829402268)"><path class="b-outline" fill="#A5ABB6" stroke="none" d="M 25 0.5 L 56.63107188804156 0.5 L 56.63107188804156 -0.5 L 25 -0.5 Z M 109.83107265098101 0.5 L 141.46214453902257 0.5 L 141.46214453902257 3.5 L 148.46214453902257 0 L 141.46214453902257 -3.5 L 141.46214453902257 -0.5 L 109.83107265098101 -0.5 Z"/><text text-anchor="middle" pointer-events="none" font-size="8px" fill="#000000" x="83.23107226951129" y="3" transform="rotate(180 83.23107226951129 0)" font-family="Helvetica Neue, Helvetica, Arial, sans-serif">PEERS_WITH</text></g><g class="relationship" transform="translate(212.99102605629997 -131.49638425305582) rotate(211.40646986812317)"><path class="b-outline" fill="#A5ABB6" stroke="none" d="M 24.018736134675446,6.953439040707552 L 24.277555179777966,5.987513214418485 A 146.4622123631855 146.4622123631855 0 0 0 33.878248447013945,8.216682650951213 L 33.68498005222817,9.197828576681388 A 147.4622123631855 147.4622123631855 0 0 1 24.018736134675446,6.953439040707552 Z M 86.77015814623391,9.914168995991815 L 86.60343480318204,8.928165280541606 A 146.4622123631855 146.4622123631855 0 0 0 96.26078290592365,6.95886712871361 L 95.56280045921164,4.041193311426641 L 103.18501888737859,5.816520389266747 L 97.19142616820633,10.849098885096236 L 96.49344372149433,7.931425067809267 A 147.4622123631855 147.4622123631855 0 0 1 86.77015814623391,9.914168995991815"/><text text-anchor="middle" pointer-events="none" font-size="8px" fill="#000000" x="60.201812577803075" y="14.464713540142384" transform="rotate(180 60.201812577803075 11.464713540142384)" font-family="Helvetica Neue, Helvetica, Arial, sans-serif">PEERS_WITH</text></g><g class="relationship" transform="translate(198.3070860860403 -229.98992111151475) rotate(521.1963166597322)"><path class="b-outline" fill="#A5ABB6" stroke="none" d="M 24.018736134675446,6.953439040707552 L 24.277555179777966,5.987513214418485 A 90.5562120733265 90.5562120733265 0 0 0 26.96371063136793,6.66341012471274 L 26.73455443754959,7.6367997891507144 A 91.5562120733265 91.5562120733265 0 0 1 24.018736134675446,6.953439040707552 Z M 65.6439954822474,8.300553853798306 L 65.44817296447886,7.319914500348318 A 90.5562120733265 90.5562120733265 0 0 0 68.15581895676533,6.736030159141429 L 67.47865089820576,3.813455366177754 L 75.0880214834405,5.643067154663054 L 69.05870970151142,10.632796549759663 L 68.38154164295185,7.710221756795987 A 91.5562120733265 91.5562120733265 0 0 1 65.6439954822474,8.300553853798306"/><text text-anchor="middle" pointer-events="none" font-size="8px" fill="#000000" x="46.1621304514124" y="12.559895179116836" transform="rotate(180 46.1621304514124 9.559895179116836)" font-family="Helvetica Neue, Helvetica, Arial, sans-serif">PEERS_…</text></g><g class="relationship" transform="translate(240.63557478072636 -320.5737769766386) rotate(498.0547056932134)"><path class="b-outline" fill="#A5ABB6" stroke="none" d="M 24.018736134675446,-6.953439040707552 L 24.277555179777966,-5.987513214418485 A 256.43941720052726 256.43941720052726 0 0 1 61.72025522313176,-13.088539036861505 L 61.60744610291561,-14.08215571465837 A 257.43941720052726 257.43941720052726 0 0 0 24.018736134675446,-6.953439040707552 Z M 114.813396118453,-14.588873415954026 L 114.7195315653284,-13.59328843933639 A 256.43941720052726 256.43941720052726 0 0 1 152.29068391372775,-7.206672318029815 L 151.56955775862585,-4.294632299687355 L 159.20563164904382,-6.009384625849136 L 153.25218545386363,-11.08939234248643 L 152.53105929876173,-8.17735232414397 A 257.43941720052726 257.43941720052726 0 0 0 114.813396118453,-14.588873415954026"/><text text-anchor="middle" pointer-events="none" font-size="8px" fill="#000000" x="88.2020563620637" y="-12.213822932791231" transform="rotate(180 88.2020563620637 -15.213822932791231)" font-family="Helvetica Neue, Helvetica, Arial, sans-serif">PEERS_WITH</text></g><g class="relationship" transform="translate(104.17168260862663 -197.93686265816658) rotate(341.19631665973225)"><path class="b-outline" fill="#A5ABB6" stroke="none" d="M 24.018736134675446,6.953439040707552 L 24.277555179777966,5.987513214418485 A 90.5562120733265 90.5562120733265 0 0 0 26.96371063136793,6.66341012471274 L 26.73455443754959,7.6367997891507144 A 91.5562120733265 91.5562120733265 0 0 1 24.018736134675446,6.953439040707552 Z M 65.6439954822474,8.300553853798306 L 65.44817296447886,7.319914500348318 A 90.5562120733265 90.5562120733265 0 0 0 68.15581895676533,6.736030159141429 L 67.47865089820576,3.813455366177754 L 75.0880214834405,5.643067154663054 L 69.05870970151142,10.632796549759663 L 68.38154164295185,7.710221756795987 A 91.5562120733265 91.5562120733265 0 0 1 65.6439954822474,8.300553853798306"/><text text-anchor="middle" pointer-events="none" font-size="8px" fill="#000000" x="46.1621304514124" y="12.559895179116836" font-family="Helvetica Neue, Helvetica, Arial, sans-serif">PEERS_…</text></g><g class="relationship" transform="translate(104.17168260862663 -197.93686265816658) rotate(318.0547056932134)"><path class="b-outline" fill="#A5ABB6" stroke="none" d="M 24.018736134675446,-6.953439040707552 L 24.277555179777966,-5.987513214418485 A 256.43941720052726 256.43941720052726 0 0 1 61.72025522313176,-13.088539036861505 L 61.60744610291561,-14.08215571465837 A 257.43941720052726 257.43941720052726 0 0 0 24.018736134675446,-6.953439040707552 Z M 114.813396118453,-14.588873415954026 L 114.7195315653284,-13.59328843933639 A 256.43941720052726 256.43941720052726 0 0 1 152.29068391372775,-7.206672318029815 L 151.56955775862585,-4.294632299687355 L 159.20563164904382,-6.009384625849136 L 153.25218545386363,-11.08939234248643 L 152.53105929876173,-8.17735232414397 A 257.43941720052726 257.43941720052726 0 0 0 114.813396118453,-14.588873415954026"/><text text-anchor="middle" pointer-events="none" font-size="8px" fill="#000000" x="88.2020563620637" y="-12.213822932791231" font-family="Helvetica Neue, Helvetica, Arial, sans-serif">PEERS_WITH</text></g><g class="relationship" transform="translate(104.17168260862663 -197.93686265816658) rotate(391.40646986812317)"><path class="b-outline" fill="#A5ABB6" stroke="none" d="M 24.018736134675446,6.953439040707552 L 24.277555179777966,5.987513214418485 A 146.4622123631855 146.4622123631855 0 0 0 33.878248447013945,8.216682650951213 L 33.68498005222817,9.197828576681388 A 147.4622123631855 147.4622123631855 0 0 1 24.018736134675446,6.953439040707552 Z M 86.77015814623391,9.914168995991815 L 86.60343480318204,8.928165280541606 A 146.4622123631855 146.4622123631855 0 0 0 96.26078290592365,6.95886712871361 L 95.56280045921164,4.041193311426641 L 103.18501888737859,5.816520389266747 L 97.19142616820633,10.849098885096236 L 96.49344372149433,7.931425067809267 A 147.4622123631855 147.4622123631855 0 0 1 86.77015814623391,9.914168995991815"/><text text-anchor="middle" pointer-events="none" font-size="8px" fill="#000000" x="60.201812577803075" y="14.464713540142384" font-family="Helvetica Neue, Helvetica, Arial, sans-serif">PEERS_WITH</text></g><g class="relationship" transform="translate(212.99102605629997 -131.49638425305582) rotate(534.226751298362)"><path class="b-outline" fill="#A5ABB6" stroke="none" d="M 25 0.5 L 74.43665713260594 0.5 L 74.43665713260594 -0.5 L 25 -0.5 Z M 127.6366578955454 0.5 L 177.07331502815134 0.5 L 177.07331502815134 3.5 L 184.07331502815134 0 L 177.07331502815134 -3.5 L 177.07331502815134 -0.5 L 127.6366578955454 -0.5 Z"/><text text-anchor="middle" pointer-events="none" font-size="8px" fill="#000000" x="101.03665751407567" y="3" transform="rotate(180 101.03665751407567 0)" font-family="Helvetica Neue, Helvetica, Arial, sans-serif">PEERS_WITH</text></g><g class="relationship" transform="translate(198.3070860860403 -229.98992111151475) rotate(508.2737862308652)"><path class="b-outline" fill="#A5ABB6" stroke="none" d="M 25 0.5 L 83.54659639138471 0.5 L 83.54659639138471 -0.5 L 25 -0.5 Z M 136.74659715432415 0.5 L 195.29319354570887 0.5 L 195.29319354570887 3.5 L 202.29319354570887 0 L 195.29319354570887 -3.5 L 195.29319354570887 -0.5 L 136.74659715432415 -0.5 Z"/><text text-anchor="middle" pointer-events="none" font-size="8px" fill="#000000" x="110.14659677285444" y="3" transform="rotate(180 110.14659677285444 0)" font-family="Helvetica Neue, Helvetica, Arial, sans-serif">PEERS_WITH</text></g><g class="relationship" transform="translate(176.21965097034246 -39.29702178820844) rotate(202.5678700686517)"><path class="b-outline" fill="#A5ABB6" stroke="none" d="M 25 0.5 L 62.620777310841305 0.5 L 62.620777310841305 -0.5 L 25 -0.5 Z M 115.82077807378076 0.5 L 153.44155538462206 0.5 L 153.44155538462206 3.5 L 160.44155538462206 0 L 153.44155538462206 -3.5 L 153.44155538462206 -0.5 L 115.82077807378076 -0.5 Z"/><text text-anchor="middle" pointer-events="none" font-size="8px" fill="#000000" x="89.22077769231103" y="3" transform="rotate(180 89.22077769231103 0)" font-family="Helvetica Neue, Helvetica, Arial, sans-serif">PEERS_WITH</text></g><g class="relationship" transform="translate(4.9781761683107835 -110.46532773329193) rotate(470.3585320172331)"><path class="b-outline" fill="#A5ABB6" stroke="none" d="M 25 0.5 L 56.602654547330644 0.5 L 56.602654547330644 -0.5 L 25 -0.5 Z M 109.8026553102701 0.5 L 141.40530985760074 0.5 L 141.40530985760074 3.5 L 148.40530985760074 0 L 141.40530985760074 -3.5 L 141.40530985760074 -0.5 L 109.8026553102701 -0.5 Z"/><text text-anchor="middle" pointer-events="none" font-size="8px" fill="#000000" x="83.20265492880037" y="3" transform="rotate(180 83.20265492880037 0)" font-family="Helvetica Neue, Helvetica, Arial, sans-serif">PEERS_WITH</text></g><g class="relationship" transform="translate(4.9781761683107835 -110.46532773329193) rotate(518.5812061344168)"><path class="b-outline" fill="#A5ABB6" stroke="none" d="M 25 0.5 L 39.43012935144907 0.5 L 39.43012935144907 -0.5 L 25 -0.5 Z M 92.63013011438852 0.5 L 107.06025946583759 0.5 L 107.06025946583759 3.5 L 114.06025946583759 0 L 107.06025946583759 -3.5 L 107.06025946583759 -0.5 L 92.63013011438852 -0.5 Z"/><text text-anchor="middle" pointer-events="none" font-size="8px" fill="#000000" x="66.0301297329188" y="3" transform="rotate(180 66.0301297329188 0)" font-family="Helvetica Neue, Helvetica, Arial, sans-serif">PEERS_WITH</text></g><g class="relationship" transform="translate(176.21965097034246 -39.29702178820844) rotate(417.0022486847695)"><path class="b-outline" fill="#A5ABB6" stroke="none" d="M 25 0.5 L 45.274320854646874 0.5 L 45.274320854646874 -0.5 L 25 -0.5 Z M 98.47432161758633 0.5 L 118.7486424722332 0.5 L 118.7486424722332 3.5 L 125.7486424722332 0 L 118.7486424722332 -3.5 L 118.7486424722332 -0.5 L 98.47432161758633 -0.5 Z"/><text text-anchor="middle" pointer-events="none" font-size="8px" fill="#000000" x="71.8743212361166" y="3" font-family="Helvetica Neue, Helvetica, Arial, sans-serif">PEERS_WITH</text></g><g class="relationship" transform="translate(-55.348420572660864 52.10805019945179) rotate(487.94163222707806)"><path class="b-outline" fill="#A5ABB6" stroke="none" d="M 25 0.5 L 55.99966467469547 0.5 L 55.99966467469547 -0.5 L 25 -0.5 Z M 109.19966543763492 0.5 L 140.1993301123304 0.5 L 140.1993301123304 3.5 L 147.1993301123304 0 L 140.1993301123304 -3.5 L 140.1993301123304 -0.5 L 109.19966543763492 -0.5 Z"/><text text-anchor="middle" pointer-events="none" font-size="8px" fill="#000000" x="82.5996650561652" y="3" transform="rotate(180 82.5996650561652 0)" font-family="Helvetica Neue, Helvetica, Arial, sans-serif">PEERS_WITH</text></g><g class="relationship" transform="translate(198.3070860860403 -229.98992111151475) rotate(456.6069715703216)"><path class="b-outline" fill="#A5ABB6" stroke="none" d="M 24.018736134675446,6.953439040707552 L 24.277555179777966,5.987513214418485 A 273.03674092968504 273.03674092968504 0 0 0 65.95891400608511,13.748082411451833 L 65.85275338594175,14.74243140588527 A 274.03674092968504 274.03674092968504 0 0 1 24.018736134675446,6.953439040707552 Z M 119.0638261718396,15.227534921777021 L 118.97581183352528,14.231415713925344 A 273.03674092968504 273.03674092968504 0 0 0 160.7917308665659,7.232056936759536 L 160.06823409213268,4.3206049935901625 L 167.70570152969998,6.02913978694357 L 161.75639323247685,11.113992860985366 L 161.03289645804364,8.202540917815993 A 274.03674092968504 274.03674092968504 0 0 1 119.0638261718396,15.227534921777021"/><text text-anchor="middle" pointer-events="none" font-size="8px" fill="#000000" x="92.4510451443711" y="18.779648141716052" transform="rotate(180 92.4510451443711 15.779648141716052)" font-family="Helvetica Neue, Helvetica, Arial, sans-serif">PEERS_WITH</text></g><g class="relationship" transform="translate(176.21965097034246 -39.29702178820844) rotate(276.6069715703216)"><path class="b-outline" fill="#A5ABB6" stroke="none" d="M 24.018736134675446,6.953439040707552 L 24.277555179777966,5.987513214418485 A 273.03674092968504 273.03674092968504 0 0 0 65.95891400608511,13.748082411451833 L 65.85275338594175,14.74243140588527 A 274.03674092968504 274.03674092968504 0 0 1 24.018736134675446,6.953439040707552 Z M 119.0638261718396,15.227534921777021 L 118.97581183352528,14.231415713925344 A 273.03674092968504 273.03674092968504 0 0 0 160.7917308665659,7.232056936759536 L 160.06823409213268,4.3206049935901625 L 167.70570152969998,6.02913978694357 L 161.75639323247685,11.113992860985366 L 161.03289645804364,8.202540917815993 A 274.03674092968504 274.03674092968504 0 0 1 119.0638261718396,15.227534921777021"/><text text-anchor="middle" pointer-events="none" font-size="8px" fill="#000000" x="92.4510451443711" y="18.779648141716052" font-family="Helvetica Neue, Helvetica, Arial, sans-serif">PEERS_WITH</text></g><g class="relationship" transform="translate(240.63557478072636 -320.5737769766386) rotate(458.3181402753495)"><path class="b-outline" fill="#A5ABB6" stroke="none" d="M 24.018736134675446,-6.953439040707552 L 24.277555179777966,-5.987513214418485 A 271.31788186690113 271.31788186690113 0 0 1 65.51968147778919,-13.680288854569653 L 65.41286909739388,-14.674568048455512 A 272.31788186690113 272.31788186690113 0 0 0 24.018736134675446,-6.953439040707552 Z M 118.62347141848511,-15.161825340869996 L 118.53488494385005,-14.165756851000083 A 271.31788186690113 271.31788186690113 0 0 1 159.91097117953763,-7.229528304610029 L 159.1877105476289,-4.318017690112633 L 166.82503938534967,-6.027171932572592 L 160.87531868874925,-11.111542457273224 L 160.15205805684053,-8.200031842775827 A 272.31788186690113 272.31788186690113 0 0 0 118.62347141848511,-15.161825340869996"/><text text-anchor="middle" pointer-events="none" font-size="8px" fill="#000000" x="92.01081841105021" y="-12.721050150612143" transform="rotate(180 92.01081841105021 -15.721050150612143)" font-family="Helvetica Neue, Helvetica, Arial, sans-serif">PEERS_WITH</text></g><g class="relationship" transform="translate(198.3070860860403 -229.98992111151475) rotate(441.5204956203425)"><path class="b-outline" fill="#A5ABB6" stroke="none" d="M 24.018736134675446,6.953439040707552 L 24.277555179777966,5.987513214418485 A 90.83614146807149 90.83614146807149 0 0 0 27.03202715036672,6.6796062938649925 L 26.80353162986654,7.653151257958257 A 91.83614146807149 91.83614146807149 0 0 1 24.018736134675446,6.953439040707552 Z M 65.71416205258845,8.31605619403598 L 65.51896130492334,7.33529288512247 A 90.83614146807149 90.83614146807149 0 0 0 68.29540977809214,6.737427897675204 L 67.61811115428527,3.8148833600865433 L 75.22756346976682,5.644155198390609 L 69.19847460983463,10.634153947793417 L 68.52117598602777,7.7116094102047565 A 91.83614146807149 91.83614146807149 0 0 1 65.71416205258845,8.31605619403598"/><text text-anchor="middle" pointer-events="none" font-size="8px" fill="#000000" x="46.23184682722251" y="12.569427596177206" font-family="Helvetica Neue, Helvetica, Arial, sans-serif">PEERS_…</text></g><g class="relationship" transform="translate(212.99102605629997 -131.49638425305582) rotate(278.3181402753495)"><path class="b-outline" fill="#A5ABB6" stroke="none" d="M 24.018736134675446,-6.953439040707552 L 24.277555179777966,-5.987513214418485 A 271.31788186690113 271.31788186690113 0 0 1 65.51968147778919,-13.680288854569653 L 65.41286909739388,-14.674568048455512 A 272.31788186690113 272.31788186690113 0 0 0 24.018736134675446,-6.953439040707552 Z M 118.62347141848511,-15.161825340869996 L 118.53488494385005,-14.165756851000083 A 271.31788186690113 271.31788186690113 0 0 1 159.91097117953763,-7.229528304610029 L 159.1877105476289,-4.318017690112633 L 166.82503938534967,-6.027171932572592 L 160.87531868874925,-11.111542457273224 L 160.15205805684053,-8.200031842775827 A 272.31788186690113 272.31788186690113 0 0 0 118.62347141848511,-15.161825340869996"/><text text-anchor="middle" pointer-events="none" font-size="8px" fill="#000000" x="92.01081841105021" y="-12.721050150612143" font-family="Helvetica Neue, Helvetica, Arial, sans-serif">PEERS_WITH</text></g><g class="relationship" transform="translate(212.99102605629997 -131.49638425305582) rotate(261.5204956203425)"><path class="b-outline" fill="#A5ABB6" stroke="none" d="M 24.018736134675446,6.953439040707552 L 24.277555179777966,5.987513214418485 A 90.83614146807149 90.83614146807149 0 0 0 27.03202715036672,6.6796062938649925 L 26.80353162986654,7.653151257958257 A 91.83614146807149 91.83614146807149 0 0 1 24.018736134675446,6.953439040707552 Z M 65.71416205258845,8.31605619403598 L 65.51896130492334,7.33529288512247 A 90.83614146807149 90.83614146807149 0 0 0 68.29540977809214,6.737427897675204 L 67.61811115428527,3.8148833600865433 L 75.22756346976682,5.644155198390609 L 69.19847460983463,10.634153947793417 L 68.52117598602777,7.7116094102047565 A 91.83614146807149 91.83614146807149 0 0 1 65.71416205258845,8.31605619403598"/><text text-anchor="middle" pointer-events="none" font-size="8px" fill="#000000" x="46.23184682722251" y="12.569427596177206" transform="rotate(180 46.23184682722251 9.569427596177206)" font-family="Helvetica Neue, Helvetica, Arial, sans-serif">PEERS_…</text></g><g class="relationship" transform="translate(240.63557478072636 -320.5737769766386) rotate(475.04598485517806)"><path class="b-outline" fill="#A5ABB6" stroke="none" d="M 24.018736134675446,-6.953439040707552 L 24.277555179777966,-5.987513214418485 A 91.64703582374797 91.64703582374797 0 0 1 27.230029966652918,-6.72630786940627 L 27.003426636552387,-7.700295000115574 A 92.64703582374797 92.64703582374797 0 0 0 24.018736134675446,-6.953439040707552 Z M 65.91743079965596,-8.360750962454318 L 65.72400985356558,-7.379635098953216 A 91.64703582374797 91.64703582374797 0 0 1 68.69985488635477,-6.741457028039816 L 68.02217989483583,-3.81899973906709 L 75.63186772587761,-5.647291595991097 L 69.60342154171335,-10.638066746670118 L 68.9257465501944,-7.715609457697392 A 92.64703582374797 92.64703582374797 0 0 0 65.91743079965596,-8.360750962454318"/><text text-anchor="middle" pointer-events="none" font-size="8px" fill="#000000" x="46.43384146661018" y="-6.597041378149754" transform="rotate(180 46.43384146661018 -9.597041378149754)" font-family="Helvetica Neue, Helvetica, Arial, sans-serif">PEERS_…</text></g><g class="relationship" transform="translate(198.3070860860403 -229.98992111151475) rotate(295.04598485517806)"><path class="b-outline" fill="#A5ABB6" stroke="none" d="M 24.018736134675446,-6.953439040707552 L 24.277555179777966,-5.987513214418485 A 91.64703582374797 91.64703582374797 0 0 1 27.230029966652918,-6.72630786940627 L 27.003426636552387,-7.700295000115574 A 92.64703582374797 92.64703582374797 0 0 0 24.018736134675446,-6.953439040707552 Z M 65.91743079965596,-8.360750962454318 L 65.72400985356558,-7.379635098953216 A 91.64703582374797 91.64703582374797 0 0 1 68.69985488635477,-6.741457028039816 L 68.02217989483583,-3.81899973906709 L 75.63186772587761,-5.647291595991097 L 69.60342154171335,-10.638066746670118 L 68.9257465501944,-7.715609457697392 A 92.64703582374797 92.64703582374797 0 0 0 65.91743079965596,-8.360750962454318"/><text text-anchor="middle" pointer-events="none" font-size="8px" fill="#000000" x="46.43384146661018" y="-6.597041378149754" font-family="Helvetica Neue, Helvetica, Arial, sans-serif">PEERS_…</text></g></g><g class="layer nodes"><g class="node" aria-label="graph-node660" transform="translate(-161.22662546251746,187.91090370569032)"><circle class="b-outline" cx="0" cy="0" r="25" fill="#C990C0" stroke="#b261a5" stroke-width="2px"/><text class="caption" text-anchor="middle" pointer-events="none" x="0" y="5" font-size="10px" fill="#FFFFFF" font-family="Helvetica Neue, Helvetica, Arial, sans-serif"> 43754</text></g><g class="node" aria-label="graph-node49000" transform="translate(-158.69327979321977,322.2488238342687)"><circle class="b-outline" cx="0" cy="0" r="25" fill="#C990C0" stroke="#b261a5" stroke-width="2px"/><text class="caption" text-anchor="middle" pointer-events="none" x="0" y="5" font-size="10px" fill="#FFFFFF" font-family="Helvetica Neue, Helvetica, Arial, sans-serif"> 49100</text></g><g class="node" aria-label="graph-node97141" transform="translate(-280.6411979516881,183.42599722557304)"><circle class="b-outline" cx="0" cy="0" r="25" fill="#C990C0" stroke="#b261a5" stroke-width="2px"/><text class="caption" text-anchor="middle" pointer-events="none" x="0" y="5" font-size="10px" fill="#FFFFFF" font-family="Helvetica Neue, Helvetica, Arial, sans-serif"> 202251</text></g><g class="node" aria-label="graph-node58026" transform="translate(-61.669953999250055,184.2635958993227)"><circle class="b-outline" cx="0" cy="0" r="25" fill="#C990C0" stroke="#b261a5" stroke-width="2px"/><text class="caption" text-anchor="middle" pointer-events="none" x="0" y="5" font-size="10px" fill="#FFFFFF" font-family="Helvetica Neue, Helvetica, Arial, sans-serif"> 58224</text></g><g class="node" aria-label="graph-node648" transform="translate(212.99102605629997,-131.49638425305582)"><circle class="b-outline" cx="0" cy="0" r="25" fill="#C990C0" stroke="#b261a5" stroke-width="2px"/><text class="caption" text-anchor="middle" pointer-events="none" x="0" y="5" font-size="10px" fill="#FFFFFF" font-family="Helvetica Neue, Helvetica, Arial, sans-serif"> 5511</text></g><g class="node" aria-label="graph-node166" transform="translate(318.9714747566511,-159.07336341768823)"><circle class="b-outline" cx="0" cy="0" r="25" fill="#C990C0" stroke="#b261a5" stroke-width="2px"/><text class="caption" text-anchor="middle" pointer-events="none" x="0" y="5" font-size="10px" fill="#FFFFFF" font-family="Helvetica Neue, Helvetica, Arial, sans-serif"> 3491</text></g><g class="node" aria-label="graph-node577" transform="translate(104.17168260862663,-197.93686265816658)"><circle class="b-outline" cx="0" cy="0" r="25" fill="#C990C0" stroke="#b261a5" stroke-width="2px"/><text class="caption" text-anchor="middle" pointer-events="none" x="0" y="5" font-size="10px" fill="#FFFFFF" font-family="Helvetica Neue, Helvetica, Arial, sans-serif"> 1299</text></g><g class="node" aria-label="graph-node7924" transform="translate(198.3070860860403,-229.98992111151475)"><circle class="b-outline" cx="0" cy="0" r="25" fill="#C990C0" stroke="#b261a5" stroke-width="2px"/><text class="caption" text-anchor="middle" pointer-events="none" x="0" y="5" font-size="10px" fill="#FFFFFF" font-family="Helvetica Neue, Helvetica, Arial, sans-serif"> 6762</text></g><g class="node" aria-label="graph-node20" transform="translate(240.63557478072636,-320.5737769766386)"><circle class="b-outline" cx="0" cy="0" r="25" fill="#C990C0" stroke="#b261a5" stroke-width="2px"/><text class="caption" text-anchor="middle" pointer-events="none" x="0" y="5" font-size="10px" fill="#FFFFFF" font-family="Helvetica Neue, Helvetica, Arial, sans-serif"> 3356</text></g><g class="node" aria-label="graph-node39549" transform="translate(176.21965097034246,-39.29702178820844)"><circle class="b-outline" cx="0" cy="0" r="25" fill="#C990C0" stroke="#b261a5" stroke-width="2px"/><text class="caption" text-anchor="middle" pointer-events="none" x="0" y="5" font-size="10px" fill="#FFFFFF" font-family="Helvetica Neue, Helvetica, Arial, sans-serif"> 39533</text></g><g class="node" aria-label="graph-node13877" transform="translate(-186.65488229666195,45.26082811359315)"><circle class="b-outline" cx="0" cy="0" r="25" fill="#C990C0" stroke="#b261a5" stroke-width="2px"/><text class="caption" text-anchor="middle" pointer-events="none" x="0" y="5" font-size="10px" fill="#FFFFFF" font-family="Helvetica Neue, Helvetica, Arial, sans-serif"> 12880</text></g><g class="node" aria-label="graph-node48070" transform="translate(44.22874278619852,55.130246412783066)"><circle class="b-outline" cx="0" cy="0" r="25" fill="#C990C0" stroke="#b261a5" stroke-width="2px"/><text class="caption" text-anchor="middle" pointer-events="none" x="0" y="5" font-size="10px" fill="#FFFFFF" font-family="Helvetica Neue, Helvetica, Arial, sans-serif"> 48159</text></g><g class="node" aria-label="graph-node49559" transform="translate(4.9781761683107835,-110.46532773329193)"><circle class="b-outline" cx="0" cy="0" r="25" fill="#C990C0" stroke="#b261a5" stroke-width="2px"/><text class="caption" text-anchor="middle" pointer-events="none" x="0" y="5" font-size="10px" fill="#FFFFFF" font-family="Helvetica Neue, Helvetica, Arial, sans-serif"> 49666</text></g><g class="node" aria-label="graph-node29475" transform="translate(56.254786002579394,-310.4721668919096)"><circle class="b-outline" cx="0" cy="0" r="25" fill="#C990C0" stroke="#b261a5" stroke-width="2px"/><text class="caption" text-anchor="middle" pointer-events="none" x="0" y="5" font-size="10px" fill="#FFFFFF" font-family="Helvetica Neue, Helvetica, Arial, sans-serif"> 29049</text></g><g class="node" aria-label="graph-node57279" transform="translate(-67.19686299925432,-390.47738806463923)"><circle class="b-outline" cx="0" cy="0" r="25" fill="#C990C0" stroke="#b261a5" stroke-width="2px"/><text class="caption" text-anchor="middle" pointer-events="none" x="0" y="5" font-size="10px" fill="#FFFFFF" font-family="Helvetica Neue, Helvetica, Arial, sans-serif"> 57463</text></g><g class="node" aria-label="graph-node25247" transform="translate(-333.6583399928243,18.264566383300565)"><circle class="b-outline" cx="0" cy="0" r="25" fill="#C990C0" stroke="#b261a5" stroke-width="2px"/><text class="caption" text-anchor="middle" pointer-events="none" x="0" y="5" font-size="10px" fill="#FFFFFF" font-family="Helvetica Neue, Helvetica, Arial, sans-serif"> 24631</text></g><g class="node" aria-label="graph-node618" transform="translate(-208.28346168314184,-112.96726358374839)"><circle class="b-outline" cx="0" cy="0" r="25" fill="#C990C0" stroke="#b261a5" stroke-width="2px"/><text class="caption" text-anchor="middle" pointer-events="none" x="0" y="5" font-size="10px" fill="#FFFFFF" font-family="Helvetica Neue, Helvetica, Arial, sans-serif"> 42337</text></g><g class="node" aria-label="graph-node41690" transform="translate(-55.348420572660864,52.10805019945179)"><circle class="b-outline" cx="0" cy="0" r="25" fill="#C990C0" stroke="#b261a5" stroke-width="2px"/><text class="caption" text-anchor="middle" pointer-events="none" x="0" y="5" font-size="10px" fill="#FFFFFF" font-family="Helvetica Neue, Helvetica, Arial, sans-serif"> 41689</text></g><g class="node" aria-label="graph-node42428" transform="translate(-124.47803677093943,-59.68300114092731)"><circle class="b-outline" cx="0" cy="0" r="25" fill="#C990C0" stroke="#b261a5" stroke-width="2px"/><text class="caption" text-anchor="middle" pointer-events="none" x="0" y="5" font-size="10px" fill="#FFFFFF" font-family="Helvetica Neue, Helvetica, Arial, sans-serif"> 42440</text></g><g class="node" aria-label="graph-node1040" transform="translate(258.3182841415853,87.13465002955603)"><circle class="b-outline" cx="0" cy="0" r="25" fill="#C990C0" stroke="#b261a5" stroke-width="2px"/><text class="caption" text-anchor="middle" pointer-events="none" x="0" y="5" font-size="10px" fill="#FFFFFF" font-family="Helvetica Neue, Helvetica, Arial, sans-serif"> 6736</text></g></g></svg>