<svg xmlns="http://www.w3.org/2000/svg" width="535.1879272460938" height="719.6498413085938" viewBox="-201.18133544921875 -601.5128784179688 535.1879272460938 719.6498413085938"><title>Neo4j Graph Visualization</title><desc>Created using Neo4j (http://www.neo4j.com/)</desc><g class="layer relationships"><g class="relationship" transform="translate(111.43882075460385 -218.81445439139742) rotate(439.01967037240934)"><path class="b-outline" fill="#A5ABB6" stroke="none" d="M 25 0.5 L 56.28756181772172 0.5 L 56.28756181772172 -0.5 L 25 -0.5 Z M 114.29537431772172 0.5 L 145.58293613544345 0.5 L 145.58293613544345 3.5 L 152.58293613544345 0 L 145.58293613544345 -3.5 L 145.58293613544345 -0.5 L 114.29537431772172 -0.5 Z"/><text text-anchor="middle" pointer-events="none" font-size="8px" fill="#000000" x="85.29146806772172" y="3" font-family="Helvetica Neue, Helvetica, Arial, sans-serif">PEERS_WITH</text></g><g class="relationship" transform="translate(145.26339403646094 -44.482594283196704) rotate(332.24971582540616)"><path class="b-outline" fill="#A5ABB6" stroke="none" d="M 25 0.5 L 34.356523341495944 0.5 L 34.356523341495944 -0.5 L 25 -0.5 Z M 92.36433584149594 0.5 L 101.72085918299189 0.5 L 101.72085918299189 3.5 L 108.72085918299189 0 L 101.72085918299189 -3.5 L 101.72085918299189 -0.5 L 92.36433584149594 -0.5 Z"/><text text-anchor="middle" pointer-events="none" font-size="8px" fill="#000000" x="63.360429591495944" y="3" font-family="Helvetica Neue, Helvetica, Arial, sans-serif">PEERS_WITH</text></g><g class="relationship" transform="translate(145.26339403646094 -44.482594283196704) rotate(466.7223252659558)"><path class="b-outline" fill="#A5ABB6" stroke="none" d="M 25 0.5 L 37.255947808185255 0.5 L 37.255947808185255 -0.5 L 25 -0.5 Z M 95.26376030818525 0.5 L 107.51970811637051 0.5 L 107.51970811637051 3.5 L 114.51970811637051 0 L 107.51970811637051 -3.5 L 107.51970811637051 -0.5 L 95.26376030818525 -0.5 Z"/><text text-anchor="middle" pointer-events="none" font-size="8px" fill="#000000" x="66.25985405818525" y="3" transform="rotate(180 66.25985405818525 0)" font-family="Helvetica Neue, Helvetica, Arial, sans-serif">PEERS_WITH</text></g><g class="relationship" transform="translate(145.26339403646094 -44.482594283196704) rotate(389.19694436538566)"><path class="b-outline" fill="#A5ABB6" stroke="none" d="M 25 0.5 L 44.42772995969537 0.5 L 44.42772995969537 -0.5 L 25 -0.5 Z M 102.43554245969537 0.5 L 121.86327241939074 0.5 L 121.86327241939074 3.5 L 128.86327241939074 0 L 121.86327241939074 -3.5 L 121.86327241939074 -0.5 L 102.43554245969537 -0.5 Z"/><text text-anchor="middle" pointer-events="none" font-size="8px" fill="#000000" x="73.43163620969537" y="3" font-family="Helvetica Neue, Helvetica, Arial, sans-serif">PEERS_WITH</text></g><g class="relationship" transform="translate(189.69311473080293 -479.9301254143943) rotate(432.27547911582934)"><path class="b-outline" fill="#A5ABB6" stroke="none" d="M 25 0.5 L 39.84890535780703 0.5 L 39.84890535780703 -0.5 L 25 -0.5 Z M 97.85671785780703 0.5 L 112.70562321561405 0.5 L 112.70562321561405 3.5 L 119.70562321561405 0 L 112.70562321561405 -3.5 L 112.70562321561405 -0.5 L 97.85671785780703 -0.5 Z"/><text text-anchor="middle" pointer-events="none" font-size="8px" fill="#000000" x="68.85281160780703" y="3" font-family="Helvetica Neue, Helvetica, Arial, sans-serif">PEERS_WITH</text></g><g class="relationship" transform="translate(233.74740228890053 -342.0934933532194) rotate(494.77359271908006)"><path class="b-outline" fill="#A5ABB6" stroke="none" d="M 25 0.5 L 54.32510757067247 0.5 L 54.32510757067247 -0.5 L 25 -0.5 Z M 112.33292007067247 0.5 L 141.65802764134494 0.5 L 141.65802764134494 3.5 L 148.65802764134494 0 L 141.65802764134494 -3.5 L 141.65802764134494 -0.5 L 112.33292007067247 -0.5 Z"/><text text-anchor="middle" pointer-events="none" font-size="8px" fill="#000000" x="83.32901382067247" y="3" transform="rotate(180 83.32901382067247 0)" font-family="Helvetica Neue, Helvetica, Arial, sans-serif">PEERS_WITH</text></g><g class="relationship" transform="translate(111.43882075460385 -218.81445439139742) rotate(353.54205234494884)"><path class="b-outline" fill="#A5ABB6" stroke="none" d="M 25 0.5 L 64.89801181623432 0.5 L 64.89801181623432 -0.5 L 25 -0.5 Z M 122.90582431623432 0.5 L 162.80383613246863 0.5 L 162.80383613246863 3.5 L 169.80383613246863 0 L 162.80383613246863 -3.5 L 162.80383613246863 -0.5 L 122.90582431623432 -0.5 Z"/><text text-anchor="middle" pointer-events="none" font-size="8px" fill="#000000" x="93.90191806623432" y="3" font-family="Helvetica Neue, Helvetica, Arial, sans-serif">PEERS_WITH</text></g><g class="relationship" transform="translate(263.6043924750695 -106.74555493550415) rotate(287.17215630443735)"><path class="b-outline" fill="#A5ABB6" stroke="none" d="M 25 0.5 L 37.6113218277969 0.5 L 37.6113218277969 -0.5 L 25 -0.5 Z M 95.6191343277969 0.5 L 108.2304561555938 0.5 L 108.2304561555938 3.5 L 115.2304561555938 0 L 108.2304561555938 -3.5 L 108.2304561555938 -0.5 L 95.6191343277969 -0.5 Z"/><text text-anchor="middle" pointer-events="none" font-size="8px" fill="#000000" x="66.6152280777969" y="3" font-family="Helvetica Neue, Helvetica, Arial, sans-serif">PEERS_WITH</text></g><g class="relationship" transform="translate(189.69311473080293 -479.9301254143943) rotate(207.03720579493506)"><path class="b-outline" fill="#A5ABB6" stroke="none" d="M 24.018736134675446,6.953439040707552 L 24.277555179777966,5.987513214418485 A 295.87724888865347 295.87724888865347 0 0 0 69.41342409373253,14.393833249784564 L 69.30715435440965,15.38817058816835 A 296.87724888865347 296.87724888865347 0 0 1 24.018736134675446,6.953439040707552 Z M 127.31797772288341,15.88761772893696 L 127.22884406371202,14.891598055033512 A 295.87724888865347 295.87724888865347 0 0 0 172.50276069113366,7.263665676731522 L 171.77631208358903,4.352948854263824 L 179.41550804481574,6.053738396205316 L 173.4713588345265,11.144621440021787 L 172.7449102269819,8.233904617554089 A 296.87724888865347 296.87724888865347 0 0 1 127.31797772288341,15.88761772893696"/><text text-anchor="middle" pointer-events="none" font-size="8px" fill="#000000" x="98.30464173858887" y="19.558302212658475" transform="rotate(180 98.30464173858887 16.558302212658475)" font-family="Helvetica Neue, Helvetica, Arial, sans-serif">PEERS_WITH</text></g><g class="relationship" transform="translate(-21.21491616672847 -433.447863350327) rotate(281.9748932020182)"><path class="b-outline" fill="#A5ABB6" stroke="none" d="M 24.018736134675446,-6.953439040707552 L 24.277555179777966,-5.987513214418485 A 175.40582130802 175.40582130802 0 0 1 38.782598582170394,-9.222349167778077 L 38.60647373327087,-10.206717004310804 A 176.40582130802 176.40582130802 0 0 0 24.018736134675446,-6.953439040707552 Z M 96.51165753961041,-10.911180576283272 L 96.35953254178163,-9.922819313871798 A 175.40582130802 175.40582130802 0 0 1 110.93898004778147,-7.041819804980662 L 110.2332499177789,-4.126010314700721 L 117.86015721343509,-5.881084416688008 L 111.87995355445155,-10.929565792020583 L 111.17422342444898,-8.013756301740642 A 176.40582130802 176.40582130802 0 0 0 96.51165753961041,-10.911180576283272"/><text text-anchor="middle" pointer-events="none" font-size="8px" fill="#000000" x="67.5360435814675" y="-9.451305439891712" font-family="Helvetica Neue, Helvetica, Arial, sans-serif">PEERS_WITH</text></g><g class="relationship" transform="translate(-136.9068739951665 -430.2929218646739) rotate(315.59156321634595)"><path class="b-outline" fill="#A5ABB6" stroke="none" d="M 24.018736134675446,6.953439040707552 L 24.277555179777966,5.987513214418485 A 295.03282842212485 295.03282842212485 0 0 0 69.19737390416262,14.360505694364974 L 69.09080848779905,15.354811387819097 A 296.03282842212485 296.03282842212485 0 0 1 24.018736134675446,6.953439040707552 Z M 127.10137191658113,15.85528593450033 L 127.01197743303096,14.85928963615845 A 295.03282842212485 295.03282842212485 0 0 0 172.06957175049365,7.2625593116202065 L 171.3432264618019,4.351816705068526 L 178.98236204722951,6.0528774057647 L 173.038032135416,11.143549453689115 L 172.31168684672423,8.232806847137434 A 296.03282842212485 296.03282842212485 0 0 1 127.10137191658113,15.85528593450033"/><text text-anchor="middle" pointer-events="none" font-size="8px" fill="#000000" x="98.08811455030963" y="19.529515374534128" font-family="Helvetica Neue, Helvetica, Arial, sans-serif">PEERS_WITH</text></g><g class="relationship" transform="translate(108.97258947899783 -397.649313030399) rotate(240.0652898987364)"><path class="b-outline" fill="#A5ABB6" stroke="none" d="M 24.018736134675446,6.953439040707552 L 24.277555179777966,5.987513214418485 A 292.19242273433355 292.19242273433355 0 0 0 68.47072835321032,14.248215366407408 L 68.36315612265511,15.242412638186693 A 293.19242273433355 293.19242273433355 0 0 1 24.018736134675446,6.953439040707552 Z M 126.37282277972892,15.74637390289638 L 126.2825397379136,14.750457755642742 A 292.19242273433355 292.19242273433355 0 0 0 170.6125621208823,7.258804352933583 L 169.88656749267352,4.34797426517305 L 177.525498097025,6.049955235073177 L 171.58055495849402,11.139911136614293 L 170.85456033028524,8.229081048853761 A 293.19242273433355 293.19242273433355 0 0 1 126.37282277972892,15.74637390289638"/><text text-anchor="middle" pointer-events="none" font-size="8px" fill="#000000" x="97.35983801375916" y="19.432683971371375" transform="rotate(180 97.35983801375916 16.432683971371375)" font-family="Helvetica Neue, Helvetica, Arial, sans-serif">PEERS_WITH</text></g><g class="relationship" transform="translate(8.280577475684822 -572.5128653268491) rotate(495.59156321634595)"><path class="b-outline" fill="#A5ABB6" stroke="none" d="M 24.018736134675446,6.953439040707552 L 24.277555179777966,5.987513214418485 A 295.03282842212485 295.03282842212485 0 0 0 69.19737390416262,14.360505694364974 L 69.09080848779905,15.354811387819097 A 296.03282842212485 296.03282842212485 0 0 1 24.018736134675446,6.953439040707552 Z M 127.10137191658113,15.85528593450033 L 127.01197743303096,14.85928963615845 A 295.03282842212485 295.03282842212485 0 0 0 172.06957175049365,7.2625593116202065 L 171.3432264618019,4.351816705068526 L 178.98236204722951,6.0528774057647 L 173.038032135416,11.143549453689115 L 172.31168684672423,8.232806847137434 A 296.03282842212485 296.03282842212485 0 0 1 127.10137191658113,15.85528593450033"/><text text-anchor="middle" pointer-events="none" font-size="8px" fill="#000000" x="98.08811455030963" y="19.529515374534128" transform="rotate(180 98.08811455030963 16.529515374534128)" font-family="Helvetica Neue, Helvetica, Arial, sans-serif">PEERS_WITH</text></g><g class="relationship" transform="translate(8.280577475684822 -572.5128653268491) rotate(387.03720579493506)"><path class="b-outline" fill="#A5ABB6" stroke="none" d="M 24.018736134675446,6.953439040707552 L 24.277555179777966,5.987513214418485 A 295.87724888865347 295.87724888865347 0 0 0 69.41342409373253,14.393833249784564 L 69.30715435440965,15.38817058816835 A 296.87724888865347 296.87724888865347 0 0 1 24.018736134675446,6.953439040707552 Z M 127.31797772288341,15.88761772893696 L 127.22884406371202,14.891598055033512 A 295.87724888865347 295.87724888865347 0 0 0 172.50276069113366,7.263665676731522 L 171.77631208358903,4.352948854263824 L 179.41550804481574,6.053738396205316 L 173.4713588345265,11.144621440021787 L 172.7449102269819,8.233904617554089 A 296.87724888865347 296.87724888865347 0 0 1 127.31797772288341,15.88761772893696"/><text text-anchor="middle" pointer-events="none" font-size="8px" fill="#000000" x="98.30464173858887" y="19.558302212658475" font-family="Helvetica Neue, Helvetica, Arial, sans-serif">PEERS_WITH</text></g><g class="relationship" transform="translate(8.280577475684822 -572.5128653268491) rotate(420.0652898987364)"><path class="b-outline" fill="#A5ABB6" stroke="none" d="M 24.018736134675446,6.953439040707552 L 24.277555179777966,5.987513214418485 A 292.19242273433355 292.19242273433355 0 0 0 68.47072835321032,14.248215366407408 L 68.36315612265511,15.242412638186693 A 293.19242273433355 293.19242273433355 0 0 1 24.018736134675446,6.953439040707552 Z M 126.37282277972892,15.74637390289638 L 126.2825397379136,14.750457755642742 A 292.19242273433355 292.19242273433355 0 0 0 170.6125621208823,7.258804352933583 L 169.88656749267352,4.34797426517305 L 177.525498097025,6.049955235073177 L 171.58055495849402,11.139911136614293 L 170.85456033028524,8.229081048853761 A 293.19242273433355 293.19242273433355 0 0 1 126.37282277972892,15.74637390289638"/><text text-anchor="middle" pointer-events="none" font-size="8px" fill="#000000" x="97.35983801375916" y="19.432683971371375" font-family="Helvetica Neue, Helvetica, Arial, sans-serif">PEERS_WITH</text></g><g class="relationship" transform="translate(8.280577475684822 -572.5128653268491) rotate(461.9748932020182)"><path class="b-outline" fill="#A5ABB6" stroke="none" d="M 24.018736134675446,-6.953439040707552 L 24.277555179777966,-5.987513214418485 A 175.40582130802 175.40582130802 0 0 1 38.782598582170394,-9.222349167778077 L 38.60647373327087,-10.206717004310804 A 176.40582130802 176.40582130802 0 0 0 24.018736134675446,-6.953439040707552 Z M 96.51165753961041,-10.911180576283272 L 96.35953254178163,-9.922819313871798 A 175.40582130802 175.40582130802 0 0 1 110.93898004778147,-7.041819804980662 L 110.2332499177789,-4.126010314700721 L 117.86015721343509,-5.881084416688008 L 111.87995355445155,-10.929565792020583 L 111.17422342444898,-8.013756301740642 A 176.40582130802 176.40582130802 0 0 0 96.51165753961041,-10.911180576283272"/><text text-anchor="middle" pointer-events="none" font-size="8px" fill="#000000" x="67.5360435814675" y="-9.451305439891712" transform="rotate(180 67.5360435814675 -12.451305439891712)" font-family="Helvetica Neue, Helvetica, Arial, sans-serif">PEERS_WITH</text></g><g class="relationship" transform="translate(8.280577475684822 -572.5128653268491) rotate(433.74036158836384)"><path class="b-outline" fill="#A5ABB6" stroke="none" d="M 25 0.5 L 151.71348506706343 0.5 L 151.71348506706343 -0.5 L 25 -0.5 Z M 209.72129756706343 0.5 L 336.43478263412686 0.5 L 336.43478263412686 3.5 L 343.43478263412686 0 L 336.43478263412686 -3.5 L 336.43478263412686 -0.5 L 209.72129756706343 -0.5 Z"/><text text-anchor="middle" pointer-events="none" font-size="8px" fill="#000000" x="180.71739131706343" y="3" font-family="Helvetica Neue, Helvetica, Arial, sans-serif">PEERS_WITH</text></g><g class="relationship" transform="translate(-45.0528791324167 -235.62127716651636) rotate(188.88449027583692)"><path class="b-outline" fill="#A5ABB6" stroke="none" d="M 25 0.5 L 29.907062257008988 0.5 L 29.907062257008988 -0.5 L 25 -0.5 Z M 87.91487475700899 0.5 L 92.82193701401798 0.5 L 92.82193701401798 3.5 L 99.82193701401798 0 L 92.82193701401798 -3.5 L 92.82193701401798 -0.5 L 87.91487475700899 -0.5 Z"/><text text-anchor="middle" pointer-events="none" font-size="8px" fill="#000000" x="58.91096850700899" y="3" transform="rotate(180 58.91096850700899 0)" font-family="Helvetica Neue, Helvetica, Arial, sans-serif">PEERS_WITH</text></g><g class="relationship" transform="translate(52.75207163529515 -47.23806896656605) rotate(428.9936444177736)"><path class="b-outline" fill="#A5ABB6" stroke="none" d="M 25 0.5 L 40.537880813552974 0.5 L 40.537880813552974 -0.5 L 25 -0.5 Z M 98.54569331355297 0.5 L 114.08357412710595 0.5 L 114.08357412710595 3.5 L 121.08357412710595 0 L 114.08357412710595 -3.5 L 114.08357412710595 -0.5 L 98.54569331355297 -0.5 Z"/><text text-anchor="middle" pointer-events="none" font-size="8px" fill="#000000" x="69.54178706355297" y="3" font-family="Helvetica Neue, Helvetica, Arial, sans-serif">PEERS_WITH</text></g><g class="relationship" transform="translate(-21.21491616672847 -433.447863350327) rotate(538.4379204420848)"><path class="b-outline" fill="#A5ABB6" stroke="none" d="M 25 0.5 L 25.36357762902091 0.5 L 25.36357762902091 -0.5 L 25 -0.5 Z M 83.37139012902091 0.5 L 83.73496775804182 0.5 L 83.73496775804182 3.5 L 90.73496775804182 0 L 83.73496775804182 -3.5 L 83.73496775804182 -0.5 L 83.37139012902091 -0.5 Z"/><text text-anchor="middle" pointer-events="none" font-size="8px" fill="#000000" x="54.36748387902091" y="3" transform="rotate(180 54.36748387902091 0)" font-family="Helvetica Neue, Helvetica, Arial, sans-serif">PEERS_WITH</text></g><g class="relationship" transform="translate(-136.9068739951665 -430.2929218646739) rotate(400.41601373042045)"><path class="b-outline" fill="#A5ABB6" stroke="none" d="M 25 0.5 L 130.59018185989422 0.5 L 130.59018185989422 -0.5 L 25 -0.5 Z M 188.59799435989422 0.5 L 294.18817621978843 0.5 L 294.18817621978843 3.5 L 301.18817621978843 0 L 294.18817621978843 -3.5 L 294.18817621978843 -0.5 L 188.59799435989422 -0.5 Z"/><text text-anchor="middle" pointer-events="none" font-size="8px" fill="#000000" x="159.59408810989422" y="3" font-family="Helvetica Neue, Helvetica, Arial, sans-serif">PEERS_WITH</text></g><g class="relationship" transform="translate(263.6043924750695 -106.74555493550415) rotate(443.3649040055651)"><path class="b-outline" fill="#A5ABB6" stroke="none" d="M 25 0.5 L 36.618806180365766 0.5 L 36.618806180365766 -0.5 L 25 -0.5 Z M 94.62661868036577 0.5 L 106.24542486073153 0.5 L 106.24542486073153 3.5 L 113.24542486073153 0 L 106.24542486073153 -3.5 L 106.24542486073153 -0.5 L 94.62661868036577 -0.5 Z"/><text text-anchor="middle" pointer-events="none" font-size="8px" fill="#000000" x="65.62271243036577" y="3" font-family="Helvetica Neue, Helvetica, Arial, sans-serif">PEERS_WITH</text></g><g class="relationship" transform="translate(111.43882075460385 -218.81445439139742) rotate(518.8761876590139)"><path class="b-outline" fill="#A5ABB6" stroke="none" d="M 25 0.5 L 47.85672993012169 0.5 L 47.85672993012169 -0.5 L 25 -0.5 Z M 105.86454243012169 0.5 L 128.72127236024338 0.5 L 128.72127236024338 3.5 L 135.72127236024338 0 L 128.72127236024338 -3.5 L 128.72127236024338 -0.5 L 105.86454243012169 -0.5 Z"/><text text-anchor="middle" pointer-events="none" font-size="8px" fill="#000000" x="76.86063618012169" y="3" transform="rotate(180 76.86063618012169 0)" font-family="Helvetica Neue, Helvetica, Arial, sans-serif">PEERS_WITH</text></g><g class="relationship" transform="translate(-38.4825989886344 -160.89299643955283) rotate(524.0690228544494)"><path class="b-outline" fill="#A5ABB6" stroke="none" d="M 25 0.5 L 37.01549228373919 0.5 L 37.01549228373919 -0.5 L 25 -0.5 Z M 95.02330478373919 0.5 L 107.03879706747838 0.5 L 107.03879706747838 3.5 L 114.03879706747838 0 L 107.03879706747838 -3.5 L 107.03879706747838 -0.5 L 95.02330478373919 -0.5 Z"/><text text-anchor="middle" pointer-events="none" font-size="8px" fill="#000000" x="66.01939853373919" y="3" transform="rotate(180 66.01939853373919 0)" font-family="Helvetica Neue, Helvetica, Arial, sans-serif">PEERS_WITH</text></g><g class="relationship" transform="translate(-172.18134021711404 -122.72974600288961) rotate(424.42531937597084)"><path class="b-outline" fill="#A5ABB6" stroke="none" d="M 25 0.5 L 36.630005550928914 0.5 L 36.630005550928914 -0.5 L 25 -0.5 Z M 94.63781805092891 0.5 L 106.26782360185783 0.5 L 106.26782360185783 3.5 L 113.26782360185783 0 L 106.26782360185783 -3.5 L 106.26782360185783 -0.5 L 94.63781805092891 -0.5 Z"/><text text-anchor="middle" pointer-events="none" font-size="8px" fill="#000000" x="65.63391180092891" y="3" font-family="Helvetica Neue, Helvetica, Arial, sans-serif">PEERS_WITH</text></g><g class="relationship" transform="translate(111.43882075460385 -218.81445439139742) rotate(494.3925595648841)"><path class="b-outline" fill="#A5ABB6" stroke="none" d="M 25 0.5 L 60.56192675289452 0.5 L 60.56192675289452 -0.5 L 25 -0.5 Z M 118.56973925289452 0.5 L 154.13166600578904 0.5 L 154.13166600578904 3.5 L 161.13166600578904 0 L 154.13166600578904 -3.5 L 154.13166600578904 -0.5 L 118.56973925289452 -0.5 Z"/><text text-anchor="middle" pointer-events="none" font-size="8px" fill="#000000" x="89.56583300289452" y="3" transform="rotate(180 89.56583300289452 0)" font-family="Helvetica Neue, Helvetica, Arial, sans-serif">PEERS_WITH</text></g><g class="relationship" transform="translate(-21.21491616672847 -433.447863350327) rotate(418.2819470513711)"><path class="b-outline" fill="#A5ABB6" stroke="none" d="M 25 0.5 L 93.65523349077063 0.5 L 93.65523349077063 -0.5 L 25 -0.5 Z M 151.66304599077063 0.5 L 220.31827948154125 0.5 L 220.31827948154125 3.5 L 227.31827948154125 0 L 220.31827948154125 -3.5 L 220.31827948154125 -0.5 L 151.66304599077063 -0.5 Z"/><text text-anchor="middle" pointer-events="none" font-size="8px" fill="#000000" x="122.65913974077063" y="3" font-family="Helvetica Neue, Helvetica, Arial, sans-serif">PEERS_WITH</text></g><g class="relationship" transform="translate(189.69311473080293 -479.9301254143943) rotate(466.6830561428714)"><path class="b-outline" fill="#A5ABB6" stroke="none" d="M 25 0.5 L 103.79092873972303 0.5 L 103.79092873972303 -0.5 L 25 -0.5 Z M 161.79874123972303 0.5 L 240.58966997944606 0.5 L 240.58966997944606 3.5 L 247.58966997944606 0 L 240.58966997944606 -3.5 L 240.58966997944606 -0.5 L 161.79874123972303 -0.5 Z"/><text text-anchor="middle" pointer-events="none" font-size="8px" fill="#000000" x="132.79483498972303" y="3" transform="rotate(180 132.79483498972303 0)" font-family="Helvetica Neue, Helvetica, Arial, sans-serif">PEERS_WITH</text></g><g class="relationship" transform="translate(108.97258947899783 -397.649313030399) rotate(449.20990970243054)"><path class="b-outline" fill="#A5ABB6" stroke="none" d="M 25 0.5 L 56.92202533745463 0.5 L 56.92202533745463 -0.5 L 25 -0.5 Z M 114.92983783745463 0.5 L 146.85186317490925 0.5 L 146.85186317490925 3.5 L 153.85186317490925 0 L 146.85186317490925 -3.5 L 146.85186317490925 -0.5 L 114.92983783745463 -0.5 Z"/><text text-anchor="middle" pointer-events="none" font-size="8px" fill="#000000" x="85.92593158745463" y="3" font-family="Helvetica Neue, Helvetica, Arial, sans-serif">PEERS_WITH</text></g><g class="relationship" transform="translate(111.43882075460385 -218.81445439139742) rotate(396.3713910297718)"><path class="b-outline" fill="#A5ABB6" stroke="none" d="M 25 0.5 L 61.98656872270729 0.5 L 61.98656872270729 -0.5 L 25 -0.5 Z M 119.99438122270729 0.5 L 156.98094994541458 0.5 L 156.98094994541458 3.5 L 163.98094994541458 0 L 156.98094994541458 -3.5 L 156.98094994541458 -0.5 L 119.99438122270729 -0.5 Z"/><text text-anchor="middle" pointer-events="none" font-size="8px" fill="#000000" x="90.99047497270729" y="3" font-family="Helvetica Neue, Helvetica, Arial, sans-serif">PEERS_WITH</text></g><g class="relationship" transform="translate(111.43882075460385 -218.81445439139742) rotate(186.1299295197262)"><path class="b-outline" fill="#A5ABB6" stroke="none" d="M 25 0.5 L 46.19190276376446 0.5 L 46.19190276376446 -0.5 L 25 -0.5 Z M 104.19971526376446 0.5 L 125.39161802752892 0.5 L 125.39161802752892 3.5 L 132.39161802752892 0 L 125.39161802752892 -3.5 L 125.39161802752892 -0.5 L 104.19971526376446 -0.5 Z"/><text text-anchor="middle" pointer-events="none" font-size="8px" fill="#000000" x="75.19580901376446" y="3" transform="rotate(180 75.19580901376446 0)" font-family="Helvetica Neue, Helvetica, Arial, sans-serif">PEERS_WITH</text></g><g class="relationship" transform="translate(111.43882075460385 -218.81445439139742) rotate(468.88296766270764)"><path class="b-outline" fill="#A5ABB6" stroke="none" d="M 25 0.5 L 58.16388097021809 0.5 L 58.16388097021809 -0.5 L 25 -0.5 Z M 116.17169347021809 0.5 L 149.33557444043618 0.5 L 149.33557444043618 3.5 L 156.33557444043618 0 L 149.33557444043618 -3.5 L 149.33557444043618 -0.5 L 116.17169347021809 -0.5 Z"/><text text-anchor="middle" pointer-events="none" font-size="8px" fill="#000000" x="87.16778722021809" y="3" transform="rotate(180 87.16778722021809 0)" font-family="Helvetica Neue, Helvetica, Arial, sans-serif">PEERS_WITH</text></g><g class="relationship" transform="translate(108.97258947899783 -397.649313030399) rotate(195.37501814475502)"><path class="b-outline" fill="#A5ABB6" stroke="none" d="M 24.018736134675446,6.953439040707552 L 24.277555179777966,5.987513214418485 A 161.3279237444989 161.3279237444989 0 0 0 35.24657800997164,8.520017361960214 L 35.05575105560951,9.5016410543642 A 162.3279237444989 162.3279237444989 0 0 1 24.018736134675446,6.953439040707552 Z M 92.92704920634917,10.241142227048925 L 92.76136757724771,9.254962934131925 A 161.3279237444989 161.3279237444989 0 0 0 103.79152080806774,7.003572516799682 L 103.08936288810033,4.086900739683335 L 110.71411460800046,5.851315999728442 L 104.7277313680243,10.89246821962148 L 104.02557344805687,7.975796442505132 A 162.3279237444989 162.3279237444989 0 0 1 92.92704920634917,10.241142227048925"/><text text-anchor="middle" pointer-events="none" font-size="8px" fill="#000000" x="63.964565201437665" y="14.971418342114333" transform="rotate(180 63.964565201437665 11.971418342114333)" font-family="Helvetica Neue, Helvetica, Arial, sans-serif">PEERS_WITH</text></g><g class="relationship" transform="translate(189.69311473080293 -479.9301254143943) rotate(527.5712069773177)"><path class="b-outline" fill="#A5ABB6" stroke="none" d="M 24.018736134675446,6.953439040707552 L 24.277555179777966,5.987513214418485 A 319.8505813769213 319.8505813769213 0 0 0 75.55186306540809,15.330361067555259 L 75.45335108513846,16.325496932522128 A 320.8505813769213 320.8505813769213 0 0 1 24.018736134675446,6.953439040707552 Z M 133.47044149955315,16.797418370829348 L 133.388130711276,15.80081166097176 A 319.8505813769213 319.8505813769213 0 0 0 184.8076366795592,7.2932937423943605 L 184.07842125230286,4.383268852354526 L 191.71923066086154,6.0767952271362 L 185.779923915901,11.17332692911414 L 185.05070848864466,8.263302039074306 A 320.8505813769213 320.8505813769213 0 0 1 133.47044149955315,16.797418370829348"/><text text-anchor="middle" pointer-events="none" font-size="8px" fill="#000000" x="104.45527423729368" y="20.37556003292542" transform="rotate(180 104.45527423729368 17.37556003292542)" font-family="Helvetica Neue, Helvetica, Arial, sans-serif">PEERS_WITH</text></g><g class="relationship" transform="translate(-21.21491616672847 -433.447863350327) rotate(347.57120697731773)"><path class="b-outline" fill="#A5ABB6" stroke="none" d="M 24.018736134675446,6.953439040707552 L 24.277555179777966,5.987513214418485 A 319.8505813769213 319.8505813769213 0 0 0 75.55186306540809,15.330361067555259 L 75.45335108513846,16.325496932522128 A 320.8505813769213 320.8505813769213 0 0 1 24.018736134675446,6.953439040707552 Z M 133.47044149955315,16.797418370829348 L 133.388130711276,15.80081166097176 A 319.8505813769213 319.8505813769213 0 0 0 184.8076366795592,7.2932937423943605 L 184.07842125230286,4.383268852354526 L 191.71923066086154,6.0767952271362 L 185.779923915901,11.17332692911414 L 185.05070848864466,8.263302039074306 A 320.8505813769213 320.8505813769213 0 0 1 133.47044149955315,16.797418370829348"/><text text-anchor="middle" pointer-events="none" font-size="8px" fill="#000000" x="104.45527423729368" y="20.37556003292542" font-family="Helvetica Neue, Helvetica, Arial, sans-serif">PEERS_WITH</text></g><g class="relationship" transform="translate(-21.21491616672847 -433.447863350327) rotate(375.375018144755)"><path class="b-outline" fill="#A5ABB6" stroke="none" d="M 24.018736134675446,6.953439040707552 L 24.277555179777966,5.987513214418485 A 161.3279237444989 161.3279237444989 0 0 0 35.24657800997164,8.520017361960214 L 35.05575105560951,9.5016410543642 A 162.3279237444989 162.3279237444989 0 0 1 24.018736134675446,6.953439040707552 Z M 92.92704920634917,10.241142227048925 L 92.76136757724771,9.254962934131925 A 161.3279237444989 161.3279237444989 0 0 0 103.79152080806774,7.003572516799682 L 103.08936288810033,4.086900739683335 L 110.71411460800046,5.851315999728442 L 104.7277313680243,10.89246821962148 L 104.02557344805687,7.975796442505132 A 162.3279237444989 162.3279237444989 0 0 1 92.92704920634917,10.241142227048925"/><text text-anchor="middle" pointer-events="none" font-size="8px" fill="#000000" x="63.964565201437665" y="14.971418342114333" font-family="Helvetica Neue, Helvetica, Arial, sans-serif">PEERS_WITH</text></g><g class="relationship" transform="translate(108.97258947899783 -397.649313030399) rotate(314.4515680760055)"><path class="b-outline" fill="#A5ABB6" stroke="none" d="M 24.018736134675446,-6.953439040707552 L 24.277555179777966,-5.987513214418485 A 122.18560186330521 122.18560186330521 0 0 1 25.52383333804807,-6.314419540754585 L 25.275214170339158,-7.283020856801443 A 123.18560186330521 123.18560186330521 0 0 0 24.018736134675446,-6.953439040707552 Z M 82.97205572227125,-8.13965136040882 L 82.75230163304744,-7.164096061991842 A 122.18560186330521 122.18560186330521 0 0 1 84.00773554206702,-6.8743328930702585 L 83.3176488427963,-3.954781498165617 L 90.93503658005632,-5.750722493922681 L 84.92785114109466,-10.76706808627645 L 84.23776444182394,-7.847516691371807 A 123.18560186330521 123.18560186330521 0 0 0 82.97205572227125,-8.13965136040882"/><text text-anchor="middle" pointer-events="none" font-size="8px" fill="#000000" x="54.080191891392886" y="-7.637366696183349" font-family="Helvetica Neue, Helvetica, Arial, sans-serif">PEERS_WITH</text></g><g class="relationship" transform="translate(189.69311473080293 -479.9301254143943) rotate(494.4515680760055)"><path class="b-outline" fill="#A5ABB6" stroke="none" d="M 24.018736134675446,-6.953439040707552 L 24.277555179777966,-5.987513214418485 A 122.18560186330521 122.18560186330521 0 0 1 25.52383333804807,-6.314419540754585 L 25.275214170339158,-7.283020856801443 A 123.18560186330521 123.18560186330521 0 0 0 24.018736134675446,-6.953439040707552 Z M 82.97205572227125,-8.13965136040882 L 82.75230163304744,-7.164096061991842 A 122.18560186330521 122.18560186330521 0 0 1 84.00773554206702,-6.8743328930702585 L 83.3176488427963,-3.954781498165617 L 90.93503658005632,-5.750722493922681 L 84.92785114109466,-10.76706808627645 L 84.23776444182394,-7.847516691371807 A 123.18560186330521 123.18560186330521 0 0 0 82.97205572227125,-8.13965136040882"/><text text-anchor="middle" pointer-events="none" font-size="8px" fill="#000000" x="54.080191891392886" y="-7.637366696183349" transform="rotate(180 54.080191891392886 -10.63736669618335)" font-family="Helvetica Neue, Helvetica, Arial, sans-serif">PEERS_WITH</text></g></g><g class="layer nodes"><g class="node" aria-label="graph-node12841" transform="translate(145.26339403646094,-44.482594283196704)"><circle class="b-outline" cx="0" cy="0" r="25" fill="#F79767" stroke="#f36924" stroke-width="2px"/><text class="caption" text-anchor="middle" pointer-events="none" x="0" y="5" font-size="10px" fill="#FFFFFF" font-family="Helvetica Neue, Helvetica, Arial, sans-serif"> 12880</text></g><g class="node" aria-label="graph-node48603" transform="translate(111.43882075460385,-218.81445439139742)"><circle class="b-outline" cx="0" cy="0" r="25" fill="#F79767" stroke="#f36924" stroke-width="2px"/><text class="caption" text-anchor="middle" pointer-events="none" x="0" y="5" font-size="10px" fill="#FFFFFF" font-family="Helvetica Neue, Helvetica, Arial, sans-serif"> 49666</text></g><g class="node" aria-label="graph-node41350" transform="translate(263.6043924750695,-106.74555493550415)"><circle class="b-outline" cx="0" cy="0" r="25" fill="#F79767" stroke="#f36924" stroke-width="2px"/><text class="caption" text-anchor="middle" pointer-events="none" x="0" y="5" font-size="10px" fill="#FFFFFF" font-family="Helvetica Neue, Helvetica, Arial, sans-serif"> 42337</text></g><g class="node" aria-label="graph-node30154" transform="translate(105.11887038574622,89.13688847936466)"><circle class="b-outline" cx="0" cy="0" r="25" fill="#F79767" stroke="#f36924" stroke-width="2px"/><text class="caption" text-anchor="middle" pointer-events="none" x="0" y="5" font-size="10px" fill="#FFFFFF" font-family="Helvetica Neue, Helvetica, Arial, sans-serif"> 58224</text></g><g class="node" aria-label="graph-node24239" transform="translate(279.57804443398373,30.573926340896136)"><circle class="b-outline" cx="0" cy="0" r="25" fill="#F79767" stroke="#f36924" stroke-width="2px"/><text class="caption" text-anchor="middle" pointer-events="none" x="0" y="5" font-size="10px" fill="#FFFFFF" font-family="Helvetica Neue, Helvetica, Arial, sans-serif"> 24631</text></g><g class="node" aria-label="graph-node38582" transform="translate(233.74740228890053,-342.0934933532194)"><circle class="b-outline" cx="0" cy="0" r="25" fill="#F79767" stroke="#f36924" stroke-width="2px"/><text class="caption" text-anchor="middle" pointer-events="none" x="0" y="5" font-size="10px" fill="#FFFFFF" font-family="Helvetica Neue, Helvetica, Arial, sans-serif"> 39533</text></g><g class="node" aria-label="graph-node6762" transform="translate(189.69311473080293,-479.9301254143943)"><circle class="b-outline" cx="0" cy="0" r="25" fill="#F79767" stroke="#f36924" stroke-width="2px"/><text class="caption" text-anchor="middle" pointer-events="none" x="0" y="5" font-size="10px" fill="#FFFFFF" font-family="Helvetica Neue, Helvetica, Arial, sans-serif"> 6762</text></g><g class="node" aria-label="graph-node24710" transform="translate(305.00656299578566,-240.7248112022093)"><circle class="b-outline" cx="0" cy="0" r="25" fill="#F79767" stroke="#f36924" stroke-width="2px"/><text class="caption" text-anchor="middle" pointer-events="none" x="0" y="5" font-size="10px" fill="#FFFFFF" font-family="Helvetica Neue, Helvetica, Arial, sans-serif"> 25184</text></g><g class="node" aria-label="graph-node3257" transform="translate(8.280577475684822,-572.5128653268491)"><circle class="b-outline" cx="0" cy="0" r="25" fill="#F79767" stroke="#f36924" stroke-width="2px"/><text class="caption" text-anchor="middle" pointer-events="none" x="0" y="5" font-size="10px" fill="#FFFFFF" font-family="Helvetica Neue, Helvetica, Arial, sans-serif"> 3257</text></g><g class="node" aria-label="graph-node28490" transform="translate(-21.21491616672847,-433.447863350327)"><circle class="b-outline" cx="0" cy="0" r="25" fill="#F79767" stroke="#f36924" stroke-width="2px"/><text class="caption" text-anchor="middle" pointer-events="none" x="0" y="5" font-size="10px" fill="#FFFFFF" font-family="Helvetica Neue, Helvetica, Arial, sans-serif"> 29049</text></g><g class="node" aria-label="graph-node33122" transform="translate(-136.9068739951665,-430.2929218646739)"><circle class="b-outline" cx="0" cy="0" r="25" fill="#F79767" stroke="#f36924" stroke-width="2px"/><text class="caption" text-anchor="middle" pointer-events="none" x="0" y="5" font-size="10px" fill="#FFFFFF" font-family="Helvetica Neue, Helvetica, Arial, sans-serif"> 33891</text></g><g class="node" aria-label="graph-node6453" transform="translate(108.97258947899783,-397.649313030399)"><circle class="b-outline" cx="0" cy="0" r="25" fill="#F79767" stroke="#f36924" stroke-width="2px"/><text class="caption" text-anchor="middle" pointer-events="none" x="0" y="5" font-size="10px" fill="#FFFFFF" font-family="Helvetica Neue, Helvetica, Arial, sans-serif"> 6453</text></g><g class="node" aria-label="graph-node16099" transform="translate(-168.37716622500184,-254.89914460659153)"><circle class="b-outline" cx="0" cy="0" r="25" fill="#F79767" stroke="#f36924" stroke-width="2px"/><text class="caption" text-anchor="middle" pointer-events="none" x="0" y="5" font-size="10px" fill="#FFFFFF" font-family="Helvetica Neue, Helvetica, Arial, sans-serif"> 16322</text></g><g class="node" aria-label="graph-node41450" transform="translate(-45.0528791324167,-235.62127716651636)"><circle class="b-outline" cx="0" cy="0" r="25" fill="#F79767" stroke="#f36924" stroke-width="2px"/><text class="caption" text-anchor="middle" pointer-events="none" x="0" y="5" font-size="10px" fill="#FFFFFF" font-family="Helvetica Neue, Helvetica, Arial, sans-serif"> 42440</text></g><g class="node" aria-label="graph-node47097" transform="translate(52.75207163529515,-47.23806896656605)"><circle class="b-outline" cx="0" cy="0" r="25" fill="#F79767" stroke="#f36924" stroke-width="2px"/><text class="caption" text-anchor="middle" pointer-events="none" x="0" y="5" font-size="10px" fill="#FFFFFF" font-family="Helvetica Neue, Helvetica, Arial, sans-serif"> 48159</text></g><g class="node" aria-label="graph-node40721" transform="translate(-38.4825989886344,-160.89299643955283)"><circle class="b-outline" cx="0" cy="0" r="25" fill="#F79767" stroke="#f36924" stroke-width="2px"/><text class="caption" text-anchor="middle" pointer-events="none" x="0" y="5" font-size="10px" fill="#FFFFFF" font-family="Helvetica Neue, Helvetica, Arial, sans-serif"> 41689</text></g><g class="node" aria-label="graph-node42733" transform="translate(-172.18134021711404,-122.72974600288961)"><circle class="b-outline" cx="0" cy="0" r="25" fill="#F79767" stroke="#f36924" stroke-width="2px"/><text class="caption" text-anchor="middle" pointer-events="none" x="0" y="5" font-size="10px" fill="#FFFFFF" font-family="Helvetica Neue, Helvetica, Arial, sans-serif"> 43754</text></g><g class="node" aria-label="graph-node48037" transform="translate(-112.49289322441672,1.9910635646979244)"><circle class="b-outline" cx="0" cy="0" r="25" fill="#F79767" stroke="#f36924" stroke-width="2px"/><text class="caption" text-anchor="middle" pointer-events="none" x="0" y="5" font-size="10px" fill="#FFFFFF" font-family="Helvetica Neue, Helvetica, Arial, sans-serif"> 49100</text></g><g class="node" aria-label="graph-node103561" transform="translate(-18.77341178757449,-85.811553722005)"><circle class="b-outline" cx="0" cy="0" r="25" fill="#F79767" stroke="#f36924" stroke-width="2px"/><text class="caption" text-anchor="middle" pointer-events="none" x="0" y="5" font-size="10px" fill="#FFFFFF" font-family="Helvetica Neue, Helvetica, Arial, sans-serif"> 205647</text></g></g></svg>